<svg xmlns="http://www.w3.org/2000/svg" viewBox="0 0 750 500"><g id="freepik--background-simple--inject-6"><path d="M732.38,299.81C745.07,189,649.36,88.62,551.53,47.6c-71.85-30.12-149.6-11.19-218.82,16.34-23,9.16-45.58,20.09-69.17,27.79C246,97.45,228.31,100,209.93,97.61c-22.1-2.84-45.37-9.41-67.67-5.08-21,4.07-39.89,16.14-54.46,31.17-55.2,57-75.91,144.06-59.46,219.77q1.48,6.78,3.3,13.47c43,158.44,219.6,88.7,299.53,86.11s161.62,35.31,256.49,11.2C654.57,437.24,721.93,391.1,732.38,299.81Z" style="fill:#2CC9FF"></path><path d="M732.38,299.81C745.07,189,649.36,88.62,551.53,47.6c-71.85-30.12-149.6-11.19-218.82,16.34-23,9.16-45.58,20.09-69.17,27.79C246,97.45,228.31,100,209.93,97.61c-22.1-2.84-45.37-9.41-67.67-5.08-21,4.07-39.89,16.14-54.46,31.17-55.2,57-75.91,144.06-59.46,219.77q1.48,6.78,3.3,13.47c43,158.44,219.6,88.7,299.53,86.11s161.62,35.31,256.49,11.2C654.57,437.24,721.93,391.1,732.38,299.81Z" style="fill:#fff;opacity:0.8"></path></g><g id="freepik--Floor--inject-6"><line x1="705.78" y1="468.89" x2="717.24" y2="468.89" style="fill:none;stroke:#263238;stroke-miterlimit:10"></line><line x1="28.71" y1="468.89" x2="701.73" y2="468.89" style="fill:none;stroke:#263238;stroke-miterlimit:10"></line></g><g id="freepik--Plants--inject-6"><g style="opacity:0.30000000000000004"><path d="M146.18,140.13c.12,0-2.44-7.52-2.66-8-2.49-5.27-10.42-14-16.9-13.14-4.67.62-7.28,5.28-6.24,9.67s5.65,7.84,9.64,9.6C134.7,140.35,146.17,140.13,146.18,140.13Z"></path><path d="M47.79,201.69c5-.86,14.49-7.37,14.5-7.37s-6.18-4.93-6.61-5.19c-5-3-16.42-5.92-21.36-1.64-3.55,3.09-3.16,8.42.13,11.51S43.49,202.42,47.79,201.69Z"></path><path d="M69.33,227.3c4.46-2.08,11.39-10.18,11.94-10.82a137.13,137.13,0,0,0,14.62,11c3,2,6,3.83,9.09,5.67-1.53-.63-2.9-1.18-3.1-1.24-5.62-1.59-17.4-1.37-21,4.06-2.61,3.92-.83,9,3.17,11.07s9.62.91,13.57-.93,10-8.66,11.63-10.47l3.56,2.09c5.72,3.3,11.44,6.58,16.95,10,1.94,1.19,3.81,2.43,5.69,3.67-1.36-.56-2.51-1-2.7-1.07-5.61-1.59-17.4-1.37-21,4.06-2.62,3.92-.83,9,3.16,11.07s9.62.91,13.57-.93,9.47-8,11.35-10.15c1.88,1.33,3.77,2.66,5.53,4,1.19,1,2.39,1.81,3.53,2.84l3.4,3c2.09,2,4.26,4,6.26,5.95,1.39,1.36,2.7,2.69,4,4-1.92-1.21-5.73-3.5-6.07-3.65-5.31-2.43-17-4-21.4.83-3.18,3.48-2.18,8.72,1.45,11.42s9.37,2.36,13.56,1.14c4.6-1.35,12.39-8,13.36-8.83,2.18,2.2,4.27,4.36,6.22,6.44,5.34,5.68,9.79,10.75,13.25,14.81l3.27-2.81c-3.58-4-8.2-9.06-13.73-14.69-2.2-2.24-4.6-4.6-7.08-7a85.06,85.06,0,0,0,5.17-8.41c4.78,1.19,14.27,0,15.5-.13.6,3,1.15,6,1.63,8.8,1.18,6.85,2,12.9,2.66,17.88l3.82-3.27c-.69-4.46-1.56-9.61-2.68-15.31-.59-3.08-1.29-6.37-2-9.74,1.17-.46,10.7-4.27,14-7.73,3-3.13,6-8,5.3-12.53s-4.88-7.79-9.43-6.59c-6.33,1.66-10.37,12.73-10.69,18.55,0,.35.19,4.1.36,6.47-.31-1.38-.6-2.72-.94-4.13-.65-2.79-1.38-5.56-2.16-8.55l-1.29-4.32c-.4-1.46-1-2.94-1.51-4.43-1.24-3.42-2.66-6.82-4.17-10.22,2.45-.58,11.11-2.75,14.59-5.41s7.15-7,7.14-11.58-3.65-8.44-8.33-8c-6.5.68-12.17,11-13.37,16.73-.08.35-.48,4.55-.65,6.86-.92-2-1.83-4.08-2.83-6.11-2.89-5.86-6-11.7-9.06-17.54-.94-1.79-1.85-3.58-2.78-5.37.88-.2,11.23-2.56,15.13-5.53,3.46-2.64,7.15-7,7.13-11.58s-3.64-8.44-8.32-8c-6.5.68-12.18,11-13.38,16.72-.09.43-.66,6.47-.73,8-2-3.94-4-7.9-5.82-11.87a136.41,136.41,0,0,1-6.32-16.5c.41-.09,11.22-2.5,15.21-5.55,3.47-2.64,7.15-7,7.14-11.58s-3.65-8.44-8.33-8c-6.5.68-12.17,11-13.37,16.72-.08.38-.52,5-.67,7.17l-.38,0a99.93,99.93,0,0,1-3.26-17.46c-.35-3.25-.51-6.37-.59-9.42,2.06-.24,11.46-1.46,15.36-3.8,3.74-2.25,7.87-6.14,8.36-10.73s-2.69-8.79-7.4-8.82c-6.54,0-13.31,9.61-15.13,15.16-.1.3-.77,3.48-1.22,5.8,0-1.37-.06-2.79,0-4.11,0-4.94.36-9.46.68-13.47.2-2.27.43-4.33.66-6.25,1.9-1.29,9.48-6.6,11.82-10.41s4.15-9.08,2.48-13.37-6.45-6.56-10.64-4.41c-5.81,3-7.38,14.66-6.44,20.42.08.5,2.25,8.14,2.35,8.07L148,115c-.26,1.84-.52,3.82-.76,6-.41,4-.84,8.53-1,13.5a136.82,136.82,0,0,0,.32,16,101.35,101.35,0,0,0,2.91,17.7l.06.2c-1-1.62-4-6-4.3-6.36-3.8-4.43-13.75-10.75-19.78-8.21-4.34,1.82-5.63,7-3.46,11s7.52,6.07,11.83,6.72c4.86.72,15.11-2.21,15.92-2.45a137.5,137.5,0,0,0,6.15,17.21c1.4,3.26,2.91,6.51,4.46,9.74-.93-1.37-1.77-2.59-1.9-2.75-3.81-4.42-13.76-10.74-19.78-8.21-4.34,1.83-5.63,7-3.47,11s7.52,6.07,11.83,6.71,13.17-1.67,15.48-2.32c.61,1.24,1.21,2.48,1.82,3.71,2.94,5.91,5.91,11.8,8.64,17.66,1,2.07,1.83,4.14,2.71,6.21-.82-1.22-1.53-2.24-1.65-2.38-3.81-4.43-13.76-10.74-19.78-8.21-4.34,1.82-5.63,7-3.47,11s7.53,6.06,11.84,6.71,12.3-1.45,15.06-2.21c.84,2.15,1.68,4.29,2.39,6.41.46,1.46,1,2.83,1.38,4.32s.8,2.91,1.19,4.35c.66,2.79,1.36,5.67,1.94,8.42.41,1.9.77,3.72,1.14,5.56-.93-2.07-2.85-6.08-3-6.4a30,30,0,0,0-11.38-10,8.61,8.61,0,0,0-1-1.37c-3.05-3.34-8.37-3.81-11.51-.3-4.35,4.87-1.62,16.34,1.33,21.38.17.29,2.42,3.31,3.87,5.18-1-1-2-1.93-3.06-2.92-2.09-2-4.23-3.88-6.52-5.94l-3.47-2.89c-1.13-1-2.46-1.89-3.7-2.86-2.92-2.17-6-4.22-9.11-6.23,1.72-1.83,7.74-8.42,9.19-12.55s2.12-9.76-.44-13.6-7.7-5-11.33-2c-5.05,4.16-4.08,15.91-1.93,21.33.13.34,2.11,4.06,3.24,6.08-1.89-1.19-3.77-2.39-5.73-3.53-5.63-3.29-11.44-6.45-17.22-9.63l-5.29-3c.62-.65,7.95-8.32,9.57-13,1.43-4.11,2.12-9.75-.44-13.59s-7.7-5-11.33-2c-5,4.16-4.08,15.9-1.93,21.33.16.41,3,5.76,3.81,7.08-3.87-2.17-7.71-4.37-11.4-6.69a136.41,136.41,0,0,1-14.38-10.27c.29-.3,8-8.28,9.63-13,1.43-4.11,2.12-9.75-.44-13.59s-7.7-5-11.33-2c-5,4.16-4.08,15.9-1.93,21.33.14.36,2.32,4.43,3.4,6.35l-.29.24A99.28,99.28,0,0,1,69.2,202.08c-2.08-2.52-3.94-5-5.69-7.53,1.59-1.34,8.76-7.54,10.72-11.64,1.88-3.94,3.18-9.47,1-13.57s-7.09-5.84-11-3.26c-5.47,3.57-5.8,15.35-4.26,21,.08.31,1.28,3.33,2.18,5.51-.77-1.13-1.59-2.29-2.31-3.4-2.7-4.13-4.92-8.09-6.86-11.61-1.09-2-2-3.84-2.9-5.57.87-2.13,4.26-10.74,4.12-15.2s-1.55-9.87-5.32-12.53-9-1.91-11.3,2.19c-3.21,5.69,1.93,16.3,5.89,20.59.35.37,6.37,5.55,6.41,5.44l.06-.13c.79,1.68,1.67,3.47,2.66,5.41,1.87,3.57,4,7.58,6.64,11.79a136.18,136.18,0,0,0,9.11,13.19A100.64,100.64,0,0,0,80.56,215.9l.16.13c-1.74-.78-6.7-2.82-7.1-2.93-5.61-1.6-17.4-1.38-21,4.06-2.62,3.92-.83,9,3.16,11.07S65.38,229.14,69.33,227.3Z"></path><path d="M47.79,201.69c5-.86,14.49-7.37,14.5-7.37s-6.18-4.93-6.61-5.19c-5-3-16.42-5.92-21.36-1.64-3.55,3.09-3.16,8.42.13,11.51S43.49,202.42,47.79,201.69Z" style="opacity:0.30000000000000004"></path><path d="M146.18,140.13c.12,0-2.44-7.52-2.66-8-2.49-5.27-10.42-14-16.9-13.14-4.67.62-7.28,5.28-6.24,9.67s5.65,7.84,9.64,9.6C134.7,140.35,146.17,140.13,146.18,140.13Z" style="opacity:0.30000000000000004"></path><path d="M69.33,227.3c4.46-2.08,11.39-10.18,11.94-10.82a137.13,137.13,0,0,0,14.62,11c3,2,6,3.83,9.09,5.67-1.53-.63-2.9-1.18-3.1-1.24-5.62-1.59-17.4-1.37-21,4.06-2.61,3.92-.83,9,3.17,11.07s9.62.91,13.57-.93,10-8.66,11.63-10.47l3.56,2.09c5.72,3.3,11.44,6.58,16.95,10,1.94,1.19,3.81,2.43,5.69,3.67-1.36-.56-2.51-1-2.7-1.07-5.61-1.59-17.4-1.37-21,4.06-2.62,3.92-.83,9,3.16,11.07s9.62.91,13.57-.93,9.47-8,11.35-10.15c1.88,1.33,3.77,2.66,5.53,4,1.19,1,2.39,1.81,3.53,2.84l3.4,3c2.09,2,4.26,4,6.26,5.95,1.39,1.36,2.7,2.69,4,4-1.92-1.21-5.73-3.5-6.07-3.65-5.31-2.43-17-4-21.4.83-3.18,3.48-2.18,8.72,1.45,11.42s9.37,2.36,13.56,1.14c4.6-1.35,12.39-8,13.36-8.83,2.18,2.2,4.27,4.36,6.22,6.44,5.34,5.68,9.79,10.75,13.25,14.81l3.27-2.81c-3.58-4-8.2-9.06-13.73-14.69-2.2-2.24-4.6-4.6-7.08-7a85.06,85.06,0,0,0,5.17-8.41c4.78,1.19,14.27,0,15.5-.13.6,3,1.15,6,1.63,8.8,1.18,6.85,2,12.9,2.66,17.88l3.82-3.27c-.69-4.46-1.56-9.61-2.68-15.31-.59-3.08-1.29-6.37-2-9.74,1.17-.46,10.7-4.27,14-7.73,3-3.13,6-8,5.3-12.53s-4.88-7.79-9.43-6.59c-6.33,1.66-10.37,12.73-10.69,18.55,0,.35.19,4.1.36,6.47-.31-1.38-.6-2.72-.94-4.13-.65-2.79-1.38-5.56-2.16-8.55l-1.29-4.32c-.4-1.46-1-2.94-1.51-4.43-1.24-3.42-2.66-6.82-4.17-10.22,2.45-.58,11.11-2.75,14.59-5.41s7.15-7,7.14-11.58-3.65-8.44-8.33-8c-6.5.68-12.17,11-13.37,16.73-.08.35-.48,4.55-.65,6.86-.92-2-1.83-4.08-2.83-6.11-2.89-5.86-6-11.7-9.06-17.54-.94-1.79-1.85-3.58-2.78-5.37.88-.2,11.23-2.56,15.13-5.53,3.46-2.64,7.15-7,7.13-11.58s-3.64-8.44-8.32-8c-6.5.68-12.18,11-13.38,16.72-.09.43-.66,6.47-.73,8-2-3.94-4-7.9-5.82-11.87a136.41,136.41,0,0,1-6.32-16.5c.41-.09,11.22-2.5,15.21-5.55,3.47-2.64,7.15-7,7.14-11.58s-3.65-8.44-8.33-8c-6.5.68-12.17,11-13.37,16.72-.08.38-.52,5-.67,7.17l-.38,0a99.93,99.93,0,0,1-3.26-17.46c-.35-3.25-.51-6.37-.59-9.42,2.06-.24,11.46-1.46,15.36-3.8,3.74-2.25,7.87-6.14,8.36-10.73s-2.69-8.79-7.4-8.82c-6.54,0-13.31,9.61-15.13,15.16-.1.3-.77,3.48-1.22,5.8,0-1.37-.06-2.79,0-4.11,0-4.94.36-9.46.68-13.47.2-2.27.43-4.33.66-6.25,1.9-1.29,9.48-6.6,11.82-10.41s4.15-9.08,2.48-13.37-6.45-6.56-10.64-4.41c-5.81,3-7.38,14.66-6.44,20.42.08.5,2.25,8.14,2.35,8.07L148,115c-.26,1.84-.52,3.82-.76,6-.41,4-.84,8.53-1,13.5a136.82,136.82,0,0,0,.32,16,101.35,101.35,0,0,0,2.91,17.7l.06.2c-1-1.62-4-6-4.3-6.36-3.8-4.43-13.75-10.75-19.78-8.21-4.34,1.82-5.63,7-3.46,11s7.52,6.07,11.83,6.72c4.86.72,15.11-2.21,15.92-2.45a137.5,137.5,0,0,0,6.15,17.21c1.4,3.26,2.91,6.51,4.46,9.74-.93-1.37-1.77-2.59-1.9-2.75-3.81-4.42-13.76-10.74-19.78-8.21-4.34,1.83-5.63,7-3.47,11s7.52,6.07,11.83,6.71,13.17-1.67,15.48-2.32c.61,1.24,1.21,2.48,1.82,3.71,2.94,5.91,5.91,11.8,8.64,17.66,1,2.07,1.83,4.14,2.71,6.21-.82-1.22-1.53-2.24-1.65-2.38-3.81-4.43-13.76-10.74-19.78-8.21-4.34,1.82-5.63,7-3.47,11s7.53,6.06,11.84,6.71,12.3-1.45,15.06-2.21c.84,2.15,1.68,4.29,2.39,6.41.46,1.46,1,2.83,1.38,4.32s.8,2.91,1.19,4.35c.66,2.79,1.36,5.67,1.94,8.42.41,1.9.77,3.72,1.14,5.56-.93-2.07-2.85-6.08-3-6.4a30,30,0,0,0-11.38-10,8.61,8.61,0,0,0-1-1.37c-3.05-3.34-8.37-3.81-11.51-.3-4.35,4.87-1.62,16.34,1.33,21.38.17.29,2.42,3.31,3.87,5.18-1-1-2-1.93-3.06-2.92-2.09-2-4.23-3.88-6.52-5.94l-3.47-2.89c-1.13-1-2.46-1.89-3.7-2.86-2.92-2.17-6-4.22-9.11-6.23,1.72-1.83,7.74-8.42,9.19-12.55s2.12-9.76-.44-13.6-7.7-5-11.33-2c-5.05,4.16-4.08,15.91-1.93,21.33.13.34,2.11,4.06,3.24,6.08-1.89-1.19-3.77-2.39-5.73-3.53-5.63-3.29-11.44-6.45-17.22-9.63l-5.29-3c.62-.65,7.95-8.32,9.57-13,1.43-4.11,2.12-9.75-.44-13.59s-7.7-5-11.33-2c-5,4.16-4.08,15.9-1.93,21.33.16.41,3,5.76,3.81,7.08-3.87-2.17-7.71-4.37-11.4-6.69a136.41,136.41,0,0,1-14.38-10.27c.29-.3,8-8.28,9.63-13,1.43-4.11,2.12-9.75-.44-13.59s-7.7-5-11.33-2c-5,4.16-4.08,15.9-1.93,21.33.14.36,2.32,4.43,3.4,6.35l-.29.24A99.28,99.28,0,0,1,69.2,202.08c-2.08-2.52-3.94-5-5.69-7.53,1.59-1.34,8.76-7.54,10.72-11.64,1.88-3.94,3.18-9.47,1-13.57s-7.09-5.84-11-3.26c-5.47,3.57-5.8,15.35-4.26,21,.08.31,1.28,3.33,2.18,5.51-.77-1.13-1.59-2.29-2.31-3.4-2.7-4.13-4.92-8.09-6.86-11.61-1.09-2-2-3.84-2.9-5.57.87-2.13,4.26-10.74,4.12-15.2s-1.55-9.87-5.32-12.53-9-1.91-11.3,2.19c-3.21,5.69,1.93,16.3,5.89,20.59.35.37,6.37,5.55,6.41,5.44l.06-.13c.79,1.68,1.67,3.47,2.66,5.41,1.87,3.57,4,7.58,6.64,11.79a136.18,136.18,0,0,0,9.11,13.19A100.64,100.64,0,0,0,80.56,215.9l.16.13c-1.74-.78-6.7-2.82-7.1-2.93-5.61-1.6-17.4-1.38-21,4.06-2.62,3.92-.83,9,3.16,11.07S65.38,229.14,69.33,227.3Z" style="opacity:0.30000000000000004"></path></g><g style="opacity:0.30000000000000004"><path d="M624,68.61c-.1,0,2.19-6.74,2.38-7.15,2.25-4.72,9.35-12.54,15.16-11.78a6.93,6.93,0,0,1,5.6,8.67c-.95,4-5.07,7-8.64,8.61C634.31,68.81,624,68.61,624,68.61Z"></path><path d="M712.23,123.81c-4.52-.77-13-6.61-13-6.61s5.54-4.42,5.93-4.65c4.47-2.71,14.72-5.31,19.14-1.47a6.93,6.93,0,0,1-.12,10.32C721.17,124.23,716.08,124.47,712.23,123.81Z"></path><path d="M721.36,74.28a6.93,6.93,0,0,0-10.13-2c-3.38,2.38-4.63,7.32-4.76,11.23s2.9,11.72,3.68,13.63c-.77,1.55-1.62,3.2-2.59,5-1.74,3.15-3.73,6.7-6.16,10.41-.64,1-1.37,2-2.07,3,.81-2,1.89-4.66,2-4.94,1.38-5,1.09-15.61-3.82-18.81a6.93,6.93,0,0,0-9.89,2.93c-1.9,3.67-.74,8.63.94,12.16,1.76,3.68,8.19,9.24,9.61,10.44-1.57,2.23-3.23,4.49-5.1,6.75A89.33,89.33,0,0,1,682,135.6l-.26-.21c1-1.72,2.92-5.37,3-5.69,1.93-4.87,2.79-15.4-1.73-19.12a6.93,6.93,0,0,0-10.16,1.82c-2.29,3.44-1.68,8.5-.39,12.19,1.48,4.25,8.37,11.41,8.63,11.68a122.7,122.7,0,0,1-12.89,9.21c-3.31,2.08-6.76,4.05-10.23,6,.71-1.19,3.28-6,3.42-6.35,1.93-4.87,2.8-15.4-1.73-19.12a6.92,6.92,0,0,0-10.15,1.82c-2.3,3.44-1.68,8.5-.4,12.19,1.45,4.15,8,11,8.58,11.62-1.58.88-3.15,1.77-4.74,2.64-5.19,2.85-10.39,5.68-15.45,8.64-1.75,1-3.43,2.1-5.13,3.16,1-1.81,2.79-5.14,2.91-5.45,1.92-4.86,2.79-15.4-1.73-19.12a6.93,6.93,0,0,0-10.16,1.83c-2.29,3.44-1.68,8.5-.39,12.19s6.69,9.61,8.23,11.25c-2.81,1.8-5.55,3.64-8.17,5.59-1.11.86-2.3,1.67-3.32,2.56l-3.1,2.6c-2.06,1.84-4,3.55-5.85,5.32-.95.89-1.83,1.75-2.74,2.62,1.3-1.68,3.31-4.39,3.47-4.65,2.64-4.52,5.09-14.8,1.18-19.17a6.93,6.93,0,0,0-10.31.27,7.88,7.88,0,0,0-.92,1.23,26.87,26.87,0,0,0-10.21,9c-.18.28-1.89,3.88-2.73,5.73.33-1.64.65-3.28,1-5,.52-2.46,1.14-5.05,1.74-7.55.35-1.29.71-2.59,1.07-3.9s.82-2.57,1.23-3.87c.64-1.9,1.4-3.82,2.15-5.75,2.47.68,9.76,2.54,13.5,2s8.63-2.39,10.61-6a6.93,6.93,0,0,0-3.11-9.84c-5.4-2.27-14.32,3.39-17.73,7.36-.11.13-.74,1-1.48,2.13.79-1.85,1.57-3.71,2.43-5.56,2.45-5.26,5.11-10.54,7.74-15.84.55-1.1,1.09-2.21,1.63-3.32,2.08.58,10,2.66,13.88,2.08s8.63-2.39,10.61-6a6.93,6.93,0,0,0-3.11-9.84c-5.4-2.27-14.32,3.39-17.73,7.36-.12.14-.88,1.24-1.71,2.46,1.4-2.9,2.75-5.81,4-8.73a121.83,121.83,0,0,0,5.51-15.43c.73.22,9.92,2.84,14.28,2.19,3.87-.57,8.63-2.38,10.61-6a7,7,0,0,0-3.11-9.85c-5.4-2.27-14.32,3.4-17.73,7.37-.24.28-2.94,4.25-3.86,5.7l.06-.18a91.25,91.25,0,0,0,2.61-15.87,123.6,123.6,0,0,0,.29-14.37c-.12-4.44-.51-8.5-.87-12.1-.22-1.94-.45-3.71-.69-5.36l.11.07c.09.06,2-6.79,2.1-7.24.84-5.16-.56-15.64-5.78-18.31a6.93,6.93,0,0,0-9.53,3.95c-1.51,3.86.18,8.67,2.22,12s8.89,8.17,10.59,9.33c.21,1.72.42,3.56.6,5.6.29,3.59.58,7.65.61,12.08,0,1.18,0,2.45,0,3.68-.4-2.08-1-4.93-1.09-5.2-1.63-5-7.71-13.62-13.57-13.59A6.94,6.94,0,0,0,602,56.37c.44,4.11,4.15,7.6,7.5,9.62s11.92,3.19,13.77,3.41c-.08,2.73-.22,5.53-.53,8.44a89.91,89.91,0,0,1-2.93,15.65l-.33,0c-.14-2-.53-6.09-.6-6.42-1.08-5.13-6.17-14.39-12-15a6.94,6.94,0,0,0-7.46,7.13c0,4.13,3.29,8,6.4,10.38,3.58,2.73,13.27,4.9,13.64,5a122.16,122.16,0,0,1-5.67,14.79c-1.62,3.56-3.4,7.11-5.22,10.65-.06-1.39-.57-6.8-.65-7.19-1.08-5.12-6.17-14.38-12-15a6.94,6.94,0,0,0-7.47,7.12c0,4.14,3.29,8,6.4,10.39,3.49,2.66,12.77,4.78,13.56,5-.83,1.6-1.65,3.21-2.5,4.82-2.75,5.23-5.53,10.47-8.11,15.72-.9,1.82-1.71,3.65-2.54,5.47-.16-2.07-.52-5.83-.58-6.15-1.08-5.12-6.17-14.38-12-15a6.94,6.94,0,0,0-7.47,7.12c0,4.14,3.29,8,6.4,10.39s10.88,4.33,13.08,4.84c-1.35,3.05-2.63,6.11-3.74,9.17-.45,1.33-1,2.66-1.35,4l-1.16,3.88c-.7,2.67-1.35,5.16-1.94,7.66-.3,1.27-.56,2.47-.84,3.7.15-2.12.34-5.49.33-5.79-.29-5.23-3.92-15.16-9.59-16.64a6.92,6.92,0,0,0-8.45,5.91c-.64,4.09,2,8.42,4.75,11.23,3,3.1,11.53,6.52,12.58,6.93-.67,3-1.29,6-1.83,8.74-1,5.11-1.78,9.72-2.4,13.71h3.81c.52-3.84,1.17-8.23,2-13.08.43-2.52.92-5.17,1.46-7.89,1.09.14,9.61,1.18,13.89.11a75.19,75.19,0,0,0,4.64,7.54c-2.23,2.15-4.38,4.27-6.35,6.28-2.45,2.49-4.7,4.86-6.74,7h5c1.35-1.48,2.77-3,4.28-4.63,1.75-1.86,3.62-3.8,5.58-5.78.86.75,7.85,6.71,12,7.92,3.75,1.09,8.83,1.45,12.15-1A6.94,6.94,0,0,0,634,186.2c-4-4.33-14.42-2.92-19.18-.74-.31.14-3.72,2.19-5.44,3.27,1.18-1.19,2.35-2.37,3.6-3.59,1.79-1.77,3.74-3.58,5.61-5.34l3-2.66c1-.93,2.1-1.69,3.16-2.55,1.58-1.23,3.27-2.42,5-3.61,1.69,1.93,6.74,7.5,10.17,9.1s8.52,2.77,12.17.83a6.93,6.93,0,0,0,2.84-9.92c-3.25-4.87-13.82-5.07-18.85-3.64-.17.05-1.2.46-2.42,1,1.68-1.11,3.36-2.23,5.1-3.3,4.94-3,10.07-6,15.2-8.94l3.19-1.87c1.41,1.63,6.84,7.71,10.43,9.39s8.51,2.77,12.17.83a6.94,6.94,0,0,0,2.84-9.92c-3.26-4.87-13.82-5.07-18.86-3.64-.18,0-1.41.54-2.78,1.11,2.76-1.65,5.49-3.33,8.15-5.08a121.4,121.4,0,0,0,13.11-9.83c.49.58,6.71,7.85,10.7,9.71,3.54,1.65,8.52,2.77,12.17.83a6.94,6.94,0,0,0,2.84-9.92c-3.25-4.88-13.82-5.07-18.85-3.64-.36.1-4.8,1.92-6.37,2.63l.15-.12a90.7,90.7,0,0,0,10.93-11.8A125.21,125.21,0,0,0,702,112.93c2.35-3.78,4.27-7.38,5.94-10.58.9-1.73,1.68-3.34,2.4-4.85a.66.66,0,0,0,0,.11c0,.1,5.44-4.54,5.75-4.87C719.63,88.9,724.24,79.39,721.36,74.28Z"></path><path d="M712.23,123.81c-4.52-.77-13-6.61-13-6.61s5.54-4.42,5.93-4.65c4.47-2.71,14.72-5.31,19.14-1.47a6.93,6.93,0,0,1-.12,10.32C721.17,124.23,716.08,124.47,712.23,123.81Z" style="opacity:0.30000000000000004"></path><path d="M624,68.61c-.1,0,2.19-6.74,2.38-7.15,2.25-4.72,9.35-12.54,15.16-11.78a6.93,6.93,0,0,1,5.6,8.67c-.95,4-5.07,7-8.64,8.61C634.31,68.81,624,68.61,624,68.61Z" style="opacity:0.30000000000000004"></path><path d="M721.36,74.28a6.93,6.93,0,0,0-10.13-2c-3.38,2.38-4.63,7.32-4.76,11.23s2.9,11.72,3.68,13.63c-.77,1.55-1.62,3.2-2.59,5-1.74,3.15-3.73,6.7-6.16,10.41-.64,1-1.37,2-2.07,3,.81-2,1.89-4.66,2-4.94,1.38-5,1.09-15.61-3.82-18.81a6.93,6.93,0,0,0-9.89,2.93c-1.9,3.67-.74,8.63.94,12.16,1.76,3.68,8.19,9.24,9.61,10.44-1.57,2.23-3.23,4.49-5.1,6.75A89.33,89.33,0,0,1,682,135.6l-.26-.21c1-1.72,2.92-5.37,3-5.69,1.93-4.87,2.79-15.4-1.73-19.12a6.93,6.93,0,0,0-10.16,1.82c-2.29,3.44-1.68,8.5-.39,12.19,1.48,4.25,8.37,11.41,8.63,11.68a122.7,122.7,0,0,1-12.89,9.21c-3.31,2.08-6.76,4.05-10.23,6,.71-1.19,3.28-6,3.42-6.35,1.93-4.87,2.8-15.4-1.73-19.12a6.92,6.92,0,0,0-10.15,1.82c-2.3,3.44-1.68,8.5-.4,12.19,1.45,4.15,8,11,8.58,11.62-1.58.88-3.15,1.77-4.74,2.64-5.19,2.85-10.39,5.68-15.45,8.64-1.75,1-3.43,2.1-5.13,3.16,1-1.81,2.79-5.14,2.91-5.45,1.92-4.86,2.79-15.4-1.73-19.12a6.93,6.93,0,0,0-10.16,1.83c-2.29,3.44-1.68,8.5-.39,12.19s6.69,9.61,8.23,11.25c-2.81,1.8-5.55,3.64-8.17,5.59-1.11.86-2.3,1.67-3.32,2.56l-3.1,2.6c-2.06,1.84-4,3.55-5.85,5.32-.95.89-1.83,1.75-2.74,2.62,1.3-1.68,3.31-4.39,3.47-4.65,2.64-4.52,5.09-14.8,1.18-19.17a6.93,6.93,0,0,0-10.31.27,7.88,7.88,0,0,0-.92,1.23,26.87,26.87,0,0,0-10.21,9c-.18.28-1.89,3.88-2.73,5.73.33-1.64.65-3.28,1-5,.52-2.46,1.14-5.05,1.74-7.55.35-1.29.71-2.59,1.07-3.9s.82-2.57,1.23-3.87c.64-1.9,1.4-3.82,2.15-5.75,2.47.68,9.76,2.54,13.5,2s8.63-2.39,10.61-6a6.93,6.93,0,0,0-3.11-9.84c-5.4-2.27-14.32,3.39-17.73,7.36-.11.13-.74,1-1.48,2.13.79-1.85,1.57-3.71,2.43-5.56,2.45-5.26,5.11-10.54,7.74-15.84.55-1.1,1.09-2.21,1.63-3.32,2.08.58,10,2.66,13.88,2.08s8.63-2.39,10.61-6a6.93,6.93,0,0,0-3.11-9.84c-5.4-2.27-14.32,3.39-17.73,7.36-.12.14-.88,1.24-1.71,2.46,1.4-2.9,2.75-5.81,4-8.73a121.83,121.83,0,0,0,5.51-15.43c.73.22,9.92,2.84,14.28,2.19,3.87-.57,8.63-2.38,10.61-6a7,7,0,0,0-3.11-9.85c-5.4-2.27-14.32,3.4-17.73,7.37-.24.28-2.94,4.25-3.86,5.7l.06-.18a91.25,91.25,0,0,0,2.61-15.87,123.6,123.6,0,0,0,.29-14.37c-.12-4.44-.51-8.5-.87-12.1-.22-1.94-.45-3.71-.69-5.36l.11.07c.09.06,2-6.79,2.1-7.24.84-5.16-.56-15.64-5.78-18.31a6.93,6.93,0,0,0-9.53,3.95c-1.51,3.86.18,8.67,2.22,12s8.89,8.17,10.59,9.33c.21,1.72.42,3.56.6,5.6.29,3.59.58,7.65.61,12.08,0,1.18,0,2.45,0,3.68-.4-2.08-1-4.93-1.09-5.2-1.63-5-7.71-13.62-13.57-13.59A6.94,6.94,0,0,0,602,56.37c.44,4.11,4.15,7.6,7.5,9.62s11.92,3.19,13.77,3.41c-.08,2.73-.22,5.53-.53,8.44a89.91,89.91,0,0,1-2.93,15.65l-.33,0c-.14-2-.53-6.09-.6-6.42-1.08-5.13-6.17-14.39-12-15a6.94,6.94,0,0,0-7.46,7.13c0,4.13,3.29,8,6.4,10.38,3.58,2.73,13.27,4.9,13.64,5a122.16,122.16,0,0,1-5.67,14.79c-1.62,3.56-3.4,7.11-5.22,10.65-.06-1.39-.57-6.8-.65-7.19-1.08-5.12-6.17-14.38-12-15a6.94,6.94,0,0,0-7.47,7.12c0,4.14,3.29,8,6.4,10.39,3.49,2.66,12.77,4.78,13.56,5-.83,1.6-1.65,3.21-2.5,4.82-2.75,5.23-5.53,10.47-8.11,15.72-.9,1.82-1.71,3.65-2.54,5.47-.16-2.07-.52-5.83-.58-6.15-1.08-5.12-6.17-14.38-12-15a6.94,6.94,0,0,0-7.47,7.12c0,4.14,3.29,8,6.4,10.39s10.88,4.33,13.08,4.84c-1.35,3.05-2.63,6.11-3.74,9.17-.45,1.33-1,2.66-1.35,4l-1.16,3.88c-.7,2.67-1.35,5.16-1.94,7.66-.3,1.27-.56,2.47-.84,3.7.15-2.12.34-5.49.33-5.79-.29-5.23-3.92-15.16-9.59-16.64a6.92,6.92,0,0,0-8.45,5.91c-.64,4.09,2,8.42,4.75,11.23,3,3.1,11.53,6.52,12.58,6.93-.67,3-1.29,6-1.83,8.74-1,5.11-1.78,9.72-2.4,13.71h3.81c.52-3.84,1.17-8.23,2-13.08.43-2.52.92-5.17,1.46-7.89,1.09.14,9.61,1.18,13.89.11a75.19,75.19,0,0,0,4.64,7.54c-2.23,2.15-4.38,4.27-6.35,6.28-2.45,2.49-4.7,4.86-6.74,7h5c1.35-1.48,2.77-3,4.28-4.63,1.75-1.86,3.62-3.8,5.58-5.78.86.75,7.85,6.71,12,7.92,3.75,1.09,8.83,1.45,12.15-1A6.94,6.94,0,0,0,634,186.2c-4-4.33-14.42-2.92-19.18-.74-.31.14-3.72,2.19-5.44,3.27,1.18-1.19,2.35-2.37,3.6-3.59,1.79-1.77,3.74-3.58,5.61-5.34l3-2.66c1-.93,2.1-1.69,3.16-2.55,1.58-1.23,3.27-2.42,5-3.61,1.69,1.93,6.74,7.5,10.17,9.1s8.52,2.77,12.17.83a6.93,6.93,0,0,0,2.84-9.92c-3.25-4.87-13.82-5.07-18.85-3.64-.17.05-1.2.46-2.42,1,1.68-1.11,3.36-2.23,5.1-3.3,4.94-3,10.07-6,15.2-8.94l3.19-1.87c1.41,1.63,6.84,7.71,10.43,9.39s8.51,2.77,12.17.83a6.94,6.94,0,0,0,2.84-9.92c-3.26-4.87-13.82-5.07-18.86-3.64-.18,0-1.41.54-2.78,1.11,2.76-1.65,5.49-3.33,8.15-5.08a121.4,121.4,0,0,0,13.11-9.83c.49.58,6.71,7.85,10.7,9.71,3.54,1.65,8.52,2.77,12.17.83a6.94,6.94,0,0,0,2.84-9.92c-3.25-4.88-13.82-5.07-18.85-3.64-.36.1-4.8,1.92-6.37,2.63l.15-.12a90.7,90.7,0,0,0,10.93-11.8A125.21,125.21,0,0,0,702,112.93c2.35-3.78,4.27-7.38,5.94-10.58.9-1.73,1.68-3.34,2.4-4.85a.66.66,0,0,0,0,.11c0,.1,5.44-4.54,5.75-4.87C719.63,88.9,724.24,79.39,721.36,74.28Z" style="opacity:0.30000000000000004"></path></g></g><g id="freepik--Gears--inject-6"><path d="M126.26,364.9V350.82l-12-.63a27.3,27.3,0,0,0-2.37-6.48l8-8.94-10-9.95-8.56,7.71a27.77,27.77,0,0,0-6.63-2.87l-.62-11.73H80.1l-.62,11.73a27.4,27.4,0,0,0-6.38,2.73l-9-8.15-10,10,8.38,9.31a27.88,27.88,0,0,0-2.26,5.82l-13,.68v14.08l13.36.71a27.67,27.67,0,0,0,2.18,5.09l-9.23,10.25,10,10,10.27-9.24a26.94,26.94,0,0,0,4.8,2.07L79.29,397H93.37l.72-13.56a27.92,27.92,0,0,0,5.16-1.89l10.17,9.14,10-9.95-8.6-9.56a27.28,27.28,0,0,0,2.67-5.58Zm-39.12,6.8a15.27,15.27,0,1,1,15.26-15.26A15.26,15.26,0,0,1,87.14,371.7Z" style="fill:#2CC9FF;stroke:#263238;stroke-linecap:round;stroke-linejoin:round"></path><path d="M102.69,291.31l-1.36-12.08-10.34.6a23.68,23.68,0,0,0-2.65-5.33l6-8.44-9.5-7.59-6.61,7.44a23.8,23.8,0,0,0-6-1.82l-1.66-10-12.08,1.35.59,10.13A23.83,23.83,0,0,0,54,268.51l-8.55-6.12-7.58,9.5,8.08,7.18a24.26,24.26,0,0,0-1.39,5.21l-11.08,1.84,1.35,12.08,11.53-.68a23.27,23.27,0,0,0,2.36,4.16l-6.94,9.68,9.5,7.59L59.16,310a24.27,24.27,0,0,0,4.32,1.32l2,12L77.54,322l-.69-11.71a23.83,23.83,0,0,0,4.26-2.12l9.6,6.87,7.59-9.49L90,298.16a23.7,23.7,0,0,0,1.76-5ZM69.77,300.9A13.18,13.18,0,1,1,81.4,286.33,13.19,13.19,0,0,1,69.77,300.9Z" style="fill:#fff;stroke:#263238;stroke-linecap:round;stroke-linejoin:round"></path></g><g id="freepik--Graphics--inject-6"><rect x="703.83" y="236.32" width="24.22" height="24.22" rx="5.47" style="fill:none;stroke:#263238;stroke-linecap:round;stroke-linejoin:round"></rect><rect x="703.83" y="206.23" width="24.22" height="24.22" rx="5.47" style="fill:none;stroke:#263238;stroke-linecap:round;stroke-linejoin:round"></rect><rect x="703.83" y="176.15" width="24.22" height="24.22" rx="5.47" style="fill:none;stroke:#263238;stroke-linecap:round;stroke-linejoin:round"></rect><rect x="675.61" y="236.32" width="24.22" height="24.22" rx="5.47" style="fill:none;stroke:#263238;stroke-linecap:round;stroke-linejoin:round"></rect><path d="M49.89,103.41l5.17-5.18a4,4,0,1,0-5.66-5.65l-5.17,5.17-5.17-5.17a4,4,0,0,0-5.66,5.65l5.17,5.18-5.17,5.17a4,4,0,0,0,5.66,5.66l5.17-5.18,5.17,5.18a4,4,0,1,0,5.66-5.66Z" style="fill:none;stroke:#263238;stroke-linecap:round;stroke-linejoin:round"></path><path d="M81.49,80.42l4-4a3.08,3.08,0,0,0-4.36-4.36l-4,4-4-4a3.08,3.08,0,1,0-4.35,4.36l4,4-4,4a3.08,3.08,0,0,0,4.35,4.35l4-4,4,4a3.08,3.08,0,0,0,4.36-4.35Z" style="fill:none;stroke:#263238;stroke-linecap:round;stroke-linejoin:round"></path><path d="M116.19,430.5l4-4a3.08,3.08,0,0,0-4.35-4.35l-4,4-4-4a3.08,3.08,0,0,0-4.35,4.35l4,4-4,4a3.08,3.08,0,1,0,4.35,4.36l4-4,4,4a3.08,3.08,0,0,0,4.35-4.36Z" style="fill:none;stroke:#263238;stroke-linecap:round;stroke-linejoin:round"></path><path d="M672.06,393.85l4-4a3.08,3.08,0,0,0-4.36-4.35l-4,4-4-4a3.08,3.08,0,0,0-4.35,4.35l4,4-4,4a3.08,3.08,0,0,0,4.35,4.35l4-4,4,4a3.08,3.08,0,0,0,4.36-4.35Z" style="fill:none;stroke:#263238;stroke-linecap:round;stroke-linejoin:round"></path><path d="M697.14,393.85l4-4a3.08,3.08,0,1,0-4.36-4.35l-4,4-4-4a3.08,3.08,0,0,0-4.35,4.35l4,4-4,4a3.08,3.08,0,0,0,4.35,4.35l4-4,4,4a3.08,3.08,0,1,0,4.36-4.35Z" style="fill:none;stroke:#263238;stroke-linecap:round;stroke-linejoin:round"></path><path d="M682.47,69.42l4-4a3.08,3.08,0,0,0-4.36-4.35l-4,4-4-4a3.08,3.08,0,1,0-4.35,4.35l4,4-4,4a3.08,3.08,0,1,0,4.35,4.36l4-4,4,4a3.08,3.08,0,0,0,4.36-4.36Z" style="fill:none;stroke:#263238;stroke-linecap:round;stroke-linejoin:round"></path></g><g id="freepik--Window--inject-6"><rect x="173.77" y="53.38" width="428.53" height="367.08" style="fill:#fff;stroke:#263238;stroke-linecap:round;stroke-linejoin:round"></rect><rect x="173.77" y="53.38" width="218.76" height="367.08" style="fill:#2CC9FF;stroke:#263238;stroke-linecap:round;stroke-linejoin:round"></rect><rect x="399.6" y="333.15" width="184.22" height="73.38" style="fill:#2CC9FF;stroke:#263238;stroke-linecap:round;stroke-linejoin:round"></rect><circle cx="417.96" cy="353.55" r="12.9" transform="translate(-69.72 104.85) rotate(-13.21)" style="fill:#263238;stroke:#263238;stroke-linecap:round;stroke-linejoin:round"></circle><path d="M422.93,349.19a5,5,0,1,0-5,5A5,5,0,0,0,422.93,349.19Z" style="fill:#fff;stroke:#263238;stroke-linecap:round;stroke-linejoin:round"></path><path d="M418,355.1a8.22,8.22,0,0,0-8.21,8.22c0,.06,0,.12,0,.18a12.89,12.89,0,0,0,16.41,0c0-.06,0-.12,0-.18A8.22,8.22,0,0,0,418,355.1Z" style="fill:#fff;stroke:#263238;stroke-linecap:round;stroke-linejoin:round"></path><line x1="442.05" y1="347.99" x2="513.94" y2="347.99" style="fill:none;stroke:#263238;stroke-linecap:round;stroke-linejoin:round"></line><line x1="470.51" y1="360.9" x2="561.73" y2="360.9" style="fill:none;stroke:#263238;stroke-linecap:round;stroke-linejoin:round"></line><line x1="442.05" y1="360.9" x2="465.15" y2="360.9" style="fill:none;stroke:#263238;stroke-linecap:round;stroke-linejoin:round"></line><line x1="442.05" y1="373.38" x2="561.73" y2="373.38" style="fill:none;stroke:#263238;stroke-linecap:round;stroke-linejoin:round"></line><line x1="552.92" y1="385.87" x2="561.73" y2="385.87" style="fill:none;stroke:#263238;stroke-linecap:round;stroke-linejoin:round"></line><line x1="442.05" y1="385.87" x2="546.74" y2="385.87" style="fill:none;stroke:#263238;stroke-linecap:round;stroke-linejoin:round"></line><rect x="186.48" y="187.31" width="98.76" height="58.29" style="fill:#fff"></rect><polyline points="285.25 244.1 285.25 245.6 283.75 245.6" style="fill:none;stroke:#263238;stroke-linecap:round;stroke-linejoin:round"></polyline><line x1="280.66" y1="245.6" x2="189.53" y2="245.6" style="fill:none;stroke:#263238;stroke-linecap:round;stroke-linejoin:round;stroke-dasharray:3.0891599655151367,3.0891599655151367"></line><polyline points="187.98 245.6 186.48 245.6 186.48 244.1" style="fill:none;stroke:#263238;stroke-linecap:round;stroke-linejoin:round"></polyline><line x1="186.48" y1="241.19" x2="186.48" y2="190.26" style="fill:none;stroke:#263238;stroke-linecap:round;stroke-linejoin:round;stroke-dasharray:2.909909963607788,2.909909963607788"></line><polyline points="186.48 188.81 186.48 187.31 187.98 187.31" style="fill:none;stroke:#263238;stroke-linecap:round;stroke-linejoin:round"></polyline><line x1="191.07" y1="187.31" x2="282.2" y2="187.31" style="fill:none;stroke:#263238;stroke-linecap:round;stroke-linejoin:round;stroke-dasharray:3.0891599655151367,3.0891599655151367"></line><polyline points="283.75 187.31 285.25 187.31 285.25 188.81" style="fill:none;stroke:#263238;stroke-linecap:round;stroke-linejoin:round"></polyline><line x1="285.25" y1="191.72" x2="285.25" y2="242.64" style="fill:none;stroke:#263238;stroke-linecap:round;stroke-linejoin:round;stroke-dasharray:2.909909963607788,2.909909963607788"></line><rect x="293.57" y="187.31" width="98.76" height="58.29" style="fill:#fff"></rect><polyline points="392.33 244.1 392.33 245.6 390.83 245.6" style="fill:none;stroke:#263238;stroke-linecap:round;stroke-linejoin:round"></polyline><line x1="387.75" y1="245.6" x2="296.62" y2="245.6" style="fill:none;stroke:#263238;stroke-linecap:round;stroke-linejoin:round;stroke-dasharray:3.0891599655151367,3.0891599655151367"></line><polyline points="295.07 245.6 293.57 245.6 293.57 244.1" style="fill:none;stroke:#263238;stroke-linecap:round;stroke-linejoin:round"></polyline><line x1="293.57" y1="241.19" x2="293.57" y2="190.26" style="fill:none;stroke:#263238;stroke-linecap:round;stroke-linejoin:round;stroke-dasharray:2.909909963607788,2.909909963607788"></line><polyline points="293.57 188.81 293.57 187.31 295.07 187.31" style="fill:none;stroke:#263238;stroke-linecap:round;stroke-linejoin:round"></polyline><line x1="298.16" y1="187.31" x2="389.29" y2="187.31" style="fill:none;stroke:#263238;stroke-linecap:round;stroke-linejoin:round;stroke-dasharray:3.0891599655151367,3.0891599655151367"></line><polyline points="390.83 187.31 392.33 187.31 392.33 188.81" style="fill:none;stroke:#263238;stroke-linecap:round;stroke-linejoin:round"></polyline><line x1="392.33" y1="191.72" x2="392.33" y2="242.64" style="fill:none;stroke:#263238;stroke-linecap:round;stroke-linejoin:round;stroke-dasharray:2.909909963607788,2.909909963607788"></line><rect x="173.77" y="53.38" width="428.53" height="17.21" style="fill:#263238;stroke:#263238;stroke-linecap:round;stroke-linejoin:round"></rect><rect x="392.14" y="53.38" width="210.15" height="17.21" style="fill:#2CC9FF;stroke:#263238;stroke-linecap:round;stroke-linejoin:round"></rect><circle cx="559.46" cy="62.23" r="3.87" style="fill:#fff;stroke:#263238;stroke-linecap:round;stroke-linejoin:round"></circle><circle cx="573.84" cy="62.23" r="3.87" style="fill:#fff;stroke:#263238;stroke-linecap:round;stroke-linejoin:round"></circle><circle cx="588.22" cy="62.23" r="3.87" style="fill:#263238;stroke:#263238;stroke-linecap:round;stroke-linejoin:round"></circle><rect x="186.66" y="109.1" width="205.85" height="58.29" style="fill:#fff"></rect><polyline points="392.51 165.89 392.51 167.39 391.01 167.39" style="fill:none;stroke:#263238;stroke-linecap:round;stroke-linejoin:round"></polyline><line x1="387.98" y1="167.39" x2="189.67" y2="167.39" style="fill:none;stroke:#263238;stroke-linecap:round;stroke-linejoin:round;stroke-dasharray:3.027669906616211,3.027669906616211"></line><polyline points="188.16 167.39 186.66 167.39 186.66 165.89" style="fill:none;stroke:#263238;stroke-linecap:round;stroke-linejoin:round"></polyline><line x1="186.66" y1="162.98" x2="186.66" y2="112.05" style="fill:none;stroke:#263238;stroke-linecap:round;stroke-linejoin:round;stroke-dasharray:2.909909963607788,2.909909963607788"></line><polyline points="186.66 110.6 186.66 109.1 188.16 109.1" style="fill:none;stroke:#263238;stroke-linecap:round;stroke-linejoin:round"></polyline><line x1="191.18" y1="109.1" x2="389.5" y2="109.1" style="fill:none;stroke:#263238;stroke-linecap:round;stroke-linejoin:round;stroke-dasharray:3.027669906616211,3.027669906616211"></line><polyline points="391.01 109.1 392.51 109.1 392.51 110.6" style="fill:none;stroke:#263238;stroke-linecap:round;stroke-linejoin:round"></polyline><line x1="392.51" y1="113.51" x2="392.51" y2="164.43" style="fill:none;stroke:#263238;stroke-linecap:round;stroke-linejoin:round;stroke-dasharray:2.909909963607788,2.909909963607788"></line><circle cx="368.72" cy="393.16" r="14.76" transform="translate(-75.18 87.41) rotate(-12.28)" style="fill:#fff;stroke:#263238;stroke-linecap:round;stroke-linejoin:round;stroke-dasharray:3"></circle><circle cx="321.5" cy="393.16" r="14.76" transform="translate(-178.56 304.4) rotate(-40.66)" style="fill:#fff;stroke:#263238;stroke-linecap:round;stroke-linejoin:round;stroke-dasharray:3"></circle><path d="M233.1,99.79H194.27a7.3,7.3,0,0,1-7.31-7.3h0a7.31,7.31,0,0,1,7.31-7.31H233.1a7.31,7.31,0,0,1,7.31,7.31h0A7.3,7.3,0,0,1,233.1,99.79Z" style="fill:#fff;stroke:#263238;stroke-linecap:round;stroke-linejoin:round;stroke-dasharray:3"></path><path d="M303.75,99.79H264.92a7.3,7.3,0,0,1-7.31-7.3h0a7.31,7.31,0,0,1,7.31-7.31h38.83a7.3,7.3,0,0,1,7.3,7.31h0A7.3,7.3,0,0,1,303.75,99.79Z" style="fill:#fff;stroke:#263238;stroke-linecap:round;stroke-linejoin:round;stroke-dasharray:3"></path><path d="M374.39,99.79H335.56a7.31,7.31,0,0,1-7.31-7.3h0a7.31,7.31,0,0,1,7.31-7.31h38.83a7.31,7.31,0,0,1,7.31,7.31h0A7.3,7.3,0,0,1,374.39,99.79Z" style="fill:#fff;stroke:#263238;stroke-linecap:round;stroke-linejoin:round;stroke-dasharray:3"></path><path d="M445,99.79H406.21a7.3,7.3,0,0,1-7.31-7.3h0a7.31,7.31,0,0,1,7.31-7.31H445a7.3,7.3,0,0,1,7.3,7.31h0A7.3,7.3,0,0,1,445,99.79Z" style="fill:#2CC9FF;stroke:#263238;stroke-linecap:round;stroke-linejoin:round"></path><path d="M515.68,99.79H476.85a7.3,7.3,0,0,1-7.3-7.3h0a7.3,7.3,0,0,1,7.3-7.31h38.83A7.31,7.31,0,0,1,523,92.49h0A7.3,7.3,0,0,1,515.68,99.79Z" style="fill:#2CC9FF;stroke:#263238;stroke-linecap:round;stroke-linejoin:round"></path><path d="M586.33,99.79H547.5a7.3,7.3,0,0,1-7.31-7.3h0a7.31,7.31,0,0,1,7.31-7.31h38.83a7.31,7.31,0,0,1,7.31,7.31h0A7.31,7.31,0,0,1,586.33,99.79Z" style="fill:#2CC9FF;stroke:#263238;stroke-linecap:round;stroke-linejoin:round"></path><line x1="392.33" y1="27.3" x2="392.33" y2="439.68" style="fill:none;stroke:#263238;stroke-miterlimit:10"></line><line x1="453.61" y1="187.06" x2="462.63" y2="187.06" style="fill:none;stroke:#263238;stroke-linecap:round;stroke-linejoin:round"></line><line x1="404.39" y1="187.06" x2="447.84" y2="187.06" style="fill:none;stroke:#263238;stroke-linecap:round;stroke-linejoin:round"></line><line x1="404.39" y1="198.87" x2="462.63" y2="198.87" style="fill:none;stroke:#263238;stroke-linecap:round;stroke-linejoin:round"></line><line x1="418.18" y1="210.67" x2="462.63" y2="210.67" style="fill:none;stroke:#263238;stroke-linecap:round;stroke-linejoin:round"></line><line x1="404.39" y1="210.67" x2="412.41" y2="210.67" style="fill:none;stroke:#263238;stroke-linecap:round;stroke-linejoin:round"></line><line x1="404.39" y1="222.47" x2="462.63" y2="222.47" style="fill:none;stroke:#263238;stroke-linecap:round;stroke-linejoin:round"></line><line x1="404.39" y1="234.28" x2="462.63" y2="234.28" style="fill:none;stroke:#263238;stroke-linecap:round;stroke-linejoin:round"></line><line x1="404.39" y1="246.08" x2="462.63" y2="246.08" style="fill:none;stroke:#263238;stroke-linecap:round;stroke-linejoin:round"></line><line x1="442.08" y1="257.89" x2="462.63" y2="257.89" style="fill:none;stroke:#263238;stroke-linecap:round;stroke-linejoin:round"></line><line x1="404.39" y1="257.89" x2="434.66" y2="257.89" style="fill:none;stroke:#263238;stroke-linecap:round;stroke-linejoin:round"></line><line x1="404.39" y1="269.69" x2="490.17" y2="269.69" style="fill:none;stroke:#263238;stroke-linecap:round;stroke-linejoin:round"></line><line x1="404.39" y1="281.5" x2="490.17" y2="281.5" style="fill:none;stroke:#263238;stroke-linecap:round;stroke-linejoin:round"></line><line x1="438.78" y1="293.3" x2="490.17" y2="293.3" style="fill:none;stroke:#263238;stroke-linecap:round;stroke-linejoin:round"></line><line x1="404.39" y1="293.3" x2="432.19" y2="293.3" style="fill:none;stroke:#263238;stroke-linecap:round;stroke-linejoin:round"></line><line x1="404.39" y1="305.11" x2="490.17" y2="305.11" style="fill:none;stroke:#263238;stroke-linecap:round;stroke-linejoin:round"></line><line x1="480.4" y1="316.91" x2="490.17" y2="316.91" style="fill:none;stroke:#263238;stroke-linecap:round;stroke-linejoin:round"></line><line x1="404.39" y1="316.91" x2="474.63" y2="316.91" style="fill:none;stroke:#263238;stroke-linecap:round;stroke-linejoin:round"></line><line x1="501.19" y1="269.69" x2="586.97" y2="269.69" style="fill:none;stroke:#263238;stroke-linecap:round;stroke-linejoin:round"></line><line x1="544.68" y1="281.5" x2="586.97" y2="281.5" style="fill:none;stroke:#263238;stroke-linecap:round;stroke-linejoin:round"></line><line x1="501.19" y1="281.5" x2="539.32" y2="281.5" style="fill:none;stroke:#263238;stroke-linecap:round;stroke-linejoin:round"></line><line x1="501.19" y1="293.3" x2="586.97" y2="293.3" style="fill:none;stroke:#263238;stroke-linecap:round;stroke-linejoin:round"></line><line x1="563.22" y1="305.11" x2="586.97" y2="305.11" style="fill:none;stroke:#263238;stroke-linecap:round;stroke-linejoin:round"></line><line x1="501.19" y1="305.11" x2="555.39" y2="305.11" style="fill:none;stroke:#263238;stroke-linecap:round;stroke-linejoin:round"></line><line x1="501.19" y1="316.91" x2="586.97" y2="316.91" style="fill:none;stroke:#263238;stroke-linecap:round;stroke-linejoin:round"></line><path d="M408.36,168.69V118.94H399v-5.76h26.25v5.76H416.1v49.75Z" style="fill:#263238"></path><path d="M430.56,168.69V113.18h21.52v5.76H438.31v18.37h11.17v5.48H438.31v20.35h13.91v5.55Z" style="fill:#263238"></path><path d="M455,168.69l11.58-29.05-11.38-26.46h7.2l8.43,19.6,7.67-19.6h7.2l-11.65,27.07,12.2,28.44h-7.2l-9-20.9-7.82,20.9Z" style="fill:#263238"></path><path d="M497.59,168.69V118.94H488.2v-5.76h26.25v5.76h-9.12v49.75Z" style="fill:#263238"></path></g><g id="freepik--Video--inject-6"><rect x="649.38" y="299.81" width="82.25" height="56.68" style="fill:#fff;stroke:#263238;stroke-linecap:round;stroke-linejoin:round"></rect><rect x="649.38" y="356.5" width="82.25" height="7.97" style="fill:#2CC9FF;stroke:#263238;stroke-linecap:round;stroke-linejoin:round"></rect><polygon points="706.84 329.48 679.2 313.51 679.2 345.44 706.84 329.48" style="fill:#263238;stroke:#263238;stroke-linecap:round;stroke-linejoin:round"></polygon></g><g id="freepik--character-2--inject-6"><polygon points="602.29 138.61 531.56 135.17 526.8 232.99 602.29 236.67 602.29 138.61" style="fill:#263238;stroke:#263238;stroke-linecap:round;stroke-linejoin:round"></polygon><rect x="523.93" y="128.14" width="138.47" height="97.94" transform="translate(9.31 -28.62) rotate(2.79)" style="fill:#fff;stroke:#263238;stroke-linecap:round;stroke-linejoin:round"></rect><polygon points="662.24 181.92 637.65 157.69 597.23 196.67 577.02 181.5 521.63 222.66 659.93 229.39 662.24 181.92" style="fill:#2CC9FF;stroke:#263238;stroke-linecap:round;stroke-linejoin:round"></polygon><circle cx="557.25" cy="151.68" r="13.71" transform="translate(-20.24 144.94) rotate(-14.56)" style="fill:#2CC9FF;stroke:#263238;stroke-linecap:round;stroke-linejoin:round"></circle><path d="M598.28,177.82s-4.75,2.29-5.63,4.93-1.06,6.52-2.29,7.75-7.93,4.41-7.93,5.81,2.29,4.06,2.29,4.06-.53,11.09,1.23,12.85,9,2.47,9,2.47l-.18,7.75s4.23-.18,11.27,0,9.69.53,9.69.53l.18-14.8s8.63-5.11,9-13.21-6-15.5-12.86-18.32S598.28,177.82,598.28,177.82Z" style="fill:#fff;stroke:#263238;stroke-linecap:round;stroke-linejoin:round"></path><path d="M606.91,171.65s1.41-4.22-1-4.4-12.69,7.4-10.92,10.57,8.45,1.58,7.92,3.35-4.93,4.05-4.23,6.16,1.94,5.46,1.77,6-3.53,2.11-3.17,3.35-.18,1.93,1,2.11,4.41-4.05,6.7-2.11,3.52,7.57,2.29,10-1.94,3.34,0,5.28,9,3.17,10,1.59,10-6.7,11.62-12.51,1.23-15-3.35-19.2a61.73,61.73,0,0,0-10.74-7.57s2.29-2.65.35-3.35S608.32,170.6,606.91,171.65Z" style="fill:#263238;stroke:#263238;stroke-linecap:round;stroke-linejoin:round"></path><path d="M600.62,198.15s3.83-3,5,.66-3,8.57-5.4,9-4.35-2-4.09-2.37" style="fill:none;stroke:#263238;stroke-linecap:round;stroke-linejoin:round"></path><path d="M593.24,187.21s1.85-1.19,3.16,1.18" style="fill:none;stroke:#263238;stroke-linecap:round;stroke-linejoin:round"></path><path d="M594.29,192c-.18,1.19-.68,2.1-1.11,2s-.64-1.08-.46-2.27.68-2.1,1.11-2S594.47,190.82,594.29,192Z" style="fill:#263238"></path><path d="M585.6,203s3.69,1.31,6.06-1.59" style="fill:none;stroke:#263238;stroke-linecap:round;stroke-linejoin:round"></path><path d="M618.48,219.66s-15.88-1.77-18.83-1.38-9.41,3.14-11.57,4.51a16.51,16.51,0,0,0-3.33,2.75s17.06-1.37,23.14-.59a159.82,159.82,0,0,1,15.69,3.34S620.64,220.44,618.48,219.66Z" style="fill:#bdbdbd;stroke:#263238;stroke-linecap:round;stroke-linejoin:round"></path><path d="M658.1,244.17S653.2,235,653,232.6s1.37-7.85,1.76-9,0-5.49,1.57-4.9,1.77,2.15,1.77,3.53-.79,3.13-.79,4.11,3-2.55,3-2.55a36.85,36.85,0,0,1,.78-5.49c.39-.78,2.55-1.37,3.33-.19s1,5.49,1,5.49a82.61,82.61,0,0,1,1.77,8.43c.2,2.35-3.14,8.83-3.73,9.22s-.78,4.51-.78,4.51Z" style="fill:#fff;stroke:#263238;stroke-linecap:round;stroke-linejoin:round"></path><path d="M537.48,205.34s-3.92-12.75-5.68-15.3-4.12-3.92-5.5-5.49-2.54-5.88-4.31-3.92-.39,4.9.2,5.49-4.91,3.73-4.91,4.71,1.77,2.94,2,3.53,2.16,6.66,3.34,7.06,5.88,2.74,5.88,2.74l4.12,4.91Z" style="fill:#fff;stroke:#263238;stroke-linecap:round;stroke-linejoin:round"></path><line x1="522.19" y1="186.12" x2="526.5" y2="190.83" style="fill:none;stroke:#263238;stroke-linecap:round;stroke-linejoin:round"></line><path d="M573.26,303.39s-1.16,26.19-1.16,36.9,4.35,85.48,4.35,89.12S579.18,457,579.18,457s-3.43.21-3.43,1.28.43,6.21.43,6.21a31.86,31.86,0,0,1-8.14,5.36c-4.5,1.93-5.79,3.21-4.5,4.71s13.92,2.79,19.07,2.15,8.56-.65,9-2.15a58.7,58.7,0,0,0,.65-8.14c0-.85,1.28-4.28,1.5-7.28s-.22-3.86-.22-6.64,9.57-103.08,9.57-103.08l21.16,51.5,19.35,57.36s-1.29.86-.86,1.93,4.07,9.85,4.07,9.85-.21,4.29.43,4.72,4.71,1.5,10.93,1.71,14.56-.64,14.35-1.93-3.64-3-5.14-4.28-7.71-9.21-7.71-9.21a47.38,47.38,0,0,0-1.72-5.14c-.43-.65-2.78-4.07-2.78-4.07s-8.11-53-9.18-56.45-15.2-67.11-15.2-67.11l-4.62-22.13Z" style="fill:#263238;stroke:#263238;stroke-linecap:round;stroke-linejoin:round"></path><path d="M584.75,225.54s-12.94,1.57-17.46,3.14-18.82,2.94-18.82,2.94-8.83-27.07-9.42-27.26-6.67,0-7.25,2.35l-.59,2.36s5.69,44.51,6.67,46.67,2.94,1.77,4.31,1.57,27.46-3.53,27.46-3.53l1.81,47.91a6.61,6.61,0,0,0,.74,3.08c.78,1.38,9.8,7.26,27.85,6.87s26.87-2,27.45-3.53-.78-7.46-1-8.63,5.1-26.09,5.1-26.09,27.46,15.3,32,15.5,4.71-5.69,4.51-7.46-5.1-39.61-5.1-39.61a6.83,6.83,0,0,0-4.12-1.57h-2.35l-2.94,22.94s-12-16.27-13.73-19.22a47,47,0,0,0-8-10.19,54,54,0,0,0-8.24-5.49S612.79,220.24,584.75,225.54Z" style="fill:#bdbdbd;stroke:#263238;stroke-linecap:round;stroke-linejoin:round"></path><line x1="634.26" y1="251.83" x2="634.76" y2="247.7" style="fill:none;stroke:#263238;stroke-linecap:round;stroke-linejoin:round"></line><line x1="631.62" y1="273.39" x2="633.73" y2="256.15" style="fill:none;stroke:#263238;stroke-linecap:round;stroke-linejoin:round"></line><path d="M603.05,258.93c1.33,4,2.51,8,3.27,11.33" style="fill:none;stroke:#263238;stroke-linecap:round;stroke-linejoin:round"></path><path d="M594.16,235.35s4.43,10.55,8.13,21.34" style="fill:none;stroke:#263238;stroke-linecap:round;stroke-linejoin:round"></path><path d="M606.71,261.43a66.72,66.72,0,0,1,3.73,16.08" style="fill:none;stroke:#263238;stroke-linecap:round;stroke-linejoin:round"></path><line x1="569.1" y1="249.09" x2="567.69" y2="237.11" style="fill:none;stroke:#263238;stroke-linecap:round;stroke-linejoin:round"></line><line x1="569.65" y1="253.78" x2="569.3" y2="250.81" style="fill:none;stroke:#263238;stroke-linecap:round;stroke-linejoin:round"></line><path d="M548.47,231.62s-4.91,1.18-6.87,4.71" style="fill:none;stroke:#263238;stroke-linecap:round;stroke-linejoin:round"></path><line x1="661.42" y1="270.87" x2="663.39" y2="272.8" style="fill:none;stroke:#263238;stroke-linecap:round;stroke-linejoin:round"></line><line x1="653.59" y1="263.19" x2="659.43" y2="268.92" style="fill:none;stroke:#263238;stroke-linecap:round;stroke-linejoin:round"></line></g><g id="freepik--character-1--inject-6"><rect x="173.95" y="249.83" width="153.04" height="102.03" style="fill:#263238;stroke:#263238;stroke-linecap:round;stroke-linejoin:round"></rect><rect x="141.91" y="239.91" width="178.52" height="102.32" style="fill:#fff;stroke:#263238;stroke-linecap:round;stroke-linejoin:round"></rect><line x1="141.91" y1="342.23" x2="320.43" y2="239.91" style="fill:none;stroke:#263238;stroke-linecap:round;stroke-linejoin:round"></line><line x1="141.91" y1="239.91" x2="320.43" y2="342.23" style="fill:none;stroke:#263238;stroke-linecap:round;stroke-linejoin:round"></line><path d="M215.94,265.55a30.53,30.53,0,0,1,1.23,8.72c-.14,4.36.54,6.81,1.36,8s3.27,2.45,2,3.4-3.81,2.73-3.81,2.73A109.33,109.33,0,0,1,214,299.2c-1.22,3.4-8.44-1-8.44-1s-2.86,5.73-3.14,7.22-.81,1.64-.81,1.64l-16.21-5,2-7.09s-3.68-12.26-3.27-21.38S197.28,258.74,204,259,215.94,265.55,215.94,265.55Z" style="fill:#fff;stroke:#263238;stroke-linecap:round;stroke-linejoin:round"></path><path d="M216.21,279.44c0,.91-.24,1.64-.54,1.64s-.55-.73-.55-1.64.25-1.63.55-1.63S216.21,278.54,216.21,279.44Z" style="fill:#263238"></path><path d="M213.63,276.72s1.63-1.91,3.13-.82" style="fill:none;stroke:#263238;stroke-linecap:round;stroke-linejoin:round"></path><path d="M212.26,289.8s1.37,1.77,3.14,1.09" style="fill:none;stroke:#263238;stroke-linecap:round;stroke-linejoin:round"></path><path d="M222.34,263.64A19.61,19.61,0,0,1,217,272a25.75,25.75,0,0,1-8.44,4.63s.95,1-.14,1.37-2.86-1-3.95-.14-3.82,9.67-2.73,14.17,6.95,3.54,6.95,3.54-6.54,5.86-11.58,6.27-15.67-3.27-18.12-5.86-6.13-11.72-4.08-17.17,5.72-15.66,9.53-19.34,12.26-6.27,16.35-6.54,9,.68,12,3.27,4.36,5.31,4.9,5.31S222.62,261.73,222.34,263.64Z" style="fill:#263238;stroke:#263238;stroke-linecap:round;stroke-linejoin:round"></path><path d="M208.31,279.85s-2.18-2.18-3.81-2-2.32,7.76-1.09,9.4,4.09.27,4.09.27" style="fill:none;stroke:#263238;stroke-linecap:round;stroke-linejoin:round"></path><path d="M184.06,300.42s20.57,6.13,21,6.95,2.05,6.27,2.05,6.27l-26.3-9.54Z" style="fill:#bdbdbd;stroke:#263238;stroke-linecap:round;stroke-linejoin:round"></path><path d="M269.88,343.23s4.83-4,6.44-4.67,6.27-.16,7.72.16,4-1.28,5.63-.64,1,1.45,0,2.41a16.3,16.3,0,0,1-3.22,2.1l5.33,0s0,.2,0,1.48a3.71,3.71,0,0,1-1.45,2.58,16.06,16.06,0,0,1-4.18,4c-2.74,1.77-7.88,0-9.81-.81a26.92,26.92,0,0,0-4.51-1.28l-1.93.64-2.09-5.95Z" style="fill:#fff;stroke:#263238;stroke-linecap:round;stroke-linejoin:round"></path><line x1="286.45" y1="342.59" x2="283.48" y2="343.72" style="fill:none;stroke:#263238;stroke-linecap:round;stroke-linejoin:round"></line><path d="M151,314.27s.16-5.63.32-6.59,1.29-5.79,1-7.08-4-5.63-4.35-7.08-.48-4.83-1.28-5.63-2.58-.16-2.9,1.29a11.57,11.57,0,0,0-.32,2.25l.48,4.5a1.33,1.33,0,0,1-1.77-1c-.48-1.45-.8-2.74-.8-2.74s-3.7,1.29-3.38,3.06a19.82,19.82,0,0,0,.8,3.06s-2.57,6.43-1.28,7.88,5.31,5.47,5.79,6.11a52.34,52.34,0,0,1,2.09,5.47Z" style="fill:#fff;stroke:#263238;stroke-linecap:round;stroke-linejoin:round"></path><path d="M143.92,295.93a4.18,4.18,0,0,1,2.9,1.93" style="fill:none;stroke:#263238;stroke-linecap:round;stroke-linejoin:round"></path><path d="M158.4,367.52s-6,12.39-8,19.47-.65,15.6,1.61,23.48,10,40.22,10,40.22-27.19,7.24-28.47,7.56-3.22-2.25-5.15-1.77a59.72,59.72,0,0,0-8.21,3.54c-.8.48-8.2-5.47-9.81-5.31s-5.63,2.25-8,4.5-13,4.83-15.12,8.05-3.87,4-2.74,4.82,32.66-1.6,35.39-1.6,41.51,2.09,46.81,1.77,13.52-1.45,14.16-2.58.8-28,1.77-36.19,1-18.5,1-18.5,15.76-1.13,26.7-4.19S226,406.45,226,406.45L220.66,452s-3.06,4-3.06,4.66V465s-2.25,6.75-1.45,7.24,11.42,4.18,14.64,4.5,15.77,0,17.21-.64,2.09-2.58,1.61-3.38-5.15-1.93-6.27-3.06-8.37-7.56-8.37-7.56.49-4.5.16-5.47-1.12-5.47-1.12-5.47l15.12-44.88s5-19,4.66-20.43-2.09-2.74-3-3.38-26.22-4-33.3-3.38a132.19,132.19,0,0,1-13.68.48l-3.7-8.68s-12.54,2.25-23.48.16-17.21-6.27-17.21-6.27Z" style="fill:#263238;stroke:#263238;stroke-linecap:round;stroke-linejoin:round"></path><line x1="204.41" y1="381.52" x2="208.59" y2="391.65" style="fill:none;stroke:#858585;stroke-linecap:round;stroke-linejoin:round"></line><path d="M227.73,405.16s12.39-3.7,16.9-7.24" style="fill:none;stroke:#858585;stroke-linecap:round;stroke-linejoin:round"></path><path d="M152.93,403.88s10.62,9.81,28.8,10.29" style="fill:none;stroke:#858585;stroke-linecap:round;stroke-linejoin:round"></path><path d="M163.07,453a22.76,22.76,0,0,0,6.77,7.26" style="fill:none;stroke:#858585;stroke-linecap:round;stroke-linejoin:round"></path><path d="M180.79,304.1s-17.89,9.21-18.53,10.17S157,327.46,157,327.46l-5.63-16.4s-5,1-6.27,2.73A34,34,0,0,0,143,317s4,25.09,4,25.58-1,3.7.16,5.79,4.66,8.36,8.36,8.68,4.83-1.12,4.83-1.12-1.93,5.47-2.9,8.36-.32,4.19,1.29,4.67,14.32,6.27,25.1,6.75,16.57-1.77,17.69-3.21a12.75,12.75,0,0,0,1.93-5c.32-1.45,7.08-14.8,7.08-14.8s16.09,14,19.31,15.12,40.86-17.21,40.86-17.21,1-3.38-.33-5-2.57-3.05-3.54-2.89-31.53,6.75-31.53,6.75-18.17-28.15-19.3-29.6-8.9-6.26-8.9-6.26Z" style="fill:#bdbdbd;stroke:#263238;stroke-linecap:round;stroke-linejoin:round"></path><line x1="210.52" y1="352.72" x2="204.57" y2="346.29" style="fill:none;stroke:#263238;stroke-linecap:round;stroke-linejoin:round"></line><path d="M197,354.88a12.85,12.85,0,0,0,3.41,2" style="fill:none;stroke:#263238;stroke-linecap:round;stroke-linejoin:round"></path><path d="M186.71,335.67s2.27,10.18,7.73,16.69" style="fill:none;stroke:#263238;stroke-linecap:round;stroke-linejoin:round"></path><path d="M181.4,352.24s8.37,7.08,15.29,8.68" style="fill:none;stroke:#263238;stroke-linecap:round;stroke-linejoin:round"></path><path d="M161.78,328.49a25.86,25.86,0,0,1,0-3.6" style="fill:none;stroke:#263238;stroke-linecap:round;stroke-linejoin:round"></path><path d="M160.33,355.94s1.93-8.05,2.09-12.71c.09-2.48-.19-6.82-.42-10.71" style="fill:none;stroke:#263238;stroke-linecap:round;stroke-linejoin:round"></path><line x1="149.4" y1="342.3" x2="147.78" y2="345.48" style="fill:none;stroke:#263238;stroke-linecap:round;stroke-linejoin:round"></line><line x1="156.95" y1="327.46" x2="150.56" y2="340.02" style="fill:none;stroke:#263238;stroke-linecap:round;stroke-linejoin:round"></line></g></svg>
