<?xml version="1.0" encoding="UTF-8"?>
<svg id="Capa_2" data-name="Capa 2" xmlns="http://www.w3.org/2000/svg" viewBox="0 0 203.07 168.75">
  <defs>
    <style>
      .cls-1 {
        fill: #007d99;
      }
    </style>
  </defs>
  <g id="OBJECTS">
    <path class="cls-1" d="M202.84,161.31c-4.4-17.13-13.93-32.62-27.65-45.06,.06-.19,.1-.39,.16-.59,.07-.25,.14-.51,.2-.77,.13-.52,.24-1.05,.34-1.58,.05-.24,.09-.48,.13-.73,.1-.62,.18-1.25,.24-1.89,.02-.16,.04-.33,.05-.49,.07-.83,.11-1.67,.11-2.52,0-.95-.04-1.93-.1-2.93-.91-17.64-9.8-42.22-23.19-63.73C145.46,28.69,125.07,0,101.54,0c-.15,0-.3,.02-.45,.02-23.35,.35-43.54,28.75-51.17,41-13.4,21.53-22.3,46.14-23.19,63.78-.06,.98-.09,1.94-.09,2.87,0,.85,.04,1.67,.1,2.49,.02,.22,.05,.44,.07,.66,.06,.57,.12,1.14,.21,1.7,.05,.3,.1,.59,.16,.88,.09,.48,.19,.95,.31,1.42,.07,.3,.15,.59,.23,.89,.05,.18,.09,.36,.14,.54C14.14,128.7,4.62,144.21,.21,161.36c-.04,.14-.06,.28-.09,.41,0,.05-.02,.09-.03,.13,0,.02,0,.04,0,.05-.02,.13-.04,.27-.05,.4,0,.03,0,.07-.01,.1,0,.04,0,.09,0,.13,0,.11-.02,.21-.02,.32,0,1.14,.33,2.2,.9,3.1,0,0,0,0,0,0,0,0,0,0,0,0,.1,.16,.21,.32,.33,.46,0,0,0,0,0,0,0,0,0,0,0,0,.77,.99,1.85,1.72,3.1,2.05,.02,0,.05,.02,.07,.03,.02,0,.04,0,.06,0,.17,.04,.34,.07,.52,.1,0,0,.01,0,.02,0,.06,.01,.13,.02,.19,.03,0,0,.01,0,.02,0,.2,.02,.4,.03,.6,.03,.01,0,.03,0,.04,0H197.23c.49,0,.96-.07,1.41-.18,0,0,.02,0,.03,0,.01,0,.02,0,.03-.01,2.51-.65,4.37-2.93,4.37-5.65,0-.55-.08-1.09-.23-1.6ZM61.61,47.29c14.09-21.63,29.76-35.61,39.93-35.61,.06,0,.11,0,.17,0,10.17,.16,25.74,14.1,39.75,35.61,13.93,21.39,23.29,45.66,23.29,60.39,0,2.91-.55,5.36-1.69,7.52-.1,.17-.27,.34-.49,.51,0,0,0,0-.01,0-.1,.07-.21,.15-.33,.22-.02,.02-.05,.03-.07,.05-.1,.06-.21,.12-.32,.18-.07,.04-.13,.07-.21,.11-.66,.33-1.48,.66-2.37,.98,.22-1.47,.35-2.96,.38-4.47,.02-.23,.02-.47,.02-.7,0-24.49-25.96-37.11-57.97-37.11s-57.97,12.62-57.97,37.11c0,.23,0,.47,.02,.7,.03,1.54,.16,3.07,.39,4.56-.95-.33-1.84-.67-2.56-1.02-.04-.02-.09-.04-.13-.07-.1-.05-.2-.1-.29-.16-.11-.06-.22-.12-.31-.19-.05-.03-.11-.07-.16-.1-.11-.08-.21-.15-.3-.23-.03-.02-.06-.05-.08-.07-.11-.1-.19-.2-.25-.3-1.14-2.16-1.69-4.62-1.69-7.53,0-14.72,9.36-38.99,23.29-60.39Zm52.94,51.24c-1.73,0-3.14-1.4-3.14-3.14s1.41-3.14,3.14-3.14h9.73c1.73,0,3.14,1.41,3.14,3.14v23.7c0,1.74-1.41,3.14-3.14,3.14h-9.73c-1.73,0-3.14-1.4-3.14-3.14s1.41-3.14,3.14-3.14h6.58v-17.41h-6.58Zm-4.47-7.95l-11.09,35.21c-.42,1.35-1.66,2.2-3,2.2-.31,0-.63-.04-.94-.14-1.65-.52-2.58-2.29-2.05-3.94l11.08-35.21c.52-1.66,2.29-2.58,3.94-2.06,1.66,.52,2.58,2.29,2.06,3.94Zm-21.56,25.36c1.74,0,3.14,1.41,3.14,3.14s-1.4,3.14-3.14,3.14h-9.72c-1.74,0-3.14-1.4-3.14-3.14v-23.7c0-1.73,1.4-3.14,3.14-3.14h9.72c1.74,0,3.14,1.41,3.14,3.14s-1.4,3.14-3.14,3.14h-6.57v17.41h6.57ZM13.77,157.07c4.26-11.67,11.38-22.3,20.94-31.23,2.14,1.33,4.63,2.29,7.18,3.09h0c1.62,.5,3.26,.94,4.85,1.37,.93,.25,1.84,.49,2.7,.74,0,0,.02,0,.03,.01,0,0,0,0,.02,0s.02,0,.03,0c15.96,6.68,37.72,4.51,48.09,17.9,2.11,2.72,6.15,2.75,8.35,.09,10.6-12.83,32.29-11.32,48.2-18.12,0-.02,.02-.03,.03-.04,.69-.19,1.4-.38,2.13-.58,3.79-1.02,7.87-2.12,11.23-4.01,.03-.02,.06-.03,.09-.05,.24-.14,.49-.27,.72-.41,9.56,8.94,16.68,19.57,20.95,31.23H13.77Z"/>
  </g>
</svg>