<svg width="1440" height="298" viewBox="0 0 1440 298" fill="none" xmlns="http://www.w3.org/2000/svg">
<rect width="1440" height="300" fill="url(#paint0_linear_11_8)"/>
<g clip-path="url(#clip0_11_8)">
<path d="M1225.84 202.93C1222.85 191.256 1216.38 180.7 1207.05 172.222C1207.09 172.093 1207.12 171.956 1207.16 171.82C1207.21 171.65 1207.26 171.473 1207.3 171.295C1207.39 170.941 1207.46 170.58 1207.53 170.219C1207.56 170.055 1207.59 169.892 1207.62 169.721C1207.69 169.299 1207.74 168.869 1207.78 168.433C1207.79 168.324 1207.81 168.208 1207.81 168.099C1207.86 167.534 1207.89 166.961 1207.89 166.382C1207.89 165.735 1207.86 165.067 1207.82 164.385C1207.2 152.364 1201.16 135.613 1192.06 120.954C1186.85 112.552 1172.99 93 1157 93C1156.9 93 1156.8 93.0136 1156.7 93.0136C1140.83 93.2521 1127.11 112.606 1121.92 120.954C1112.82 135.627 1106.77 152.398 1106.16 164.419C1106.12 165.087 1106.1 165.741 1106.1 166.375C1106.1 166.954 1106.13 167.513 1106.17 168.072C1106.19 168.222 1106.21 168.372 1106.22 168.522C1106.26 168.91 1106.3 169.299 1106.36 169.68C1106.4 169.885 1106.43 170.082 1106.47 170.28C1106.53 170.607 1106.6 170.927 1106.68 171.248C1106.73 171.452 1106.78 171.65 1106.84 171.854C1106.87 171.977 1106.9 172.1 1106.93 172.222C1097.61 180.707 1091.14 191.276 1088.14 202.964C1088.12 203.059 1088.1 203.155 1088.08 203.243C1088.08 203.277 1088.07 203.305 1088.06 203.332C1088.06 203.345 1088.06 203.359 1088.06 203.366C1088.05 203.455 1088.03 203.55 1088.03 203.639C1088.03 203.659 1088.03 203.686 1088.02 203.707C1088.02 203.734 1088.02 203.768 1088.02 203.795C1088.02 203.87 1088.01 203.938 1088.01 204.013C1088.01 204.79 1088.23 205.513 1088.62 206.126C1088.69 206.235 1088.76 206.344 1088.84 206.439C1089.37 207.114 1090.1 207.612 1090.95 207.836C1090.96 207.836 1090.98 207.85 1091 207.857C1091.01 207.857 1091.02 207.857 1091.04 207.857C1091.15 207.884 1091.27 207.905 1091.39 207.925C1091.39 207.925 1091.4 207.925 1091.4 207.925C1091.45 207.932 1091.49 207.939 1091.53 207.945C1091.53 207.945 1091.54 207.945 1091.55 207.945C1091.68 207.959 1091.82 207.966 1091.96 207.966C1091.96 207.966 1091.98 207.966 1091.98 207.966H1222.03C1222.36 207.966 1222.68 207.918 1222.99 207.843C1222.99 207.843 1223 207.843 1223.01 207.843C1223.02 207.843 1223.02 207.843 1223.03 207.836C1224.74 207.393 1226 205.84 1226 203.986C1226 203.611 1225.95 203.243 1225.84 202.896V202.93ZM1129.87 125.227C1139.44 110.487 1150.09 100.96 1157 100.96C1157.04 100.96 1157.08 100.96 1157.12 100.96C1164.03 101.069 1174.61 110.569 1184.13 125.227C1193.6 139.804 1199.96 156.344 1199.96 166.382C1199.96 168.365 1199.59 170.035 1198.81 171.507C1198.74 171.623 1198.63 171.738 1198.48 171.854C1198.48 171.854 1198.48 171.854 1198.47 171.854C1198.4 171.902 1198.33 171.956 1198.25 172.004C1198.23 172.018 1198.21 172.025 1198.2 172.038C1198.13 172.079 1198.06 172.12 1197.98 172.161C1197.93 172.188 1197.89 172.209 1197.84 172.236C1197.39 172.461 1196.83 172.686 1196.23 172.904C1196.38 171.902 1196.47 170.887 1196.49 169.857C1196.5 169.701 1196.5 169.537 1196.5 169.38C1196.5 152.691 1178.86 144.091 1157.11 144.091C1135.35 144.091 1117.71 152.691 1117.71 169.38C1117.71 169.537 1117.71 169.701 1117.72 169.857C1117.74 170.907 1117.83 171.95 1117.99 172.965C1117.34 172.74 1116.74 172.508 1116.25 172.27C1116.22 172.256 1116.19 172.243 1116.16 172.222C1116.09 172.188 1116.03 172.154 1115.96 172.113C1115.89 172.072 1115.81 172.031 1115.75 171.984C1115.72 171.963 1115.68 171.936 1115.64 171.916C1115.57 171.861 1115.5 171.813 1115.44 171.759C1115.42 171.745 1115.4 171.725 1115.39 171.711C1115.31 171.643 1115.26 171.575 1115.22 171.507C1114.44 170.035 1114.07 168.358 1114.07 166.375C1114.07 156.344 1120.43 139.804 1129.9 125.22L1129.87 125.227ZM1165.84 160.146C1164.67 160.146 1163.71 159.192 1163.71 158.007C1163.71 156.821 1164.67 155.867 1165.84 155.867H1172.46C1173.63 155.867 1174.59 156.828 1174.59 158.007V174.158C1174.59 175.343 1173.63 176.297 1172.46 176.297H1165.84C1164.67 176.297 1163.71 175.343 1163.71 174.158C1163.71 172.972 1164.67 172.018 1165.84 172.018H1170.32V160.153H1165.84V160.146ZM1162.81 154.729L1155.27 178.724C1154.99 179.644 1154.14 180.223 1153.23 180.223C1153.02 180.223 1152.8 180.196 1152.59 180.127C1151.47 179.773 1150.84 178.567 1151.2 177.442L1158.73 153.447C1159.08 152.316 1160.29 151.689 1161.41 152.044C1162.54 152.398 1163.16 153.604 1162.81 154.729ZM1148.16 172.011C1149.34 172.011 1150.29 172.972 1150.29 174.151C1150.29 175.33 1149.34 176.291 1148.16 176.291H1141.55C1140.37 176.291 1139.42 175.337 1139.42 174.151V158C1139.42 156.821 1140.37 155.86 1141.55 155.86H1148.16C1149.34 155.86 1150.29 156.821 1150.29 158C1150.29 159.179 1149.34 160.14 1148.16 160.14H1143.69V172.004H1148.16V172.011ZM1097.36 200.04C1100.25 192.087 1105.09 184.843 1111.59 178.758C1113.04 179.664 1114.73 180.318 1116.47 180.863C1117.57 181.204 1118.68 181.504 1119.76 181.797C1120.4 181.967 1121.01 182.131 1121.6 182.301C1121.6 182.301 1121.61 182.301 1121.62 182.308C1121.62 182.308 1121.62 182.308 1121.63 182.308C1121.65 182.308 1121.65 182.308 1121.65 182.308C1132.5 186.86 1147.29 185.382 1154.33 194.507C1155.77 196.36 1158.51 196.381 1160.01 194.568C1167.21 185.825 1181.95 186.854 1192.76 182.22C1192.76 182.206 1192.78 182.199 1192.78 182.192C1193.25 182.063 1193.73 181.933 1194.23 181.797C1196.81 181.102 1199.58 180.352 1201.86 179.064C1201.88 179.051 1201.9 179.044 1201.92 179.03C1202.09 178.935 1202.26 178.846 1202.41 178.751C1208.91 184.843 1213.75 192.087 1216.65 200.033H1097.36V200.04Z" fill="white"/>
</g>
<g style="mix-blend-mode:overlay">
<path d="M233 313C467.231 -64.6124 509.904 149.498 629.865 242.928C749.825 336.357 763.101 8.64514 1043.8 40.1423C1268.36 65.3401 1416.17 167.193 1462 214.969" stroke="url(#paint1_linear_11_8)" stroke-width="8"/>
</g>
<defs>
<linearGradient id="paint0_linear_11_8" x1="0" y1="0" x2="1441.09" y2="294.662" gradientUnits="userSpaceOnUse">
<stop stop-color="#00ACCB"/>
<stop offset="1"/>
</linearGradient>
<linearGradient id="paint1_linear_11_8" x1="587.267" y1="61.4908" x2="1067.34" y2="372.308" gradientUnits="userSpaceOnUse">
<stop stop-color="#833AB4"/>
<stop offset="0.45625" stop-color="#FD1D1D"/>
<stop offset="1" stop-color="#FCB045"/>
</linearGradient>
<clipPath id="clip0_11_8">
<rect width="138" height="115" fill="white" transform="translate(1088 93)"/>
</clipPath>
</defs>
</svg>
