<svg width="1920" height="1280" viewBox="0 0 1920 1280" fill="none" xmlns="http://www.w3.org/2000/svg">
<g clip-path="url(#clip0_6_12)">
<rect width="1920" height="1280" fill="url(#paint0_linear_6_12)"/>
<g filter="url(#filter0_f_6_12)">
<path d="M-418.98 391.97L135.124 -535.983L661.703 407.861L-418.98 391.97Z" fill="#0488E8"/>
</g>
<g filter="url(#filter1_f_6_12)">
<circle cx="274" cy="1220" r="686" fill="#3381BB"/>
<circle cx="274" cy="1220" r="686" fill="#3381BB"/>
<circle cx="274" cy="1220" r="686" fill="#0E609C"/>
</g>
<g filter="url(#filter2_f_6_12)">
<circle cx="1534.5" cy="1135.5" r="673.5" fill="#3381BB"/>
<circle cx="1534.5" cy="1135.5" r="673.5" fill="#3381BB"/>
<circle cx="1534.5" cy="1135.5" r="673.5" fill="#60AECF"/>
</g>
<g filter="url(#filter3_b_6_12)">
<rect x="143" y="118" width="1676" height="1043" rx="100" fill="url(#paint1_radial_6_12)" fill-opacity="0.6"/>
<rect x="143.5" y="118.5" width="1675" height="1042" rx="99.5" stroke="white" stroke-opacity="0.5" style="mix-blend-mode:overlay"/>
</g>
<ellipse cx="1491" cy="757.5" rx="217" ry="59.5" fill="#0488E8"/>
<path d="M1243.23 260.683L833.859 1103.68C817.131 1138.13 782.199 1160 743.905 1160H239C183.772 1160 139 1115.23 139 1060V217C139 161.772 183.771 117 239 117H1153.27C1227.1 117 1275.48 194.267 1243.23 260.683Z" fill="url(#paint2_linear_6_12)"/>
<path d="M1386.86 742.51L1363.7 482.625H1618.3L1595.1 742.469L1490.85 771.375L1386.86 742.51Z" fill="#1572B6"/>
<path d="M1491 749.286L1575.25 725.928L1595.07 503.879H1491V749.286Z" fill="#33A9DC"/>
<path d="M1491 598.032H1533.18L1536.09 565.393H1491V533.517H1570.92L1570.16 542.066L1562.33 629.908H1491V598.032Z" fill="white"/>
<path d="M1491.2 680.811L1491.05 680.852L1455.56 671.261L1453.29 645.841H1421.29L1425.75 695.888L1491.04 714.017L1491.2 713.976V680.811Z" fill="#EBEBEB"/>
<path d="M1530.47 628.557L1526.63 671.241L1491.08 680.831V713.996L1556.42 695.887L1556.91 690.504L1562.45 628.557H1530.47Z" fill="white"/>
<path d="M1491.11 533.517V565.393H1414.12L1413.48 558.226L1412.03 542.066L1411.26 533.517H1491.11ZM1491 598.032V629.908H1455.95L1455.31 622.741L1453.86 606.581L1453.1 598.032H1491Z" fill="#EBEBEB"/>
<path d="M211.29 513L238.83 450H259.71L287.25 513H265.29L244.95 460.08H253.23L232.89 513H211.29ZM227.67 502.02L233.07 486.72H262.05L267.45 502.02H227.67ZM290.64 513V450H320.97C326.85 450 331.92 450.96 336.18 452.88C340.5 454.8 343.83 457.56 346.17 461.16C348.51 464.7 349.68 468.9 349.68 473.76C349.68 478.62 348.51 482.82 346.17 486.36C343.83 489.9 340.5 492.66 336.18 494.64C331.92 496.56 326.85 497.52 320.97 497.52H302.43L311.88 488.43V513H290.64ZM311.88 490.77L302.43 481.14H319.62C322.56 481.14 324.72 480.48 326.1 479.16C327.54 477.84 328.26 476.04 328.26 473.76C328.26 471.48 327.54 469.68 326.1 468.36C324.72 467.04 322.56 466.38 319.62 466.38H302.43L311.88 456.75V490.77ZM356.646 513V450H386.976C392.856 450 397.926 450.96 402.186 452.88C406.506 454.8 409.836 457.56 412.176 461.16C414.516 464.7 415.686 468.9 415.686 473.76C415.686 478.62 414.516 482.82 412.176 486.36C409.836 489.84 406.506 492.51 402.186 494.37C397.926 496.23 392.856 497.16 386.976 497.16H368.436L377.886 488.43V513H356.646ZM394.356 513L378.876 490.05H401.376L417.036 513H394.356ZM377.886 490.77L368.436 481.14H385.626C388.566 481.14 390.726 480.48 392.106 479.16C393.546 477.84 394.266 476.04 394.266 473.76C394.266 471.48 393.546 469.68 392.106 468.36C390.726 467.04 388.566 466.38 385.626 466.38H368.436L377.886 456.75V490.77ZM443.146 473.4H471.226V488.7H443.146V473.4ZM444.586 496.98H476.086V513H423.706V450H474.916V466.02H444.586V496.98ZM484.263 513V450H501.723L533.763 488.34H525.663V450H546.363V513H528.903L496.863 474.66H504.963V513H484.263ZM556.597 513V450H587.647C594.667 450 600.847 451.29 606.187 453.87C611.527 456.39 615.697 459.99 618.697 464.67C621.697 469.35 623.197 474.93 623.197 481.41C623.197 487.95 621.697 493.59 618.697 498.33C615.697 503.01 611.527 506.64 606.187 509.22C600.847 511.74 594.667 513 587.647 513H556.597ZM577.837 496.44H586.747C589.747 496.44 592.357 495.87 594.577 494.73C596.857 493.59 598.627 491.91 599.887 489.69C601.147 487.41 601.777 484.65 601.777 481.41C601.777 478.23 601.147 475.53 599.887 473.31C598.627 471.09 596.857 469.41 594.577 468.27C592.357 467.13 589.747 466.56 586.747 466.56H577.837V496.44ZM650.392 473.4H678.472V488.7H650.392V473.4ZM651.832 496.98H683.332V513H630.952V450H682.162V466.02H651.832V496.98ZM711.651 513L739.191 450H760.071L787.611 513H765.651L745.311 460.08H753.591L733.251 513H711.651ZM728.031 502.02L733.431 486.72H762.411L767.811 502.02H728.031ZM850.564 514.44C845.524 514.44 840.844 513.66 836.524 512.1C832.264 510.48 828.544 508.2 825.364 505.26C822.244 502.32 819.814 498.84 818.074 494.82C816.334 490.8 815.464 486.36 815.464 481.5C815.464 476.64 816.334 472.2 818.074 468.18C819.814 464.16 822.244 460.68 825.364 457.74C828.544 454.8 832.264 452.55 836.524 450.99C840.844 449.37 845.524 448.56 850.564 448.56C856.744 448.56 862.204 449.64 866.944 451.8C871.744 453.96 875.704 457.08 878.824 461.16L865.414 473.13C863.554 470.79 861.484 468.99 859.204 467.73C856.984 466.41 854.464 465.75 851.644 465.75C849.424 465.75 847.414 466.11 845.614 466.83C843.814 467.55 842.254 468.6 840.934 469.98C839.674 471.36 838.684 473.04 837.964 475.02C837.244 476.94 836.884 479.1 836.884 481.5C836.884 483.9 837.244 486.09 837.964 488.07C838.684 489.99 839.674 491.64 840.934 493.02C842.254 494.4 843.814 495.45 845.614 496.17C847.414 496.89 849.424 497.25 851.644 497.25C854.464 497.25 856.984 496.62 859.204 495.36C861.484 494.04 863.554 492.21 865.414 489.87L878.824 501.84C875.704 505.86 871.744 508.98 866.944 511.2C862.204 513.36 856.744 514.44 850.564 514.44ZM904.396 473.4H932.476V488.7H904.396V473.4ZM905.836 496.98H937.336V513H884.956V450H936.166V466.02H905.836V496.98ZM945.513 513V450H962.973L995.013 488.34H986.913V450H1007.61V513H990.153L958.113 474.66H966.213V513H945.513ZM1031.53 513V466.47H1013.08V450H1071.22V466.47H1052.77V513H1031.53ZM1076.73 513V450H1107.06C1112.94 450 1118.01 450.96 1122.27 452.88C1126.59 454.8 1129.92 457.56 1132.26 461.16C1134.6 464.7 1135.77 468.9 1135.77 473.76C1135.77 478.62 1134.6 482.82 1132.26 486.36C1129.92 489.84 1126.59 492.51 1122.27 494.37C1118.01 496.23 1112.94 497.16 1107.06 497.16H1088.52L1097.97 488.43V513H1076.73ZM1114.44 513L1098.96 490.05H1121.46L1137.12 513H1114.44ZM1097.97 490.77L1088.52 481.14H1105.71C1108.65 481.14 1110.81 480.48 1112.19 479.16C1113.63 477.84 1114.35 476.04 1114.35 473.76C1114.35 471.48 1113.63 469.68 1112.19 468.36C1110.81 467.04 1108.65 466.38 1105.71 466.38H1088.52L1097.97 456.75V490.77ZM1136.95 513L1164.49 450H1185.37L1212.91 513H1190.95L1170.61 460.08H1178.89L1158.55 513H1136.95ZM1153.33 502.02L1158.73 486.72H1187.71L1193.11 502.02H1153.33ZM1216.3 513V450H1246.63C1252.51 450 1257.58 450.96 1261.84 452.88C1266.16 454.8 1269.49 457.56 1271.83 461.16C1274.17 464.7 1275.34 468.9 1275.34 473.76C1275.34 478.62 1274.17 482.82 1271.83 486.36C1269.49 489.84 1266.16 492.51 1261.84 494.37C1257.58 496.23 1252.51 497.16 1246.63 497.16H1228.09L1237.54 488.43V513H1216.3ZM1254.01 513L1238.53 490.05H1261.03L1276.69 513H1254.01ZM1237.54 490.77L1228.09 481.14H1245.28C1248.22 481.14 1250.38 480.48 1251.76 479.16C1253.2 477.84 1253.92 476.04 1253.92 473.76C1253.92 471.48 1253.2 469.68 1251.76 468.36C1250.38 467.04 1248.22 466.38 1245.28 466.38H1228.09L1237.54 456.75V490.77Z" fill="white"/>
<path d="M237.57 583.4H265.65V598.7H237.57V583.4ZM239.01 606.98H270.51V623H218.13V560H269.34V576.02H239.01V606.98ZM278.687 623V560H299.927V606.53H328.367V623H278.687ZM353.674 583.4H381.754V598.7H353.674V583.4ZM355.114 606.98H386.614V623H334.234V560H385.444V576.02H355.114V606.98ZM394.79 623V560H412.25L437.45 601.13H428.27L452.75 560H470.21L470.39 623H451.04L450.86 589.16H453.92L437.18 617.33H427.82L410.36 589.16H414.14V623H394.79ZM500.099 583.4H528.179V598.7H500.099V583.4ZM501.539 606.98H533.039V623H480.659V560H531.869V576.02H501.539V606.98ZM541.216 623V560H558.676L590.716 598.34H582.616V560H603.316V623H585.856L553.816 584.66H561.916V623H541.216ZM627.23 623V576.47H608.78V560H666.92V576.47H648.47V623H627.23ZM704.588 624.44C699.488 624.44 694.748 623.63 690.368 622.01C686.048 620.39 682.298 618.11 679.118 615.17C675.938 612.17 673.448 608.66 671.648 604.64C669.908 600.62 669.038 596.24 669.038 591.5C669.038 586.7 669.908 582.32 671.648 578.36C673.448 574.34 675.938 570.86 679.118 567.92C682.298 564.92 686.048 562.61 690.368 560.99C694.748 559.37 699.488 558.56 704.588 558.56C709.748 558.56 714.488 559.37 718.808 560.99C723.128 562.61 726.878 564.92 730.058 567.92C733.238 570.86 735.698 574.34 737.438 578.36C739.238 582.32 740.138 586.7 740.138 591.5C740.138 596.24 739.238 600.62 737.438 604.64C735.698 608.66 733.238 612.17 730.058 615.17C726.878 618.11 723.128 620.39 718.808 622.01C714.488 623.63 709.748 624.44 704.588 624.44ZM704.588 607.25C706.568 607.25 708.398 606.89 710.078 606.17C711.818 605.45 713.318 604.43 714.578 603.11C715.898 601.73 716.918 600.08 717.638 598.16C718.358 596.18 718.718 593.96 718.718 591.5C718.718 589.04 718.358 586.85 717.638 584.93C716.918 582.95 715.898 581.3 714.578 579.98C713.318 578.6 711.818 577.55 710.078 576.83C708.398 576.11 706.568 575.75 704.588 575.75C702.608 575.75 700.748 576.11 699.008 576.83C697.328 577.55 695.828 578.6 694.508 579.98C693.248 581.3 692.258 582.95 691.538 584.93C690.818 586.85 690.458 589.04 690.458 591.5C690.458 593.96 690.818 596.18 691.538 598.16C692.258 600.08 693.248 601.73 694.508 603.11C695.828 604.43 697.328 605.45 699.008 606.17C700.748 606.89 702.608 607.25 704.588 607.25ZM771.337 624.44C766.057 624.44 760.957 623.84 756.037 622.64C751.117 621.44 747.067 619.88 743.887 617.96L750.727 602.48C753.727 604.22 757.057 605.63 760.717 606.71C764.437 607.73 768.037 608.24 771.517 608.24C773.557 608.24 775.147 608.12 776.287 607.88C777.487 607.58 778.357 607.19 778.897 606.71C779.437 606.17 779.707 605.54 779.707 604.82C779.707 603.68 779.077 602.78 777.817 602.12C776.557 601.46 774.877 600.92 772.777 600.5C770.737 600.02 768.487 599.54 766.027 599.06C763.567 598.52 761.077 597.83 758.557 596.99C756.097 596.15 753.817 595.04 751.717 593.66C749.677 592.28 748.027 590.48 746.767 588.26C745.507 585.98 744.877 583.16 744.877 579.8C744.877 575.9 745.957 572.36 748.117 569.18C750.337 565.94 753.607 563.36 757.927 561.44C762.307 559.52 767.737 558.56 774.217 558.56C778.477 558.56 782.677 559.01 786.817 559.91C790.957 560.81 794.677 562.19 797.977 564.05L791.587 579.44C788.467 577.88 785.437 576.71 782.497 575.93C779.617 575.15 776.797 574.76 774.037 574.76C771.997 574.76 770.377 574.94 769.177 575.3C767.977 575.66 767.107 576.14 766.567 576.74C766.087 577.34 765.847 578 765.847 578.72C765.847 579.8 766.477 580.67 767.737 581.33C768.997 581.93 770.647 582.44 772.687 582.86C774.787 583.28 777.067 583.73 779.527 584.21C782.047 584.69 784.537 585.35 786.997 586.19C789.457 587.03 791.707 588.14 793.747 589.52C795.847 590.9 797.527 592.7 798.787 594.92C800.047 597.14 800.677 599.9 800.677 603.2C800.677 607.04 799.567 610.58 797.347 613.82C795.187 617 791.947 619.58 787.627 621.56C783.307 623.48 777.877 624.44 771.337 624.44ZM866.56 624.44C861.52 624.44 856.84 623.66 852.52 622.1C848.26 620.48 844.54 618.2 841.36 615.26C838.24 612.32 835.81 608.84 834.07 604.82C832.33 600.8 831.46 596.36 831.46 591.5C831.46 586.64 832.33 582.2 834.07 578.18C835.81 574.16 838.24 570.68 841.36 567.74C844.54 564.8 848.26 562.55 852.52 560.99C856.84 559.37 861.52 558.56 866.56 558.56C872.74 558.56 878.2 559.64 882.94 561.8C887.74 563.96 891.7 567.08 894.82 571.16L881.41 583.13C879.55 580.79 877.48 578.99 875.2 577.73C872.98 576.41 870.46 575.75 867.64 575.75C865.42 575.75 863.41 576.11 861.61 576.83C859.81 577.55 858.25 578.6 856.93 579.98C855.67 581.36 854.68 583.04 853.96 585.02C853.24 586.94 852.88 589.1 852.88 591.5C852.88 593.9 853.24 596.09 853.96 598.07C854.68 599.99 855.67 601.64 856.93 603.02C858.25 604.4 859.81 605.45 861.61 606.17C863.41 606.89 865.42 607.25 867.64 607.25C870.46 607.25 872.98 606.62 875.2 605.36C877.48 604.04 879.55 602.21 881.41 599.87L894.82 611.84C891.7 615.86 887.74 618.98 882.94 621.2C878.2 623.36 872.74 624.44 866.56 624.44ZM932.664 624.44C927.564 624.44 922.824 623.63 918.444 622.01C914.124 620.39 910.374 618.11 907.194 615.17C904.014 612.17 901.524 608.66 899.724 604.64C897.984 600.62 897.114 596.24 897.114 591.5C897.114 586.7 897.984 582.32 899.724 578.36C901.524 574.34 904.014 570.86 907.194 567.92C910.374 564.92 914.124 562.61 918.444 560.99C922.824 559.37 927.564 558.56 932.664 558.56C937.824 558.56 942.564 559.37 946.884 560.99C951.204 562.61 954.954 564.92 958.134 567.92C961.314 570.86 963.774 574.34 965.514 578.36C967.314 582.32 968.214 586.7 968.214 591.5C968.214 596.24 967.314 600.62 965.514 604.64C963.774 608.66 961.314 612.17 958.134 615.17C954.954 618.11 951.204 620.39 946.884 622.01C942.564 623.63 937.824 624.44 932.664 624.44ZM932.664 607.25C934.644 607.25 936.474 606.89 938.154 606.17C939.894 605.45 941.394 604.43 942.654 603.11C943.974 601.73 944.994 600.08 945.714 598.16C946.434 596.18 946.794 593.96 946.794 591.5C946.794 589.04 946.434 586.85 945.714 584.93C944.994 582.95 943.974 581.3 942.654 579.98C941.394 578.6 939.894 577.55 938.154 576.83C936.474 576.11 934.644 575.75 932.664 575.75C930.684 575.75 928.824 576.11 927.084 576.83C925.404 577.55 923.904 578.6 922.584 579.98C921.324 581.3 920.334 582.95 919.614 584.93C918.894 586.85 918.534 589.04 918.534 591.5C918.534 593.96 918.894 596.18 919.614 598.16C920.334 600.08 921.324 601.73 922.584 603.11C923.904 604.43 925.404 605.45 927.084 606.17C928.824 606.89 930.684 607.25 932.664 607.25ZM975.923 623V560H993.383L1025.42 598.34H1017.32V560H1038.02V623H1020.56L988.523 584.66H996.623V623H975.923ZM1107.82 624.44C1102.78 624.44 1098.1 623.66 1093.78 622.1C1089.52 620.48 1085.8 618.2 1082.62 615.26C1079.5 612.32 1077.07 608.84 1075.33 604.82C1073.59 600.8 1072.72 596.36 1072.72 591.5C1072.72 586.64 1073.59 582.2 1075.33 578.18C1077.07 574.16 1079.5 570.68 1082.62 567.74C1085.8 564.8 1089.52 562.55 1093.78 560.99C1098.1 559.37 1102.78 558.56 1107.82 558.56C1114 558.56 1119.46 559.64 1124.2 561.8C1129 563.96 1132.96 567.08 1136.08 571.16L1122.67 583.13C1120.81 580.79 1118.74 578.99 1116.46 577.73C1114.24 576.41 1111.72 575.75 1108.9 575.75C1106.68 575.75 1104.67 576.11 1102.87 576.83C1101.07 577.55 1099.51 578.6 1098.19 579.98C1096.93 581.36 1095.94 583.04 1095.22 585.02C1094.5 586.94 1094.14 589.1 1094.14 591.5C1094.14 593.9 1094.5 596.09 1095.22 598.07C1095.94 599.99 1096.93 601.64 1098.19 603.02C1099.51 604.4 1101.07 605.45 1102.87 606.17C1104.67 606.89 1106.68 607.25 1108.9 607.25C1111.72 607.25 1114.24 606.62 1116.46 605.36C1118.74 604.04 1120.81 602.21 1122.67 599.87L1136.08 611.84C1132.96 615.86 1129 618.98 1124.2 621.2C1119.46 623.36 1114 624.44 1107.82 624.44ZM1164.82 624.44C1159.54 624.44 1154.44 623.84 1149.52 622.64C1144.6 621.44 1140.55 619.88 1137.37 617.96L1144.21 602.48C1147.21 604.22 1150.54 605.63 1154.2 606.71C1157.92 607.73 1161.52 608.24 1165 608.24C1167.04 608.24 1168.63 608.12 1169.77 607.88C1170.97 607.58 1171.84 607.19 1172.38 606.71C1172.92 606.17 1173.19 605.54 1173.19 604.82C1173.19 603.68 1172.56 602.78 1171.3 602.12C1170.04 601.46 1168.36 600.92 1166.26 600.5C1164.22 600.02 1161.97 599.54 1159.51 599.06C1157.05 598.52 1154.56 597.83 1152.04 596.99C1149.58 596.15 1147.3 595.04 1145.2 593.66C1143.16 592.28 1141.51 590.48 1140.25 588.26C1138.99 585.98 1138.36 583.16 1138.36 579.8C1138.36 575.9 1139.44 572.36 1141.6 569.18C1143.82 565.94 1147.09 563.36 1151.41 561.44C1155.79 559.52 1161.22 558.56 1167.7 558.56C1171.96 558.56 1176.16 559.01 1180.3 559.91C1184.44 560.81 1188.16 562.19 1191.46 564.05L1185.07 579.44C1181.95 577.88 1178.92 576.71 1175.98 575.93C1173.1 575.15 1170.28 574.76 1167.52 574.76C1165.48 574.76 1163.86 574.94 1162.66 575.3C1161.46 575.66 1160.59 576.14 1160.05 576.74C1159.57 577.34 1159.33 578 1159.33 578.72C1159.33 579.8 1159.96 580.67 1161.22 581.33C1162.48 581.93 1164.13 582.44 1166.17 582.86C1168.27 583.28 1170.55 583.73 1173.01 584.21C1175.53 584.69 1178.02 585.35 1180.48 586.19C1182.94 587.03 1185.19 588.14 1187.23 589.52C1189.33 590.9 1191.01 592.7 1192.27 594.92C1193.53 597.14 1194.16 599.9 1194.16 603.2C1194.16 607.04 1193.05 610.58 1190.83 613.82C1188.67 617 1185.43 619.58 1181.11 621.56C1176.79 623.48 1171.36 624.44 1164.82 624.44ZM1223.97 624.44C1218.69 624.44 1213.59 623.84 1208.67 622.64C1203.75 621.44 1199.7 619.88 1196.52 617.96L1203.36 602.48C1206.36 604.22 1209.69 605.63 1213.35 606.71C1217.07 607.73 1220.67 608.24 1224.15 608.24C1226.19 608.24 1227.78 608.12 1228.92 607.88C1230.12 607.58 1230.99 607.19 1231.53 606.71C1232.07 606.17 1232.34 605.54 1232.34 604.82C1232.34 603.68 1231.71 602.78 1230.45 602.12C1229.19 601.46 1227.51 600.92 1225.41 600.5C1223.37 600.02 1221.12 599.54 1218.66 599.06C1216.2 598.52 1213.71 597.83 1211.19 596.99C1208.73 596.15 1206.45 595.04 1204.35 593.66C1202.31 592.28 1200.66 590.48 1199.4 588.26C1198.14 585.98 1197.51 583.16 1197.51 579.8C1197.51 575.9 1198.59 572.36 1200.75 569.18C1202.97 565.94 1206.24 563.36 1210.56 561.44C1214.94 559.52 1220.37 558.56 1226.85 558.56C1231.11 558.56 1235.31 559.01 1239.45 559.91C1243.59 560.81 1247.31 562.19 1250.61 564.05L1244.22 579.44C1241.1 577.88 1238.07 576.71 1235.13 575.93C1232.25 575.15 1229.43 574.76 1226.67 574.76C1224.63 574.76 1223.01 574.94 1221.81 575.3C1220.61 575.66 1219.74 576.14 1219.2 576.74C1218.72 577.34 1218.48 578 1218.48 578.72C1218.48 579.8 1219.11 580.67 1220.37 581.33C1221.63 581.93 1223.28 582.44 1225.32 582.86C1227.42 583.28 1229.7 583.73 1232.16 584.21C1234.68 584.69 1237.17 585.35 1239.63 586.19C1242.09 587.03 1244.34 588.14 1246.38 589.52C1248.48 590.9 1250.16 592.7 1251.42 594.92C1252.68 597.14 1253.31 599.9 1253.31 603.2C1253.31 607.04 1252.2 610.58 1249.98 613.82C1247.82 617 1244.58 619.58 1240.26 621.56C1235.94 623.48 1230.51 624.44 1223.97 624.44Z" fill="#003357"/>
<g clip-path="url(#clip1_6_12)">
<mask id="mask0_6_12" style="mask-type:luminance" maskUnits="userSpaceOnUse" x="213" y="214" width="138" height="115">
<path d="M351 214H213V329H351V214Z" fill="white"/>
</mask>
<g mask="url(#mask0_6_12)">
<path d="M350.844 323.93C347.854 312.256 341.377 301.7 332.054 293.222C332.094 293.093 332.122 292.956 332.162 292.82C332.21 292.65 332.258 292.473 332.298 292.295C332.387 291.941 332.461 291.58 332.529 291.219C332.563 291.055 332.59 290.892 332.618 290.721C332.686 290.299 332.74 289.869 332.781 289.433C332.794 289.324 332.808 289.208 332.815 289.099C332.862 288.534 332.89 287.961 332.89 287.382C332.89 286.734 332.862 286.067 332.822 285.385C332.203 273.364 326.162 256.613 317.062 241.954C311.85 233.552 297.994 214 282.003 214C281.902 214 281.8 214.014 281.698 214.014C265.83 214.252 252.109 233.606 246.924 241.954C237.818 256.627 231.77 273.398 231.165 285.419C231.124 286.087 231.104 286.741 231.104 287.375C231.104 287.954 231.131 288.513 231.172 289.072C231.185 289.222 231.206 289.372 231.219 289.522C231.26 289.91 231.301 290.299 231.362 290.68C231.396 290.885 231.43 291.082 231.471 291.28C231.532 291.607 231.6 291.927 231.681 292.248C231.729 292.452 231.783 292.65 231.838 292.854C231.872 292.977 231.899 293.1 231.933 293.222C222.609 301.707 216.14 312.276 213.143 323.964C213.116 324.059 213.102 324.155 213.082 324.243C213.082 324.277 213.068 324.305 213.061 324.332C213.061 324.345 213.061 324.359 213.061 324.366C213.048 324.455 213.034 324.55 213.027 324.639C213.027 324.659 213.027 324.686 213.02 324.707C213.02 324.734 213.02 324.768 213.02 324.795C213.02 324.87 213.007 324.938 213.007 325.013C213.007 325.79 213.231 326.513 213.618 327.126C213.686 327.235 213.761 327.344 213.843 327.439C214.366 328.114 215.1 328.612 215.949 328.836C215.963 328.836 215.983 328.85 215.997 328.857C216.011 328.857 216.024 328.857 216.038 328.857C216.153 328.884 216.269 328.905 216.391 328.925C216.391 328.925 216.398 328.925 216.405 328.925C216.445 328.932 216.493 328.939 216.534 328.945C216.534 328.945 216.541 328.945 216.547 328.945C216.683 328.959 216.819 328.966 216.955 328.966C216.962 328.966 216.976 328.966 216.982 328.966H347.031C347.364 328.966 347.684 328.918 347.99 328.843C347.99 328.843 348.003 328.843 348.01 328.843C348.017 328.843 348.023 328.843 348.03 328.836C349.736 328.393 351 326.84 351 324.986C351 324.611 350.946 324.243 350.844 323.896V323.93ZM254.868 246.227C264.443 231.487 275.092 221.96 282.003 221.96C282.044 221.96 282.078 221.96 282.119 221.96C289.03 222.069 299.611 231.569 309.132 246.227C318.598 260.804 324.959 277.344 324.959 287.382C324.959 289.365 324.585 291.035 323.81 292.507C323.743 292.622 323.627 292.738 323.477 292.854C323.477 292.854 323.477 292.854 323.471 292.854C323.403 292.902 323.328 292.956 323.246 293.004C323.233 293.018 323.212 293.025 323.199 293.038C323.131 293.079 323.056 293.12 322.981 293.161C322.934 293.188 322.893 293.209 322.839 293.236C322.39 293.461 321.833 293.686 321.228 293.904C321.378 292.902 321.466 291.886 321.486 290.857C321.5 290.701 321.5 290.537 321.5 290.38C321.5 273.691 303.858 265.091 282.105 265.091C260.352 265.091 242.711 273.691 242.711 290.38C242.711 290.537 242.711 290.701 242.724 290.857C242.745 291.907 242.833 292.95 242.989 293.965C242.344 293.74 241.739 293.508 241.25 293.27C241.223 293.256 241.189 293.243 241.161 293.222C241.093 293.188 241.025 293.154 240.964 293.113C240.89 293.072 240.815 293.031 240.754 292.984C240.72 292.963 240.679 292.936 240.645 292.916C240.57 292.861 240.502 292.813 240.441 292.759C240.421 292.745 240.4 292.725 240.387 292.711C240.312 292.643 240.258 292.575 240.217 292.507C239.442 291.035 239.068 289.358 239.068 287.375C239.068 277.344 245.429 260.804 254.895 246.22L254.868 246.227ZM290.845 281.146C289.669 281.146 288.711 280.192 288.711 279.007C288.711 277.821 289.669 276.867 290.845 276.867H297.457C298.632 276.867 299.591 277.828 299.591 279.007V295.158C299.591 296.343 298.632 297.298 297.457 297.298H290.845C289.669 297.298 288.711 296.343 288.711 295.158C288.711 293.972 289.669 293.018 290.845 293.018H295.316V281.153H290.845V281.146ZM287.807 275.729L280.271 299.724C279.985 300.644 279.142 301.223 278.232 301.223C278.021 301.223 277.804 301.196 277.593 301.127C276.472 300.773 275.84 299.567 276.2 298.442L283.73 274.447C284.083 273.316 285.286 272.689 286.407 273.044C287.535 273.398 288.16 274.604 287.807 275.729ZM273.155 293.011C274.338 293.011 275.289 293.972 275.289 295.151C275.289 296.33 274.338 297.291 273.155 297.291H266.55C265.368 297.291 264.416 296.337 264.416 295.151V279C264.416 277.821 265.368 276.86 266.55 276.86H273.155C274.338 276.86 275.289 277.821 275.289 279C275.289 280.179 274.338 281.14 273.155 281.14H268.691V293.004H273.155V293.011ZM222.358 321.04C225.253 313.087 230.091 305.843 236.588 299.758C238.042 300.664 239.734 301.318 241.467 301.863C242.568 302.204 243.683 302.504 244.763 302.797C245.395 302.967 246.014 303.131 246.598 303.301C246.598 303.301 246.612 303.301 246.618 303.308C246.618 303.308 246.618 303.308 246.632 303.308C246.646 303.308 246.646 303.308 246.652 303.308C257.498 307.86 272.286 306.382 279.333 315.507C280.767 317.36 283.512 317.381 285.007 315.568C292.211 306.825 306.95 307.854 317.762 303.22C317.762 303.206 317.776 303.199 317.783 303.192C318.252 303.063 318.734 302.933 319.23 302.797C321.806 302.102 324.578 301.352 326.862 300.064C326.882 300.051 326.903 300.044 326.923 300.03C327.086 299.935 327.256 299.846 327.412 299.751C333.909 305.843 338.747 313.087 341.649 321.033H222.358V321.04Z" fill="white"/>
</g>
</g>
<rect x="513" y="698" width="400" height="240" rx="20" fill="#D9D9D9"/>
<rect x="583" y="743" width="260" height="150" rx="20" fill="#33A9DC"/>
<path d="M859.939 816.939C859.354 817.525 859.354 818.475 859.939 819.061L869.485 828.607C870.071 829.192 871.021 829.192 871.607 828.607C872.192 828.021 872.192 827.071 871.607 826.485L863.121 818L871.607 809.515C872.192 808.929 872.192 807.979 871.607 807.393C871.021 806.808 870.071 806.808 869.485 807.393L859.939 816.939ZM913 816.5L861 816.5L861 819.5L913 819.5L913 816.5Z" fill="black"/>
<path d="M566.061 819.061C566.646 818.475 566.646 817.525 566.061 816.939L556.515 807.393C555.929 806.808 554.979 806.808 554.393 807.393C553.808 807.979 553.808 808.929 554.393 809.515L562.879 818L554.393 826.485C553.808 827.071 553.808 828.021 554.393 828.607C554.979 829.192 555.929 829.192 556.515 828.607L566.061 819.061ZM513 819.5H565V816.5H513V819.5Z" fill="black"/>
<path d="M711.939 731.061C712.525 731.646 713.475 731.646 714.061 731.061L723.607 721.515C724.192 720.929 724.192 719.979 723.607 719.393C723.021 718.808 722.071 718.808 721.485 719.393L713 727.879L704.515 719.393C703.929 718.808 702.979 718.808 702.393 719.393C701.808 719.979 701.808 720.929 702.393 721.515L711.939 731.061ZM711.5 698V730H714.5V698H711.5Z" fill="black"/>
<path d="M714.061 904.939C713.475 904.354 712.525 904.354 711.939 904.939L702.393 914.485C701.808 915.071 701.808 916.021 702.393 916.607C702.979 917.192 703.929 917.192 704.515 916.607L713 908.121L721.485 916.607C722.071 917.192 723.021 917.192 723.607 916.607C724.192 916.021 724.192 915.071 723.607 914.485L714.061 904.939ZM714.5 938V906H711.5V938H714.5Z" fill="black"/>
</g>
<defs>
<filter id="filter0_f_6_12" x="-618.979" y="-735.983" width="1480.68" height="1343.84" filterUnits="userSpaceOnUse" color-interpolation-filters="sRGB">
<feFlood flood-opacity="0" result="BackgroundImageFix"/>
<feBlend mode="normal" in="SourceGraphic" in2="BackgroundImageFix" result="shape"/>
<feGaussianBlur stdDeviation="100" result="effect1_foregroundBlur_6_12"/>
</filter>
<filter id="filter1_f_6_12" x="-612" y="334" width="1772" height="1772" filterUnits="userSpaceOnUse" color-interpolation-filters="sRGB">
<feFlood flood-opacity="0" result="BackgroundImageFix"/>
<feBlend mode="normal" in="SourceGraphic" in2="BackgroundImageFix" result="shape"/>
<feGaussianBlur stdDeviation="100" result="effect1_foregroundBlur_6_12"/>
</filter>
<filter id="filter2_f_6_12" x="661" y="262" width="1747" height="1747" filterUnits="userSpaceOnUse" color-interpolation-filters="sRGB">
<feFlood flood-opacity="0" result="BackgroundImageFix"/>
<feBlend mode="normal" in="SourceGraphic" in2="BackgroundImageFix" result="shape"/>
<feGaussianBlur stdDeviation="100" result="effect1_foregroundBlur_6_12"/>
</filter>
<filter id="filter3_b_6_12" x="131" y="106" width="1700" height="1067" filterUnits="userSpaceOnUse" color-interpolation-filters="sRGB">
<feFlood flood-opacity="0" result="BackgroundImageFix"/>
<feGaussianBlur in="BackgroundImageFix" stdDeviation="6"/>
<feComposite in2="SourceAlpha" operator="in" result="effect1_backgroundBlur_6_12"/>
<feBlend mode="normal" in="SourceGraphic" in2="effect1_backgroundBlur_6_12" result="shape"/>
</filter>
<linearGradient id="paint0_linear_6_12" x1="960" y1="0" x2="960" y2="1280" gradientUnits="userSpaceOnUse">
<stop stop-color="#1572B6"/>
<stop offset="1" stop-color="#33A9DC"/>
</linearGradient>
<radialGradient id="paint1_radial_6_12" cx="0" cy="0" r="1" gradientUnits="userSpaceOnUse" gradientTransform="translate(234.5 205) rotate(30.698) scale(1774.69 2851.75)">
<stop stop-color="white" stop-opacity="0.7"/>
<stop offset="1" stop-color="white" stop-opacity="0.1"/>
</radialGradient>
<linearGradient id="paint2_linear_6_12" x1="494.39" y1="1326.85" x2="701.637" y2="336.796" gradientUnits="userSpaceOnUse">
<stop stop-color="white" stop-opacity="0.22"/>
<stop offset="1" stop-color="white" stop-opacity="0"/>
</linearGradient>
<clipPath id="clip0_6_12">
<rect width="1920" height="1280" fill="white"/>
</clipPath>
<clipPath id="clip1_6_12">
<rect width="138" height="115" fill="white" transform="translate(213 214)"/>
</clipPath>
</defs>
</svg>
