<svg width="1920" height="1280" fill="none" xmlns="http://www.w3.org/2000/svg"><g clip-path="url(#a)"><path fill="url(#b)" d="M0 0h1920v1280H0z"/><g filter="url(#c)"><path d="m-418.98 391.97 554.104-927.953 526.579 943.844L-418.98 391.97Z" fill="#0488E8"/></g><g filter="url(#d)"><circle cx="274" cy="1220" r="686" fill="#3381BB"/><circle cx="274" cy="1220" r="686" fill="#3381BB"/><circle cx="274" cy="1220" r="686" fill="#0E609C"/></g><g filter="url(#e)"><circle cx="1534.5" cy="1135.5" r="673.5" fill="#3381BB"/><circle cx="1534.5" cy="1135.5" r="673.5" fill="#3381BB"/><circle cx="1534.5" cy="1135.5" r="673.5" fill="#60AECF"/></g><g filter="url(#f)"><rect x="143" y="118" width="1676" height="1043" rx="100" fill="url(#g)" fill-opacity=".6"/><rect x="143.5" y="118.5" width="1675" height="1042" rx="99.5" stroke="#fff" stroke-opacity=".5" style="mix-blend-mode:overlay"/></g><ellipse cx="1491" cy="757.5" rx="217" ry="59.5" fill="#0488E8"/><path d="M1243.23 260.683 833.859 1103.68c-16.728 34.45-51.66 56.32-89.954 56.32H239c-55.228 0-100-44.77-100-100V217c0-55.228 44.771-100 100-100h914.27c73.83 0 122.21 77.267 89.96 143.683Z" fill="url(#h)"/><path d="m1386.86 742.51-23.16-259.885h254.6l-23.2 259.844-104.25 28.906-103.99-28.865Z" fill="#1572B6"/><path d="m1491 749.286 84.25-23.358 19.82-222.049H1491v245.407Z" fill="#33A9DC"/><path d="M1491 598.032h42.18l2.91-32.639H1491v-31.876h79.92l-.76 8.549-7.83 87.842H1491v-31.876Z" fill="#fff"/><path d="m1491.2 680.811-.15.041-35.49-9.591-2.27-25.42h-32l4.46 50.047 65.29 18.129.16-.041v-33.165Z" fill="#EBEBEB"/><path d="m1530.47 628.557-3.84 42.684-35.55 9.59v33.165l65.34-18.109.49-5.383 5.54-61.947h-31.98Z" fill="#fff"/><path d="M1491.11 533.517v31.876h-76.99l-.64-7.167-1.45-16.16-.77-8.549h79.85Zm-.11 64.515v31.876h-35.05l-.64-7.167-1.45-16.16-.76-8.549h37.9Z" fill="#EBEBEB"/><path d="m211.29 513 27.54-63h20.88l27.54 63h-21.96l-20.34-52.92h8.28L232.89 513h-21.6Zm16.38-10.98 5.4-15.3h28.98l5.4 15.3h-39.78ZM290.64 513v-63h30.33c5.88 0 10.95.96 15.21 2.88 4.32 1.92 7.65 4.68 9.99 8.28 2.34 3.54 3.51 7.74 3.51 12.6 0 4.86-1.17 9.06-3.51 12.6-2.34 3.54-5.67 6.3-9.99 8.28-4.26 1.92-9.33 2.88-15.21 2.88h-18.54l9.45-9.09V513h-21.24Zm21.24-22.23-9.45-9.63h17.19c2.94 0 5.1-.66 6.48-1.98 1.44-1.32 2.16-3.12 2.16-5.4 0-2.28-.72-4.08-2.16-5.4-1.38-1.32-3.54-1.98-6.48-1.98h-17.19l9.45-9.63v34.02ZM356.646 513v-63h30.33c5.88 0 10.95.96 15.21 2.88 4.32 1.92 7.65 4.68 9.99 8.28 2.34 3.54 3.51 7.74 3.51 12.6 0 4.86-1.17 9.06-3.51 12.6-2.34 3.48-5.67 6.15-9.99 8.01-4.26 1.86-9.33 2.79-15.21 2.79h-18.54l9.45-8.73V513h-21.24Zm37.71 0-15.48-22.95h22.5l15.66 22.95h-22.68Zm-16.47-22.23-9.45-9.63h17.19c2.94 0 5.1-.66 6.48-1.98 1.44-1.32 2.16-3.12 2.16-5.4 0-2.28-.72-4.08-2.16-5.4-1.38-1.32-3.54-1.98-6.48-1.98h-17.19l9.45-9.63v34.02Zm65.26-17.37h28.08v15.3h-28.08v-15.3Zm1.44 23.58h31.5V513h-52.38v-63h51.21v16.02h-30.33v30.96ZM484.263 513v-63h17.46l32.04 38.34h-8.1V450h20.7v63h-17.46l-32.04-38.34h8.1V513h-20.7Zm72.334 0v-63h31.05c7.02 0 13.2 1.29 18.54 3.87 5.34 2.52 9.51 6.12 12.51 10.8 3 4.68 4.5 10.26 4.5 16.74 0 6.54-1.5 12.18-4.5 16.92-3 4.68-7.17 8.31-12.51 10.89-5.34 2.52-11.52 3.78-18.54 3.78h-31.05Zm21.24-16.56h8.91c3 0 5.61-.57 7.83-1.71 2.28-1.14 4.05-2.82 5.31-5.04 1.26-2.28 1.89-5.04 1.89-8.28 0-3.18-.63-5.88-1.89-8.1-1.26-2.22-3.03-3.9-5.31-5.04-2.22-1.14-4.83-1.71-7.83-1.71h-8.91v29.88Zm72.555-23.04h28.08v15.3h-28.08v-15.3Zm1.44 23.58h31.5V513h-52.38v-63h51.21v16.02h-30.33v30.96ZM711.651 513l27.54-63h20.88l27.54 63h-21.96l-20.34-52.92h8.28L733.251 513h-21.6Zm16.38-10.98 5.4-15.3h28.98l5.4 15.3h-39.78Zm122.533 12.42c-5.04 0-9.72-.78-14.04-2.34-4.26-1.62-7.98-3.9-11.16-6.84-3.12-2.94-5.55-6.42-7.29-10.44-1.74-4.02-2.61-8.46-2.61-13.32 0-4.86.87-9.3 2.61-13.32 1.74-4.02 4.17-7.5 7.29-10.44 3.18-2.94 6.9-5.19 11.16-6.75 4.32-1.62 9-2.43 14.04-2.43 6.18 0 11.64 1.08 16.38 3.24 4.8 2.16 8.76 5.28 11.88 9.36l-13.41 11.97c-1.86-2.34-3.93-4.14-6.21-5.4-2.22-1.32-4.74-1.98-7.56-1.98-2.22 0-4.23.36-6.03 1.08-1.8.72-3.36 1.77-4.68 3.15-1.26 1.38-2.25 3.06-2.97 5.04-.72 1.92-1.08 4.08-1.08 6.48 0 2.4.36 4.59 1.08 6.57.72 1.92 1.71 3.57 2.97 4.95a13.16 13.16 0 0 0 4.68 3.15c1.8.72 3.81 1.08 6.03 1.08 2.82 0 5.34-.63 7.56-1.89 2.28-1.32 4.35-3.15 6.21-5.49l13.41 11.97c-3.12 4.02-7.08 7.14-11.88 9.36-4.74 2.16-10.2 3.24-16.38 3.24Zm53.832-41.04h28.08v15.3h-28.08v-15.3Zm1.44 23.58h31.5V513h-52.38v-63h51.21v16.02h-30.33v30.96ZM945.513 513v-63h17.46l32.04 38.34h-8.1V450h20.697v63h-17.457l-32.04-38.34h8.1V513h-20.7Zm86.017 0v-46.53h-18.45V450h58.14v16.47h-18.45V513h-21.24Zm45.2 0v-63h30.33c5.88 0 10.95.96 15.21 2.88 4.32 1.92 7.65 4.68 9.99 8.28 2.34 3.54 3.51 7.74 3.51 12.6 0 4.86-1.17 9.06-3.51 12.6-2.34 3.48-5.67 6.15-9.99 8.01-4.26 1.86-9.33 2.79-15.21 2.79h-18.54l9.45-8.73V513h-21.24Zm37.71 0-15.48-22.95h22.5l15.66 22.95h-22.68Zm-16.47-22.23-9.45-9.63h17.19c2.94 0 5.1-.66 6.48-1.98 1.44-1.32 2.16-3.12 2.16-5.4 0-2.28-.72-4.08-2.16-5.4-1.38-1.32-3.54-1.98-6.48-1.98h-17.19l9.45-9.63v34.02Zm38.98 22.23 27.54-63h20.88l27.54 63h-21.96l-20.34-52.92h8.28L1158.55 513h-21.6Zm16.38-10.98 5.4-15.3h28.98l5.4 15.3h-39.78ZM1216.3 513v-63h30.33c5.88 0 10.95.96 15.21 2.88 4.32 1.92 7.65 4.68 9.99 8.28 2.34 3.54 3.51 7.74 3.51 12.6 0 4.86-1.17 9.06-3.51 12.6-2.34 3.48-5.67 6.15-9.99 8.01-4.26 1.86-9.33 2.79-15.21 2.79h-18.54l9.45-8.73V513h-21.24Zm37.71 0-15.48-22.95h22.5l15.66 22.95h-22.68Zm-16.47-22.23-9.45-9.63h17.19c2.94 0 5.1-.66 6.48-1.98 1.44-1.32 2.16-3.12 2.16-5.4 0-2.28-.72-4.08-2.16-5.4-1.38-1.32-3.54-1.98-6.48-1.98h-17.19l9.45-9.63v34.02Z" fill="#fff"/><path d="M237.57 583.4h28.08v15.3h-28.08v-15.3Zm1.44 23.58h31.5V623h-52.38v-63h51.21v16.02h-30.33v30.96ZM278.687 623v-63h21.24v46.53h28.44V623h-49.68Zm74.987-39.6h28.08v15.3h-28.08v-15.3Zm1.44 23.58h31.5V623h-52.38v-63h51.21v16.02h-30.33v30.96ZM394.79 623v-63h17.46l25.2 41.13h-9.18L452.75 560h17.46l.18 63h-19.35l-.18-33.84h3.06l-16.74 28.17h-9.36l-17.46-28.17h3.78V623h-19.35Zm105.309-39.6h28.08v15.3h-28.08v-15.3Zm1.44 23.58h31.5V623h-52.38v-63h51.21v16.02h-30.33v30.96ZM541.216 623v-63h17.46l32.04 38.34h-8.1V560h20.7v63h-17.46l-32.04-38.34h8.1V623h-20.7Zm86.014 0v-46.53h-18.45V560h58.14v16.47h-18.45V623h-21.24Zm77.358 1.44c-5.1 0-9.84-.81-14.22-2.43-4.32-1.62-8.07-3.9-11.25-6.84-3.18-3-5.67-6.51-7.47-10.53-1.74-4.02-2.61-8.4-2.61-13.14 0-4.8.87-9.18 2.61-13.14 1.8-4.02 4.29-7.5 7.47-10.44 3.18-3 6.93-5.31 11.25-6.93 4.38-1.62 9.12-2.43 14.22-2.43 5.16 0 9.9.81 14.22 2.43s8.07 3.93 11.25 6.93c3.18 2.94 5.64 6.42 7.38 10.44 1.8 3.96 2.7 8.34 2.7 13.14 0 4.74-.9 9.12-2.7 13.14-1.74 4.02-4.2 7.53-7.38 10.53-3.18 2.94-6.93 5.22-11.25 6.84s-9.06 2.43-14.22 2.43Zm0-17.19c1.98 0 3.81-.36 5.49-1.08 1.74-.72 3.24-1.74 4.5-3.06 1.32-1.38 2.34-3.03 3.06-4.95.72-1.98 1.08-4.2 1.08-6.66s-.36-4.65-1.08-6.57c-.72-1.98-1.74-3.63-3.06-4.95a12.479 12.479 0 0 0-4.5-3.15c-1.68-.72-3.51-1.08-5.49-1.08-1.98 0-3.84.36-5.58 1.08-1.68.72-3.18 1.77-4.5 3.15-1.26 1.32-2.25 2.97-2.97 4.95-.72 1.92-1.08 4.11-1.08 6.57s.36 4.68 1.08 6.66c.72 1.92 1.71 3.57 2.97 4.95a14.26 14.26 0 0 0 4.5 3.06c1.74.72 3.6 1.08 5.58 1.08Zm66.749 17.19c-5.28 0-10.38-.6-15.3-1.8-4.92-1.2-8.97-2.76-12.15-4.68l6.84-15.48c3 1.74 6.33 3.15 9.99 4.23 3.72 1.02 7.32 1.53 10.8 1.53 2.04 0 3.63-.12 4.77-.36 1.2-.3 2.07-.69 2.61-1.17.54-.54.81-1.17.81-1.89 0-1.14-.63-2.04-1.89-2.7-1.26-.66-2.94-1.2-5.04-1.62-2.04-.48-4.29-.96-6.75-1.44a73.38 73.38 0 0 1-7.47-2.07c-2.46-.84-4.74-1.95-6.84-3.33-2.04-1.38-3.69-3.18-4.95-5.4-1.26-2.28-1.89-5.1-1.89-8.46 0-3.9 1.08-7.44 3.24-10.62 2.22-3.24 5.49-5.82 9.81-7.74 4.38-1.92 9.81-2.88 16.29-2.88 4.26 0 8.46.45 12.6 1.35 4.14.9 7.86 2.28 11.16 4.14l-6.39 15.39c-3.12-1.56-6.15-2.73-9.09-3.51-2.88-.78-5.7-1.17-8.46-1.17-2.04 0-3.66.18-4.86.54-1.2.36-2.07.84-2.61 1.44-.48.6-.72 1.26-.72 1.98 0 1.08.63 1.95 1.89 2.61 1.26.6 2.91 1.11 4.95 1.53 2.1.42 4.38.87 6.84 1.35 2.52.48 5.01 1.14 7.47 1.98 2.46.84 4.71 1.95 6.75 3.33 2.1 1.38 3.78 3.18 5.04 5.4 1.26 2.22 1.89 4.98 1.89 8.28 0 3.84-1.11 7.38-3.33 10.62-2.16 3.18-5.4 5.76-9.72 7.74-4.32 1.92-9.75 2.88-16.29 2.88Zm95.223 0c-5.04 0-9.72-.78-14.04-2.34-4.26-1.62-7.98-3.9-11.16-6.84-3.12-2.94-5.55-6.42-7.29-10.44-1.74-4.02-2.61-8.46-2.61-13.32 0-4.86.87-9.3 2.61-13.32 1.74-4.02 4.17-7.5 7.29-10.44 3.18-2.94 6.9-5.19 11.16-6.75 4.32-1.62 9-2.43 14.04-2.43 6.18 0 11.64 1.08 16.38 3.24 4.8 2.16 8.76 5.28 11.88 9.36l-13.41 11.97c-1.86-2.34-3.93-4.14-6.21-5.4-2.22-1.32-4.74-1.98-7.56-1.98-2.22 0-4.23.36-6.03 1.08-1.8.72-3.36 1.77-4.68 3.15-1.26 1.38-2.25 3.06-2.97 5.04-.72 1.92-1.08 4.08-1.08 6.48 0 2.4.36 4.59 1.08 6.57.72 1.92 1.71 3.57 2.97 4.95a13.16 13.16 0 0 0 4.68 3.15c1.8.72 3.81 1.08 6.03 1.08 2.82 0 5.34-.63 7.56-1.89 2.28-1.32 4.35-3.15 6.21-5.49l13.41 11.97c-3.12 4.02-7.08 7.14-11.88 9.36-4.74 2.16-10.2 3.24-16.38 3.24Zm66.104 0c-5.1 0-9.84-.81-14.22-2.43-4.32-1.62-8.07-3.9-11.25-6.84-3.18-3-5.67-6.51-7.47-10.53-1.74-4.02-2.61-8.4-2.61-13.14 0-4.8.87-9.18 2.61-13.14 1.8-4.02 4.29-7.5 7.47-10.44 3.18-3 6.93-5.31 11.25-6.93 4.38-1.62 9.12-2.43 14.22-2.43 5.16 0 9.9.81 14.22 2.43s8.07 3.93 11.25 6.93c3.18 2.94 5.64 6.42 7.38 10.44 1.8 3.96 2.7 8.34 2.7 13.14 0 4.74-.9 9.12-2.7 13.14-1.74 4.02-4.2 7.53-7.38 10.53-3.18 2.94-6.93 5.22-11.25 6.84s-9.06 2.43-14.22 2.43Zm0-17.19c1.98 0 3.81-.36 5.49-1.08 1.74-.72 3.24-1.74 4.5-3.06 1.32-1.38 2.34-3.03 3.06-4.95.72-1.98 1.08-4.2 1.08-6.66s-.36-4.65-1.08-6.57c-.72-1.98-1.74-3.63-3.06-4.95a12.479 12.479 0 0 0-4.5-3.15c-1.68-.72-3.51-1.08-5.49-1.08-1.98 0-3.84.36-5.58 1.08-1.68.72-3.18 1.77-4.5 3.15-1.26 1.32-2.25 2.97-2.97 4.95-.72 1.92-1.08 4.11-1.08 6.57s.36 4.68 1.08 6.66c.72 1.92 1.71 3.57 2.97 4.95a14.26 14.26 0 0 0 4.5 3.06c1.74.72 3.6 1.08 5.58 1.08ZM975.923 623v-63h17.46l32.037 38.34h-8.1V560h20.7v63h-17.46l-32.037-38.34h8.1V623h-20.7Zm131.897 1.44c-5.04 0-9.72-.78-14.04-2.34-4.26-1.62-7.98-3.9-11.16-6.84-3.12-2.94-5.55-6.42-7.29-10.44-1.74-4.02-2.61-8.46-2.61-13.32 0-4.86.87-9.3 2.61-13.32 1.74-4.02 4.17-7.5 7.29-10.44 3.18-2.94 6.9-5.19 11.16-6.75 4.32-1.62 9-2.43 14.04-2.43 6.18 0 11.64 1.08 16.38 3.24 4.8 2.16 8.76 5.28 11.88 9.36l-13.41 11.97c-1.86-2.34-3.93-4.14-6.21-5.4-2.22-1.32-4.74-1.98-7.56-1.98-2.22 0-4.23.36-6.03 1.08-1.8.72-3.36 1.77-4.68 3.15-1.26 1.38-2.25 3.06-2.97 5.04-.72 1.92-1.08 4.08-1.08 6.48 0 2.4.36 4.59 1.08 6.57.72 1.92 1.71 3.57 2.97 4.95a13.16 13.16 0 0 0 4.68 3.15c1.8.72 3.81 1.08 6.03 1.08 2.82 0 5.34-.63 7.56-1.89 2.28-1.32 4.35-3.15 6.21-5.49l13.41 11.97c-3.12 4.02-7.08 7.14-11.88 9.36-4.74 2.16-10.2 3.24-16.38 3.24Zm57 0c-5.28 0-10.38-.6-15.3-1.8-4.92-1.2-8.97-2.76-12.15-4.68l6.84-15.48c3 1.74 6.33 3.15 9.99 4.23 3.72 1.02 7.32 1.53 10.8 1.53 2.04 0 3.63-.12 4.77-.36 1.2-.3 2.07-.69 2.61-1.17.54-.54.81-1.17.81-1.89 0-1.14-.63-2.04-1.89-2.7-1.26-.66-2.94-1.2-5.04-1.62-2.04-.48-4.29-.96-6.75-1.44a73.38 73.38 0 0 1-7.47-2.07c-2.46-.84-4.74-1.95-6.84-3.33-2.04-1.38-3.69-3.18-4.95-5.4-1.26-2.28-1.89-5.1-1.89-8.46 0-3.9 1.08-7.44 3.24-10.62 2.22-3.24 5.49-5.82 9.81-7.74 4.38-1.92 9.81-2.88 16.29-2.88 4.26 0 8.46.45 12.6 1.35 4.14.9 7.86 2.28 11.16 4.14l-6.39 15.39c-3.12-1.56-6.15-2.73-9.09-3.51-2.88-.78-5.7-1.17-8.46-1.17-2.04 0-3.66.18-4.86.54-1.2.36-2.07.84-2.61 1.44-.48.6-.72 1.26-.72 1.98 0 1.08.63 1.95 1.89 2.61 1.26.6 2.91 1.11 4.95 1.53 2.1.42 4.38.87 6.84 1.35 2.52.48 5.01 1.14 7.47 1.98 2.46.84 4.71 1.95 6.75 3.33 2.1 1.38 3.78 3.18 5.04 5.4 1.26 2.22 1.89 4.98 1.89 8.28 0 3.84-1.11 7.38-3.33 10.62-2.16 3.18-5.4 5.76-9.72 7.74-4.32 1.92-9.75 2.88-16.29 2.88Zm59.15 0c-5.28 0-10.38-.6-15.3-1.8-4.92-1.2-8.97-2.76-12.15-4.68l6.84-15.48c3 1.74 6.33 3.15 9.99 4.23 3.72 1.02 7.32 1.53 10.8 1.53 2.04 0 3.63-.12 4.77-.36 1.2-.3 2.07-.69 2.61-1.17.54-.54.81-1.17.81-1.89 0-1.14-.63-2.04-1.89-2.7-1.26-.66-2.94-1.2-5.04-1.62-2.04-.48-4.29-.96-6.75-1.44a73.38 73.38 0 0 1-7.47-2.07c-2.46-.84-4.74-1.95-6.84-3.33-2.04-1.38-3.69-3.18-4.95-5.4-1.26-2.28-1.89-5.1-1.89-8.46 0-3.9 1.08-7.44 3.24-10.62 2.22-3.24 5.49-5.82 9.81-7.74 4.38-1.92 9.81-2.88 16.29-2.88 4.26 0 8.46.45 12.6 1.35 4.14.9 7.86 2.28 11.16 4.14l-6.39 15.39c-3.12-1.56-6.15-2.73-9.09-3.51-2.88-.78-5.7-1.17-8.46-1.17-2.04 0-3.66.18-4.86.54-1.2.36-2.07.84-2.61 1.44-.48.6-.72 1.26-.72 1.98 0 1.08.63 1.95 1.89 2.61 1.26.6 2.91 1.11 4.95 1.53 2.1.42 4.38.87 6.84 1.35 2.52.48 5.01 1.14 7.47 1.98 2.46.84 4.71 1.95 6.75 3.33 2.1 1.38 3.78 3.18 5.04 5.4 1.26 2.22 1.89 4.98 1.89 8.28 0 3.84-1.11 7.38-3.33 10.62-2.16 3.18-5.4 5.76-9.72 7.74-4.32 1.92-9.75 2.88-16.29 2.88Z" fill="#003357"/><g clip-path="url(#i)"><mask id="j" style="mask-type:luminance" maskUnits="userSpaceOnUse" x="213" y="214" width="138" height="115"><path d="M351 214H213v115h138V214Z" fill="#fff"/></mask><g mask="url(#j)"><path d="M350.844 323.93c-2.99-11.674-9.467-22.23-18.79-30.708.04-.129.068-.266.108-.402a18.353 18.353 0 0 0 .367-1.601c.034-.164.061-.327.089-.498.068-.422.122-.852.163-1.288.013-.109.027-.225.034-.334.047-.565.075-1.138.075-1.717 0-.648-.028-1.315-.068-1.997-.619-12.021-6.66-28.772-15.76-43.431C311.85 233.552 297.994 214 282.003 214c-.101 0-.203.014-.305.014-15.868.238-29.589 19.592-34.774 27.94-9.106 14.673-15.154 31.444-15.759 43.465a31.98 31.98 0 0 0-.061 1.956c0 .579.027 1.138.068 1.697.013.15.034.3.047.45.041.388.082.777.143 1.158.034.205.068.402.109.6.061.327.129.647.21.968.048.204.102.402.157.606.034.123.061.246.095.368-9.324 8.485-15.793 19.054-18.79 30.742-.027.095-.041.191-.061.279 0 .034-.014.062-.021.089v.034c-.013.089-.027.184-.034.273 0 .02 0 .047-.007.068v.088c0 .075-.013.143-.013.218 0 .777.224 1.5.611 2.113.068.109.143.218.225.313a3.933 3.933 0 0 0 2.106 1.397c.014 0 .034.014.048.021h.041c.115.027.231.048.353.068h.014l.129.02h.013c.136.014.272.021.408.021h130.076c.333 0 .653-.048.959-.123h.02c.007 0 .013 0 .02-.007a3.976 3.976 0 0 0 2.97-3.85 3.87 3.87 0 0 0-.156-1.09v.034Zm-95.976-77.703c9.575-14.74 20.224-24.267 27.135-24.267h.116c6.911.109 17.492 9.609 27.013 24.267 9.466 14.577 15.827 31.117 15.827 41.155 0 1.983-.374 3.653-1.149 5.125a1.303 1.303 0 0 1-.333.347h-.006c-.068.048-.143.102-.225.15-.013.014-.034.021-.047.034-.068.041-.143.082-.218.123a2.628 2.628 0 0 1-.142.075c-.449.225-1.006.45-1.611.668a23.67 23.67 0 0 0 .258-3.047c.014-.156.014-.32.014-.477 0-16.689-17.642-25.289-39.395-25.289-21.753 0-39.394 8.6-39.394 25.289 0 .157 0 .321.013.477.021 1.05.109 2.093.265 3.108a16.67 16.67 0 0 1-1.739-.695c-.027-.014-.061-.027-.089-.048a1.778 1.778 0 0 1-.197-.109c-.074-.041-.149-.082-.21-.129-.034-.021-.075-.048-.109-.068-.075-.055-.143-.103-.204-.157a.374.374 0 0 1-.054-.048.901.901 0 0 1-.17-.204c-.775-1.472-1.149-3.149-1.149-5.132 0-10.031 6.361-26.571 15.827-41.155l-.027.007Zm35.977 34.919a2.136 2.136 0 0 1-2.134-2.139c0-1.186.958-2.14 2.134-2.14h6.612c1.175 0 2.134.961 2.134 2.14v16.151c0 1.185-.959 2.14-2.134 2.14h-6.612a2.137 2.137 0 0 1-2.134-2.14c0-1.186.958-2.14 2.134-2.14h4.471v-11.865h-4.471v-.007Zm-3.038-5.417-7.536 23.995a2.13 2.13 0 0 1-2.039 1.499c-.211 0-.428-.027-.639-.096a2.14 2.14 0 0 1-1.393-2.685l7.53-23.995a2.134 2.134 0 0 1 2.677-1.403 2.144 2.144 0 0 1 1.4 2.685Zm-14.652 17.282c1.183 0 2.134.961 2.134 2.14 0 1.179-.951 2.14-2.134 2.14h-6.605a2.132 2.132 0 0 1-2.134-2.14V279c0-1.179.952-2.14 2.134-2.14h6.605c1.183 0 2.134.961 2.134 2.14 0 1.179-.951 2.14-2.134 2.14h-4.464v11.864h4.464v.007Zm-50.797 28.029c2.895-7.953 7.733-15.197 14.23-21.282 1.454.906 3.146 1.56 4.879 2.105 1.101.341 2.216.641 3.296.934.632.17 1.251.334 1.835.504 0 0 .014 0 .02.007h.034c10.846 4.552 25.634 3.074 32.681 12.199 1.434 1.853 4.179 1.874 5.674.061 7.204-8.743 21.943-7.714 32.755-12.348 0-.014.014-.021.021-.028l1.447-.395c2.576-.695 5.348-1.445 7.632-2.733.02-.013.041-.02.061-.034.163-.095.333-.184.489-.279 6.497 6.092 11.335 13.336 14.237 21.282H222.358v.007Z" fill="#fff"/></g></g><rect x="513" y="698" width="400" height="240" rx="20" fill="#D9D9D9"/><rect x="583" y="743" width="260" height="150" rx="20" fill="#33A9DC"/><path d="M859.939 816.939a1.502 1.502 0 0 0 0 2.122l9.546 9.546a1.502 1.502 0 0 0 2.122 0 1.502 1.502 0 0 0 0-2.122L863.121 818l8.486-8.485a1.502 1.502 0 0 0 0-2.122 1.502 1.502 0 0 0-2.122 0l-9.546 9.546ZM913 816.5h-52v3h52v-3ZM566.061 819.061a1.502 1.502 0 0 0 0-2.122l-9.546-9.546a1.502 1.502 0 0 0-2.122 0 1.502 1.502 0 0 0 0 2.122l8.486 8.485-8.486 8.485a1.502 1.502 0 0 0 0 2.122 1.502 1.502 0 0 0 2.122 0l9.546-9.546ZM513 819.5h52v-3h-52v3ZM711.939 731.061a1.502 1.502 0 0 0 2.122 0l9.546-9.546a1.502 1.502 0 0 0 0-2.122 1.502 1.502 0 0 0-2.122 0L713 727.879l-8.485-8.486a1.502 1.502 0 0 0-2.122 0 1.502 1.502 0 0 0 0 2.122l9.546 9.546ZM711.5 698v32h3v-32h-3ZM714.061 904.939a1.502 1.502 0 0 0-2.122 0l-9.546 9.546a1.502 1.502 0 0 0 0 2.122 1.502 1.502 0 0 0 2.122 0l8.485-8.486 8.485 8.486a1.502 1.502 0 0 0 2.122 0 1.502 1.502 0 0 0 0-2.122l-9.546-9.546ZM714.5 938v-32h-3v32h3Z" fill="#000"/></g><defs><filter id="c" x="-618.979" y="-735.983" width="1480.68" height="1343.84" filterUnits="userSpaceOnUse" color-interpolation-filters="sRGB"><feFlood flood-opacity="0" result="BackgroundImageFix"/><feBlend in="SourceGraphic" in2="BackgroundImageFix" result="shape"/><feGaussianBlur stdDeviation="100" result="effect1_foregroundBlur_6_12"/></filter><filter id="d" x="-612" y="334" width="1772" height="1772" filterUnits="userSpaceOnUse" color-interpolation-filters="sRGB"><feFlood flood-opacity="0" result="BackgroundImageFix"/><feBlend in="SourceGraphic" in2="BackgroundImageFix" result="shape"/><feGaussianBlur stdDeviation="100" result="effect1_foregroundBlur_6_12"/></filter><filter id="e" x="661" y="262" width="1747" height="1747" filterUnits="userSpaceOnUse" color-interpolation-filters="sRGB"><feFlood flood-opacity="0" result="BackgroundImageFix"/><feBlend in="SourceGraphic" in2="BackgroundImageFix" result="shape"/><feGaussianBlur stdDeviation="100" result="effect1_foregroundBlur_6_12"/></filter><filter id="f" x="131" y="106" width="1700" height="1067" filterUnits="userSpaceOnUse" color-interpolation-filters="sRGB"><feFlood flood-opacity="0" result="BackgroundImageFix"/><feGaussianBlur in="BackgroundImageFix" stdDeviation="6"/><feComposite in2="SourceAlpha" operator="in" result="effect1_backgroundBlur_6_12"/><feBlend in="SourceGraphic" in2="effect1_backgroundBlur_6_12" result="shape"/></filter><linearGradient id="b" x1="960" y1="0" x2="960" y2="1280" gradientUnits="userSpaceOnUse"><stop stop-color="#1572B6"/><stop offset="1" stop-color="#33A9DC"/></linearGradient><linearGradient id="h" x1="494.39" y1="1326.85" x2="701.637" y2="336.796" gradientUnits="userSpaceOnUse"><stop stop-color="#fff" stop-opacity=".22"/><stop offset="1" stop-color="#fff" stop-opacity="0"/></linearGradient><clipPath id="a"><path fill="#fff" d="M0 0h1920v1280H0z"/></clipPath><clipPath id="i"><path fill="#fff" transform="translate(213 214)" d="M0 0h138v115H0z"/></clipPath><radialGradient id="g" cx="0" cy="0" r="1" gradientUnits="userSpaceOnUse" gradientTransform="matrix(1526.00285 906.00214 -1455.85517 2452.13454 234.5 205)"><stop stop-color="#fff" stop-opacity=".7"/><stop offset="1" stop-color="#fff" stop-opacity=".1"/></radialGradient></defs></svg>