<svg width="1920" height="1280" viewBox="0 0 1920 1280" fill="none" xmlns="http://www.w3.org/2000/svg">
<g clip-path="url(#clip0_3_32)">
<rect width="1920" height="1280" fill="url(#paint0_linear_3_32)"/>
<g filter="url(#filter0_f_3_32)">
<path d="M-418.979 391.97L135.124 -535.983L661.703 407.861L-418.979 391.97Z" fill="#035579"/>
</g>
<g filter="url(#filter1_f_3_32)">
<circle cx="274" cy="1220" r="686" fill="#3381BB"/>
<circle cx="274" cy="1220" r="686" fill="#3381BB"/>
<circle cx="274" cy="1220" r="686" fill="#3381BB"/>
</g>
<g filter="url(#filter2_f_3_32)">
<circle cx="1534.5" cy="1135.5" r="673.5" fill="#3381BB"/>
<circle cx="1534.5" cy="1135.5" r="673.5" fill="#3381BB"/>
<circle cx="1534.5" cy="1135.5" r="673.5" fill="#33A9DC"/>
</g>
<g filter="url(#filter3_b_3_32)">
<rect x="126" y="117" width="1676" height="1043" rx="100" fill="url(#paint1_radial_3_32)" fill-opacity="0.6"/>
<rect x="126.5" y="117.5" width="1675" height="1042" rx="99.5" stroke="white" stroke-opacity="0.5" style="mix-blend-mode:overlay"/>
</g>
<ellipse cx="1491" cy="757.5" rx="217" ry="59.5" fill="#0488E8"/>
<path d="M1230.23 260.683L820.859 1103.68C804.131 1138.13 769.199 1160 730.905 1160H226C170.772 1160 126 1115.23 126 1060V217C126 161.772 170.771 117 226 117H1140.27C1214.1 117 1262.48 194.267 1230.23 260.683Z" fill="url(#paint2_linear_3_32)"/>
<path d="M651 984.5C725.539 984.5 788.5 921.539 788.5 847H761C761 906.634 710.634 957 651 957C591.366 957 541 906.634 541 847C541 787.38 591.366 737 651 737V709.5C576.461 709.5 513.5 772.475 513.5 847C513.5 921.539 576.461 984.5 651 984.5Z" fill="#F8F8F8"/>
<path d="M1386.86 742.51L1363.7 482.625H1618.3L1595.1 742.469L1490.85 771.375L1386.86 742.51Z" fill="#1572B6"/>
<path d="M1491 749.286L1575.25 725.928L1595.07 503.879H1491V749.286Z" fill="#33A9DC"/>
<path d="M1491 598.032H1533.18L1536.09 565.393H1491V533.517H1570.92L1570.16 542.066L1562.33 629.908H1491V598.032Z" fill="white"/>
<path d="M1491.2 680.811L1491.05 680.852L1455.56 671.261L1453.29 645.841H1421.29L1425.75 695.888L1491.04 714.017L1491.2 713.976V680.811Z" fill="#EBEBEB"/>
<path d="M1530.47 628.557L1526.63 671.241L1491.08 680.831V713.996L1556.42 695.887L1556.91 690.504L1562.45 628.557H1530.47Z" fill="white"/>
<path d="M1491.11 533.517V565.393H1414.12L1413.48 558.226L1412.03 542.066L1411.26 533.517H1491.11ZM1491 598.032V629.908H1455.95L1455.31 622.741L1453.86 606.581L1453.1 598.032H1491Z" fill="#EBEBEB"/>
<path d="M253.224 500.536C247.848 500.536 242.856 499.704 238.248 498.04C233.704 496.312 229.736 493.88 226.344 490.744C223.016 487.608 220.424 483.896 218.568 479.608C216.712 475.32 215.784 470.584 215.784 465.4C215.784 460.216 216.712 455.48 218.568 451.192C220.424 446.904 223.016 443.192 226.344 440.056C229.736 436.92 233.704 434.52 238.248 432.856C242.856 431.128 247.848 430.264 253.224 430.264C259.816 430.264 265.64 431.416 270.696 433.72C275.816 436.024 280.04 439.352 283.368 443.704L269.064 456.472C267.08 453.976 264.872 452.056 262.44 450.712C260.072 449.304 257.384 448.6 254.376 448.6C252.008 448.6 249.864 448.984 247.944 449.752C246.024 450.52 244.36 451.64 242.952 453.112C241.608 454.584 240.552 456.376 239.784 458.488C239.016 460.536 238.632 462.84 238.632 465.4C238.632 467.96 239.016 470.296 239.784 472.408C240.552 474.456 241.608 476.216 242.952 477.688C244.36 479.16 246.024 480.28 247.944 481.048C249.864 481.816 252.008 482.2 254.376 482.2C257.384 482.2 260.072 481.528 262.44 480.184C264.872 478.776 267.08 476.824 269.064 474.328L283.368 487.096C280.04 491.384 275.816 494.712 270.696 497.08C265.64 499.384 259.816 500.536 253.224 500.536ZM289.91 499V431.8H322.262C328.534 431.8 333.942 432.824 338.486 434.872C343.094 436.92 346.646 439.864 349.142 443.704C351.638 447.48 352.886 451.96 352.886 457.144C352.886 462.328 351.638 466.808 349.142 470.584C346.646 474.296 343.094 477.144 338.486 479.128C333.942 481.112 328.534 482.104 322.262 482.104H302.486L312.566 472.792V499H289.91ZM330.134 499L313.622 474.52H337.622L354.326 499H330.134ZM312.566 475.288L302.486 465.016H320.822C323.958 465.016 326.262 464.312 327.734 462.904C329.27 461.496 330.038 459.576 330.038 457.144C330.038 454.712 329.27 452.792 327.734 451.384C326.262 449.976 323.958 449.272 320.822 449.272H302.486L312.566 439V475.288ZM382.177 456.76H412.129V473.08H382.177V456.76ZM383.713 481.912H417.313V499H361.441V431.8H416.065V448.888H383.713V481.912ZM418.738 499L448.115 431.8H470.387L499.763 499H476.339L454.643 442.552H463.475L441.779 499H418.738ZM436.211 487.288L441.971 470.968H472.883L478.643 487.288H436.211ZM564.32 500.536C554.016 500.536 545.984 497.752 540.224 492.184C534.464 486.616 531.584 478.808 531.584 468.76V431.8H554.24V468.088C554.24 473.208 555.168 476.856 557.024 479.032C558.88 481.144 561.376 482.2 564.512 482.2C567.712 482.2 570.208 481.144 572 479.032C573.856 476.856 574.784 473.208 574.784 468.088V431.8H597.056V468.76C597.056 478.808 594.176 486.616 588.416 492.184C582.656 497.752 574.624 500.536 564.32 500.536ZM607.441 499V431.8H626.065L660.241 472.696H651.601V431.8H673.681V499H655.057L620.881 458.104H629.521V499H607.441ZM713.378 499V431.8H736.034V481.432H766.37V499H713.378ZM806.923 500.536C801.483 500.536 796.427 499.672 791.755 497.944C787.147 496.216 783.147 493.784 779.755 490.648C776.363 487.448 773.707 483.704 771.787 479.416C769.931 475.128 769.003 470.456 769.003 465.4C769.003 460.28 769.931 455.608 771.787 451.384C773.707 447.096 776.363 443.384 779.755 440.248C783.147 437.048 787.147 434.584 791.755 432.856C796.427 431.128 801.483 430.264 806.923 430.264C812.427 430.264 817.483 431.128 822.091 432.856C826.699 434.584 830.699 437.048 834.091 440.248C837.483 443.384 840.107 447.096 841.963 451.384C843.883 455.608 844.843 460.28 844.843 465.4C844.843 470.456 843.883 475.128 841.963 479.416C840.107 483.704 837.483 487.448 834.091 490.648C830.699 493.784 826.699 496.216 822.091 497.944C817.483 499.672 812.427 500.536 806.923 500.536ZM806.923 482.2C809.035 482.2 810.987 481.816 812.779 481.048C814.635 480.28 816.235 479.192 817.579 477.784C818.987 476.312 820.075 474.552 820.843 472.504C821.611 470.392 821.995 468.024 821.995 465.4C821.995 462.776 821.611 460.44 820.843 458.392C820.075 456.28 818.987 454.52 817.579 453.112C816.235 451.64 814.635 450.52 812.779 449.752C810.987 448.984 809.035 448.6 806.923 448.6C804.811 448.6 802.827 448.984 800.971 449.752C799.179 450.52 797.579 451.64 796.171 453.112C794.827 454.52 793.771 456.28 793.003 458.392C792.235 460.44 791.851 462.776 791.851 465.4C791.851 468.024 792.235 470.392 793.003 472.504C793.771 474.552 794.827 476.312 796.171 477.784C797.579 479.192 799.179 480.28 800.971 481.048C802.827 481.816 804.811 482.2 806.923 482.2ZM844.832 499L874.208 431.8H896.48L925.856 499H902.432L880.736 442.552H889.568L867.872 499H844.832ZM862.304 487.288L868.064 470.968H898.976L904.736 487.288H862.304ZM929.472 499V431.8H962.592C970.08 431.8 976.672 433.176 982.368 435.928C988.064 438.616 992.512 442.456 995.712 447.448C998.912 452.44 1000.51 458.392 1000.51 465.304C1000.51 472.28 998.912 478.296 995.712 483.352C992.512 488.344 988.064 492.216 982.368 494.968C976.672 497.656 970.08 499 962.592 499H929.472ZM952.128 481.336H961.632C964.832 481.336 967.616 480.728 969.984 479.512C972.416 478.296 974.304 476.504 975.648 474.136C976.992 471.704 977.664 468.76 977.664 465.304C977.664 461.912 976.992 459.032 975.648 456.664C974.304 454.296 972.416 452.504 969.984 451.288C967.616 450.072 964.832 449.464 961.632 449.464H952.128V481.336ZM1029.52 456.76H1059.47V473.08H1029.52V456.76ZM1031.06 481.912H1064.66V499H1008.78V431.8H1063.41V448.888H1031.06V481.912ZM1073.38 499V431.8H1105.73C1112 431.8 1117.41 432.824 1121.95 434.872C1126.56 436.92 1130.11 439.864 1132.61 443.704C1135.11 447.48 1136.35 451.96 1136.35 457.144C1136.35 462.328 1135.11 466.808 1132.61 470.584C1130.11 474.296 1126.56 477.144 1121.95 479.128C1117.41 481.112 1112 482.104 1105.73 482.104H1085.95L1096.03 472.792V499H1073.38ZM1113.6 499L1097.09 474.52H1121.09L1137.79 499H1113.6ZM1096.03 475.288L1085.95 465.016H1104.29C1107.43 465.016 1109.73 464.312 1111.2 462.904C1112.74 461.496 1113.51 459.576 1113.51 457.144C1113.51 454.712 1112.74 452.792 1111.2 451.384C1109.73 449.976 1107.43 449.272 1104.29 449.272H1085.95L1096.03 439V475.288Z" fill="white"/>
<path d="M243.528 617.536C237.896 617.536 232.456 616.896 227.208 615.616C221.96 614.336 217.64 612.672 214.248 610.624L221.544 594.112C224.744 595.968 228.296 597.472 232.2 598.624C236.168 599.712 240.008 600.256 243.72 600.256C245.896 600.256 247.592 600.128 248.808 599.872C250.088 599.552 251.016 599.136 251.592 598.624C252.168 598.048 252.456 597.376 252.456 596.608C252.456 595.392 251.784 594.432 250.44 593.728C249.096 593.024 247.304 592.448 245.064 592C242.888 591.488 240.488 590.976 237.864 590.464C235.24 589.888 232.584 589.152 229.896 588.256C227.272 587.36 224.84 586.176 222.6 584.704C220.424 583.232 218.664 581.312 217.32 578.944C215.976 576.512 215.304 573.504 215.304 569.92C215.304 565.76 216.456 561.984 218.76 558.592C221.128 555.136 224.616 552.384 229.224 550.336C233.896 548.288 239.688 547.264 246.6 547.264C251.144 547.264 255.624 547.744 260.04 548.704C264.456 549.664 268.424 551.136 271.944 553.12L265.128 569.536C261.8 567.872 258.568 566.624 255.432 565.792C252.36 564.96 249.352 564.544 246.408 564.544C244.232 564.544 242.504 564.736 241.224 565.12C239.944 565.504 239.016 566.016 238.44 566.656C237.928 567.296 237.672 568 237.672 568.768C237.672 569.92 238.344 570.848 239.688 571.552C241.032 572.192 242.792 572.736 244.968 573.184C247.208 573.632 249.64 574.112 252.264 574.624C254.952 575.136 257.608 575.84 260.232 576.736C262.856 577.632 265.256 578.816 267.432 580.288C269.672 581.76 271.464 583.68 272.808 586.048C274.152 588.416 274.824 591.36 274.824 594.88C274.824 598.976 273.64 602.752 271.272 606.208C268.968 609.6 265.512 612.352 260.904 614.464C256.296 616.512 250.504 617.536 243.528 617.536ZM316.798 617.536C311.358 617.536 306.302 616.672 301.63 614.944C297.022 613.216 293.022 610.784 289.63 607.648C286.238 604.448 283.582 600.704 281.662 596.416C279.806 592.128 278.878 587.456 278.878 582.4C278.878 577.28 279.806 572.608 281.662 568.384C283.582 564.096 286.238 560.384 289.63 557.248C293.022 554.048 297.022 551.584 301.63 549.856C306.302 548.128 311.358 547.264 316.798 547.264C322.302 547.264 327.358 548.128 331.966 549.856C336.574 551.584 340.574 554.048 343.966 557.248C347.358 560.384 349.982 564.096 351.838 568.384C353.758 572.608 354.718 577.28 354.718 582.4C354.718 587.456 353.758 592.128 351.838 596.416C349.982 600.704 347.358 604.448 343.966 607.648C340.574 610.784 336.574 613.216 331.966 614.944C327.358 616.672 322.302 617.536 316.798 617.536ZM316.798 599.2C318.91 599.2 320.862 598.816 322.654 598.048C324.51 597.28 326.11 596.192 327.454 594.784C328.862 593.312 329.95 591.552 330.718 589.504C331.486 587.392 331.87 585.024 331.87 582.4C331.87 579.776 331.486 577.44 330.718 575.392C329.95 573.28 328.862 571.52 327.454 570.112C326.11 568.64 324.51 567.52 322.654 566.752C320.862 565.984 318.91 565.6 316.798 565.6C314.686 565.6 312.702 565.984 310.846 566.752C309.054 567.52 307.454 568.64 306.046 570.112C304.702 571.52 303.646 573.28 302.878 575.392C302.11 577.44 301.726 579.776 301.726 582.4C301.726 585.024 302.11 587.392 302.878 589.504C303.646 591.552 304.702 593.312 306.046 594.784C307.454 596.192 309.054 597.28 310.846 598.048C312.702 598.816 314.686 599.2 316.798 599.2ZM362.941 616V548.8H385.597V598.432H415.933V616H362.941ZM456.485 617.536C451.045 617.536 445.989 616.672 441.317 614.944C436.709 613.216 432.709 610.784 429.317 607.648C425.925 604.448 423.269 600.704 421.349 596.416C419.493 592.128 418.565 587.456 418.565 582.4C418.565 577.28 419.493 572.608 421.349 568.384C423.269 564.096 425.925 560.384 429.317 557.248C432.709 554.048 436.709 551.584 441.317 549.856C445.989 548.128 451.045 547.264 456.485 547.264C461.989 547.264 467.045 548.128 471.653 549.856C476.261 551.584 480.261 554.048 483.653 557.248C487.045 560.384 489.669 564.096 491.525 568.384C493.445 572.608 494.405 577.28 494.405 582.4C494.405 587.456 493.445 592.128 491.525 596.416C489.669 600.704 487.045 604.448 483.653 607.648C480.261 610.784 476.261 613.216 471.653 614.944C467.045 616.672 461.989 617.536 456.485 617.536ZM456.485 599.2C458.597 599.2 460.549 598.816 462.341 598.048C464.197 597.28 465.797 596.192 467.141 594.784C468.549 593.312 469.637 591.552 470.405 589.504C471.173 587.392 471.557 585.024 471.557 582.4C471.557 579.776 471.173 577.44 470.405 575.392C469.637 573.28 468.549 571.52 467.141 570.112C465.797 568.64 464.197 567.52 462.341 566.752C460.549 565.984 458.597 565.6 456.485 565.6C454.373 565.6 452.389 565.984 450.533 566.752C448.741 567.52 447.141 568.64 445.733 570.112C444.389 571.52 443.333 573.28 442.565 575.392C441.797 577.44 441.413 579.776 441.413 582.4C441.413 585.024 441.797 587.392 442.565 589.504C443.333 591.552 444.389 593.312 445.733 594.784C447.141 596.192 448.741 597.28 450.533 598.048C452.389 598.816 454.373 599.2 456.485 599.2ZM566.162 617.536C560.786 617.536 555.794 616.704 551.186 615.04C546.642 613.312 542.674 610.88 539.282 607.744C535.954 604.608 533.362 600.896 531.506 596.608C529.65 592.32 528.722 587.584 528.722 582.4C528.722 577.216 529.65 572.48 531.506 568.192C533.362 563.904 535.954 560.192 539.282 557.056C542.674 553.92 546.642 551.52 551.186 549.856C555.794 548.128 560.786 547.264 566.162 547.264C572.754 547.264 578.578 548.416 583.634 550.72C588.754 553.024 592.978 556.352 596.306 560.704L582.002 573.472C580.018 570.976 577.81 569.056 575.378 567.712C573.01 566.304 570.322 565.6 567.314 565.6C564.946 565.6 562.802 565.984 560.882 566.752C558.962 567.52 557.298 568.64 555.89 570.112C554.546 571.584 553.49 573.376 552.722 575.488C551.954 577.536 551.57 579.84 551.57 582.4C551.57 584.96 551.954 587.296 552.722 589.408C553.49 591.456 554.546 593.216 555.89 594.688C557.298 596.16 558.962 597.28 560.882 598.048C562.802 598.816 564.946 599.2 567.314 599.2C570.322 599.2 573.01 598.528 575.378 597.184C577.81 595.776 580.018 593.824 582.002 591.328L596.306 604.096C592.978 608.384 588.754 611.712 583.634 614.08C578.578 616.384 572.754 617.536 566.162 617.536ZM636.673 617.536C631.233 617.536 626.177 616.672 621.505 614.944C616.897 613.216 612.897 610.784 609.505 607.648C606.113 604.448 603.457 600.704 601.537 596.416C599.681 592.128 598.753 587.456 598.753 582.4C598.753 577.28 599.681 572.608 601.537 568.384C603.457 564.096 606.113 560.384 609.505 557.248C612.897 554.048 616.897 551.584 621.505 549.856C626.177 548.128 631.233 547.264 636.673 547.264C642.177 547.264 647.233 548.128 651.841 549.856C656.449 551.584 660.449 554.048 663.841 557.248C667.233 560.384 669.857 564.096 671.713 568.384C673.633 572.608 674.593 577.28 674.593 582.4C674.593 587.456 673.633 592.128 671.713 596.416C669.857 600.704 667.233 604.448 663.841 607.648C660.449 610.784 656.449 613.216 651.841 614.944C647.233 616.672 642.177 617.536 636.673 617.536ZM636.673 599.2C638.785 599.2 640.737 598.816 642.529 598.048C644.385 597.28 645.985 596.192 647.329 594.784C648.737 593.312 649.825 591.552 650.593 589.504C651.361 587.392 651.745 585.024 651.745 582.4C651.745 579.776 651.361 577.44 650.593 575.392C649.825 573.28 648.737 571.52 647.329 570.112C645.985 568.64 644.385 567.52 642.529 566.752C640.737 565.984 638.785 565.6 636.673 565.6C634.561 565.6 632.577 565.984 630.721 566.752C628.929 567.52 627.329 568.64 625.921 570.112C624.577 571.52 623.521 573.28 622.753 575.392C621.985 577.44 621.601 579.776 621.601 582.4C621.601 585.024 621.985 587.392 622.753 589.504C623.521 591.552 624.577 593.312 625.921 594.784C627.329 596.192 628.929 597.28 630.721 598.048C632.577 598.816 634.561 599.2 636.673 599.2ZM682.816 616V548.8H701.44L735.616 589.696H726.976V548.8H749.056V616H730.432L696.256 575.104H704.896V616H682.816ZM823.505 617.536C818.129 617.536 813.137 616.704 808.529 615.04C803.985 613.312 800.017 610.88 796.625 607.744C793.297 604.608 790.705 600.896 788.849 596.608C786.993 592.32 786.065 587.584 786.065 582.4C786.065 577.216 786.993 572.48 788.849 568.192C790.705 563.904 793.297 560.192 796.625 557.056C800.017 553.92 803.985 551.52 808.529 549.856C813.137 548.128 818.129 547.264 823.505 547.264C830.097 547.264 835.921 548.416 840.977 550.72C846.097 553.024 850.321 556.352 853.649 560.704L839.345 573.472C837.361 570.976 835.153 569.056 832.721 567.712C830.353 566.304 827.665 565.6 824.657 565.6C822.289 565.6 820.145 565.984 818.225 566.752C816.305 567.52 814.641 568.64 813.233 570.112C811.889 571.584 810.833 573.376 810.065 575.488C809.297 577.536 808.913 579.84 808.913 582.4C808.913 584.96 809.297 587.296 810.065 589.408C810.833 591.456 811.889 593.216 813.233 594.688C814.641 596.16 816.305 597.28 818.225 598.048C820.145 598.816 822.289 599.2 824.657 599.2C827.665 599.2 830.353 598.528 832.721 597.184C835.153 595.776 837.361 593.824 839.345 591.328L853.649 604.096C850.321 608.384 846.097 611.712 840.977 614.08C835.921 616.384 830.097 617.536 823.505 617.536ZM884.309 617.536C878.677 617.536 873.237 616.896 867.989 615.616C862.741 614.336 858.421 612.672 855.029 610.624L862.325 594.112C865.525 595.968 869.077 597.472 872.981 598.624C876.949 599.712 880.789 600.256 884.501 600.256C886.677 600.256 888.373 600.128 889.589 599.872C890.869 599.552 891.797 599.136 892.373 598.624C892.949 598.048 893.237 597.376 893.237 596.608C893.237 595.392 892.565 594.432 891.221 593.728C889.877 593.024 888.085 592.448 885.845 592C883.669 591.488 881.269 590.976 878.645 590.464C876.021 589.888 873.365 589.152 870.677 588.256C868.053 587.36 865.621 586.176 863.381 584.704C861.205 583.232 859.445 581.312 858.101 578.944C856.757 576.512 856.085 573.504 856.085 569.92C856.085 565.76 857.237 561.984 859.541 558.592C861.909 555.136 865.397 552.384 870.005 550.336C874.677 548.288 880.469 547.264 887.381 547.264C891.925 547.264 896.405 547.744 900.821 548.704C905.237 549.664 909.205 551.136 912.725 553.12L905.909 569.536C902.581 567.872 899.349 566.624 896.213 565.792C893.141 564.96 890.133 564.544 887.189 564.544C885.013 564.544 883.285 564.736 882.005 565.12C880.725 565.504 879.797 566.016 879.221 566.656C878.709 567.296 878.453 568 878.453 568.768C878.453 569.92 879.125 570.848 880.469 571.552C881.813 572.192 883.573 572.736 885.749 573.184C887.989 573.632 890.421 574.112 893.045 574.624C895.733 575.136 898.389 575.84 901.013 576.736C903.637 577.632 906.037 578.816 908.213 580.288C910.453 581.76 912.245 583.68 913.589 586.048C914.933 588.416 915.605 591.36 915.605 594.88C915.605 598.976 914.421 602.752 912.053 606.208C909.749 609.6 906.293 612.352 901.685 614.464C897.077 616.512 891.285 617.536 884.309 617.536ZM947.403 617.536C941.771 617.536 936.331 616.896 931.083 615.616C925.835 614.336 921.515 612.672 918.123 610.624L925.419 594.112C928.619 595.968 932.171 597.472 936.075 598.624C940.043 599.712 943.883 600.256 947.595 600.256C949.771 600.256 951.467 600.128 952.683 599.872C953.963 599.552 954.891 599.136 955.467 598.624C956.043 598.048 956.331 597.376 956.331 596.608C956.331 595.392 955.659 594.432 954.315 593.728C952.971 593.024 951.179 592.448 948.939 592C946.763 591.488 944.363 590.976 941.739 590.464C939.115 589.888 936.459 589.152 933.771 588.256C931.147 587.36 928.715 586.176 926.475 584.704C924.299 583.232 922.539 581.312 921.195 578.944C919.851 576.512 919.179 573.504 919.179 569.92C919.179 565.76 920.331 561.984 922.635 558.592C925.003 555.136 928.491 552.384 933.099 550.336C937.771 548.288 943.563 547.264 950.475 547.264C955.019 547.264 959.499 547.744 963.915 548.704C968.331 549.664 972.299 551.136 975.819 553.12L969.003 569.536C965.675 567.872 962.443 566.624 959.307 565.792C956.235 564.96 953.227 564.544 950.283 564.544C948.107 564.544 946.379 564.736 945.099 565.12C943.819 565.504 942.891 566.016 942.315 566.656C941.803 567.296 941.547 568 941.547 568.768C941.547 569.92 942.219 570.848 943.563 571.552C944.907 572.192 946.667 572.736 948.843 573.184C951.083 573.632 953.515 574.112 956.139 574.624C958.827 575.136 961.483 575.84 964.107 576.736C966.731 577.632 969.131 578.816 971.307 580.288C973.547 581.76 975.339 583.68 976.683 586.048C978.027 588.416 978.699 591.36 978.699 594.88C978.699 598.976 977.515 602.752 975.147 606.208C972.843 609.6 969.387 612.352 964.779 614.464C960.171 616.512 954.379 617.536 947.403 617.536Z" fill="#003357"/>
<g clip-path="url(#clip1_3_32)">
<mask id="mask0_3_32" style="mask-type:luminance" maskUnits="userSpaceOnUse" x="213" y="214" width="138" height="115">
<path d="M351 214H213V329H351V214Z" fill="white"/>
</mask>
<g mask="url(#mask0_3_32)">
<path d="M350.844 323.93C347.854 312.256 341.377 301.7 332.054 293.222C332.094 293.093 332.122 292.956 332.162 292.82C332.21 292.65 332.258 292.473 332.298 292.295C332.387 291.941 332.461 291.58 332.529 291.219C332.563 291.055 332.59 290.892 332.618 290.721C332.686 290.299 332.74 289.869 332.781 289.433C332.794 289.324 332.808 289.208 332.815 289.099C332.862 288.534 332.89 287.961 332.89 287.382C332.89 286.734 332.862 286.067 332.822 285.385C332.203 273.364 326.162 256.613 317.062 241.954C311.85 233.552 297.994 214 282.003 214C281.902 214 281.799 214.014 281.698 214.014C265.83 214.252 252.109 233.606 246.924 241.954C237.818 256.627 231.77 273.398 231.165 285.419C231.124 286.087 231.104 286.741 231.104 287.375C231.104 287.954 231.131 288.513 231.172 289.072C231.185 289.222 231.206 289.372 231.219 289.522C231.26 289.91 231.301 290.299 231.362 290.68C231.396 290.885 231.43 291.082 231.471 291.28C231.532 291.607 231.6 291.927 231.681 292.248C231.729 292.452 231.783 292.65 231.838 292.854C231.872 292.977 231.899 293.1 231.933 293.222C222.609 301.707 216.14 312.276 213.143 323.964C213.116 324.059 213.102 324.155 213.082 324.243C213.082 324.277 213.068 324.305 213.061 324.332C213.061 324.345 213.061 324.359 213.061 324.366C213.048 324.455 213.034 324.55 213.027 324.639C213.027 324.659 213.027 324.686 213.02 324.707C213.02 324.734 213.02 324.768 213.02 324.795C213.02 324.87 213.007 324.938 213.007 325.013C213.007 325.79 213.231 326.513 213.618 327.126C213.686 327.235 213.761 327.344 213.843 327.439C214.366 328.114 215.1 328.612 215.949 328.836C215.963 328.836 215.983 328.85 215.997 328.857C216.011 328.857 216.024 328.857 216.038 328.857C216.153 328.884 216.269 328.905 216.391 328.925C216.391 328.925 216.398 328.925 216.405 328.925C216.445 328.932 216.493 328.939 216.534 328.945C216.534 328.945 216.541 328.945 216.547 328.945C216.683 328.959 216.819 328.966 216.955 328.966C216.962 328.966 216.975 328.966 216.982 328.966H347.031C347.364 328.966 347.684 328.918 347.99 328.843C347.99 328.843 348.003 328.843 348.01 328.843C348.017 328.843 348.023 328.843 348.03 328.836C349.736 328.393 351 326.84 351 324.986C351 324.611 350.946 324.243 350.844 323.896V323.93ZM254.868 246.227C264.443 231.487 275.092 221.96 282.003 221.96C282.044 221.96 282.078 221.96 282.119 221.96C289.03 222.069 299.611 231.569 309.132 246.227C318.598 260.804 324.959 277.344 324.959 287.382C324.959 289.365 324.585 291.035 323.81 292.507C323.743 292.622 323.627 292.738 323.477 292.854C323.477 292.854 323.477 292.854 323.471 292.854C323.403 292.902 323.328 292.956 323.246 293.004C323.233 293.018 323.212 293.025 323.199 293.038C323.131 293.079 323.056 293.12 322.981 293.161C322.934 293.188 322.893 293.209 322.839 293.236C322.39 293.461 321.833 293.686 321.228 293.904C321.378 292.902 321.466 291.886 321.486 290.857C321.5 290.701 321.5 290.537 321.5 290.38C321.5 273.691 303.858 265.091 282.105 265.091C260.352 265.091 242.711 273.691 242.711 290.38C242.711 290.537 242.711 290.701 242.724 290.857C242.745 291.907 242.833 292.95 242.989 293.965C242.344 293.74 241.739 293.508 241.25 293.27C241.222 293.256 241.189 293.243 241.161 293.222C241.093 293.188 241.025 293.154 240.964 293.113C240.889 293.072 240.815 293.031 240.754 292.984C240.72 292.963 240.679 292.936 240.645 292.916C240.57 292.861 240.502 292.813 240.441 292.759C240.421 292.745 240.4 292.725 240.387 292.711C240.312 292.643 240.257 292.575 240.217 292.507C239.442 291.035 239.068 289.358 239.068 287.375C239.068 277.344 245.429 260.804 254.895 246.22L254.868 246.227ZM290.845 281.146C289.669 281.146 288.711 280.192 288.711 279.007C288.711 277.821 289.669 276.867 290.845 276.867H297.457C298.632 276.867 299.591 277.828 299.591 279.007V295.158C299.591 296.343 298.632 297.298 297.457 297.298H290.845C289.669 297.298 288.711 296.343 288.711 295.158C288.711 293.972 289.669 293.018 290.845 293.018H295.316V281.153H290.845V281.146ZM287.807 275.729L280.271 299.724C279.985 300.644 279.142 301.223 278.232 301.223C278.021 301.223 277.804 301.196 277.593 301.127C276.472 300.773 275.84 299.567 276.2 298.442L283.729 274.447C284.083 273.316 285.286 272.689 286.407 273.044C287.535 273.398 288.16 274.604 287.807 275.729ZM273.155 293.011C274.338 293.011 275.289 293.972 275.289 295.151C275.289 296.33 274.338 297.291 273.155 297.291H266.55C265.368 297.291 264.416 296.337 264.416 295.151V279C264.416 277.821 265.368 276.86 266.55 276.86H273.155C274.338 276.86 275.289 277.821 275.289 279C275.289 280.179 274.338 281.14 273.155 281.14H268.691V293.004H273.155V293.011ZM222.358 321.04C225.253 313.087 230.091 305.843 236.588 299.758C238.042 300.664 239.734 301.318 241.467 301.863C242.568 302.204 243.683 302.504 244.763 302.797C245.395 302.967 246.014 303.131 246.598 303.301C246.598 303.301 246.611 303.301 246.618 303.308C246.618 303.308 246.618 303.308 246.632 303.308C246.646 303.308 246.646 303.308 246.652 303.308C257.498 307.86 272.286 306.382 279.333 315.507C280.767 317.36 283.512 317.381 285.007 315.568C292.211 306.825 306.95 307.854 317.762 303.22C317.762 303.206 317.776 303.199 317.783 303.192C318.252 303.063 318.734 302.933 319.23 302.797C321.806 302.102 324.578 301.352 326.862 300.064C326.882 300.051 326.903 300.044 326.923 300.03C327.086 299.935 327.256 299.846 327.412 299.751C333.909 305.843 338.747 313.087 341.649 321.033H222.358V321.04Z" fill="white"/>
</g>
</g>
</g>
<defs>
<filter id="filter0_f_3_32" x="-618.979" y="-735.983" width="1480.68" height="1343.84" filterUnits="userSpaceOnUse" color-interpolation-filters="sRGB">
<feFlood flood-opacity="0" result="BackgroundImageFix"/>
<feBlend mode="normal" in="SourceGraphic" in2="BackgroundImageFix" result="shape"/>
<feGaussianBlur stdDeviation="100" result="effect1_foregroundBlur_3_32"/>
</filter>
<filter id="filter1_f_3_32" x="-612" y="334" width="1772" height="1772" filterUnits="userSpaceOnUse" color-interpolation-filters="sRGB">
<feFlood flood-opacity="0" result="BackgroundImageFix"/>
<feBlend mode="normal" in="SourceGraphic" in2="BackgroundImageFix" result="shape"/>
<feGaussianBlur stdDeviation="100" result="effect1_foregroundBlur_3_32"/>
</filter>
<filter id="filter2_f_3_32" x="661" y="262" width="1747" height="1747" filterUnits="userSpaceOnUse" color-interpolation-filters="sRGB">
<feFlood flood-opacity="0" result="BackgroundImageFix"/>
<feBlend mode="normal" in="SourceGraphic" in2="BackgroundImageFix" result="shape"/>
<feGaussianBlur stdDeviation="100" result="effect1_foregroundBlur_3_32"/>
</filter>
<filter id="filter3_b_3_32" x="114" y="105" width="1700" height="1067" filterUnits="userSpaceOnUse" color-interpolation-filters="sRGB">
<feFlood flood-opacity="0" result="BackgroundImageFix"/>
<feGaussianBlur in="BackgroundImageFix" stdDeviation="6"/>
<feComposite in2="SourceAlpha" operator="in" result="effect1_backgroundBlur_3_32"/>
<feBlend mode="normal" in="SourceGraphic" in2="effect1_backgroundBlur_3_32" result="shape"/>
</filter>
<linearGradient id="paint0_linear_3_32" x1="960" y1="0" x2="960" y2="1280" gradientUnits="userSpaceOnUse">
<stop stop-color="#1572B6"/>
<stop offset="1" stop-color="#33A9DC"/>
</linearGradient>
<radialGradient id="paint1_radial_3_32" cx="0" cy="0" r="1" gradientUnits="userSpaceOnUse" gradientTransform="translate(217.5 204) rotate(30.698) scale(1774.69 2851.75)">
<stop stop-color="white" stop-opacity="0.7"/>
<stop offset="1" stop-color="white" stop-opacity="0.1"/>
</radialGradient>
<linearGradient id="paint2_linear_3_32" x1="481.39" y1="1326.85" x2="688.637" y2="336.796" gradientUnits="userSpaceOnUse">
<stop stop-color="white" stop-opacity="0.22"/>
<stop offset="1" stop-color="white" stop-opacity="0"/>
</linearGradient>
<clipPath id="clip0_3_32">
<rect width="1920" height="1280" fill="white"/>
</clipPath>
<clipPath id="clip1_3_32">
<rect width="138" height="115" fill="white" transform="translate(213 214)"/>
</clipPath>
</defs>
</svg>
