<svg width="1920" height="1280" fill="none" xmlns="http://www.w3.org/2000/svg"><g clip-path="url(#a)"><path fill="url(#b)" d="M0 0h1920v1280H0z"/><g filter="url(#c)"><path d="m-418.979 391.97 554.103-927.953 526.579 943.844-1080.682-15.891Z" fill="#F48B00"/></g><g filter="url(#d)"><circle cx="274" cy="1220" r="686" fill="#3381BB"/><circle cx="274" cy="1220" r="686" fill="#3381BB"/><circle cx="274" cy="1220" r="686" fill="#965F16"/></g><g filter="url(#e)"><circle cx="1534.5" cy="1135.5" r="673.5" fill="#3381BB"/><circle cx="1534.5" cy="1135.5" r="673.5" fill="#3381BB"/><circle cx="1534.5" cy="1135.5" r="673.5" fill="#FB7D00"/></g><g filter="url(#f)"><rect x="126" y="117" width="1676" height="1043" rx="100" fill="url(#g)" fill-opacity=".6"/><rect x="126.5" y="117.5" width="1675" height="1042" rx="99.5" stroke="#fff" stroke-opacity=".5" style="mix-blend-mode:overlay"/></g><ellipse cx="1491" cy="757.5" rx="217" ry="59.5" fill="#453014"/><g clip-path="url(#h)"><path d="M1326 428h330v330h-330V428Z" fill="#F7DF1E"/><path d="m1412.77 703.772 25.25-15.283c4.87 8.638 9.31 15.947 19.94 15.947 10.19 0 16.61-3.986 16.61-19.491V579.502h31.01v105.881c0 32.12-18.82 46.74-46.29 46.74-24.81 0-39.21-12.848-46.52-28.354m109.66-3.32 25.25-14.62c6.65 10.855 15.29 18.83 30.57 18.83 12.85 0 21.04-6.425 21.04-15.286 0-10.632-8.41-14.399-22.59-20.599l-7.75-3.326c-22.38-9.522-37.22-21.485-37.22-46.738 0-23.259 17.72-40.982 45.41-40.982 19.72 0 33.89 6.869 44.08 24.811l-24.14 15.507c-5.32-9.524-11.08-13.29-19.94-13.29-9.08 0-14.84 5.76-14.84 13.29 0 9.304 5.76 13.072 19.05 18.831l7.75 3.322c26.36 11.299 41.2 22.816 41.2 48.732 0 27.913-21.93 43.196-51.39 43.196-28.79 0-47.4-13.733-56.48-31.677" fill="#000"/></g><path d="M1230.23 260.683 820.859 1103.68c-16.728 34.45-51.66 56.32-89.954 56.32H226c-55.228 0-100-44.77-100-100V217c0-55.228 44.771-100 100-100h914.27c73.83 0 122.21 77.267 89.96 143.683Z" fill="url(#i)"/><path d="M246.52 485.28c-4.48 0-8.64-.693-12.48-2.08-3.787-1.44-7.093-3.467-9.92-6.08-2.773-2.613-4.933-5.707-6.48-9.28-1.547-3.573-2.32-7.52-2.32-11.84s.773-8.267 2.32-11.84c1.547-3.573 3.707-6.667 6.48-9.28 2.827-2.613 6.133-4.613 9.92-6 3.84-1.44 8-2.16 12.48-2.16 5.493 0 10.347.96 14.56 2.88 4.267 1.92 7.787 4.693 10.56 8.32l-11.92 10.64c-1.653-2.08-3.493-3.68-5.52-4.8-1.973-1.173-4.213-1.76-6.72-1.76-1.973 0-3.76.32-5.36.96a11.69 11.69 0 0 0-4.16 2.8c-1.12 1.227-2 2.72-2.64 4.48-.64 1.707-.96 3.627-.96 5.76s.32 4.08.96 5.84c.64 1.707 1.52 3.173 2.64 4.4a11.69 11.69 0 0 0 4.16 2.8c1.6.64 3.387.96 5.36.96 2.507 0 4.747-.56 6.72-1.68 2.027-1.173 3.867-2.8 5.52-4.88l11.92 10.64c-2.773 3.573-6.293 6.347-10.56 8.32-4.213 1.92-9.067 2.88-14.56 2.88Zm30.571-1.28v-56h18.88v41.36h25.28V484h-44.16Zm77.954 1.28c-4.533 0-8.747-.72-12.64-2.16-3.84-1.44-7.173-3.467-10-6.08a29.073 29.073 0 0 1-6.64-9.36c-1.547-3.573-2.32-7.467-2.32-11.68 0-4.267.773-8.16 2.32-11.68 1.6-3.573 3.813-6.667 6.64-9.28 2.827-2.667 6.16-4.72 10-6.16 3.893-1.44 8.107-2.16 12.64-2.16 4.587 0 8.8.72 12.64 2.16 3.84 1.44 7.173 3.493 10 6.16 2.827 2.613 5.013 5.707 6.56 9.28 1.6 3.52 2.4 7.413 2.4 11.68 0 4.213-.8 8.107-2.4 11.68a28.064 28.064 0 0 1-6.56 9.36c-2.827 2.613-6.16 4.64-10 6.08-3.84 1.44-8.053 2.16-12.64 2.16Zm0-15.28c1.76 0 3.387-.32 4.88-.96a11.582 11.582 0 0 0 4-2.72c1.173-1.227 2.08-2.693 2.72-4.4.64-1.76.96-3.733.96-5.92s-.32-4.133-.96-5.84c-.64-1.76-1.547-3.227-2.72-4.4a11.086 11.086 0 0 0-4-2.8c-1.493-.64-3.12-.96-4.88-.96-1.76 0-3.413.32-4.96.96-1.493.64-2.827 1.573-4 2.8-1.12 1.173-2 2.64-2.64 4.4-.64 1.707-.96 3.653-.96 5.84s.32 4.16.96 5.92c.64 1.707 1.52 3.173 2.64 4.4a12.682 12.682 0 0 0 4 2.72c1.547.64 3.2.96 4.96.96Zm38.453 14v-56h15.52l28.48 34.08h-7.2V428h18.4v56h-15.52l-28.48-34.08h7.2V484h-18.4Zm58.216 0 24.48-56h18.56l24.48 56h-19.52l-18.08-47.04h7.36L470.914 484h-19.2Zm14.56-9.76 4.8-13.6h25.76l4.8 13.6h-35.36Zm84.152 11.04c-4.48 0-8.64-.693-12.48-2.08-3.786-1.44-7.093-3.467-9.92-6.08-2.773-2.613-4.933-5.707-6.48-9.28-1.546-3.573-2.32-7.52-2.32-11.84s.774-8.267 2.32-11.84c1.547-3.573 3.707-6.667 6.48-9.28 2.827-2.613 6.134-4.613 9.92-6 3.84-1.44 8-2.16 12.48-2.16 5.494 0 10.347.96 14.56 2.88 4.267 1.92 7.787 4.693 10.56 8.32l-11.92 10.64c-1.653-2.08-3.493-3.68-5.52-4.8-1.973-1.173-4.213-1.76-6.72-1.76-1.973 0-3.76.32-5.36.96a11.7 11.7 0 0 0-4.16 2.8c-1.12 1.227-2 2.72-2.64 4.48-.64 1.707-.96 3.627-.96 5.76s.32 4.08.96 5.84c.64 1.707 1.52 3.173 2.64 4.4a11.7 11.7 0 0 0 4.16 2.8c1.6.64 3.387.96 5.36.96 2.507 0 4.747-.56 6.72-1.68 2.027-1.173 3.867-2.8 5.52-4.88l11.92 10.64c-2.773 3.573-6.293 6.347-10.56 8.32-4.213 1.92-9.066 2.88-14.56 2.88Zm30.572-1.28v-56h18.88v56h-18.88Zm57.328 1.28c-4.533 0-8.746-.72-12.64-2.16-3.84-1.44-7.173-3.467-10-6.08a29.088 29.088 0 0 1-6.64-9.36c-1.546-3.573-2.32-7.467-2.32-11.68 0-4.267.774-8.16 2.32-11.68 1.6-3.573 3.814-6.667 6.64-9.28 2.827-2.667 6.16-4.72 10-6.16 3.894-1.44 8.107-2.16 12.64-2.16 4.587 0 8.8.72 12.64 2.16 3.84 1.44 7.174 3.493 10 6.16 2.827 2.613 5.014 5.707 6.56 9.28 1.6 3.52 2.4 7.413 2.4 11.68 0 4.213-.8 8.107-2.4 11.68a28.05 28.05 0 0 1-6.56 9.36c-2.826 2.613-6.16 4.64-10 6.08-3.84 1.44-8.053 2.16-12.64 2.16Zm0-15.28c1.76 0 3.387-.32 4.88-.96a11.582 11.582 0 0 0 4-2.72c1.174-1.227 2.08-2.693 2.72-4.4.64-1.76.96-3.733.96-5.92s-.32-4.133-.96-5.84c-.64-1.76-1.546-3.227-2.72-4.4a11.086 11.086 0 0 0-4-2.8c-1.493-.64-3.12-.96-4.88-.96-1.76 0-3.413.32-4.96.96-1.493.64-2.826 1.573-4 2.8-1.12 1.173-2 2.64-2.64 4.4-.64 1.707-.96 3.653-.96 5.84s.32 4.16.96 5.92c.64 1.707 1.52 3.173 2.64 4.4a12.693 12.693 0 0 0 4 2.72c1.547.64 3.2.96 4.96.96Zm-8.4-46.56 10.56-12.8h17.2l-15.76 12.8h-12ZM676.779 484v-56h15.52l28.48 34.08h-7.2V428h18.4v56h-15.52l-28.48-34.08h7.2V484h-18.4Zm88.281 0v-56h27.6c6.24 0 11.733 1.147 16.48 3.44 4.747 2.24 8.453 5.44 11.12 9.6 2.667 4.16 4 9.12 4 14.88 0 5.813-1.333 10.827-4 15.04-2.667 4.16-6.373 7.387-11.12 9.68-4.747 2.24-10.24 3.36-16.48 3.36h-27.6Zm18.88-14.72h7.92c2.667 0 4.987-.507 6.96-1.52a10.936 10.936 0 0 0 4.72-4.48c1.12-2.027 1.68-4.48 1.68-7.36 0-2.827-.56-5.227-1.68-7.2a10.936 10.936 0 0 0-4.72-4.48c-1.973-1.013-4.293-1.52-6.96-1.52h-7.92v26.56Zm64.494-20.48h24.96v13.6h-24.96v-13.6Zm1.28 20.96h28V484h-46.56v-56h45.52v14.24h-26.96v27.52ZM902.886 484l24.48-56h18.56l24.48 56h-19.52l-18.08-47.04h7.36L922.086 484h-19.2Zm14.56-9.76 4.8-13.6h25.76l4.8 13.6h-35.36Zm55.973 9.76v-56h26.961c5.23 0 9.73.853 13.52 2.56 3.84 1.707 6.8 4.16 8.88 7.36 2.08 3.147 3.12 6.88 3.12 11.2 0 4.32-1.04 8.053-3.12 11.2-2.08 3.093-5.04 5.467-8.88 7.12-3.79 1.653-8.29 2.48-13.52 2.48h-16.481l8.4-7.76V484h-18.88Zm33.521 0-13.761-20.4h20.001l13.92 20.4h-20.16Zm-14.641-19.76-8.4-8.56h15.28c2.611 0 4.531-.587 5.761-1.76 1.28-1.173 1.92-2.773 1.92-4.8 0-2.027-.64-3.627-1.92-4.8-1.23-1.173-3.15-1.76-5.761-1.76h-15.28l8.4-8.56v30.24ZM1033.03 484v-56h26.96c5.23 0 9.73.853 13.52 2.56 3.84 1.707 6.8 4.16 8.88 7.36 2.08 3.147 3.12 6.88 3.12 11.2 0 4.32-1.04 8.053-3.12 11.2-2.08 3.093-5.04 5.467-8.88 7.12-3.79 1.653-8.29 2.48-13.52 2.48h-16.48l8.4-7.76V484h-18.88Zm33.52 0-13.76-20.4h20l13.92 20.4h-20.16Zm-14.64-19.76-8.4-8.56h15.28c2.61 0 4.53-.587 5.76-1.76 1.28-1.173 1.92-2.773 1.92-4.8 0-2.027-.64-3.627-1.92-4.8-1.23-1.173-3.15-1.76-5.76-1.76h-15.28l8.4-8.56v30.24Zm34.65 19.76 24.48-56h18.56l24.48 56h-19.52l-18.08-47.04h7.36L1105.76 484h-19.2Zm14.56-9.76 4.8-13.6h25.76l4.8 13.6h-35.36Zm66.78 9.76v-24.56l4.32 11.28-25.44-42.72h19.92l17.2 29.2h-11.6l17.36-29.2h18.24l-25.28 42.72 4.16-11.28V484h-18.88Zm62.1 1.28c-4.69 0-9.22-.533-13.6-1.6-4.37-1.067-7.97-2.453-10.8-4.16l6.08-13.76c2.67 1.547 5.63 2.8 8.88 3.76 3.31.907 6.51 1.36 9.6 1.36 1.82 0 3.23-.107 4.24-.32 1.07-.267 1.84-.613 2.32-1.04.48-.48.72-1.04.72-1.68 0-1.013-.56-1.813-1.68-2.4-1.12-.587-2.61-1.067-4.48-1.44-1.81-.427-3.81-.853-6-1.28a65.62 65.62 0 0 1-6.64-1.84 26.975 26.975 0 0 1-6.08-2.96c-1.81-1.227-3.28-2.827-4.4-4.8-1.12-2.027-1.68-4.533-1.68-7.52 0-3.467.96-6.613 2.88-9.44 1.98-2.88 4.88-5.173 8.72-6.88 3.9-1.707 8.72-2.56 14.48-2.56 3.79 0 7.52.4 11.2 1.2 3.68.8 6.99 2.027 9.92 3.68l-5.68 13.68c-2.77-1.387-5.46-2.427-8.08-3.12-2.56-.693-5.06-1.04-7.52-1.04-1.81 0-3.25.16-4.32.48-1.06.32-1.84.747-2.32 1.28-.42.533-.64 1.12-.64 1.76 0 .96.56 1.733 1.68 2.32 1.12.533 2.59.987 4.4 1.36 1.87.373 3.9.773 6.08 1.2 2.24.427 4.46 1.013 6.64 1.76 2.19.747 4.19 1.733 6 2.96 1.87 1.227 3.36 2.827 4.48 4.8 1.12 1.973 1.68 4.427 1.68 7.36 0 3.413-.98 6.56-2.96 9.44-1.92 2.827-4.8 5.12-8.64 6.88-3.84 1.707-8.66 2.56-14.48 2.56Z" fill="#fff"/><path d="M243.528 602.536c-5.632 0-11.072-.64-16.32-1.92-5.248-1.28-9.568-2.944-12.96-4.992l7.296-16.512c3.2 1.856 6.752 3.36 10.656 4.512 3.968 1.088 7.808 1.632 11.52 1.632 2.176 0 3.872-.128 5.088-.384 1.28-.32 2.208-.736 2.784-1.248.576-.576.864-1.248.864-2.016 0-1.216-.672-2.176-2.016-2.88-1.344-.704-3.136-1.28-5.376-1.728a192.918 192.918 0 0 0-7.2-1.536 78.273 78.273 0 0 1-7.968-2.208 32.124 32.124 0 0 1-7.296-3.552c-2.176-1.472-3.936-3.392-5.28-5.76-1.344-2.432-2.016-5.44-2.016-9.024 0-4.16 1.152-7.936 3.456-11.328 2.368-3.456 5.856-6.208 10.464-8.256 4.672-2.048 10.464-3.072 17.376-3.072 4.544 0 9.024.48 13.44 1.44s8.384 2.432 11.904 4.416l-6.816 16.416c-3.328-1.664-6.56-2.912-9.696-3.744-3.072-.832-6.08-1.248-9.024-1.248-2.176 0-3.904.192-5.184.576-1.28.384-2.208.896-2.784 1.536-.512.64-.768 1.344-.768 2.112 0 1.152.672 2.08 2.016 2.784 1.344.64 3.104 1.184 5.28 1.632 2.24.448 4.672.928 7.296 1.44a58.511 58.511 0 0 1 7.968 2.112c2.624.896 5.024 2.08 7.2 3.552 2.24 1.472 4.032 3.392 5.376 5.76 1.344 2.368 2.016 5.312 2.016 8.832 0 4.096-1.184 7.872-3.552 11.328-2.304 3.392-5.76 6.144-10.368 8.256-4.608 2.048-10.4 3.072-17.376 3.072ZM281.566 601v-67.2h22.656V601h-22.656Zm33.562 0v-67.2h18.624l34.176 40.896h-8.64V533.8h22.08V601h-18.624l-34.176-40.896h8.64V601h-22.08Zm105.938 0v-67.2h32.352c6.272 0 11.68 1.024 16.224 3.072 4.608 2.048 8.16 4.992 10.656 8.832 2.496 3.776 3.744 8.256 3.744 13.44 0 5.184-1.248 9.664-3.744 13.44-2.496 3.776-6.048 6.72-10.656 8.832-4.544 2.048-9.952 3.072-16.224 3.072h-19.776l10.08-9.696V601h-22.656Zm22.656-23.712-10.08-10.272h18.336c3.136 0 5.44-.704 6.912-2.112 1.536-1.408 2.304-3.328 2.304-5.76s-.768-4.352-2.304-5.76c-1.472-1.408-3.776-2.112-6.912-2.112h-18.336L443.722 541v36.288ZM491.472 601v-67.2h32.352c6.272 0 11.68 1.024 16.224 3.072 4.608 2.048 8.16 4.992 10.656 8.832 2.496 3.776 3.744 8.256 3.744 13.44 0 5.184-1.248 9.664-3.744 13.44-2.496 3.712-6.048 6.56-10.656 8.544-4.544 1.984-9.952 2.976-16.224 2.976h-19.776l10.08-9.312V601h-22.656Zm40.224 0-16.512-24.48h24L555.888 601h-24.192Zm-17.568-23.712-10.08-10.272h18.336c3.136 0 5.44-.704 6.912-2.112 1.536-1.408 2.304-3.328 2.304-5.76s-.768-4.352-2.304-5.76c-1.472-1.408-3.776-2.112-6.912-2.112h-18.336L514.128 541v36.288Zm84.107 25.248c-5.44 0-10.496-.864-15.168-2.592-4.608-1.728-8.608-4.16-12-7.296a34.885 34.885 0 0 1-7.968-11.232c-1.856-4.288-2.784-8.96-2.784-14.016 0-5.12.928-9.792 2.784-14.016 1.92-4.288 4.576-8 7.968-11.136 3.392-3.2 7.392-5.664 12-7.392 4.672-1.728 9.728-2.592 15.168-2.592 5.504 0 10.56.864 15.168 2.592 4.608 1.728 8.608 4.192 12 7.392 3.392 3.136 6.016 6.848 7.872 11.136 1.92 4.224 2.88 8.896 2.88 14.016 0 5.056-.96 9.728-2.88 14.016a33.668 33.668 0 0 1-7.872 11.232c-3.392 3.136-7.392 5.568-12 7.296-4.608 1.728-9.664 2.592-15.168 2.592Zm0-18.336c2.112 0 4.064-.384 5.856-1.152 1.856-.768 3.456-1.856 4.8-3.264 1.408-1.472 2.496-3.232 3.264-5.28.768-2.112 1.152-4.48 1.152-7.104 0-2.624-.384-4.96-1.152-7.008-.768-2.112-1.856-3.872-3.264-5.28a13.31 13.31 0 0 0-4.8-3.36c-1.792-.768-3.744-1.152-5.856-1.152-2.112 0-4.096.384-5.952 1.152-1.792.768-3.392 1.888-4.8 3.36-1.344 1.408-2.4 3.168-3.168 5.28-.768 2.048-1.152 4.384-1.152 7.008 0 2.624.384 4.992 1.152 7.104.768 2.048 1.824 3.808 3.168 5.28a15.212 15.212 0 0 0 4.8 3.264c1.856.768 3.84 1.152 5.952 1.152Zm46.143 16.8v-67.2h35.904c9.28 0 16.128 1.664 20.544 4.992 4.416 3.264 6.624 7.456 6.624 12.576 0 3.392-.96 6.432-2.88 9.12-1.856 2.624-4.576 4.704-8.16 6.24-3.584 1.536-8 2.304-13.248 2.304l1.92-5.184c5.248 0 9.76.736 13.536 2.208 3.84 1.472 6.784 3.616 8.832 6.432 2.112 2.752 3.168 6.08 3.168 9.984 0 5.824-2.432 10.368-7.296 13.632-4.8 3.264-11.84 4.896-21.12 4.896h-37.824Zm22.272-15.84h13.632c2.496 0 4.352-.448 5.568-1.344 1.28-.896 1.92-2.208 1.92-3.936 0-1.728-.64-3.04-1.92-3.936-1.216-.896-3.072-1.344-5.568-1.344h-15.168v-14.976h12.096c2.56 0 4.416-.416 5.568-1.248 1.216-.896 1.824-2.144 1.824-3.744 0-1.664-.608-2.912-1.824-3.744-1.152-.832-3.008-1.248-5.568-1.248h-10.56v35.52ZM718.628 601v-67.2h22.656v49.632h30.336V601h-52.992Zm79.986-42.24h29.952v16.32h-29.952v-16.32Zm1.536 25.152h33.6V601h-55.872v-67.2h54.624v17.088H800.15v33.024ZM842.472 601v-67.2h18.624l26.88 43.872h-9.792l26.112-43.872h18.624l.192 67.2h-20.64l-.192-36.096h3.264l-17.856 30.048h-9.984l-18.624-30.048h4.032V601h-20.64Zm84.298 0 29.376-67.2h22.272l29.372 67.2h-23.42l-21.696-56.448h8.832L949.81 601h-23.04Zm17.472-11.712 5.76-16.32h30.912l5.76 16.32h-42.432Zm92.228 13.248c-5.64 0-11.08-.64-16.32-1.92-5.25-1.28-9.57-2.944-12.96-4.992l7.29-16.512c3.2 1.856 6.75 3.36 10.66 4.512 3.97 1.088 7.81 1.632 11.52 1.632 2.17 0 3.87-.128 5.09-.384 1.28-.32 2.2-.736 2.78-1.248.58-.576.86-1.248.86-2.016 0-1.216-.67-2.176-2.01-2.88-1.35-.704-3.14-1.28-5.38-1.728-2.17-.512-4.57-1.024-7.2-1.536a78.738 78.738 0 0 1-7.97-2.208 32.162 32.162 0 0 1-7.29-3.552c-2.18-1.472-3.94-3.392-5.28-5.76-1.35-2.432-2.02-5.44-2.02-9.024 0-4.16 1.15-7.936 3.46-11.328 2.37-3.456 5.85-6.208 10.46-8.256 4.67-2.048 10.47-3.072 17.38-3.072 4.54 0 9.02.48 13.44 1.44 4.41.96 8.38 2.432 11.9 4.416l-6.81 16.416c-3.33-1.664-6.56-2.912-9.7-3.744-3.07-.832-6.08-1.248-9.02-1.248-2.18 0-3.91.192-5.19.576-1.28.384-2.21.896-2.78 1.536-.51.64-.77 1.344-.77 2.112 0 1.152.67 2.08 2.02 2.784 1.34.64 3.1 1.184 5.28 1.632 2.24.448 4.67.928 7.29 1.44 2.69.512 5.35 1.216 7.97 2.112 2.62.896 5.02 2.08 7.2 3.552 2.24 1.472 4.03 3.392 5.38 5.76 1.34 2.368 2.01 5.312 2.01 8.832 0 4.096-1.18 7.872-3.55 11.328-2.3 3.392-5.76 6.144-10.37 8.256-4.61 2.048-10.4 3.072-17.37 3.072Z" fill="#392710"/><g clip-path="url(#j)"><mask id="k" style="mask-type:luminance" maskUnits="userSpaceOnUse" x="213" y="214" width="138" height="115"><path d="M351 214H213v115h138V214Z" fill="#fff"/></mask><g mask="url(#k)"><path d="M350.844 323.93c-2.99-11.674-9.467-22.23-18.79-30.708.04-.129.068-.266.108-.402a18.353 18.353 0 0 0 .367-1.601c.034-.164.061-.327.089-.498.068-.422.122-.852.163-1.288.013-.109.027-.225.034-.334.047-.565.075-1.138.075-1.717 0-.648-.028-1.315-.068-1.997-.619-12.021-6.66-28.772-15.76-43.431C311.85 233.552 297.994 214 282.003 214c-.101 0-.203.014-.305.014-15.868.238-29.589 19.592-34.774 27.94-9.106 14.673-15.154 31.444-15.759 43.465a31.98 31.98 0 0 0-.061 1.956c0 .579.027 1.138.068 1.697.013.15.034.3.047.45.041.388.082.777.143 1.158.034.205.068.402.109.6.061.327.129.647.21.968.048.204.102.402.157.606.034.123.061.246.095.368-9.324 8.485-15.793 19.054-18.79 30.742-.027.095-.041.191-.061.279 0 .034-.014.062-.021.089v.034c-.013.089-.027.184-.034.273 0 .02 0 .047-.007.068v.088c0 .075-.013.143-.013.218 0 .777.224 1.5.611 2.113.068.109.143.218.225.313a3.933 3.933 0 0 0 2.106 1.397c.014 0 .034.014.048.021h.041c.115.027.231.048.353.068h.014l.129.02h.013c.136.014.272.021.408.021h130.076c.333 0 .653-.048.959-.123h.02c.007 0 .013 0 .02-.007a3.976 3.976 0 0 0 2.97-3.85 3.87 3.87 0 0 0-.156-1.09v.034Zm-95.976-77.703c9.575-14.74 20.224-24.267 27.135-24.267h.116c6.911.109 17.492 9.609 27.013 24.267 9.466 14.577 15.827 31.117 15.827 41.155 0 1.983-.374 3.653-1.149 5.125a1.303 1.303 0 0 1-.333.347h-.006c-.068.048-.143.102-.225.15-.013.014-.034.021-.047.034-.068.041-.143.082-.218.123a2.628 2.628 0 0 1-.142.075c-.449.225-1.006.45-1.611.668a23.67 23.67 0 0 0 .258-3.047c.014-.156.014-.32.014-.477 0-16.689-17.642-25.289-39.395-25.289-21.753 0-39.394 8.6-39.394 25.289 0 .157 0 .321.013.477.021 1.05.109 2.093.265 3.108a16.67 16.67 0 0 1-1.739-.695c-.027-.014-.061-.027-.089-.048a1.778 1.778 0 0 1-.197-.109c-.074-.041-.149-.082-.21-.129-.034-.021-.075-.048-.109-.068-.075-.055-.143-.103-.204-.157a.374.374 0 0 1-.054-.048.901.901 0 0 1-.17-.204c-.775-1.472-1.149-3.149-1.149-5.132 0-10.031 6.361-26.571 15.827-41.155l-.027.007Zm35.977 34.919a2.136 2.136 0 0 1-2.134-2.139c0-1.186.958-2.14 2.134-2.14h6.612c1.175 0 2.134.961 2.134 2.14v16.151c0 1.185-.959 2.14-2.134 2.14h-6.612a2.137 2.137 0 0 1-2.134-2.14c0-1.186.958-2.14 2.134-2.14h4.471v-11.865h-4.471v-.007Zm-3.038-5.417-7.536 23.995a2.13 2.13 0 0 1-2.039 1.499c-.211 0-.428-.027-.639-.096a2.14 2.14 0 0 1-1.393-2.685l7.53-23.995a2.134 2.134 0 0 1 2.677-1.403 2.144 2.144 0 0 1 1.4 2.685Zm-14.652 17.282c1.183 0 2.134.961 2.134 2.14 0 1.179-.951 2.14-2.134 2.14h-6.605a2.132 2.132 0 0 1-2.134-2.14V279c0-1.179.952-2.14 2.134-2.14h6.605c1.183 0 2.134.961 2.134 2.14 0 1.179-.951 2.14-2.134 2.14h-4.464v11.864h4.464v.007Zm-50.797 28.029c2.895-7.953 7.733-15.197 14.23-21.282 1.454.906 3.146 1.56 4.879 2.105 1.101.341 2.216.641 3.296.934.632.17 1.251.334 1.835.504 0 0 .014 0 .02.007h.034c10.846 4.552 25.634 3.074 32.681 12.199 1.434 1.853 4.179 1.874 5.674.061 7.204-8.743 21.943-7.714 32.755-12.348 0-.014.014-.021.021-.028l1.447-.395c2.576-.695 5.348-1.445 7.632-2.733.02-.013.041-.02.061-.034.163-.095.333-.184.489-.279 6.497 6.092 11.335 13.336 14.237 21.282H222.358v.007Z" fill="#fff"/></g></g><path d="m363 851.75-106.25-65.625L363 720.5l106.25 65.625L363 851.75Z" fill="#F8F8F8"/><path opacity=".25" d="M363 975.5V851.75l106.25-65.625v123.75L363 975.5Z" fill="#F8F8F8"/><path opacity=".5" d="m363 975.5-106.25-65.625v-123.75L363 851.75V975.5Z" fill="#F8F8F8"/><path d="m1038 859.75-106.25-65.625L1038 728.5l106.25 65.625L1038 859.75Z" fill="#F8F8F8"/><path opacity=".25" d="M1038 983.5V859.75l106.25-65.625v123.75L1038 983.5Z" fill="#F8F8F8"/><path opacity=".5" d="m1038 983.5-106.25-65.625v-123.75L1038 859.75V983.5Z" fill="#F8F8F8"/><g clip-path="url(#l)"><path d="m786.348 899.007 37.773-37.652a6.666 6.666 0 0 0 .015-9.428l-37.652-37.773a6.663 6.663 0 0 0-7.27-1.466 6.671 6.671 0 0 0-4.126 6.162l-.041 31.047-219.608-.363-.022 13.35 219.608.344-.059 31.047a6.668 6.668 0 0 0 11.382 4.732Z" fill="#453014"/></g></g><defs><clipPath id="l"><path fill="#fff" transform="rotate(135.092 237.406 599.594)" d="M0 0h200v200H0z"/></clipPath><clipPath id="j"><path fill="#fff" transform="translate(213 214)" d="M0 0h138v115H0z"/></clipPath><clipPath id="h"><path fill="#fff" transform="translate(1326 428)" d="M0 0h330v330H0z"/></clipPath><clipPath id="a"><path fill="#fff" d="M0 0h1920v1280H0z"/></clipPath><filter id="c" x="-618.979" y="-735.983" width="1480.68" height="1343.84" filterUnits="userSpaceOnUse" color-interpolation-filters="sRGB"><feFlood flood-opacity="0" result="BackgroundImageFix"/><feBlend in="SourceGraphic" in2="BackgroundImageFix" result="shape"/><feGaussianBlur stdDeviation="100" result="effect1_foregroundBlur_5_7"/></filter><filter id="d" x="-612" y="334" width="1772" height="1772" filterUnits="userSpaceOnUse" color-interpolation-filters="sRGB"><feFlood flood-opacity="0" result="BackgroundImageFix"/><feBlend in="SourceGraphic" in2="BackgroundImageFix" result="shape"/><feGaussianBlur stdDeviation="100" result="effect1_foregroundBlur_5_7"/></filter><filter id="e" x="661" y="262" width="1747" height="1747" filterUnits="userSpaceOnUse" color-interpolation-filters="sRGB"><feFlood flood-opacity="0" result="BackgroundImageFix"/><feBlend in="SourceGraphic" in2="BackgroundImageFix" result="shape"/><feGaussianBlur stdDeviation="100" result="effect1_foregroundBlur_5_7"/></filter><filter id="f" x="114" y="105" width="1700" height="1067" filterUnits="userSpaceOnUse" color-interpolation-filters="sRGB"><feFlood flood-opacity="0" result="BackgroundImageFix"/><feGaussianBlur in="BackgroundImageFix" stdDeviation="6"/><feComposite in2="SourceAlpha" operator="in" result="effect1_backgroundBlur_5_7"/><feBlend in="SourceGraphic" in2="effect1_backgroundBlur_5_7" result="shape"/></filter><linearGradient id="i" x1="481.39" y1="1326.85" x2="688.637" y2="336.796" gradientUnits="userSpaceOnUse"><stop stop-color="#fff" stop-opacity=".22"/><stop offset="1" stop-color="#fff" stop-opacity="0"/></linearGradient><linearGradient id="b" x1="960" y1="0" x2="960" y2="1280" gradientUnits="userSpaceOnUse"><stop stop-color="#FBA91A"/><stop offset="1" stop-color="#E78625"/></linearGradient><radialGradient id="g" cx="0" cy="0" r="1" gradientUnits="userSpaceOnUse" gradientTransform="matrix(1526.00285 906.00214 -1455.85517 2452.13454 217.5 204)"><stop stop-color="#fff" stop-opacity=".7"/><stop offset="1" stop-color="#fff" stop-opacity=".1"/></radialGradient></defs></svg>