<svg width="1920" height="1280" viewBox="0 0 1920 1280" fill="none" xmlns="http://www.w3.org/2000/svg">
<g clip-path="url(#clip0_5_7)">
<rect width="1920" height="1280" fill="url(#paint0_linear_5_7)"/>
<g filter="url(#filter0_f_5_7)">
<path d="M-418.979 391.97L135.124 -535.983L661.703 407.861L-418.979 391.97Z" fill="#F48B00"/>
</g>
<g filter="url(#filter1_f_5_7)">
<circle cx="274" cy="1220" r="686" fill="#3381BB"/>
<circle cx="274" cy="1220" r="686" fill="#3381BB"/>
<circle cx="274" cy="1220" r="686" fill="#965F16"/>
</g>
<g filter="url(#filter2_f_5_7)">
<circle cx="1534.5" cy="1135.5" r="673.5" fill="#3381BB"/>
<circle cx="1534.5" cy="1135.5" r="673.5" fill="#3381BB"/>
<circle cx="1534.5" cy="1135.5" r="673.5" fill="#FB7D00"/>
</g>
<g filter="url(#filter3_b_5_7)">
<rect x="126" y="117" width="1676" height="1043" rx="100" fill="url(#paint1_radial_5_7)" fill-opacity="0.6"/>
<rect x="126.5" y="117.5" width="1675" height="1042" rx="99.5" stroke="white" stroke-opacity="0.5" style="mix-blend-mode:overlay"/>
</g>
<ellipse cx="1491" cy="757.5" rx="217" ry="59.5" fill="#453014"/>
<g clip-path="url(#clip1_5_7)">
<path d="M1326 428H1656V758H1326V428Z" fill="#F7DF1E"/>
<path d="M1412.77 703.772L1438.02 688.489C1442.89 697.127 1447.33 704.436 1457.96 704.436C1468.15 704.436 1474.57 700.45 1474.57 684.945V579.502H1505.58V685.383C1505.58 717.503 1486.76 732.123 1459.29 732.123C1434.48 732.123 1420.08 719.275 1412.77 703.769M1522.43 700.449L1547.68 685.829C1554.33 696.684 1562.97 704.659 1578.25 704.659C1591.1 704.659 1599.29 698.234 1599.29 689.373C1599.29 678.741 1590.88 674.974 1576.7 668.774L1568.95 665.448C1546.57 655.926 1531.73 643.963 1531.73 618.71C1531.73 595.451 1549.45 577.728 1577.14 577.728C1596.86 577.728 1611.03 584.597 1621.22 602.539L1597.08 618.046C1591.76 608.522 1586 604.756 1577.14 604.756C1568.06 604.756 1562.3 610.516 1562.3 618.046C1562.3 627.35 1568.06 631.118 1581.35 636.877L1589.1 640.199C1615.46 651.498 1630.3 663.015 1630.3 688.931C1630.3 716.844 1608.37 732.127 1578.91 732.127C1550.12 732.127 1531.51 718.394 1522.43 700.45" fill="black"/>
</g>
<path d="M1230.23 260.683L820.859 1103.68C804.131 1138.13 769.199 1160 730.905 1160H226C170.772 1160 126 1115.23 126 1060V217C126 161.772 170.771 117 226 117H1140.27C1214.1 117 1262.48 194.267 1230.23 260.683Z" fill="url(#paint2_linear_5_7)"/>
<path d="M246.52 485.28C242.04 485.28 237.88 484.587 234.04 483.2C230.253 481.76 226.947 479.733 224.12 477.12C221.347 474.507 219.187 471.413 217.64 467.84C216.093 464.267 215.32 460.32 215.32 456C215.32 451.68 216.093 447.733 217.64 444.16C219.187 440.587 221.347 437.493 224.12 434.88C226.947 432.267 230.253 430.267 234.04 428.88C237.88 427.44 242.04 426.72 246.52 426.72C252.013 426.72 256.867 427.68 261.08 429.6C265.347 431.52 268.867 434.293 271.64 437.92L259.72 448.56C258.067 446.48 256.227 444.88 254.2 443.76C252.227 442.587 249.987 442 247.48 442C245.507 442 243.72 442.32 242.12 442.96C240.52 443.6 239.133 444.533 237.96 445.76C236.84 446.987 235.96 448.48 235.32 450.24C234.68 451.947 234.36 453.867 234.36 456C234.36 458.133 234.68 460.08 235.32 461.84C235.96 463.547 236.84 465.013 237.96 466.24C239.133 467.467 240.52 468.4 242.12 469.04C243.72 469.68 245.507 470 247.48 470C249.987 470 252.227 469.44 254.2 468.32C256.227 467.147 258.067 465.52 259.72 463.44L271.64 474.08C268.867 477.653 265.347 480.427 261.08 482.4C256.867 484.32 252.013 485.28 246.52 485.28ZM277.091 484V428H295.971V469.36H321.251V484H277.091ZM355.045 485.28C350.512 485.28 346.298 484.56 342.405 483.12C338.565 481.68 335.232 479.653 332.405 477.04C329.578 474.373 327.365 471.253 325.765 467.68C324.218 464.107 323.445 460.213 323.445 456C323.445 451.733 324.218 447.84 325.765 444.32C327.365 440.747 329.578 437.653 332.405 435.04C335.232 432.373 338.565 430.32 342.405 428.88C346.298 427.44 350.512 426.72 355.045 426.72C359.632 426.72 363.845 427.44 367.685 428.88C371.525 430.32 374.858 432.373 377.685 435.04C380.512 437.653 382.698 440.747 384.245 444.32C385.845 447.84 386.645 451.733 386.645 456C386.645 460.213 385.845 464.107 384.245 467.68C382.698 471.253 380.512 474.373 377.685 477.04C374.858 479.653 371.525 481.68 367.685 483.12C363.845 484.56 359.632 485.28 355.045 485.28ZM355.045 470C356.805 470 358.432 469.68 359.925 469.04C361.472 468.4 362.805 467.493 363.925 466.32C365.098 465.093 366.005 463.627 366.645 461.92C367.285 460.16 367.605 458.187 367.605 456C367.605 453.813 367.285 451.867 366.645 450.16C366.005 448.4 365.098 446.933 363.925 445.76C362.805 444.533 361.472 443.6 359.925 442.96C358.432 442.32 356.805 442 355.045 442C353.285 442 351.632 442.32 350.085 442.96C348.592 443.6 347.258 444.533 346.085 445.76C344.965 446.933 344.085 448.4 343.445 450.16C342.805 451.867 342.485 453.813 342.485 456C342.485 458.187 342.805 460.16 343.445 461.92C344.085 463.627 344.965 465.093 346.085 466.32C347.258 467.493 348.592 468.4 350.085 469.04C351.632 469.68 353.285 470 355.045 470ZM393.498 484V428H409.018L437.498 462.08H430.298V428H448.698V484H433.178L404.698 449.92H411.898V484H393.498ZM451.714 484L476.194 428H494.754L519.234 484H499.714L481.634 436.96H488.994L470.914 484H451.714ZM466.274 474.24L471.074 460.64H496.834L501.634 474.24H466.274ZM550.426 485.28C545.946 485.28 541.786 484.587 537.946 483.2C534.16 481.76 530.853 479.733 528.026 477.12C525.253 474.507 523.093 471.413 521.546 467.84C520 464.267 519.226 460.32 519.226 456C519.226 451.68 520 447.733 521.546 444.16C523.093 440.587 525.253 437.493 528.026 434.88C530.853 432.267 534.16 430.267 537.946 428.88C541.786 427.44 545.946 426.72 550.426 426.72C555.92 426.72 560.773 427.68 564.986 429.6C569.253 431.52 572.773 434.293 575.546 437.92L563.626 448.56C561.973 446.48 560.133 444.88 558.106 443.76C556.133 442.587 553.893 442 551.386 442C549.413 442 547.626 442.32 546.026 442.96C544.426 443.6 543.04 444.533 541.866 445.76C540.746 446.987 539.866 448.48 539.226 450.24C538.586 451.947 538.266 453.867 538.266 456C538.266 458.133 538.586 460.08 539.226 461.84C539.866 463.547 540.746 465.013 541.866 466.24C543.04 467.467 544.426 468.4 546.026 469.04C547.626 469.68 549.413 470 551.386 470C553.893 470 556.133 469.44 558.106 468.32C560.133 467.147 561.973 465.52 563.626 463.44L575.546 474.08C572.773 477.653 569.253 480.427 564.986 482.4C560.773 484.32 555.92 485.28 550.426 485.28ZM580.998 484V428H599.878V484H580.998ZM638.326 485.28C633.793 485.28 629.58 484.56 625.686 483.12C621.846 481.68 618.513 479.653 615.686 477.04C612.86 474.373 610.646 471.253 609.046 467.68C607.5 464.107 606.726 460.213 606.726 456C606.726 451.733 607.5 447.84 609.046 444.32C610.646 440.747 612.86 437.653 615.686 435.04C618.513 432.373 621.846 430.32 625.686 428.88C629.58 427.44 633.793 426.72 638.326 426.72C642.913 426.72 647.126 427.44 650.966 428.88C654.806 430.32 658.14 432.373 660.966 435.04C663.793 437.653 665.98 440.747 667.526 444.32C669.126 447.84 669.926 451.733 669.926 456C669.926 460.213 669.126 464.107 667.526 467.68C665.98 471.253 663.793 474.373 660.966 477.04C658.14 479.653 654.806 481.68 650.966 483.12C647.126 484.56 642.913 485.28 638.326 485.28ZM638.326 470C640.086 470 641.713 469.68 643.206 469.04C644.753 468.4 646.086 467.493 647.206 466.32C648.38 465.093 649.286 463.627 649.926 461.92C650.566 460.16 650.886 458.187 650.886 456C650.886 453.813 650.566 451.867 649.926 450.16C649.286 448.4 648.38 446.933 647.206 445.76C646.086 444.533 644.753 443.6 643.206 442.96C641.713 442.32 640.086 442 638.326 442C636.566 442 634.913 442.32 633.366 442.96C631.873 443.6 630.54 444.533 629.366 445.76C628.246 446.933 627.366 448.4 626.726 450.16C626.086 451.867 625.766 453.813 625.766 456C625.766 458.187 626.086 460.16 626.726 461.92C627.366 463.627 628.246 465.093 629.366 466.32C630.54 467.493 631.873 468.4 633.366 469.04C634.913 469.68 636.566 470 638.326 470ZM629.926 423.44L640.486 410.64H657.686L641.926 423.44H629.926ZM676.779 484V428H692.299L720.779 462.08H713.579V428H731.979V484H716.459L687.979 449.92H695.179V484H676.779ZM765.06 484V428H792.66C798.9 428 804.393 429.147 809.14 431.44C813.887 433.68 817.593 436.88 820.26 441.04C822.927 445.2 824.26 450.16 824.26 455.92C824.26 461.733 822.927 466.747 820.26 470.96C817.593 475.12 813.887 478.347 809.14 480.64C804.393 482.88 798.9 484 792.66 484H765.06ZM783.94 469.28H791.86C794.527 469.28 796.847 468.773 798.82 467.76C800.847 466.747 802.42 465.253 803.54 463.28C804.66 461.253 805.22 458.8 805.22 455.92C805.22 453.093 804.66 450.693 803.54 448.72C802.42 446.747 800.847 445.253 798.82 444.24C796.847 443.227 794.527 442.72 791.86 442.72H783.94V469.28ZM848.434 448.8H873.394V462.4H848.434V448.8ZM849.714 469.76H877.714V484H831.154V428H876.674V442.24H849.714V469.76ZM902.886 484L927.366 428H945.926L970.406 484H950.886L932.806 436.96H940.166L922.086 484H902.886ZM917.446 474.24L922.246 460.64H948.006L952.806 474.24H917.446ZM973.419 484V428H1000.38C1005.61 428 1010.11 428.853 1013.9 430.56C1017.74 432.267 1020.7 434.72 1022.78 437.92C1024.86 441.067 1025.9 444.8 1025.9 449.12C1025.9 453.44 1024.86 457.173 1022.78 460.32C1020.7 463.413 1017.74 465.787 1013.9 467.44C1010.11 469.093 1005.61 469.92 1000.38 469.92H983.899L992.299 462.16V484H973.419ZM1006.94 484L993.179 463.6H1013.18L1027.1 484H1006.94ZM992.299 464.24L983.899 455.68H999.179C1001.79 455.68 1003.71 455.093 1004.94 453.92C1006.22 452.747 1006.86 451.147 1006.86 449.12C1006.86 447.093 1006.22 445.493 1004.94 444.32C1003.71 443.147 1001.79 442.56 999.179 442.56H983.899L992.299 434V464.24ZM1033.03 484V428H1059.99C1065.22 428 1069.72 428.853 1073.51 430.56C1077.35 432.267 1080.31 434.72 1082.39 437.92C1084.47 441.067 1085.51 444.8 1085.51 449.12C1085.51 453.44 1084.47 457.173 1082.39 460.32C1080.31 463.413 1077.35 465.787 1073.51 467.44C1069.72 469.093 1065.22 469.92 1059.99 469.92H1043.51L1051.91 462.16V484H1033.03ZM1066.55 484L1052.79 463.6H1072.79L1086.71 484H1066.55ZM1051.91 464.24L1043.51 455.68H1058.79C1061.4 455.68 1063.32 455.093 1064.55 453.92C1065.83 452.747 1066.47 451.147 1066.47 449.12C1066.47 447.093 1065.83 445.493 1064.55 444.32C1063.32 443.147 1061.4 442.56 1058.79 442.56H1043.51L1051.91 434V464.24ZM1086.56 484L1111.04 428H1129.6L1154.08 484H1134.56L1116.48 436.96H1123.84L1105.76 484H1086.56ZM1101.12 474.24L1105.92 460.64H1131.68L1136.48 474.24H1101.12ZM1167.9 484V459.44L1172.22 470.72L1146.78 428H1166.7L1183.9 457.2H1172.3L1189.66 428H1207.9L1182.62 470.72L1186.78 459.44V484H1167.9ZM1230 485.28C1225.31 485.28 1220.78 484.747 1216.4 483.68C1212.03 482.613 1208.43 481.227 1205.6 479.52L1211.68 465.76C1214.35 467.307 1217.31 468.56 1220.56 469.52C1223.87 470.427 1227.07 470.88 1230.16 470.88C1231.98 470.88 1233.39 470.773 1234.4 470.56C1235.47 470.293 1236.24 469.947 1236.72 469.52C1237.2 469.04 1237.44 468.48 1237.44 467.84C1237.44 466.827 1236.88 466.027 1235.76 465.44C1234.64 464.853 1233.15 464.373 1231.28 464C1229.47 463.573 1227.47 463.147 1225.28 462.72C1223.1 462.24 1220.88 461.627 1218.64 460.88C1216.46 460.133 1214.43 459.147 1212.56 457.92C1210.75 456.693 1209.28 455.093 1208.16 453.12C1207.04 451.093 1206.48 448.587 1206.48 445.6C1206.48 442.133 1207.44 438.987 1209.36 436.16C1211.34 433.28 1214.24 430.987 1218.08 429.28C1221.98 427.573 1226.8 426.72 1232.56 426.72C1236.35 426.72 1240.08 427.12 1243.76 427.92C1247.44 428.72 1250.75 429.947 1253.68 431.6L1248 445.28C1245.23 443.893 1242.54 442.853 1239.92 442.16C1237.36 441.467 1234.86 441.12 1232.4 441.12C1230.59 441.12 1229.15 441.28 1228.08 441.6C1227.02 441.92 1226.24 442.347 1225.76 442.88C1225.34 443.413 1225.12 444 1225.12 444.64C1225.12 445.6 1225.68 446.373 1226.8 446.96C1227.92 447.493 1229.39 447.947 1231.2 448.32C1233.07 448.693 1235.1 449.093 1237.28 449.52C1239.52 449.947 1241.74 450.533 1243.92 451.28C1246.11 452.027 1248.11 453.013 1249.92 454.24C1251.79 455.467 1253.28 457.067 1254.4 459.04C1255.52 461.013 1256.08 463.467 1256.08 466.4C1256.08 469.813 1255.1 472.96 1253.12 475.84C1251.2 478.667 1248.32 480.96 1244.48 482.72C1240.64 484.427 1235.82 485.28 1230 485.28Z" fill="white"/>
<path d="M243.528 602.536C237.896 602.536 232.456 601.896 227.208 600.616C221.96 599.336 217.64 597.672 214.248 595.624L221.544 579.112C224.744 580.968 228.296 582.472 232.2 583.624C236.168 584.712 240.008 585.256 243.72 585.256C245.896 585.256 247.592 585.128 248.808 584.872C250.088 584.552 251.016 584.136 251.592 583.624C252.168 583.048 252.456 582.376 252.456 581.608C252.456 580.392 251.784 579.432 250.44 578.728C249.096 578.024 247.304 577.448 245.064 577C242.888 576.488 240.488 575.976 237.864 575.464C235.24 574.888 232.584 574.152 229.896 573.256C227.272 572.36 224.84 571.176 222.6 569.704C220.424 568.232 218.664 566.312 217.32 563.944C215.976 561.512 215.304 558.504 215.304 554.92C215.304 550.76 216.456 546.984 218.76 543.592C221.128 540.136 224.616 537.384 229.224 535.336C233.896 533.288 239.688 532.264 246.6 532.264C251.144 532.264 255.624 532.744 260.04 533.704C264.456 534.664 268.424 536.136 271.944 538.12L265.128 554.536C261.8 552.872 258.568 551.624 255.432 550.792C252.36 549.96 249.352 549.544 246.408 549.544C244.232 549.544 242.504 549.736 241.224 550.12C239.944 550.504 239.016 551.016 238.44 551.656C237.928 552.296 237.672 553 237.672 553.768C237.672 554.92 238.344 555.848 239.688 556.552C241.032 557.192 242.792 557.736 244.968 558.184C247.208 558.632 249.64 559.112 252.264 559.624C254.952 560.136 257.608 560.84 260.232 561.736C262.856 562.632 265.256 563.816 267.432 565.288C269.672 566.76 271.464 568.68 272.808 571.048C274.152 573.416 274.824 576.36 274.824 579.88C274.824 583.976 273.64 587.752 271.272 591.208C268.968 594.6 265.512 597.352 260.904 599.464C256.296 601.512 250.504 602.536 243.528 602.536ZM281.566 601V533.8H304.222V601H281.566ZM315.128 601V533.8H333.752L367.928 574.696H359.288V533.8H381.368V601H362.744L328.568 560.104H337.208V601H315.128ZM421.066 601V533.8H453.418C459.69 533.8 465.098 534.824 469.642 536.872C474.25 538.92 477.802 541.864 480.298 545.704C482.794 549.48 484.042 553.96 484.042 559.144C484.042 564.328 482.794 568.808 480.298 572.584C477.802 576.36 474.25 579.304 469.642 581.416C465.098 583.464 459.69 584.488 453.418 584.488H433.642L443.722 574.792V601H421.066ZM443.722 577.288L433.642 567.016H451.978C455.114 567.016 457.418 566.312 458.89 564.904C460.426 563.496 461.194 561.576 461.194 559.144C461.194 556.712 460.426 554.792 458.89 553.384C457.418 551.976 455.114 551.272 451.978 551.272H433.642L443.722 541V577.288ZM491.472 601V533.8H523.824C530.096 533.8 535.504 534.824 540.048 536.872C544.656 538.92 548.208 541.864 550.704 545.704C553.2 549.48 554.448 553.96 554.448 559.144C554.448 564.328 553.2 568.808 550.704 572.584C548.208 576.296 544.656 579.144 540.048 581.128C535.504 583.112 530.096 584.104 523.824 584.104H504.048L514.128 574.792V601H491.472ZM531.696 601L515.184 576.52H539.184L555.888 601H531.696ZM514.128 577.288L504.048 567.016H522.384C525.52 567.016 527.824 566.312 529.296 564.904C530.832 563.496 531.6 561.576 531.6 559.144C531.6 556.712 530.832 554.792 529.296 553.384C527.824 551.976 525.52 551.272 522.384 551.272H504.048L514.128 541V577.288ZM598.235 602.536C592.795 602.536 587.739 601.672 583.067 599.944C578.459 598.216 574.459 595.784 571.067 592.648C567.675 589.448 565.019 585.704 563.099 581.416C561.243 577.128 560.315 572.456 560.315 567.4C560.315 562.28 561.243 557.608 563.099 553.384C565.019 549.096 567.675 545.384 571.067 542.248C574.459 539.048 578.459 536.584 583.067 534.856C587.739 533.128 592.795 532.264 598.235 532.264C603.739 532.264 608.795 533.128 613.403 534.856C618.011 536.584 622.011 539.048 625.403 542.248C628.795 545.384 631.419 549.096 633.275 553.384C635.195 557.608 636.155 562.28 636.155 567.4C636.155 572.456 635.195 577.128 633.275 581.416C631.419 585.704 628.795 589.448 625.403 592.648C622.011 595.784 618.011 598.216 613.403 599.944C608.795 601.672 603.739 602.536 598.235 602.536ZM598.235 584.2C600.347 584.2 602.299 583.816 604.091 583.048C605.947 582.28 607.547 581.192 608.891 579.784C610.299 578.312 611.387 576.552 612.155 574.504C612.923 572.392 613.307 570.024 613.307 567.4C613.307 564.776 612.923 562.44 612.155 560.392C611.387 558.28 610.299 556.52 608.891 555.112C607.547 553.64 605.947 552.52 604.091 551.752C602.299 550.984 600.347 550.6 598.235 550.6C596.123 550.6 594.139 550.984 592.283 551.752C590.491 552.52 588.891 553.64 587.483 555.112C586.139 556.52 585.083 558.28 584.315 560.392C583.547 562.44 583.163 564.776 583.163 567.4C583.163 570.024 583.547 572.392 584.315 574.504C585.083 576.552 586.139 578.312 587.483 579.784C588.891 581.192 590.491 582.28 592.283 583.048C594.139 583.816 596.123 584.2 598.235 584.2ZM644.378 601V533.8H680.282C689.562 533.8 696.41 535.464 700.826 538.792C705.242 542.056 707.45 546.248 707.45 551.368C707.45 554.76 706.49 557.8 704.57 560.488C702.714 563.112 699.994 565.192 696.41 566.728C692.826 568.264 688.41 569.032 683.162 569.032L685.082 563.848C690.33 563.848 694.842 564.584 698.618 566.056C702.458 567.528 705.402 569.672 707.45 572.488C709.562 575.24 710.618 578.568 710.618 582.472C710.618 588.296 708.186 592.84 703.322 596.104C698.522 599.368 691.482 601 682.202 601H644.378ZM666.65 585.16H680.282C682.778 585.16 684.634 584.712 685.85 583.816C687.13 582.92 687.77 581.608 687.77 579.88C687.77 578.152 687.13 576.84 685.85 575.944C684.634 575.048 682.778 574.6 680.282 574.6H665.114V559.624H677.21C679.77 559.624 681.626 559.208 682.778 558.376C683.994 557.48 684.602 556.232 684.602 554.632C684.602 552.968 683.994 551.72 682.778 550.888C681.626 550.056 679.77 549.64 677.21 549.64H666.65V585.16ZM718.628 601V533.8H741.284V583.432H771.62V601H718.628ZM798.614 558.76H828.566V575.08H798.614V558.76ZM800.15 583.912H833.75V601H777.878V533.8H832.502V550.888H800.15V583.912ZM842.472 601V533.8H861.096L887.976 577.672H878.184L904.296 533.8H922.92L923.112 601H902.472L902.28 564.904H905.544L887.688 594.952H877.704L859.08 564.904H863.112V601H842.472ZM926.77 601L956.146 533.8H978.418L1007.79 601H984.37L962.674 544.552H971.506L949.81 601H926.77ZM944.242 589.288L950.002 572.968H980.914L986.674 589.288H944.242ZM1036.47 602.536C1030.83 602.536 1025.39 601.896 1020.15 600.616C1014.9 599.336 1010.58 597.672 1007.19 595.624L1014.48 579.112C1017.68 580.968 1021.23 582.472 1025.14 583.624C1029.11 584.712 1032.95 585.256 1036.66 585.256C1038.83 585.256 1040.53 585.128 1041.75 584.872C1043.03 584.552 1043.95 584.136 1044.53 583.624C1045.11 583.048 1045.39 582.376 1045.39 581.608C1045.39 580.392 1044.72 579.432 1043.38 578.728C1042.03 578.024 1040.24 577.448 1038 577C1035.83 576.488 1033.43 575.976 1030.8 575.464C1028.18 574.888 1025.52 574.152 1022.83 573.256C1020.21 572.36 1017.78 571.176 1015.54 569.704C1013.36 568.232 1011.6 566.312 1010.26 563.944C1008.91 561.512 1008.24 558.504 1008.24 554.92C1008.24 550.76 1009.39 546.984 1011.7 543.592C1014.07 540.136 1017.55 537.384 1022.16 535.336C1026.83 533.288 1032.63 532.264 1039.54 532.264C1044.08 532.264 1048.56 532.744 1052.98 533.704C1057.39 534.664 1061.36 536.136 1064.88 538.12L1058.07 554.536C1054.74 552.872 1051.51 551.624 1048.37 550.792C1045.3 549.96 1042.29 549.544 1039.35 549.544C1037.17 549.544 1035.44 549.736 1034.16 550.12C1032.88 550.504 1031.95 551.016 1031.38 551.656C1030.87 552.296 1030.61 553 1030.61 553.768C1030.61 554.92 1031.28 555.848 1032.63 556.552C1033.97 557.192 1035.73 557.736 1037.91 558.184C1040.15 558.632 1042.58 559.112 1045.2 559.624C1047.89 560.136 1050.55 560.84 1053.17 561.736C1055.79 562.632 1058.19 563.816 1060.37 565.288C1062.61 566.76 1064.4 568.68 1065.75 571.048C1067.09 573.416 1067.76 576.36 1067.76 579.88C1067.76 583.976 1066.58 587.752 1064.21 591.208C1061.91 594.6 1058.45 597.352 1053.84 599.464C1049.23 601.512 1043.44 602.536 1036.47 602.536Z" fill="#392710"/>
<g clip-path="url(#clip2_5_7)">
<mask id="mask0_5_7" style="mask-type:luminance" maskUnits="userSpaceOnUse" x="213" y="214" width="138" height="115">
<path d="M351 214H213V329H351V214Z" fill="white"/>
</mask>
<g mask="url(#mask0_5_7)">
<path d="M350.844 323.93C347.854 312.256 341.377 301.7 332.054 293.222C332.094 293.093 332.122 292.956 332.162 292.82C332.21 292.65 332.258 292.473 332.298 292.295C332.387 291.941 332.461 291.58 332.529 291.219C332.563 291.055 332.59 290.892 332.618 290.721C332.686 290.299 332.74 289.869 332.781 289.433C332.794 289.324 332.808 289.208 332.815 289.099C332.862 288.534 332.89 287.961 332.89 287.382C332.89 286.734 332.862 286.067 332.822 285.385C332.203 273.364 326.162 256.613 317.062 241.954C311.85 233.552 297.994 214 282.003 214C281.902 214 281.8 214.014 281.698 214.014C265.83 214.252 252.109 233.606 246.924 241.954C237.818 256.627 231.77 273.398 231.165 285.419C231.124 286.087 231.104 286.741 231.104 287.375C231.104 287.954 231.131 288.513 231.172 289.072C231.185 289.222 231.206 289.372 231.219 289.522C231.26 289.91 231.301 290.299 231.362 290.68C231.396 290.885 231.43 291.082 231.471 291.28C231.532 291.607 231.6 291.927 231.681 292.248C231.729 292.452 231.783 292.65 231.838 292.854C231.872 292.977 231.899 293.1 231.933 293.222C222.609 301.707 216.14 312.276 213.143 323.964C213.116 324.059 213.102 324.155 213.082 324.243C213.082 324.277 213.068 324.305 213.061 324.332C213.061 324.345 213.061 324.359 213.061 324.366C213.048 324.455 213.034 324.55 213.027 324.639C213.027 324.659 213.027 324.686 213.02 324.707C213.02 324.734 213.02 324.768 213.02 324.795C213.02 324.87 213.007 324.938 213.007 325.013C213.007 325.79 213.231 326.513 213.618 327.126C213.686 327.235 213.761 327.344 213.843 327.439C214.366 328.114 215.1 328.612 215.949 328.836C215.963 328.836 215.983 328.85 215.997 328.857C216.011 328.857 216.024 328.857 216.038 328.857C216.153 328.884 216.269 328.905 216.391 328.925C216.391 328.925 216.398 328.925 216.405 328.925C216.445 328.932 216.493 328.939 216.534 328.945C216.534 328.945 216.541 328.945 216.547 328.945C216.683 328.959 216.819 328.966 216.955 328.966C216.962 328.966 216.976 328.966 216.982 328.966H347.031C347.364 328.966 347.684 328.918 347.99 328.843C347.99 328.843 348.003 328.843 348.01 328.843C348.017 328.843 348.023 328.843 348.03 328.836C349.736 328.393 351 326.84 351 324.986C351 324.611 350.946 324.243 350.844 323.896V323.93ZM254.868 246.227C264.443 231.487 275.092 221.96 282.003 221.96C282.044 221.96 282.078 221.96 282.119 221.96C289.03 222.069 299.611 231.569 309.132 246.227C318.598 260.804 324.959 277.344 324.959 287.382C324.959 289.365 324.585 291.035 323.81 292.507C323.743 292.622 323.627 292.738 323.477 292.854C323.477 292.854 323.477 292.854 323.471 292.854C323.403 292.902 323.328 292.956 323.246 293.004C323.233 293.018 323.212 293.025 323.199 293.038C323.131 293.079 323.056 293.12 322.981 293.161C322.934 293.188 322.893 293.209 322.839 293.236C322.39 293.461 321.833 293.686 321.228 293.904C321.378 292.902 321.466 291.886 321.486 290.857C321.5 290.701 321.5 290.537 321.5 290.38C321.5 273.691 303.858 265.091 282.105 265.091C260.352 265.091 242.711 273.691 242.711 290.38C242.711 290.537 242.711 290.701 242.724 290.857C242.745 291.907 242.833 292.95 242.989 293.965C242.344 293.74 241.739 293.508 241.25 293.27C241.223 293.256 241.189 293.243 241.161 293.222C241.093 293.188 241.025 293.154 240.964 293.113C240.89 293.072 240.815 293.031 240.754 292.984C240.72 292.963 240.679 292.936 240.645 292.916C240.57 292.861 240.502 292.813 240.441 292.759C240.421 292.745 240.4 292.725 240.387 292.711C240.312 292.643 240.258 292.575 240.217 292.507C239.442 291.035 239.068 289.358 239.068 287.375C239.068 277.344 245.429 260.804 254.895 246.22L254.868 246.227ZM290.845 281.146C289.669 281.146 288.711 280.192 288.711 279.007C288.711 277.821 289.669 276.867 290.845 276.867H297.457C298.632 276.867 299.591 277.828 299.591 279.007V295.158C299.591 296.343 298.632 297.298 297.457 297.298H290.845C289.669 297.298 288.711 296.343 288.711 295.158C288.711 293.972 289.669 293.018 290.845 293.018H295.316V281.153H290.845V281.146ZM287.807 275.729L280.271 299.724C279.985 300.644 279.142 301.223 278.232 301.223C278.021 301.223 277.804 301.196 277.593 301.127C276.472 300.773 275.84 299.567 276.2 298.442L283.73 274.447C284.083 273.316 285.286 272.689 286.407 273.044C287.535 273.398 288.16 274.604 287.807 275.729ZM273.155 293.011C274.338 293.011 275.289 293.972 275.289 295.151C275.289 296.33 274.338 297.291 273.155 297.291H266.55C265.368 297.291 264.416 296.337 264.416 295.151V279C264.416 277.821 265.368 276.86 266.55 276.86H273.155C274.338 276.86 275.289 277.821 275.289 279C275.289 280.179 274.338 281.14 273.155 281.14H268.691V293.004H273.155V293.011ZM222.358 321.04C225.253 313.087 230.091 305.843 236.588 299.758C238.042 300.664 239.734 301.318 241.467 301.863C242.568 302.204 243.683 302.504 244.763 302.797C245.395 302.967 246.014 303.131 246.598 303.301C246.598 303.301 246.612 303.301 246.618 303.308C246.618 303.308 246.618 303.308 246.632 303.308C246.646 303.308 246.646 303.308 246.652 303.308C257.498 307.86 272.286 306.382 279.333 315.507C280.767 317.36 283.512 317.381 285.007 315.568C292.211 306.825 306.95 307.854 317.762 303.22C317.762 303.206 317.776 303.199 317.783 303.192C318.252 303.063 318.734 302.933 319.23 302.797C321.806 302.102 324.578 301.352 326.862 300.064C326.882 300.051 326.903 300.044 326.923 300.03C327.086 299.935 327.256 299.846 327.412 299.751C333.909 305.843 338.747 313.087 341.649 321.033H222.358V321.04Z" fill="white"/>
</g>
</g>
<path d="M363 851.75L256.75 786.125L363 720.5L469.25 786.125L363 851.75Z" fill="#F8F8F8"/>
<path opacity="0.25" d="M363 975.5V851.75L469.25 786.125V909.875L363 975.5Z" fill="#F8F8F8"/>
<path opacity="0.5" d="M363 975.5L256.75 909.875V786.125L363 851.75V975.5Z" fill="#F8F8F8"/>
<path d="M1038 859.75L931.75 794.125L1038 728.5L1144.25 794.125L1038 859.75Z" fill="#F8F8F8"/>
<path opacity="0.25" d="M1038 983.5V859.75L1144.25 794.125V917.875L1038 983.5Z" fill="#F8F8F8"/>
<path opacity="0.5" d="M1038 983.5L931.75 917.875V794.125L1038 859.75V983.5Z" fill="#F8F8F8"/>
<g clip-path="url(#clip3_5_7)">
<path d="M786.348 899.007L824.121 861.355C825.373 860.107 826.078 858.413 826.081 856.644C826.084 854.876 825.384 853.179 824.136 851.927L786.484 814.154C785.554 813.217 784.366 812.578 783.072 812.317C781.778 812.056 780.435 812.185 779.214 812.688C777.994 813.191 776.95 814.045 776.215 815.142C775.48 816.239 775.088 817.53 775.088 818.85L775.047 849.897L555.439 849.534L555.417 862.884L775.025 863.228L774.966 894.275C774.962 895.595 775.351 896.886 776.082 897.986C776.813 899.085 777.854 899.943 779.073 900.449C780.292 900.956 781.634 901.09 782.93 900.833C784.225 900.576 785.414 899.941 786.348 899.007Z" fill="#453014"/>
</g>
</g>
<defs>
<filter id="filter0_f_5_7" x="-618.979" y="-735.983" width="1480.68" height="1343.84" filterUnits="userSpaceOnUse" color-interpolation-filters="sRGB">
<feFlood flood-opacity="0" result="BackgroundImageFix"/>
<feBlend mode="normal" in="SourceGraphic" in2="BackgroundImageFix" result="shape"/>
<feGaussianBlur stdDeviation="100" result="effect1_foregroundBlur_5_7"/>
</filter>
<filter id="filter1_f_5_7" x="-612" y="334" width="1772" height="1772" filterUnits="userSpaceOnUse" color-interpolation-filters="sRGB">
<feFlood flood-opacity="0" result="BackgroundImageFix"/>
<feBlend mode="normal" in="SourceGraphic" in2="BackgroundImageFix" result="shape"/>
<feGaussianBlur stdDeviation="100" result="effect1_foregroundBlur_5_7"/>
</filter>
<filter id="filter2_f_5_7" x="661" y="262" width="1747" height="1747" filterUnits="userSpaceOnUse" color-interpolation-filters="sRGB">
<feFlood flood-opacity="0" result="BackgroundImageFix"/>
<feBlend mode="normal" in="SourceGraphic" in2="BackgroundImageFix" result="shape"/>
<feGaussianBlur stdDeviation="100" result="effect1_foregroundBlur_5_7"/>
</filter>
<filter id="filter3_b_5_7" x="114" y="105" width="1700" height="1067" filterUnits="userSpaceOnUse" color-interpolation-filters="sRGB">
<feFlood flood-opacity="0" result="BackgroundImageFix"/>
<feGaussianBlur in="BackgroundImageFix" stdDeviation="6"/>
<feComposite in2="SourceAlpha" operator="in" result="effect1_backgroundBlur_5_7"/>
<feBlend mode="normal" in="SourceGraphic" in2="effect1_backgroundBlur_5_7" result="shape"/>
</filter>
<linearGradient id="paint0_linear_5_7" x1="960" y1="0" x2="960" y2="1280" gradientUnits="userSpaceOnUse">
<stop stop-color="#FBA91A"/>
<stop offset="1" stop-color="#E78625"/>
</linearGradient>
<radialGradient id="paint1_radial_5_7" cx="0" cy="0" r="1" gradientUnits="userSpaceOnUse" gradientTransform="translate(217.5 204) rotate(30.698) scale(1774.69 2851.75)">
<stop stop-color="white" stop-opacity="0.7"/>
<stop offset="1" stop-color="white" stop-opacity="0.1"/>
</radialGradient>
<linearGradient id="paint2_linear_5_7" x1="481.39" y1="1326.85" x2="688.637" y2="336.796" gradientUnits="userSpaceOnUse">
<stop stop-color="white" stop-opacity="0.22"/>
<stop offset="1" stop-color="white" stop-opacity="0"/>
</linearGradient>
<clipPath id="clip0_5_7">
<rect width="1920" height="1280" fill="white"/>
</clipPath>
<clipPath id="clip1_5_7">
<rect width="330" height="330" fill="white" transform="translate(1326 428)"/>
</clipPath>
<clipPath id="clip2_5_7">
<rect width="138" height="115" fill="white" transform="translate(213 214)"/>
</clipPath>
<clipPath id="clip3_5_7">
<rect width="200" height="200" fill="white" transform="translate(828.842 856.649) rotate(135.092)"/>
</clipPath>
</defs>
</svg>
