<svg width="1920" height="1280" fill="none" xmlns="http://www.w3.org/2000/svg"><g clip-path="url(#a)"><path fill="url(#b)" d="M0 0h1920v1280H0z"/><g filter="url(#c)"><path d="m-418.979 391.97 554.103-927.953 526.579 943.844-1080.682-15.891Z" fill="#035579"/></g><g filter="url(#d)" fill="#3381BB"><circle cx="274" cy="1220" r="686"/><circle cx="274" cy="1220" r="686"/><circle cx="274" cy="1220" r="686"/></g><g filter="url(#e)"><circle cx="1534.5" cy="1135.5" r="673.5" fill="#3381BB"/><circle cx="1534.5" cy="1135.5" r="673.5" fill="#3381BB"/><circle cx="1534.5" cy="1135.5" r="673.5" fill="#33A9DC"/></g><g filter="url(#f)"><rect x="126" y="117" width="1676" height="1043" rx="100" fill="url(#g)" fill-opacity=".6"/><rect x="126.5" y="117.5" width="1675" height="1042" rx="99.5" stroke="#fff" stroke-opacity=".5" style="mix-blend-mode:overlay"/></g><ellipse cx="1491" cy="757.5" rx="217" ry="59.5" fill="#0488E8"/><path d="M1230.23 260.683 820.859 1103.68c-16.728 34.45-51.66 56.32-89.954 56.32H226c-55.228 0-100-44.77-100-100V217c0-55.228 44.771-100 100-100h914.27c73.83 0 122.21 77.267 89.96 143.683Z" fill="url(#h)"/><path d="M651 984.5c74.539 0 137.5-62.961 137.5-137.5H761c0 59.634-50.366 110-110 110s-110-50.366-110-110c0-59.62 50.366-110 110-110v-27.5c-74.539 0-137.5 62.975-137.5 137.5 0 74.539 62.961 137.5 137.5 137.5Z" fill="#F8F8F8"/><path d="m1386.86 742.51-23.16-259.885h254.6l-23.2 259.844-104.25 28.906-103.99-28.865Z" fill="#1572B6"/><path d="m1491 749.286 84.25-23.358 19.82-222.049H1491v245.407Z" fill="#33A9DC"/><path d="M1491 598.032h42.18l2.91-32.639H1491v-31.876h79.92l-.76 8.549-7.83 87.842H1491v-31.876Z" fill="#fff"/><path d="m1491.2 680.811-.15.041-35.49-9.591-2.27-25.42h-32l4.46 50.047 65.29 18.129.16-.041v-33.165Z" fill="#EBEBEB"/><path d="m1530.47 628.557-3.84 42.684-35.55 9.59v33.165l65.34-18.109.49-5.383 5.54-61.947h-31.98Z" fill="#fff"/><path d="M1491.11 533.517v31.876h-76.99l-.64-7.167-1.45-16.16-.77-8.549h79.85Zm-.11 64.515v31.876h-35.05l-.64-7.167-1.45-16.16-.76-8.549h37.9Z" fill="#EBEBEB"/><path d="M253.224 500.536c-5.376 0-10.368-.832-14.976-2.496-4.544-1.728-8.512-4.16-11.904-7.296-3.328-3.136-5.92-6.848-7.776-11.136-1.856-4.288-2.784-9.024-2.784-14.208 0-5.184.928-9.92 2.784-14.208 1.856-4.288 4.448-8 7.776-11.136 3.392-3.136 7.36-5.536 11.904-7.2 4.608-1.728 9.6-2.592 14.976-2.592 6.592 0 12.416 1.152 17.472 3.456 5.12 2.304 9.344 5.632 12.672 9.984l-14.304 12.768c-1.984-2.496-4.192-4.416-6.624-5.76-2.368-1.408-5.056-2.112-8.064-2.112-2.368 0-4.512.384-6.432 1.152a14.038 14.038 0 0 0-4.992 3.36c-1.344 1.472-2.4 3.264-3.168 5.376-.768 2.048-1.152 4.352-1.152 6.912 0 2.56.384 4.896 1.152 7.008.768 2.048 1.824 3.808 3.168 5.28a14.038 14.038 0 0 0 4.992 3.36c1.92.768 4.064 1.152 6.432 1.152 3.008 0 5.696-.672 8.064-2.016 2.432-1.408 4.64-3.36 6.624-5.856l14.304 12.768c-3.328 4.288-7.552 7.616-12.672 9.984-5.056 2.304-10.88 3.456-17.472 3.456ZM289.91 499v-67.2h32.352c6.272 0 11.68 1.024 16.224 3.072 4.608 2.048 8.16 4.992 10.656 8.832 2.496 3.776 3.744 8.256 3.744 13.44 0 5.184-1.248 9.664-3.744 13.44-2.496 3.712-6.048 6.56-10.656 8.544-4.544 1.984-9.952 2.976-16.224 2.976h-19.776l10.08-9.312V499H289.91Zm40.224 0-16.512-24.48h24L354.326 499h-24.192Zm-17.568-23.712-10.08-10.272h18.336c3.136 0 5.44-.704 6.912-2.112 1.536-1.408 2.304-3.328 2.304-5.76s-.768-4.352-2.304-5.76c-1.472-1.408-3.776-2.112-6.912-2.112h-18.336L312.566 439v36.288Zm69.611-18.528h29.952v16.32h-29.952v-16.32Zm1.536 25.152h33.6V499h-55.872v-67.2h54.624v17.088h-32.352v33.024ZM418.738 499l29.377-67.2h22.272l29.376 67.2h-23.424l-21.696-56.448h8.832L441.779 499h-23.041Zm17.473-11.712 5.76-16.32h30.912l5.76 16.32h-42.432Zm128.109 13.248c-10.304 0-18.336-2.784-24.096-8.352-5.76-5.568-8.64-13.376-8.64-23.424V431.8h22.656v36.288c0 5.12.928 8.768 2.784 10.944 1.856 2.112 4.352 3.168 7.488 3.168 3.2 0 5.696-1.056 7.488-3.168 1.856-2.176 2.784-5.824 2.784-10.944V431.8h22.272v36.96c0 10.048-2.88 17.856-8.64 23.424-5.76 5.568-13.792 8.352-24.096 8.352ZM607.441 499v-67.2h18.624l34.176 40.896h-8.64V431.8h22.08V499h-18.624l-34.176-40.896h8.64V499h-22.08Zm105.937 0v-67.2h22.656v49.632h30.336V499h-52.992Zm93.545 1.536c-5.44 0-10.496-.864-15.168-2.592-4.608-1.728-8.608-4.16-12-7.296a34.885 34.885 0 0 1-7.968-11.232c-1.856-4.288-2.784-8.96-2.784-14.016 0-5.12.928-9.792 2.784-14.016 1.92-4.288 4.576-8 7.968-11.136 3.392-3.2 7.392-5.664 12-7.392 4.672-1.728 9.728-2.592 15.168-2.592 5.504 0 10.56.864 15.168 2.592 4.608 1.728 8.608 4.192 12 7.392 3.392 3.136 6.016 6.848 7.872 11.136 1.92 4.224 2.88 8.896 2.88 14.016 0 5.056-.96 9.728-2.88 14.016a33.668 33.668 0 0 1-7.872 11.232c-3.392 3.136-7.392 5.568-12 7.296-4.608 1.728-9.664 2.592-15.168 2.592Zm0-18.336c2.112 0 4.064-.384 5.856-1.152 1.856-.768 3.456-1.856 4.8-3.264 1.408-1.472 2.496-3.232 3.264-5.28.768-2.112 1.152-4.48 1.152-7.104 0-2.624-.384-4.96-1.152-7.008-.768-2.112-1.856-3.872-3.264-5.28a13.31 13.31 0 0 0-4.8-3.36c-1.792-.768-3.744-1.152-5.856-1.152-2.112 0-4.096.384-5.952 1.152-1.792.768-3.392 1.888-4.8 3.36-1.344 1.408-2.4 3.168-3.168 5.28-.768 2.048-1.152 4.384-1.152 7.008 0 2.624.384 4.992 1.152 7.104.768 2.048 1.824 3.808 3.168 5.28a15.212 15.212 0 0 0 4.8 3.264c1.856.768 3.84 1.152 5.952 1.152Zm37.909 16.8 29.376-67.2h22.272l29.376 67.2h-23.424l-21.696-56.448h8.832L867.872 499h-23.04Zm17.472-11.712 5.76-16.32h30.912l5.76 16.32h-42.432ZM929.472 499v-67.2h33.12c7.488 0 14.08 1.376 19.776 4.128 5.696 2.688 10.144 6.528 13.344 11.52 3.2 4.992 4.798 10.944 4.798 17.856 0 6.976-1.598 12.992-4.798 18.048-3.2 4.992-7.648 8.864-13.344 11.616-5.696 2.688-12.288 4.032-19.776 4.032h-33.12Zm22.656-17.664h9.504c3.2 0 5.984-.608 8.352-1.824 2.432-1.216 4.32-3.008 5.664-5.376 1.344-2.432 2.016-5.376 2.016-8.832 0-3.392-.672-6.272-2.016-8.64-1.344-2.368-3.232-4.16-5.664-5.376-2.368-1.216-5.152-1.824-8.352-1.824h-9.504v31.872Zm77.392-24.576h29.95v16.32h-29.95v-16.32Zm1.54 25.152h33.6V499h-55.88v-67.2h54.63v17.088h-32.35v33.024ZM1073.38 499v-67.2h32.35c6.27 0 11.68 1.024 16.22 3.072 4.61 2.048 8.16 4.992 10.66 8.832 2.5 3.776 3.74 8.256 3.74 13.44 0 5.184-1.24 9.664-3.74 13.44-2.5 3.712-6.05 6.56-10.66 8.544-4.54 1.984-9.95 2.976-16.22 2.976h-19.78l10.08-9.312V499h-22.65Zm40.22 0-16.51-24.48h24l16.7 24.48h-24.19Zm-17.57-23.712-10.08-10.272h18.34c3.14 0 5.44-.704 6.91-2.112 1.54-1.408 2.31-3.328 2.31-5.76s-.77-4.352-2.31-5.76c-1.47-1.408-3.77-2.112-6.91-2.112h-18.34L1096.03 439v36.288Z" fill="#fff"/><path d="M243.528 617.536c-5.632 0-11.072-.64-16.32-1.92-5.248-1.28-9.568-2.944-12.96-4.992l7.296-16.512c3.2 1.856 6.752 3.36 10.656 4.512 3.968 1.088 7.808 1.632 11.52 1.632 2.176 0 3.872-.128 5.088-.384 1.28-.32 2.208-.736 2.784-1.248.576-.576.864-1.248.864-2.016 0-1.216-.672-2.176-2.016-2.88-1.344-.704-3.136-1.28-5.376-1.728a192.918 192.918 0 0 0-7.2-1.536 78.273 78.273 0 0 1-7.968-2.208 32.124 32.124 0 0 1-7.296-3.552c-2.176-1.472-3.936-3.392-5.28-5.76-1.344-2.432-2.016-5.44-2.016-9.024 0-4.16 1.152-7.936 3.456-11.328 2.368-3.456 5.856-6.208 10.464-8.256 4.672-2.048 10.464-3.072 17.376-3.072 4.544 0 9.024.48 13.44 1.44s8.384 2.432 11.904 4.416l-6.816 16.416c-3.328-1.664-6.56-2.912-9.696-3.744-3.072-.832-6.08-1.248-9.024-1.248-2.176 0-3.904.192-5.184.576-1.28.384-2.208.896-2.784 1.536-.512.64-.768 1.344-.768 2.112 0 1.152.672 2.08 2.016 2.784 1.344.64 3.104 1.184 5.28 1.632 2.24.448 4.672.928 7.296 1.44a58.511 58.511 0 0 1 7.968 2.112c2.624.896 5.024 2.08 7.2 3.552 2.24 1.472 4.032 3.392 5.376 5.76 1.344 2.368 2.016 5.312 2.016 8.832 0 4.096-1.184 7.872-3.552 11.328-2.304 3.392-5.76 6.144-10.368 8.256-4.608 2.048-10.4 3.072-17.376 3.072Zm73.27 0c-5.44 0-10.496-.864-15.168-2.592-4.608-1.728-8.608-4.16-12-7.296a34.885 34.885 0 0 1-7.968-11.232c-1.856-4.288-2.784-8.96-2.784-14.016 0-5.12.928-9.792 2.784-14.016 1.92-4.288 4.576-8 7.968-11.136 3.392-3.2 7.392-5.664 12-7.392 4.672-1.728 9.728-2.592 15.168-2.592 5.504 0 10.56.864 15.168 2.592 4.608 1.728 8.608 4.192 12 7.392 3.392 3.136 6.016 6.848 7.872 11.136 1.92 4.224 2.88 8.896 2.88 14.016 0 5.056-.96 9.728-2.88 14.016a33.668 33.668 0 0 1-7.872 11.232c-3.392 3.136-7.392 5.568-12 7.296-4.608 1.728-9.664 2.592-15.168 2.592Zm0-18.336c2.112 0 4.064-.384 5.856-1.152 1.856-.768 3.456-1.856 4.8-3.264 1.408-1.472 2.496-3.232 3.264-5.28.768-2.112 1.152-4.48 1.152-7.104 0-2.624-.384-4.96-1.152-7.008-.768-2.112-1.856-3.872-3.264-5.28a13.31 13.31 0 0 0-4.8-3.36c-1.792-.768-3.744-1.152-5.856-1.152-2.112 0-4.096.384-5.952 1.152-1.792.768-3.392 1.888-4.8 3.36-1.344 1.408-2.4 3.168-3.168 5.28-.768 2.048-1.152 4.384-1.152 7.008 0 2.624.384 4.992 1.152 7.104.768 2.048 1.824 3.808 3.168 5.28a15.212 15.212 0 0 0 4.8 3.264c1.856.768 3.84 1.152 5.952 1.152Zm46.143 16.8v-67.2h22.656v49.632h30.336V616h-52.992Zm93.544 1.536c-5.44 0-10.496-.864-15.168-2.592-4.608-1.728-8.608-4.16-12-7.296a34.885 34.885 0 0 1-7.968-11.232c-1.856-4.288-2.784-8.96-2.784-14.016 0-5.12.928-9.792 2.784-14.016 1.92-4.288 4.576-8 7.968-11.136 3.392-3.2 7.392-5.664 12-7.392 4.672-1.728 9.728-2.592 15.168-2.592 5.504 0 10.56.864 15.168 2.592 4.608 1.728 8.608 4.192 12 7.392 3.392 3.136 6.016 6.848 7.872 11.136 1.92 4.224 2.88 8.896 2.88 14.016 0 5.056-.96 9.728-2.88 14.016a33.668 33.668 0 0 1-7.872 11.232c-3.392 3.136-7.392 5.568-12 7.296-4.608 1.728-9.664 2.592-15.168 2.592Zm0-18.336c2.112 0 4.064-.384 5.856-1.152 1.856-.768 3.456-1.856 4.8-3.264 1.408-1.472 2.496-3.232 3.264-5.28.768-2.112 1.152-4.48 1.152-7.104 0-2.624-.384-4.96-1.152-7.008-.768-2.112-1.856-3.872-3.264-5.28a13.31 13.31 0 0 0-4.8-3.36c-1.792-.768-3.744-1.152-5.856-1.152-2.112 0-4.096.384-5.952 1.152-1.792.768-3.392 1.888-4.8 3.36-1.344 1.408-2.4 3.168-3.168 5.28-.768 2.048-1.152 4.384-1.152 7.008 0 2.624.384 4.992 1.152 7.104.768 2.048 1.824 3.808 3.168 5.28a15.212 15.212 0 0 0 4.8 3.264c1.856.768 3.84 1.152 5.952 1.152Zm109.677 18.336c-5.376 0-10.368-.832-14.976-2.496-4.544-1.728-8.512-4.16-11.904-7.296-3.328-3.136-5.92-6.848-7.776-11.136-1.856-4.288-2.784-9.024-2.784-14.208 0-5.184.928-9.92 2.784-14.208 1.856-4.288 4.448-8 7.776-11.136 3.392-3.136 7.36-5.536 11.904-7.2 4.608-1.728 9.6-2.592 14.976-2.592 6.592 0 12.416 1.152 17.472 3.456 5.12 2.304 9.344 5.632 12.672 9.984l-14.304 12.768c-1.984-2.496-4.192-4.416-6.624-5.76-2.368-1.408-5.056-2.112-8.064-2.112-2.368 0-4.512.384-6.432 1.152a14.038 14.038 0 0 0-4.992 3.36c-1.344 1.472-2.4 3.264-3.168 5.376-.768 2.048-1.152 4.352-1.152 6.912 0 2.56.384 4.896 1.152 7.008.768 2.048 1.824 3.808 3.168 5.28a14.038 14.038 0 0 0 4.992 3.36c1.92.768 4.064 1.152 6.432 1.152 3.008 0 5.696-.672 8.064-2.016 2.432-1.408 4.64-3.36 6.624-5.856l14.304 12.768c-3.328 4.288-7.552 7.616-12.672 9.984-5.056 2.304-10.88 3.456-17.472 3.456Zm70.511 0c-5.44 0-10.496-.864-15.168-2.592-4.608-1.728-8.608-4.16-12-7.296a34.885 34.885 0 0 1-7.968-11.232c-1.856-4.288-2.784-8.96-2.784-14.016 0-5.12.928-9.792 2.784-14.016 1.92-4.288 4.576-8 7.968-11.136 3.392-3.2 7.392-5.664 12-7.392 4.672-1.728 9.728-2.592 15.168-2.592 5.504 0 10.56.864 15.168 2.592 4.608 1.728 8.608 4.192 12 7.392 3.392 3.136 6.016 6.848 7.872 11.136 1.92 4.224 2.88 8.896 2.88 14.016 0 5.056-.96 9.728-2.88 14.016a33.668 33.668 0 0 1-7.872 11.232c-3.392 3.136-7.392 5.568-12 7.296-4.608 1.728-9.664 2.592-15.168 2.592Zm0-18.336c2.112 0 4.064-.384 5.856-1.152 1.856-.768 3.456-1.856 4.8-3.264 1.408-1.472 2.496-3.232 3.264-5.28.768-2.112 1.152-4.48 1.152-7.104 0-2.624-.384-4.96-1.152-7.008-.768-2.112-1.856-3.872-3.264-5.28a13.31 13.31 0 0 0-4.8-3.36c-1.792-.768-3.744-1.152-5.856-1.152-2.112 0-4.096.384-5.952 1.152-1.792.768-3.392 1.888-4.8 3.36-1.344 1.408-2.4 3.168-3.168 5.28-.768 2.048-1.152 4.384-1.152 7.008 0 2.624.384 4.992 1.152 7.104.768 2.048 1.824 3.808 3.168 5.28a15.212 15.212 0 0 0 4.8 3.264c1.856.768 3.84 1.152 5.952 1.152Zm46.143 16.8v-67.2h18.624l34.176 40.896h-8.64V548.8h22.08V616h-18.624l-34.176-40.896h8.64V616h-22.08Zm140.689 1.536c-5.376 0-10.368-.832-14.976-2.496-4.544-1.728-8.512-4.16-11.904-7.296-3.328-3.136-5.92-6.848-7.776-11.136-1.856-4.288-2.784-9.024-2.784-14.208 0-5.184.928-9.92 2.784-14.208 1.856-4.288 4.448-8 7.776-11.136 3.392-3.136 7.36-5.536 11.904-7.2 4.608-1.728 9.6-2.592 14.976-2.592 6.592 0 12.416 1.152 17.472 3.456 5.12 2.304 9.344 5.632 12.672 9.984l-14.304 12.768c-1.984-2.496-4.192-4.416-6.624-5.76-2.368-1.408-5.056-2.112-8.064-2.112-2.368 0-4.512.384-6.432 1.152a14.038 14.038 0 0 0-4.992 3.36c-1.344 1.472-2.4 3.264-3.168 5.376-.768 2.048-1.152 4.352-1.152 6.912 0 2.56.384 4.896 1.152 7.008.768 2.048 1.824 3.808 3.168 5.28a14.038 14.038 0 0 0 4.992 3.36c1.92.768 4.064 1.152 6.432 1.152 3.008 0 5.696-.672 8.064-2.016 2.432-1.408 4.64-3.36 6.624-5.856l14.304 12.768c-3.328 4.288-7.552 7.616-12.672 9.984-5.056 2.304-10.88 3.456-17.472 3.456Zm60.804 0c-5.632 0-11.072-.64-16.32-1.92-5.248-1.28-9.568-2.944-12.96-4.992l7.296-16.512c3.2 1.856 6.752 3.36 10.656 4.512 3.968 1.088 7.808 1.632 11.52 1.632 2.176 0 3.872-.128 5.088-.384 1.28-.32 2.208-.736 2.784-1.248.576-.576.864-1.248.864-2.016 0-1.216-.672-2.176-2.016-2.88-1.344-.704-3.136-1.28-5.376-1.728a192.918 192.918 0 0 0-7.2-1.536 78.273 78.273 0 0 1-7.968-2.208 32.124 32.124 0 0 1-7.296-3.552c-2.176-1.472-3.936-3.392-5.28-5.76-1.344-2.432-2.016-5.44-2.016-9.024 0-4.16 1.152-7.936 3.456-11.328 2.368-3.456 5.856-6.208 10.464-8.256 4.672-2.048 10.464-3.072 17.376-3.072 4.544 0 9.024.48 13.44 1.44s8.384 2.432 11.904 4.416l-6.816 16.416c-3.328-1.664-6.56-2.912-9.696-3.744-3.072-.832-6.08-1.248-9.024-1.248-2.176 0-3.904.192-5.184.576-1.28.384-2.208.896-2.784 1.536-.512.64-.768 1.344-.768 2.112 0 1.152.672 2.08 2.016 2.784 1.344.64 3.104 1.184 5.28 1.632 2.24.448 4.672.928 7.296 1.44a58.511 58.511 0 0 1 7.968 2.112c2.624.896 5.024 2.08 7.2 3.552 2.24 1.472 4.032 3.392 5.376 5.76 1.344 2.368 2.016 5.312 2.016 8.832 0 4.096-1.184 7.872-3.552 11.328-2.304 3.392-5.76 6.144-10.368 8.256-4.608 2.048-10.4 3.072-17.376 3.072Zm63.094 0c-5.632 0-11.072-.64-16.32-1.92-5.248-1.28-9.568-2.944-12.96-4.992l7.296-16.512c3.2 1.856 6.752 3.36 10.656 4.512 3.968 1.088 7.808 1.632 11.52 1.632 2.176 0 3.872-.128 5.088-.384 1.28-.32 2.208-.736 2.784-1.248.576-.576.864-1.248.864-2.016 0-1.216-.672-2.176-2.016-2.88-1.344-.704-3.136-1.28-5.376-1.728a192.918 192.918 0 0 0-7.2-1.536 78.273 78.273 0 0 1-7.968-2.208 32.124 32.124 0 0 1-7.296-3.552c-2.176-1.472-3.936-3.392-5.28-5.76-1.344-2.432-2.016-5.44-2.016-9.024 0-4.16 1.152-7.936 3.456-11.328 2.368-3.456 5.856-6.208 10.464-8.256 4.672-2.048 10.464-3.072 17.376-3.072 4.544 0 9.024.48 13.44 1.44s8.384 2.432 11.904 4.416l-6.816 16.416c-3.328-1.664-6.56-2.912-9.696-3.744-3.072-.832-6.08-1.248-9.024-1.248-2.176 0-3.904.192-5.184.576-1.28.384-2.208.896-2.784 1.536-.512.64-.768 1.344-.768 2.112 0 1.152.672 2.08 2.016 2.784 1.344.64 3.104 1.184 5.28 1.632 2.24.448 4.672.928 7.296 1.44a58.511 58.511 0 0 1 7.968 2.112c2.624.896 5.024 2.08 7.2 3.552 2.24 1.472 4.032 3.392 5.376 5.76 1.344 2.368 2.016 5.312 2.016 8.832 0 4.096-1.184 7.872-3.552 11.328-2.304 3.392-5.76 6.144-10.368 8.256-4.608 2.048-10.4 3.072-17.376 3.072Z" fill="#003357"/><g clip-path="url(#i)"><mask id="j" style="mask-type:luminance" maskUnits="userSpaceOnUse" x="213" y="214" width="138" height="115"><path d="M351 214H213v115h138V214Z" fill="#fff"/></mask><g mask="url(#j)"><path d="M350.844 323.93c-2.99-11.674-9.467-22.23-18.79-30.708.04-.129.068-.266.108-.402a18.353 18.353 0 0 0 .367-1.601c.034-.164.061-.327.089-.498.068-.422.122-.852.163-1.288.013-.109.027-.225.034-.334.047-.565.075-1.138.075-1.717 0-.648-.028-1.315-.068-1.997-.619-12.021-6.66-28.772-15.76-43.431C311.85 233.552 297.994 214 282.003 214c-.101 0-.204.014-.305.014-15.868.238-29.589 19.592-34.774 27.94-9.106 14.673-15.154 31.444-15.759 43.465a31.98 31.98 0 0 0-.061 1.956c0 .579.027 1.138.068 1.697.013.15.034.3.047.45.041.388.082.777.143 1.158.034.205.068.402.109.6.061.327.129.647.21.968.048.204.102.402.157.606.034.123.061.246.095.368-9.324 8.485-15.793 19.054-18.79 30.742-.027.095-.041.191-.061.279 0 .034-.014.062-.021.089v.034c-.013.089-.027.184-.034.273 0 .02 0 .047-.007.068v.088c0 .075-.013.143-.013.218 0 .777.224 1.5.611 2.113.068.109.143.218.225.313a3.933 3.933 0 0 0 2.106 1.397c.014 0 .034.014.048.021h.041c.115.027.231.048.353.068h.014l.129.02h.013c.136.014.272.021.408.021h130.076c.333 0 .653-.048.959-.123h.02c.007 0 .013 0 .02-.007a3.976 3.976 0 0 0 2.97-3.85 3.87 3.87 0 0 0-.156-1.09v.034Zm-95.976-77.703c9.575-14.74 20.224-24.267 27.135-24.267h.116c6.911.109 17.492 9.609 27.013 24.267 9.466 14.577 15.827 31.117 15.827 41.155 0 1.983-.374 3.653-1.149 5.125a1.303 1.303 0 0 1-.333.347h-.006c-.068.048-.143.102-.225.15-.013.014-.034.021-.047.034-.068.041-.143.082-.218.123a2.628 2.628 0 0 1-.142.075c-.449.225-1.006.45-1.611.668a23.67 23.67 0 0 0 .258-3.047c.014-.156.014-.32.014-.477 0-16.689-17.642-25.289-39.395-25.289-21.753 0-39.394 8.6-39.394 25.289 0 .157 0 .321.013.477.021 1.05.109 2.093.265 3.108a16.67 16.67 0 0 1-1.739-.695c-.028-.014-.061-.027-.089-.048a1.778 1.778 0 0 1-.197-.109 1.629 1.629 0 0 1-.21-.129c-.034-.021-.075-.048-.109-.068-.075-.055-.143-.103-.204-.157a.374.374 0 0 1-.054-.048.876.876 0 0 1-.17-.204c-.775-1.472-1.149-3.149-1.149-5.132 0-10.031 6.361-26.571 15.827-41.155l-.027.007Zm35.977 34.919a2.136 2.136 0 0 1-2.134-2.139c0-1.186.958-2.14 2.134-2.14h6.612c1.175 0 2.134.961 2.134 2.14v16.151c0 1.185-.959 2.14-2.134 2.14h-6.612a2.137 2.137 0 0 1-2.134-2.14c0-1.186.958-2.14 2.134-2.14h4.471v-11.865h-4.471v-.007Zm-3.038-5.417-7.536 23.995a2.13 2.13 0 0 1-2.039 1.499c-.211 0-.428-.027-.639-.096a2.14 2.14 0 0 1-1.393-2.685l7.529-23.995a2.135 2.135 0 0 1 2.678-1.403 2.144 2.144 0 0 1 1.4 2.685Zm-14.652 17.282c1.183 0 2.134.961 2.134 2.14 0 1.179-.951 2.14-2.134 2.14h-6.605a2.132 2.132 0 0 1-2.134-2.14V279c0-1.179.952-2.14 2.134-2.14h6.605c1.183 0 2.134.961 2.134 2.14 0 1.179-.951 2.14-2.134 2.14h-4.464v11.864h4.464v.007Zm-50.797 28.029c2.895-7.953 7.733-15.197 14.23-21.282 1.454.906 3.146 1.56 4.879 2.105 1.101.341 2.216.641 3.296.934.632.17 1.251.334 1.835.504 0 0 .013 0 .02.007h.034c10.846 4.552 25.634 3.074 32.681 12.199 1.434 1.853 4.179 1.874 5.674.061 7.204-8.743 21.943-7.714 32.755-12.348 0-.014.014-.021.021-.028l1.447-.395c2.576-.695 5.348-1.445 7.632-2.733.02-.013.041-.02.061-.034.163-.095.333-.184.489-.279 6.497 6.092 11.335 13.336 14.237 21.282H222.358v.007Z" fill="#fff"/></g></g></g><defs><filter id="c" x="-618.979" y="-735.983" width="1480.68" height="1343.84" filterUnits="userSpaceOnUse" color-interpolation-filters="sRGB"><feFlood flood-opacity="0" result="BackgroundImageFix"/><feBlend in="SourceGraphic" in2="BackgroundImageFix" result="shape"/><feGaussianBlur stdDeviation="100" result="effect1_foregroundBlur_3_32"/></filter><filter id="d" x="-612" y="334" width="1772" height="1772" filterUnits="userSpaceOnUse" color-interpolation-filters="sRGB"><feFlood flood-opacity="0" result="BackgroundImageFix"/><feBlend in="SourceGraphic" in2="BackgroundImageFix" result="shape"/><feGaussianBlur stdDeviation="100" result="effect1_foregroundBlur_3_32"/></filter><filter id="e" x="661" y="262" width="1747" height="1747" filterUnits="userSpaceOnUse" color-interpolation-filters="sRGB"><feFlood flood-opacity="0" result="BackgroundImageFix"/><feBlend in="SourceGraphic" in2="BackgroundImageFix" result="shape"/><feGaussianBlur stdDeviation="100" result="effect1_foregroundBlur_3_32"/></filter><filter id="f" x="114" y="105" width="1700" height="1067" filterUnits="userSpaceOnUse" color-interpolation-filters="sRGB"><feFlood flood-opacity="0" result="BackgroundImageFix"/><feGaussianBlur in="BackgroundImageFix" stdDeviation="6"/><feComposite in2="SourceAlpha" operator="in" result="effect1_backgroundBlur_3_32"/><feBlend in="SourceGraphic" in2="effect1_backgroundBlur_3_32" result="shape"/></filter><linearGradient id="b" x1="960" y1="0" x2="960" y2="1280" gradientUnits="userSpaceOnUse"><stop stop-color="#1572B6"/><stop offset="1" stop-color="#33A9DC"/></linearGradient><linearGradient id="h" x1="481.39" y1="1326.85" x2="688.637" y2="336.796" gradientUnits="userSpaceOnUse"><stop stop-color="#fff" stop-opacity=".22"/><stop offset="1" stop-color="#fff" stop-opacity="0"/></linearGradient><clipPath id="a"><path fill="#fff" d="M0 0h1920v1280H0z"/></clipPath><clipPath id="i"><path fill="#fff" transform="translate(213 214)" d="M0 0h138v115H0z"/></clipPath><radialGradient id="g" cx="0" cy="0" r="1" gradientUnits="userSpaceOnUse" gradientTransform="matrix(1526.00285 906.00214 -1455.85517 2452.13454 217.5 204)"><stop stop-color="#fff" stop-opacity=".7"/><stop offset="1" stop-color="#fff" stop-opacity=".1"/></radialGradient></defs></svg>