<svg width="1920" height="1280" viewBox="0 0 1920 1280" fill="none" xmlns="http://www.w3.org/2000/svg">
<g clip-path="url(#clip0_12_17)">
<rect width="1920" height="1280" fill="url(#paint0_linear_12_17)"/>
<g filter="url(#filter0_f_12_17)">
<path d="M-418.98 391.97L135.124 -535.983L661.703 407.861L-418.98 391.97Z" fill="#DE8A85"/>
</g>
<g filter="url(#filter1_f_12_17)">
<circle cx="274" cy="1220" r="686" fill="#3381BB"/>
<circle cx="274" cy="1220" r="686" fill="#3381BB"/>
<circle cx="274" cy="1220" r="686" fill="#787CB5"/>
</g>
<g filter="url(#filter2_f_12_17)">
<circle cx="1534.5" cy="1135.5" r="673.5" fill="#3381BB"/>
<circle cx="1534.5" cy="1135.5" r="673.5" fill="#3381BB"/>
<circle cx="1534.5" cy="1135.5" r="673.5" fill="#BC645E"/>
</g>
<g filter="url(#filter3_b_12_17)">
<rect x="124" y="119" width="1676" height="1043" rx="100" fill="url(#paint1_radial_12_17)" fill-opacity="0.6"/>
<rect x="124.5" y="119.5" width="1675" height="1042" rx="99.5" stroke="white" stroke-opacity="0.5" style="mix-blend-mode:overlay"/>
</g>
<path d="M1224.23 261.683L814.859 1104.68C798.131 1139.13 763.199 1161 724.905 1161H220C164.772 1161 120 1116.23 120 1061V218C120 162.772 164.771 118 220 118H1134.27C1208.1 118 1256.48 195.267 1224.23 261.683Z" fill="url(#paint2_linear_12_17)"/>
<path d="M192.48 505L216.96 449H235.52L260 505H240.48L222.4 457.96H229.76L211.68 505H192.48ZM207.04 495.24L211.84 481.64H237.6L242.4 495.24H207.04ZM263.013 505V449H289.973C295.2 449 299.706 449.853 303.493 451.56C307.333 453.267 310.293 455.72 312.373 458.92C314.453 462.067 315.493 465.8 315.493 470.12C315.493 474.44 314.453 478.173 312.373 481.32C310.293 484.467 307.333 486.92 303.493 488.68C299.706 490.387 295.2 491.24 289.973 491.24H273.493L281.893 483.16V505H263.013ZM281.893 485.24L273.493 476.68H288.773C291.386 476.68 293.306 476.093 294.533 474.92C295.813 473.747 296.453 472.147 296.453 470.12C296.453 468.093 295.813 466.493 294.533 465.32C293.306 464.147 291.386 463.56 288.773 463.56H273.493L281.893 455V485.24ZM321.685 505V449H348.645C353.872 449 358.378 449.853 362.165 451.56C366.005 453.267 368.965 455.72 371.045 458.92C373.125 462.067 374.165 465.8 374.165 470.12C374.165 474.44 373.125 478.173 371.045 481.32C368.965 484.413 366.005 486.787 362.165 488.44C358.378 490.093 353.872 490.92 348.645 490.92H332.165L340.565 483.16V505H321.685ZM355.205 505L341.445 484.6H361.445L375.365 505H355.205ZM340.565 485.24L332.165 476.68H347.445C350.058 476.68 351.978 476.093 353.205 474.92C354.485 473.747 355.125 472.147 355.125 470.12C355.125 468.093 354.485 466.493 353.205 465.32C351.978 464.147 350.058 463.56 347.445 463.56H332.165L340.565 455V485.24ZM398.574 469.8H423.534V483.4H398.574V469.8ZM399.854 490.76H427.854V505H381.294V449H426.814V463.24H399.854V490.76ZM435.123 505V449H450.643L479.123 483.08H471.923V449H490.323V505H474.803L446.323 470.92H453.523V505H435.123ZM499.419 505V449H527.019C533.259 449 538.753 450.147 543.499 452.44C548.246 454.68 551.953 457.88 554.619 462.04C557.286 466.2 558.619 471.16 558.619 476.92C558.619 482.733 557.286 487.747 554.619 491.96C551.953 496.12 548.246 499.347 543.499 501.64C538.753 503.88 533.259 505 527.019 505H499.419ZM518.299 490.28H526.219C528.886 490.28 531.206 489.773 533.179 488.76C535.206 487.747 536.779 486.253 537.899 484.28C539.019 482.253 539.579 479.8 539.579 476.92C539.579 474.093 539.019 471.693 537.899 469.72C536.779 467.747 535.206 466.253 533.179 465.24C531.206 464.227 528.886 463.72 526.219 463.72H518.299V490.28ZM582.793 469.8H607.753V483.4H582.793V469.8ZM584.073 490.76H612.073V505H565.513V449H611.033V463.24H584.073V490.76ZM660.606 469.8H685.566V483.4H660.606V469.8ZM661.886 490.76H689.886V505H643.326V449H688.846V463.24H661.886V490.76ZM697.154 505V449H716.034V490.36H741.314V505H697.154ZM770.513 505V449H797.473C802.7 449 807.206 449.853 810.993 451.56C814.833 453.267 817.793 455.72 819.873 458.92C821.953 462.067 822.993 465.8 822.993 470.12C822.993 474.44 821.953 478.173 819.873 481.32C817.793 484.467 814.833 486.92 810.993 488.68C807.206 490.387 802.7 491.24 797.473 491.24H780.993L789.393 483.16V505H770.513ZM789.393 485.24L780.993 476.68H796.273C798.886 476.68 800.806 476.093 802.033 474.92C803.313 473.747 803.953 472.147 803.953 470.12C803.953 468.093 803.313 466.493 802.033 465.32C800.806 464.147 798.886 463.56 796.273 463.56H780.993L789.393 455V485.24ZM820.292 505L844.773 449H863.333L887.813 505H868.293L850.213 457.96H857.573L839.493 505H820.292ZM834.853 495.24L839.653 481.64H865.413L870.213 495.24H834.853ZM900.173 505V463.64H883.773V449H935.453V463.64H919.053V505H900.173ZM940.357 505V449H967.317C972.544 449 977.05 449.853 980.837 451.56C984.677 453.267 987.637 455.72 989.717 458.92C991.797 462.067 992.837 465.8 992.837 470.12C992.837 474.44 991.797 478.173 989.717 481.32C987.637 484.413 984.677 486.787 980.837 488.44C977.05 490.093 972.544 490.92 967.317 490.92H950.837L959.237 483.16V505H940.357ZM973.877 505L960.117 484.6H980.117L994.037 505H973.877ZM959.237 485.24L950.837 476.68H966.117C968.73 476.68 970.65 476.093 971.877 474.92C973.157 473.747 973.797 472.147 973.797 470.12C973.797 468.093 973.157 466.493 971.877 465.32C970.65 464.147 968.73 463.56 966.117 463.56H950.837L959.237 455V485.24ZM1029.33 506.28C1024.79 506.28 1020.58 505.56 1016.69 504.12C1012.85 502.68 1009.51 500.653 1006.69 498.04C1003.86 495.373 1001.65 492.253 1000.05 488.68C998.5 485.107 997.726 481.213 997.726 477C997.726 472.733 998.5 468.84 1000.05 465.32C1001.65 461.747 1003.86 458.653 1006.69 456.04C1009.51 453.373 1012.85 451.32 1016.69 449.88C1020.58 448.44 1024.79 447.72 1029.33 447.72C1033.91 447.72 1038.13 448.44 1041.97 449.88C1045.81 451.32 1049.14 453.373 1051.97 456.04C1054.79 458.653 1056.98 461.747 1058.53 465.32C1060.13 468.84 1060.93 472.733 1060.93 477C1060.93 481.213 1060.13 485.107 1058.53 488.68C1056.98 492.253 1054.79 495.373 1051.97 498.04C1049.14 500.653 1045.81 502.68 1041.97 504.12C1038.13 505.56 1033.91 506.28 1029.33 506.28ZM1029.33 491C1031.09 491 1032.71 490.68 1034.21 490.04C1035.75 489.4 1037.09 488.493 1038.21 487.32C1039.38 486.093 1040.29 484.627 1040.93 482.92C1041.57 481.16 1041.89 479.187 1041.89 477C1041.89 474.813 1041.57 472.867 1040.93 471.16C1040.29 469.4 1039.38 467.933 1038.21 466.76C1037.09 465.533 1035.75 464.6 1034.21 463.96C1032.71 463.32 1031.09 463 1029.33 463C1027.57 463 1025.91 463.32 1024.37 463.96C1022.87 464.6 1021.54 465.533 1020.37 466.76C1019.25 467.933 1018.37 469.4 1017.73 471.16C1017.09 472.867 1016.77 474.813 1016.77 477C1016.77 479.187 1017.09 481.16 1017.73 482.92C1018.37 484.627 1019.25 486.093 1020.37 487.32C1021.54 488.493 1022.87 489.4 1024.37 490.04C1025.91 490.68 1027.57 491 1029.33 491ZM1020.93 444.44L1031.49 431.64H1048.69L1032.93 444.44H1020.93ZM1067.78 505V449H1083.3L1111.78 483.08H1104.58V449H1122.98V505H1107.46L1078.98 470.92H1086.18V505H1067.78Z" fill="white"/>
<path d="M199.13 615V552H216.59L241.79 593.13H232.61L257.09 552H274.55L274.73 615H255.38L255.2 581.16H258.26L241.52 609.33H232.16L214.7 581.16H218.48V615H199.13ZM304.799 615L278.159 552H301.019L322.709 605.19H309.119L331.439 552H352.319L325.679 615H304.799ZM386.134 616.44C381.094 616.44 376.414 615.66 372.094 614.1C367.834 612.48 364.114 610.2 360.934 607.26C357.814 604.32 355.384 600.84 353.644 596.82C351.904 592.8 351.034 588.36 351.034 583.5C351.034 578.64 351.904 574.2 353.644 570.18C355.384 566.16 357.814 562.68 360.934 559.74C364.114 556.8 367.834 554.55 372.094 552.99C376.414 551.37 381.094 550.56 386.134 550.56C392.314 550.56 397.774 551.64 402.514 553.8C407.314 555.96 411.274 559.08 414.394 563.16L400.984 575.13C399.124 572.79 397.054 570.99 394.774 569.73C392.554 568.41 390.034 567.75 387.214 567.75C384.994 567.75 382.984 568.11 381.184 568.83C379.384 569.55 377.824 570.6 376.504 571.98C375.244 573.36 374.254 575.04 373.534 577.02C372.814 578.94 372.454 581.1 372.454 583.5C372.454 585.9 372.814 588.09 373.534 590.07C374.254 591.99 375.244 593.64 376.504 595.02C377.824 596.4 379.384 597.45 381.184 598.17C382.984 598.89 384.994 599.25 387.214 599.25C390.034 599.25 392.554 598.62 394.774 597.36C397.054 596.04 399.124 594.21 400.984 591.87L414.394 603.84C411.274 607.86 407.314 610.98 402.514 613.2C397.774 615.36 392.314 616.44 386.134 616.44ZM466.949 575.4H495.029V590.7H466.949V575.4ZM468.389 598.98H499.889V615H447.509V552H498.719V568.02H468.389V598.98ZM508.066 615V552H525.526L557.566 590.34H549.466V552H570.166V615H552.706L520.666 576.66H528.766V615H508.066ZM627.542 616.44C623.222 616.44 618.842 615.96 614.402 615C609.962 614.04 606.062 612.63 602.702 610.77L609.902 595.11C612.602 596.67 615.422 597.84 618.362 598.62C621.302 599.34 624.092 599.7 626.732 599.7C629.132 599.7 631.112 599.28 632.672 598.44C634.232 597.6 635.012 596.37 635.012 594.75C635.012 593.85 634.742 593.07 634.202 592.41C633.662 591.69 632.702 591.15 631.322 590.79C630.002 590.43 628.052 590.25 625.472 590.25H607.202L610.352 552H652.202V568.02H617.822L628.532 558.93L626.642 583.32L615.932 574.23H630.602C636.842 574.23 641.822 575.13 645.542 576.93C649.322 578.73 652.052 581.16 653.732 584.22C655.472 587.22 656.342 590.58 656.342 594.3C656.342 598.02 655.322 601.59 653.282 605.01C651.302 608.37 648.182 611.13 643.922 613.29C639.722 615.39 634.262 616.44 627.542 616.44ZM690.087 615V552H707.547L732.747 593.13H723.567L748.047 552H765.507L765.687 615H746.337L746.157 581.16H749.217L732.477 609.33H723.117L705.657 581.16H709.437V615H690.087ZM775.956 615V552H797.196V615H775.956ZM807.421 615V552H824.881L856.921 590.34H848.821V552H869.521V615H852.061L820.021 576.66H828.121V615H807.421ZM909.905 616.44C900.245 616.44 892.715 613.83 887.315 608.61C881.915 603.39 879.215 596.07 879.215 586.65V552H900.455V586.02C900.455 590.82 901.325 594.24 903.065 596.28C904.805 598.26 907.145 599.25 910.085 599.25C913.085 599.25 915.425 598.26 917.105 596.28C918.845 594.24 919.715 590.82 919.715 586.02V552H940.595V586.65C940.595 596.07 937.895 603.39 932.495 608.61C927.095 613.83 919.565 616.44 909.905 616.44ZM963.132 615V568.47H944.682V552H1002.82V568.47H984.372V615H963.132ZM1040.49 616.44C1035.39 616.44 1030.65 615.63 1026.27 614.01C1021.95 612.39 1018.2 610.11 1015.02 607.17C1011.84 604.17 1009.35 600.66 1007.55 596.64C1005.81 592.62 1004.94 588.24 1004.94 583.5C1004.94 578.7 1005.81 574.32 1007.55 570.36C1009.35 566.34 1011.84 562.86 1015.02 559.92C1018.2 556.92 1021.95 554.61 1026.27 552.99C1030.65 551.37 1035.39 550.56 1040.49 550.56C1045.65 550.56 1050.39 551.37 1054.71 552.99C1059.03 554.61 1062.78 556.92 1065.96 559.92C1069.14 562.86 1071.6 566.34 1073.34 570.36C1075.14 574.32 1076.04 578.7 1076.04 583.5C1076.04 588.24 1075.14 592.62 1073.34 596.64C1071.6 600.66 1069.14 604.17 1065.96 607.17C1062.78 610.11 1059.03 612.39 1054.71 614.01C1050.39 615.63 1045.65 616.44 1040.49 616.44ZM1040.49 599.25C1042.47 599.25 1044.3 598.89 1045.98 598.17C1047.72 597.45 1049.22 596.43 1050.48 595.11C1051.8 593.73 1052.82 592.08 1053.54 590.16C1054.26 588.18 1054.62 585.96 1054.62 583.5C1054.62 581.04 1054.26 578.85 1053.54 576.93C1052.82 574.95 1051.8 573.3 1050.48 571.98C1049.22 570.6 1047.72 569.55 1045.98 568.83C1044.3 568.11 1042.47 567.75 1040.49 567.75C1038.51 567.75 1036.65 568.11 1034.91 568.83C1033.23 569.55 1031.73 570.6 1030.41 571.98C1029.15 573.3 1028.16 574.95 1027.44 576.93C1026.72 578.85 1026.36 581.04 1026.36 583.5C1026.36 585.96 1026.72 588.18 1027.44 590.16C1028.16 592.08 1029.15 593.73 1030.41 595.11C1031.73 596.43 1033.23 597.45 1034.91 598.17C1036.65 598.89 1038.51 599.25 1040.49 599.25ZM1107.24 616.44C1101.96 616.44 1096.86 615.84 1091.94 614.64C1087.02 613.44 1082.97 611.88 1079.79 609.96L1086.63 594.48C1089.63 596.22 1092.96 597.63 1096.62 598.71C1100.34 599.73 1103.94 600.24 1107.42 600.24C1109.46 600.24 1111.05 600.12 1112.19 599.88C1113.39 599.58 1114.26 599.19 1114.8 598.71C1115.34 598.17 1115.61 597.54 1115.61 596.82C1115.61 595.68 1114.98 594.78 1113.72 594.12C1112.46 593.46 1110.78 592.92 1108.68 592.5C1106.64 592.02 1104.39 591.54 1101.93 591.06C1099.47 590.52 1096.98 589.83 1094.46 588.99C1092 588.15 1089.72 587.04 1087.62 585.66C1085.58 584.28 1083.93 582.48 1082.67 580.26C1081.41 577.98 1080.78 575.16 1080.78 571.8C1080.78 567.9 1081.86 564.36 1084.02 561.18C1086.24 557.94 1089.51 555.36 1093.83 553.44C1098.21 551.52 1103.64 550.56 1110.12 550.56C1114.38 550.56 1118.58 551.01 1122.72 551.91C1126.86 552.81 1130.58 554.19 1133.88 556.05L1127.49 571.44C1124.37 569.88 1121.34 568.71 1118.4 567.93C1115.52 567.15 1112.7 566.76 1109.94 566.76C1107.9 566.76 1106.28 566.94 1105.08 567.3C1103.88 567.66 1103.01 568.14 1102.47 568.74C1101.99 569.34 1101.75 570 1101.75 570.72C1101.75 571.8 1102.38 572.67 1103.64 573.33C1104.9 573.93 1106.55 574.44 1108.59 574.86C1110.69 575.28 1112.97 575.73 1115.43 576.21C1117.95 576.69 1120.44 577.35 1122.9 578.19C1125.36 579.03 1127.61 580.14 1129.65 581.52C1131.75 582.9 1133.43 584.7 1134.69 586.92C1135.95 589.14 1136.58 591.9 1136.58 595.2C1136.58 599.04 1135.47 602.58 1133.25 605.82C1131.09 609 1127.85 611.58 1123.53 613.56C1119.21 615.48 1113.78 616.44 1107.24 616.44Z" fill="#232443"/>
<g clip-path="url(#clip1_12_17)">
<mask id="mask0_12_17" style="mask-type:luminance" maskUnits="userSpaceOnUse" x="194" y="215" width="138" height="115">
<path d="M332 215H194V330H332V215Z" fill="white"/>
</mask>
<g mask="url(#mask0_12_17)">
<path d="M331.844 324.93C328.854 313.256 322.377 302.7 313.054 294.222C313.094 294.093 313.122 293.956 313.162 293.82C313.21 293.65 313.258 293.473 313.298 293.295C313.387 292.941 313.461 292.58 313.529 292.219C313.563 292.055 313.59 291.892 313.618 291.721C313.686 291.299 313.74 290.869 313.781 290.433C313.794 290.324 313.808 290.208 313.815 290.099C313.862 289.534 313.89 288.961 313.89 288.382C313.89 287.734 313.862 287.067 313.822 286.385C313.203 274.364 307.162 257.613 298.062 242.954C292.85 234.552 278.994 215 263.003 215C262.902 215 262.8 215.014 262.698 215.014C246.83 215.252 233.109 234.606 227.924 242.954C218.818 257.627 212.77 274.398 212.165 286.419C212.124 287.087 212.104 287.741 212.104 288.375C212.104 288.954 212.131 289.513 212.172 290.072C212.185 290.222 212.206 290.372 212.219 290.522C212.26 290.91 212.301 291.299 212.362 291.68C212.396 291.885 212.43 292.082 212.471 292.28C212.532 292.607 212.6 292.927 212.681 293.248C212.729 293.452 212.783 293.65 212.838 293.854C212.872 293.977 212.899 294.1 212.933 294.222C203.609 302.707 197.14 313.276 194.143 324.964C194.116 325.059 194.102 325.155 194.082 325.243C194.082 325.277 194.068 325.305 194.061 325.332C194.061 325.345 194.061 325.359 194.061 325.366C194.048 325.455 194.034 325.55 194.027 325.639C194.027 325.659 194.027 325.686 194.02 325.707C194.02 325.734 194.02 325.768 194.02 325.795C194.02 325.87 194.007 325.938 194.007 326.013C194.007 326.79 194.231 327.513 194.618 328.126C194.686 328.235 194.761 328.344 194.843 328.439C195.366 329.114 196.1 329.612 196.949 329.836C196.963 329.836 196.983 329.85 196.997 329.857C197.011 329.857 197.024 329.857 197.038 329.857C197.153 329.884 197.269 329.905 197.391 329.925C197.391 329.925 197.398 329.925 197.405 329.925C197.445 329.932 197.493 329.939 197.534 329.945C197.534 329.945 197.541 329.945 197.547 329.945C197.683 329.959 197.819 329.966 197.955 329.966C197.962 329.966 197.976 329.966 197.982 329.966H328.031C328.364 329.966 328.684 329.918 328.99 329.843C328.99 329.843 329.003 329.843 329.01 329.843C329.017 329.843 329.023 329.843 329.03 329.836C330.736 329.393 332 327.84 332 325.986C332 325.611 331.946 325.243 331.844 324.896V324.93ZM235.868 247.227C245.443 232.487 256.092 222.96 263.003 222.96C263.044 222.96 263.078 222.96 263.119 222.96C270.03 223.069 280.611 232.569 290.132 247.227C299.598 261.804 305.959 278.344 305.959 288.382C305.959 290.365 305.585 292.035 304.81 293.507C304.743 293.622 304.627 293.738 304.477 293.854C304.477 293.854 304.477 293.854 304.471 293.854C304.403 293.902 304.328 293.956 304.246 294.004C304.233 294.018 304.212 294.025 304.199 294.038C304.131 294.079 304.056 294.12 303.981 294.161C303.934 294.188 303.893 294.209 303.839 294.236C303.39 294.461 302.833 294.686 302.228 294.904C302.378 293.902 302.466 292.886 302.486 291.857C302.5 291.701 302.5 291.537 302.5 291.38C302.5 274.691 284.858 266.091 263.105 266.091C241.352 266.091 223.711 274.691 223.711 291.38C223.711 291.537 223.711 291.701 223.724 291.857C223.745 292.907 223.833 293.95 223.989 294.965C223.344 294.74 222.739 294.508 222.25 294.27C222.223 294.256 222.189 294.243 222.161 294.222C222.093 294.188 222.025 294.154 221.964 294.113C221.89 294.072 221.815 294.031 221.754 293.984C221.72 293.963 221.679 293.936 221.645 293.916C221.57 293.861 221.502 293.813 221.441 293.759C221.421 293.745 221.4 293.725 221.387 293.711C221.312 293.643 221.258 293.575 221.217 293.507C220.442 292.035 220.068 290.358 220.068 288.375C220.068 278.344 226.429 261.804 235.895 247.22L235.868 247.227ZM271.845 282.146C270.669 282.146 269.711 281.192 269.711 280.007C269.711 278.821 270.669 277.867 271.845 277.867H278.457C279.632 277.867 280.591 278.828 280.591 280.007V296.158C280.591 297.343 279.632 298.298 278.457 298.298H271.845C270.669 298.298 269.711 297.343 269.711 296.158C269.711 294.972 270.669 294.018 271.845 294.018H276.316V282.153H271.845V282.146ZM268.807 276.729L261.271 300.724C260.985 301.644 260.142 302.223 259.232 302.223C259.021 302.223 258.804 302.196 258.593 302.127C257.472 301.773 256.84 300.567 257.2 299.442L264.73 275.447C265.083 274.316 266.286 273.689 267.407 274.044C268.535 274.398 269.16 275.604 268.807 276.729ZM254.155 294.011C255.338 294.011 256.289 294.972 256.289 296.151C256.289 297.33 255.338 298.291 254.155 298.291H247.55C246.368 298.291 245.416 297.337 245.416 296.151V280C245.416 278.821 246.368 277.86 247.55 277.86H254.155C255.338 277.86 256.289 278.821 256.289 280C256.289 281.179 255.338 282.14 254.155 282.14H249.691V294.004H254.155V294.011ZM203.358 322.04C206.253 314.087 211.091 306.843 217.588 300.758C219.042 301.664 220.734 302.318 222.467 302.863C223.568 303.204 224.683 303.504 225.763 303.797C226.395 303.967 227.014 304.131 227.598 304.301C227.598 304.301 227.612 304.301 227.618 304.308C227.618 304.308 227.618 304.308 227.632 304.308C227.646 304.308 227.646 304.308 227.652 304.308C238.498 308.86 253.286 307.382 260.333 316.507C261.767 318.36 264.512 318.381 266.007 316.568C273.211 307.825 287.95 308.854 298.762 304.22C298.762 304.206 298.776 304.199 298.783 304.192C299.252 304.063 299.734 303.933 300.23 303.797C302.806 303.102 305.578 302.352 307.862 301.064C307.882 301.051 307.903 301.044 307.923 301.03C308.086 300.935 308.256 300.846 308.412 300.751C314.909 306.843 319.747 314.087 322.649 322.033H203.358V322.04Z" fill="white"/>
</g>
</g>
<path d="M1386.67 664C1386.67 682.417 1356.82 697.333 1320 697.333C1283.18 697.333 1253.33 682.417 1253.33 664V630.45C1257.52 635.592 1263.46 639.858 1270.07 643.158C1283.17 649.708 1300.83 653.583 1320 653.583C1339.17 653.583 1356.83 649.708 1369.93 643.167C1376.54 639.858 1382.48 635.583 1386.67 630.45V664Z" fill="#232443"/>
<path d="M1320 603.583C1339.17 603.583 1356.83 599.708 1369.93 593.167C1376.54 589.858 1382.48 585.583 1386.67 580.45V614C1386.67 618.167 1371.78 627.258 1364.34 631.983C1353.32 637.492 1337.65 641.083 1320 641.083C1302.35 641.083 1286.68 637.5 1275.66 631.983C1265.83 627.067 1253.33 618.167 1253.33 614V580.45C1257.52 585.592 1263.46 589.858 1270.07 593.158C1283.17 599.708 1300.83 603.583 1320 603.583Z" fill="#232443"/>
<path d="M1364.34 581.983C1353.32 587.492 1337.65 591.083 1320 591.083C1302.35 591.083 1286.68 587.5 1275.66 581.983C1271.37 580.3 1261.72 574.958 1255.01 566.325C1254.44 565.599 1254.03 564.766 1253.8 563.876C1253.57 562.986 1253.53 562.058 1253.67 561.15C1253.86 559.917 1254.13 558.642 1254.47 557.85C1260.23 542.383 1287.38 530.667 1320 530.667C1352.62 530.667 1379.77 542.383 1385.53 557.85C1385.88 558.642 1386.14 559.917 1386.33 561.15C1386.47 562.059 1386.42 562.987 1386.19 563.877C1385.96 564.767 1385.55 565.6 1384.98 566.325C1378.28 574.958 1368.63 580.3 1364.34 581.983Z" fill="#232443"/>
<path d="M1267.82 745V722.6H1274.03L1282.99 737.224H1279.73L1288.43 722.6H1294.64L1294.7 745H1287.82L1287.76 732.968H1288.85L1282.9 742.984H1279.57L1273.36 732.968H1274.7V745H1267.82ZM1307.38 745.32C1305.4 745.32 1303.64 744.936 1302.1 744.168C1300.58 743.379 1299.39 742.301 1298.52 740.936C1297.64 739.571 1297.2 738.003 1297.2 736.232C1297.2 734.461 1297.64 732.893 1298.52 731.528C1299.39 730.163 1300.58 729.096 1302.1 728.328C1303.64 727.56 1305.4 727.176 1307.38 727.176C1309.36 727.176 1311.12 727.56 1312.66 728.328C1314.2 729.096 1315.39 730.163 1316.24 731.528C1317.12 732.893 1317.56 734.461 1317.56 736.232C1317.56 738.003 1317.12 739.571 1316.24 740.936C1315.39 742.301 1314.2 743.379 1312.66 744.168C1311.12 744.936 1309.36 745.32 1307.38 745.32ZM1307.38 739.688C1307.91 739.688 1308.39 739.56 1308.82 739.304C1309.25 739.048 1309.59 738.664 1309.84 738.152C1310.1 737.619 1310.23 736.979 1310.23 736.232C1310.23 735.464 1310.1 734.835 1309.84 734.344C1309.59 733.832 1309.25 733.448 1308.82 733.192C1308.39 732.936 1307.91 732.808 1307.38 732.808C1306.85 732.808 1306.37 732.936 1305.94 733.192C1305.51 733.448 1305.17 733.832 1304.92 734.344C1304.66 734.835 1304.53 735.464 1304.53 736.232C1304.53 736.979 1304.66 737.619 1304.92 738.152C1305.17 738.664 1305.51 739.048 1305.94 739.304C1306.37 739.56 1306.85 739.688 1307.38 739.688ZM1327.5 745.32C1325.98 745.32 1324.58 744.957 1323.27 744.232C1321.99 743.485 1320.97 742.44 1320.2 741.096C1319.43 739.731 1319.05 738.109 1319.05 736.232C1319.05 734.355 1319.43 732.744 1320.2 731.4C1320.97 730.035 1321.99 728.989 1323.27 728.264C1324.58 727.539 1325.98 727.176 1327.5 727.176C1329.03 727.176 1330.29 727.507 1331.27 728.168C1332.26 728.808 1332.98 729.8 1333.45 731.144C1333.92 732.467 1334.15 734.163 1334.15 736.232C1334.15 738.323 1333.93 740.04 1333.48 741.384C1333.06 742.728 1332.35 743.72 1331.37 744.36C1330.41 745 1329.12 745.32 1327.5 745.32ZM1329.23 739.688C1329.76 739.688 1330.24 739.56 1330.67 739.304C1331.09 739.048 1331.43 738.664 1331.69 738.152C1331.95 737.619 1332.07 736.979 1332.07 736.232C1332.07 735.464 1331.95 734.835 1331.69 734.344C1331.43 733.832 1331.09 733.448 1330.67 733.192C1330.24 732.936 1329.76 732.808 1329.23 732.808C1328.69 732.808 1328.21 732.936 1327.79 733.192C1327.36 733.448 1327.02 733.832 1326.76 734.344C1326.51 734.835 1326.38 735.464 1326.38 736.232C1326.38 736.979 1326.51 737.619 1326.76 738.152C1327.02 738.664 1327.36 739.048 1327.79 739.304C1328.21 739.56 1328.69 739.688 1329.23 739.688ZM1332.3 745V742.632L1332.27 736.232L1331.95 729.832V721.256H1339.18V745H1332.3ZM1352.05 745.32C1349.91 745.32 1348.05 744.925 1346.45 744.136C1344.87 743.347 1343.64 742.269 1342.77 740.904C1341.89 739.517 1341.45 737.96 1341.45 736.232C1341.45 734.461 1341.88 732.893 1342.73 731.528C1343.61 730.163 1344.79 729.096 1346.29 728.328C1347.8 727.56 1349.5 727.176 1351.37 727.176C1353.1 727.176 1354.69 727.517 1356.14 728.2C1357.61 728.883 1358.79 729.896 1359.66 731.24C1360.56 732.584 1361.01 734.248 1361.01 736.232C1361.01 736.488 1360.99 736.776 1360.97 737.096C1360.95 737.395 1360.93 737.672 1360.91 737.928H1347.44V734.44H1357.07L1354.35 735.368C1354.35 734.685 1354.22 734.109 1353.97 733.64C1353.73 733.149 1353.4 732.776 1352.97 732.52C1352.55 732.243 1352.03 732.104 1351.44 732.104C1350.84 732.104 1350.32 732.243 1349.87 732.52C1349.44 732.776 1349.11 733.149 1348.88 733.64C1348.64 734.109 1348.53 734.685 1348.53 735.368V736.456C1348.53 737.203 1348.67 737.843 1348.97 738.376C1349.27 738.909 1349.7 739.315 1350.25 739.592C1350.81 739.848 1351.48 739.976 1352.27 739.976C1353.08 739.976 1353.74 739.869 1354.25 739.656C1354.79 739.443 1355.34 739.123 1355.92 738.696L1359.69 742.504C1358.84 743.421 1357.78 744.125 1356.53 744.616C1355.29 745.085 1353.79 745.32 1352.05 745.32ZM1363.29 745V721.256H1370.52V745H1363.29Z" fill="white"/>
<g clip-path="url(#clip2_12_17)">
<path d="M1569.18 775.167L1560.27 768.25C1560.46 766.897 1560.58 765.533 1560.6 764.167C1560.62 762.798 1560.51 761.431 1560.27 760.083L1569.1 753.167C1569.47 752.845 1569.73 752.406 1569.82 751.921C1569.91 751.436 1569.83 750.935 1569.6 750.5L1561.27 736.083C1561.01 735.649 1560.62 735.318 1560.14 735.15C1559.67 734.982 1559.15 734.988 1558.68 735.167L1548.35 739.333C1546.2 737.639 1543.81 736.264 1541.27 735.25L1539.68 724.25C1539.62 723.763 1539.39 723.316 1539.02 722.993C1538.65 722.67 1538.17 722.494 1537.68 722.5H1521.02C1520.52 722.505 1520.04 722.682 1519.66 723.002C1519.28 723.321 1519.02 723.762 1518.93 724.25L1517.35 735.25C1514.83 736.315 1512.45 737.686 1510.27 739.333L1499.93 735.167C1499.46 735.001 1498.95 735.002 1498.48 735.169C1498.01 735.336 1497.61 735.658 1497.35 736.083L1489.02 750.5C1488.76 750.93 1488.68 751.437 1488.77 751.927C1488.86 752.417 1489.13 752.857 1489.52 753.167L1498.35 760.083C1498.02 762.795 1498.02 765.538 1498.35 768.25L1489.52 775.167C1489.14 775.488 1488.89 775.927 1488.8 776.412C1488.71 776.897 1488.78 777.398 1489.02 777.833L1497.35 792.25C1497.6 792.684 1498 793.015 1498.47 793.183C1498.95 793.351 1499.46 793.345 1499.93 793.167L1510.27 789C1512.42 790.694 1514.8 792.07 1517.35 793.083L1518.93 804.083C1519.01 804.577 1519.27 805.026 1519.65 805.347C1520.03 805.669 1520.52 805.842 1521.02 805.833H1537.68C1538.18 805.828 1538.66 805.651 1539.04 805.332C1539.42 805.012 1539.68 804.571 1539.77 804.083L1541.35 793.083C1543.85 792.037 1546.21 790.664 1548.35 789L1558.77 793.167C1559.24 793.332 1559.75 793.331 1560.22 793.164C1560.69 792.997 1561.09 792.675 1561.35 792.25L1569.68 777.833C1569.92 777.398 1569.99 776.897 1569.9 776.412C1569.81 775.927 1569.56 775.488 1569.18 775.167ZM1529.35 776.667C1526.88 776.667 1524.46 775.934 1522.41 774.56C1520.35 773.187 1518.75 771.234 1517.8 768.95C1516.86 766.666 1516.61 764.153 1517.09 761.728C1517.57 759.303 1518.76 757.076 1520.51 755.328C1522.26 753.58 1524.49 752.389 1526.91 751.907C1529.34 751.425 1531.85 751.672 1534.13 752.618C1536.42 753.564 1538.37 755.166 1539.74 757.222C1541.12 759.278 1541.85 761.694 1541.85 764.167C1541.85 765.809 1541.53 767.435 1540.9 768.953C1540.28 770.47 1539.35 771.849 1538.19 773.01C1537.03 774.172 1535.65 775.092 1534.14 775.72C1532.62 776.347 1530.99 776.669 1529.35 776.667ZM1645.64 664.125H1612.31C1610.1 664.134 1607.99 665.016 1606.44 666.578C1604.89 668.14 1604.01 670.255 1604.02 672.458L1604 689H1520.64V714.083L1537.41 714.183V705.767L1603.99 705.667L1603.98 739.125C1603.97 741.329 1604.84 743.443 1606.4 745.005C1607.95 746.567 1610.06 747.45 1612.27 747.458H1662.31C1664.52 747.452 1666.63 746.572 1668.19 745.01C1669.75 743.449 1670.64 741.333 1670.64 739.125V689.125L1645.64 664.125ZM1641.48 693.292V670.375L1664.39 693.292H1641.48ZM1645.65 780.742H1612.32C1610.11 780.75 1608 781.633 1606.45 783.195C1604.89 784.757 1604.02 786.871 1604.03 789.075L1604.01 822.492L1537.43 822.525V814.108H1520.67V839.192L1604 839.158L1603.98 855.742C1603.98 857.945 1604.85 860.06 1606.41 861.622C1607.96 863.184 1610.07 864.066 1612.28 864.075H1662.32C1664.52 864.068 1666.64 863.188 1668.2 861.627C1669.76 860.066 1670.64 857.95 1670.65 855.742V805.742L1645.65 780.742ZM1641.48 809.908V786.992L1664.4 809.908H1641.48Z" fill="#232443"/>
</g>
<path d="M1516.41 916.512C1514.62 916.512 1512.95 916.235 1511.42 915.68C1509.9 915.104 1508.58 914.293 1507.45 913.248C1506.34 912.203 1505.47 910.965 1504.86 909.536C1504.24 908.107 1503.93 906.528 1503.93 904.8C1503.93 903.072 1504.24 901.493 1504.86 900.064C1505.47 898.635 1506.34 897.397 1507.45 896.352C1508.58 895.307 1509.9 894.507 1511.42 893.952C1512.95 893.376 1514.62 893.088 1516.41 893.088C1518.61 893.088 1520.55 893.472 1522.23 894.24C1523.94 895.008 1525.35 896.117 1526.46 897.568L1521.69 901.824C1521.03 900.992 1520.29 900.352 1519.48 899.904C1518.69 899.435 1517.79 899.2 1516.79 899.2C1516 899.2 1515.29 899.328 1514.65 899.584C1514.01 899.84 1513.45 900.213 1512.98 900.704C1512.54 901.195 1512.18 901.792 1511.93 902.496C1511.67 903.179 1511.54 903.947 1511.54 904.8C1511.54 905.653 1511.67 906.432 1511.93 907.136C1512.18 907.819 1512.54 908.405 1512.98 908.896C1513.45 909.387 1514.01 909.76 1514.65 910.016C1515.29 910.272 1516 910.4 1516.79 910.4C1517.79 910.4 1518.69 910.176 1519.48 909.728C1520.29 909.259 1521.03 908.608 1521.69 907.776L1526.46 912.032C1525.35 913.461 1523.94 914.571 1522.23 915.36C1520.55 916.128 1518.61 916.512 1516.41 916.512ZM1537.16 916.32C1535.18 916.32 1533.42 915.936 1531.88 915.168C1530.37 914.379 1529.17 913.301 1528.3 911.936C1527.42 910.571 1526.98 909.003 1526.98 907.232C1526.98 905.461 1527.42 903.893 1528.3 902.528C1529.17 901.163 1530.37 900.096 1531.88 899.328C1533.42 898.56 1535.18 898.176 1537.16 898.176C1539.14 898.176 1540.9 898.56 1542.44 899.328C1543.98 900.096 1545.17 901.163 1546.02 902.528C1546.9 903.893 1547.34 905.461 1547.34 907.232C1547.34 909.003 1546.9 910.571 1546.02 911.936C1545.17 913.301 1543.98 914.379 1542.44 915.168C1540.9 915.936 1539.14 916.32 1537.16 916.32ZM1537.16 910.688C1537.69 910.688 1538.17 910.56 1538.6 910.304C1539.03 910.048 1539.37 909.664 1539.62 909.152C1539.88 908.619 1540.01 907.979 1540.01 907.232C1540.01 906.464 1539.88 905.835 1539.62 905.344C1539.37 904.832 1539.03 904.448 1538.6 904.192C1538.17 903.936 1537.69 903.808 1537.16 903.808C1536.63 903.808 1536.15 903.936 1535.72 904.192C1535.29 904.448 1534.95 904.832 1534.7 905.344C1534.44 905.835 1534.31 906.464 1534.31 907.232C1534.31 907.979 1534.44 908.619 1534.7 909.152C1534.95 909.664 1535.29 910.048 1535.72 910.304C1536.15 910.56 1536.63 910.688 1537.16 910.688ZM1561.76 898.176C1563.1 898.176 1564.32 898.453 1565.41 899.008C1566.5 899.541 1567.35 900.384 1567.97 901.536C1568.61 902.688 1568.93 904.181 1568.93 906.016V916H1561.7V907.264C1561.7 906.176 1561.5 905.408 1561.12 904.96C1560.74 904.491 1560.21 904.256 1559.55 904.256C1559.06 904.256 1558.6 904.373 1558.18 904.608C1557.77 904.821 1557.44 905.184 1557.18 905.696C1556.95 906.208 1556.83 906.901 1556.83 907.776V916H1549.6V898.496H1556.48V903.616L1555.1 902.144C1555.79 900.821 1556.7 899.829 1557.86 899.168C1559.03 898.507 1560.33 898.176 1561.76 898.176ZM1580.52 916.32C1578.11 916.32 1576.23 915.744 1574.88 914.592C1573.54 913.419 1572.87 911.627 1572.87 909.216V894.56H1580.1V909.152C1580.1 909.685 1580.24 910.101 1580.52 910.4C1580.82 910.699 1581.18 910.848 1581.6 910.848C1582.22 910.848 1582.77 910.688 1583.24 910.368L1584.96 915.392C1584.41 915.712 1583.74 915.947 1582.95 916.096C1582.18 916.245 1581.37 916.32 1580.52 916.32ZM1570.47 904.736V899.456H1583.68V904.736H1570.47ZM1586.79 916V898.496H1593.67V903.776L1592.55 902.272C1593.08 900.907 1593.93 899.883 1595.11 899.2C1596.28 898.517 1597.69 898.176 1599.33 898.176V904.576C1599.01 904.533 1598.72 904.501 1598.47 904.48C1598.23 904.459 1597.99 904.448 1597.73 904.448C1596.64 904.448 1595.75 904.736 1595.04 905.312C1594.36 905.867 1594.02 906.837 1594.02 908.224V916H1586.79ZM1610.47 916.32C1608.49 916.32 1606.73 915.936 1605.19 915.168C1603.68 914.379 1602.48 913.301 1601.61 911.936C1600.73 910.571 1600.3 909.003 1600.3 907.232C1600.3 905.461 1600.73 903.893 1601.61 902.528C1602.48 901.163 1603.68 900.096 1605.19 899.328C1606.73 898.56 1608.49 898.176 1610.47 898.176C1612.46 898.176 1614.22 898.56 1615.75 899.328C1617.29 900.096 1618.48 901.163 1619.34 902.528C1620.21 903.893 1620.65 905.461 1620.65 907.232C1620.65 909.003 1620.21 910.571 1619.34 911.936C1618.48 913.301 1617.29 914.379 1615.75 915.168C1614.22 915.936 1612.46 916.32 1610.47 916.32ZM1610.47 910.688C1611.01 910.688 1611.49 910.56 1611.91 910.304C1612.34 910.048 1612.68 909.664 1612.94 909.152C1613.19 908.619 1613.32 907.979 1613.32 907.232C1613.32 906.464 1613.19 905.835 1612.94 905.344C1612.68 904.832 1612.34 904.448 1611.91 904.192C1611.49 903.936 1611.01 903.808 1610.47 903.808C1609.94 903.808 1609.46 903.936 1609.03 904.192C1608.61 904.448 1608.27 904.832 1608.01 905.344C1607.75 905.835 1607.62 906.464 1607.62 907.232C1607.62 907.979 1607.75 908.619 1608.01 909.152C1608.27 909.664 1608.61 910.048 1609.03 910.304C1609.46 910.56 1609.94 910.688 1610.47 910.688ZM1622.91 916V892.256H1630.14V916H1622.91ZM1633.35 916V892.256H1640.58V916H1633.35ZM1653.45 916.32C1651.32 916.32 1649.45 915.925 1647.85 915.136C1646.27 914.347 1645.05 913.269 1644.17 911.904C1643.3 910.517 1642.86 908.96 1642.86 907.232C1642.86 905.461 1643.29 903.893 1644.14 902.528C1645.01 901.163 1646.2 900.096 1647.69 899.328C1649.21 898.56 1650.9 898.176 1652.78 898.176C1654.51 898.176 1656.1 898.517 1657.55 899.2C1659.02 899.883 1660.19 900.896 1661.07 902.24C1661.96 903.584 1662.41 905.248 1662.41 907.232C1662.41 907.488 1662.4 907.776 1662.38 908.096C1662.36 908.395 1662.34 908.672 1662.32 908.928H1648.84V905.44H1658.48L1655.76 906.368C1655.76 905.685 1655.63 905.109 1655.37 904.64C1655.14 904.149 1654.81 903.776 1654.38 903.52C1653.95 903.243 1653.44 903.104 1652.84 903.104C1652.25 903.104 1651.72 903.243 1651.28 903.52C1650.85 903.776 1650.52 904.149 1650.28 904.64C1650.05 905.109 1649.93 905.685 1649.93 906.368V907.456C1649.93 908.203 1650.08 908.843 1650.38 909.376C1650.68 909.909 1651.1 910.315 1651.66 910.592C1652.21 910.848 1652.89 910.976 1653.68 910.976C1654.49 910.976 1655.15 910.869 1655.66 910.656C1656.19 910.443 1656.75 910.123 1657.32 909.696L1661.1 913.504C1660.25 914.421 1659.19 915.125 1657.93 915.616C1656.69 916.085 1655.2 916.32 1653.45 916.32ZM1664.69 916V898.496H1671.57V903.776L1670.45 902.272C1670.99 900.907 1671.84 899.883 1673.01 899.2C1674.19 898.517 1675.6 898.176 1677.24 898.176V904.576C1676.92 904.533 1676.63 904.501 1676.37 904.48C1676.14 904.459 1675.89 904.448 1675.64 904.448C1674.55 904.448 1673.65 904.736 1672.95 905.312C1672.27 905.867 1671.93 906.837 1671.93 908.224V916H1664.69Z" fill="white"/>
<path d="M1555.86 573L1546.39 550.6H1554.52L1562.23 569.512H1557.4L1565.34 550.6H1572.76L1563.29 573H1555.86ZM1573.91 573V555.496H1581.14V573H1573.91ZM1577.53 554.088C1576.21 554.088 1575.15 553.736 1574.36 553.032C1573.57 552.328 1573.18 551.453 1573.18 550.408C1573.18 549.363 1573.57 548.488 1574.36 547.784C1575.15 547.08 1576.21 546.728 1577.53 546.728C1578.85 546.728 1579.91 547.059 1580.7 547.72C1581.49 548.381 1581.88 549.235 1581.88 550.28C1581.88 551.389 1581.49 552.307 1580.7 553.032C1579.91 553.736 1578.85 554.088 1577.53 554.088ZM1594.01 573.32C1591.88 573.32 1590.01 572.925 1588.41 572.136C1586.84 571.347 1585.61 570.269 1584.73 568.904C1583.86 567.517 1583.42 565.96 1583.42 564.232C1583.42 562.461 1583.85 560.893 1584.7 559.528C1585.58 558.163 1586.76 557.096 1588.25 556.328C1589.77 555.56 1591.46 555.176 1593.34 555.176C1595.07 555.176 1596.66 555.517 1598.11 556.2C1599.58 556.883 1600.76 557.896 1601.63 559.24C1602.53 560.584 1602.97 562.248 1602.97 564.232C1602.97 564.488 1602.96 564.776 1602.94 565.096C1602.92 565.395 1602.9 565.672 1602.88 565.928H1589.41V562.44H1599.04L1596.32 563.368C1596.32 562.685 1596.19 562.109 1595.93 561.64C1595.7 561.149 1595.37 560.776 1594.94 560.52C1594.52 560.243 1594 560.104 1593.41 560.104C1592.81 560.104 1592.29 560.243 1591.84 560.52C1591.41 560.776 1591.08 561.149 1590.85 561.64C1590.61 562.109 1590.49 562.685 1590.49 563.368V564.456C1590.49 565.203 1590.64 565.843 1590.94 566.376C1591.24 566.909 1591.67 567.315 1592.22 567.592C1592.78 567.848 1593.45 567.976 1594.24 567.976C1595.05 567.976 1595.71 567.869 1596.22 567.656C1596.76 567.443 1597.31 567.123 1597.89 566.696L1601.66 570.504C1600.81 571.421 1599.75 572.125 1598.49 572.616C1597.26 573.085 1595.76 573.32 1594.01 573.32ZM1609.23 573L1603.15 555.496H1610L1614.61 569.704H1611.31L1616.14 555.496H1622.29L1626.9 569.704H1623.7L1628.46 555.496H1634.8L1628.72 573H1621.68L1618 561.736H1620.11L1616.27 573H1609.23Z" fill="white"/>
<path d="M1653.5 502.031H1528.5C1525.19 502.028 1522.01 500.71 1519.66 498.366C1517.32 496.023 1516 492.845 1516 489.531V402.031C1516 398.717 1517.32 395.54 1519.66 393.196C1522.01 390.853 1525.19 389.535 1528.5 389.531H1653.5C1656.81 389.535 1659.99 390.853 1662.34 393.196C1664.68 395.54 1666 398.717 1666 402.031V489.531C1666 492.845 1664.68 496.021 1662.33 498.365C1659.99 500.708 1656.81 502.026 1653.5 502.031ZM1528.5 402.031V489.531H1653.5V402.031H1528.5ZM1503.5 514.531H1678.5V527.031H1503.5V514.531Z" fill="#232443"/>
<g clip-path="url(#clip3_12_17)">
<path d="M1014.98 818.717C1015.07 819.062 1015.12 819.419 1015.12 819.777V875.488C1015.12 876.944 1014.34 878.288 1013.08 879.012L966.322 905.935V959.294C966.322 960.008 966.135 960.71 965.778 961.328C965.422 961.947 964.909 962.461 964.291 962.819L866.685 1019.01C866.461 1019.13 866.218 1019.21 865.974 1019.3C865.882 1019.33 865.797 1019.39 865.7 1019.41C865.018 1019.59 864.3 1019.59 863.618 1019.41C863.506 1019.38 863.404 1019.32 863.298 1019.28C863.074 1019.2 862.841 1019.13 862.628 1019.01L765.042 962.818C764.421 962.462 763.906 961.949 763.548 961.33C763.189 960.711 763 960.009 763 959.294V792.161C763 791.795 763.051 791.439 763.142 791.095C763.172 790.978 763.243 790.871 763.285 790.754C763.36 790.541 763.432 790.323 763.544 790.125C763.619 789.993 763.731 789.886 763.822 789.764C763.94 789.602 764.046 789.434 764.183 789.291C764.3 789.175 764.453 789.089 764.585 788.987C764.732 788.865 764.863 788.733 765.031 788.637H765.036L813.831 760.543C814.449 760.187 815.149 760 815.862 760C816.575 760 817.276 760.187 817.893 760.543L866.689 788.637H866.699C866.861 788.739 866.999 788.865 867.146 788.982C867.278 789.084 867.425 789.175 867.542 789.288C867.684 789.434 867.786 789.603 867.907 789.764C867.994 789.886 868.111 789.993 868.182 790.125C868.298 790.328 868.364 790.541 868.446 790.755C868.486 790.871 868.557 790.978 868.588 791.1C868.681 791.445 868.729 791.803 868.73 792.161V896.549L909.391 873.137V819.773C909.391 819.418 909.442 819.057 909.534 818.717C909.569 818.595 909.635 818.488 909.675 818.372C909.757 818.158 909.828 817.939 909.939 817.742C910.015 817.61 910.127 817.503 910.214 817.381C910.335 817.219 910.437 817.051 910.579 816.909C910.697 816.792 910.843 816.706 910.975 816.604C911.128 816.482 911.26 816.35 911.423 816.254H911.428L960.228 788.16C960.845 787.804 961.546 787.616 962.259 787.616C962.972 787.616 963.672 787.804 964.29 788.16L1013.09 816.254C1013.26 816.355 1013.39 816.482 1013.54 816.598C1013.67 816.701 1013.82 816.792 1013.93 816.904C1014.08 817.051 1014.18 817.219 1014.3 817.381C1014.39 817.503 1014.5 817.61 1014.57 817.742C1014.69 817.939 1014.76 818.158 1014.84 818.372C1014.88 818.488 1014.95 818.595 1014.98 818.717ZM1006.99 873.138V826.81L989.911 836.64L966.321 850.223V896.55L1006.99 873.138H1006.99ZM958.192 956.943V910.583L934.987 923.837L868.725 961.655V1008.45L958.192 956.941V956.943ZM771.134 799.193V956.943L860.591 1008.44V961.66L813.858 935.211L813.843 935.201L813.823 935.191C813.666 935.099 813.533 934.967 813.386 934.856C813.258 934.754 813.111 934.673 813 934.561L812.99 934.546C812.858 934.419 812.766 934.261 812.655 934.119C812.553 933.981 812.432 933.865 812.35 933.723L812.345 933.708C812.253 933.556 812.197 933.373 812.131 933.2C812.065 933.048 811.979 932.905 811.938 932.744V932.739C811.888 932.546 811.878 932.342 811.857 932.144C811.838 931.992 811.796 931.839 811.796 931.687V822.607L788.21 809.018L771.134 799.199V799.193ZM815.868 768.758L775.211 792.161L815.858 815.563L856.508 792.155L815.858 768.758H815.868ZM837.01 914.809L860.596 901.232V799.193L843.521 809.024L819.929 822.606V924.644L837.01 914.809ZM962.259 796.375L921.608 819.777L962.259 843.18L1002.9 819.773L962.259 796.375ZM958.191 850.223L934.601 836.64L917.526 826.81V873.138L941.111 886.716L958.192 896.55V850.223H958.191ZM864.653 954.623L924.279 920.583L954.084 903.572L913.463 880.185L866.694 907.111L824.068 931.651L864.653 954.623Z" fill="#FF2D20"/>
</g>
<path d="M299 885C299 928.577 366.158 963.907 449 963.907C531.842 963.907 599 928.577 599 885C599 841.423 531.84 806.093 449 806.093C366.158 806.093 299 841.423 299 885Z" fill="url(#paint3_radial_12_17)"/>
<path d="M449 958.048C528.605 958.048 593.141 925.341 593.141 885C593.141 844.655 528.605 811.952 449 811.952C369.395 811.952 304.859 844.655 304.859 885C304.859 925.341 369.395 958.048 449 958.048Z" fill="#777BB3"/>
<path d="M380.497 894.056C387.043 894.056 391.927 892.849 395.019 890.47C398.08 888.113 400.192 884.032 401.3 878.341C402.331 873.021 401.938 869.309 400.128 867.302C398.281 865.254 394.285 864.216 388.252 864.216H377.79L371.994 894.056H380.497ZM346.281 930.813C346.041 930.813 345.804 930.76 345.587 930.657C345.37 930.554 345.178 930.405 345.026 930.219C344.873 930.034 344.764 929.817 344.705 929.584C344.647 929.351 344.641 929.108 344.687 928.873L360.055 849.799C360.127 849.43 360.326 849.097 360.617 848.857C360.907 848.617 361.272 848.485 361.649 848.484H394.775C405.186 848.484 412.935 851.311 417.807 856.887C422.701 862.488 424.215 870.326 422.3 880.172C421.52 884.182 420.179 887.906 418.316 891.244C416.376 894.677 413.901 897.778 410.985 900.431C407.396 903.788 403.335 906.225 398.921 907.657C394.581 909.073 389.002 909.79 382.351 909.79H368.935L365.106 929.496C365.033 929.867 364.834 930.201 364.543 930.441C364.251 930.682 363.885 930.813 363.507 930.813H346.281Z" fill="black"/>
<path d="M379.133 865.842H388.252C395.534 865.842 398.063 867.441 398.923 868.395C400.346 869.974 400.618 873.309 399.699 878.032C398.67 883.322 396.762 887.074 394.027 889.179C391.229 891.335 386.672 892.427 380.497 892.427H373.967L379.135 865.845L379.133 865.842ZM394.775 846.858H361.651C360.895 846.858 360.163 847.12 359.58 847.601C358.997 848.081 358.599 848.749 358.454 849.49L343.086 928.566C342.995 929.037 343.009 929.522 343.128 929.987C343.246 930.452 343.466 930.884 343.771 931.255C344.076 931.625 344.459 931.923 344.893 932.128C345.327 932.333 345.801 932.439 346.28 932.44H363.507C364.262 932.439 364.994 932.176 365.576 931.695C366.159 931.215 366.557 930.547 366.701 929.805L370.276 911.416H382.348C389.173 911.416 394.92 910.671 399.427 909.204C404.061 907.699 408.324 905.147 412.097 901.617C415.136 898.85 417.714 895.616 419.736 892.038C421.683 888.553 423.085 884.663 423.896 880.481C425.911 870.115 424.273 861.816 419.03 855.816C413.836 849.87 405.676 846.855 394.775 846.855V846.858ZM370.018 895.68H380.497C387.441 895.68 392.614 894.375 396.012 891.755C399.413 889.139 401.703 884.77 402.898 878.651C404.035 872.773 403.517 868.627 401.34 866.21C399.158 863.796 394.798 862.587 388.252 862.587H376.449L370.018 895.68ZM394.777 850.106C404.743 850.106 412.011 852.724 416.581 857.953C421.151 863.184 422.525 870.485 420.706 879.858C419.951 883.72 418.683 887.25 416.897 890.447C415.107 893.648 412.772 896.573 409.887 899.229C406.447 902.447 402.629 904.741 398.422 906.108C394.217 907.477 388.859 908.159 382.351 908.159H367.594L363.509 929.182H346.283L361.653 850.106H394.777Z" fill="white"/>
<path d="M461.794 909.79C461.554 909.79 461.317 909.737 461.1 909.635C460.882 909.533 460.69 909.383 460.537 909.198C460.385 909.013 460.275 908.796 460.216 908.563C460.157 908.33 460.15 908.087 460.196 907.852L466.993 872.864C467.642 869.536 467.483 867.15 466.547 866.137C465.973 865.521 464.253 864.488 459.165 864.488H446.846L438.301 908.475C438.227 908.845 438.027 909.179 437.735 909.418C437.443 909.658 437.077 909.788 436.7 909.787H419.614C419.374 909.788 419.137 909.735 418.92 909.633C418.702 909.53 418.51 909.382 418.357 909.197C418.205 909.012 418.094 908.795 418.035 908.563C417.975 908.33 417.968 908.087 418.013 907.852L433.383 828.776C433.456 828.405 433.655 828.072 433.947 827.832C434.239 827.592 434.604 827.461 434.982 827.461H452.068C452.308 827.461 452.545 827.514 452.762 827.616C452.979 827.718 453.171 827.867 453.324 828.052C453.477 828.237 453.587 828.453 453.647 828.686C453.706 828.918 453.714 829.161 453.669 829.397L449.961 848.484H463.21C473.305 848.484 480.148 850.261 484.135 853.924C488.197 857.658 489.467 863.627 487.904 871.673L480.753 908.475C480.68 908.845 480.48 909.178 480.189 909.417C479.897 909.657 479.532 909.788 479.154 909.787H461.794V909.79Z" fill="black"/>
<path d="M452.07 825.832H434.982C434.226 825.832 433.494 826.095 432.911 826.576C432.328 827.056 431.93 827.725 431.785 828.466L416.417 907.54C416.326 908.011 416.34 908.497 416.458 908.962C416.577 909.427 416.796 909.86 417.102 910.23C417.407 910.601 417.79 910.899 418.224 911.104C418.658 911.309 419.132 911.416 419.612 911.416H436.7C437.456 911.416 438.188 911.153 438.771 910.673C439.354 910.192 439.752 909.524 439.897 908.782L448.187 866.114H459.16C464.241 866.114 465.31 867.199 465.35 867.248C465.659 867.577 466.065 869.112 465.395 872.555L458.598 907.54C458.506 908.011 458.521 908.497 458.639 908.962C458.757 909.428 458.977 909.861 459.283 910.231C459.588 910.602 459.972 910.9 460.406 911.105C460.84 911.31 461.314 911.416 461.795 911.416H479.157C479.912 911.416 480.644 911.153 481.227 910.672C481.809 910.191 482.207 909.523 482.352 908.782L489.502 871.985C491.178 863.346 489.744 856.868 485.237 852.727C480.934 848.775 473.729 846.855 463.21 846.855H451.937L455.267 829.711C455.359 829.239 455.345 828.753 455.227 828.288C455.108 827.822 454.889 827.389 454.583 827.018C454.278 826.647 453.894 826.349 453.46 826.144C453.025 825.939 452.551 825.832 452.07 825.832ZM452.07 829.09L447.985 850.109H463.21C472.789 850.109 479.398 851.782 483.031 855.124C486.671 858.466 487.759 863.878 486.308 871.366L479.155 908.161H461.795L468.594 873.173C469.367 869.194 469.081 866.48 467.738 865.031C466.395 863.585 463.536 862.861 459.165 862.861H445.503L436.7 908.159H419.609L434.98 829.083H452.07V829.09Z" fill="white"/>
<path d="M514.944 894.056C521.49 894.056 526.377 892.849 529.47 890.47C532.527 888.113 534.641 884.032 535.749 878.341C536.781 873.021 536.389 869.309 534.577 867.302C532.731 865.254 528.735 864.216 522.702 864.216H512.242L506.441 894.056H514.944ZM480.735 930.813C480.494 930.814 480.257 930.761 480.039 930.658C479.821 930.556 479.629 930.406 479.477 930.221C479.324 930.035 479.214 929.818 479.155 929.585C479.096 929.352 479.09 929.109 479.136 928.873L494.504 849.799C494.577 849.429 494.776 849.095 495.068 848.855C495.359 848.615 495.725 848.484 496.102 848.484H529.227C539.638 848.484 547.386 851.311 552.256 856.887C557.152 862.488 558.664 870.326 556.749 880.172C556.018 884.05 554.673 887.788 552.767 891.244C550.827 894.676 548.352 897.778 545.436 900.431C541.85 903.788 537.784 906.225 533.373 907.657C529.032 909.073 523.454 909.79 516.8 909.79H503.387L499.56 929.496C499.487 929.867 499.288 930.202 498.996 930.442C498.704 930.683 498.337 930.814 497.959 930.813H480.735Z" fill="black"/>
<path d="M513.582 865.842H522.702C529.984 865.842 532.513 867.441 533.371 868.395C534.8 869.974 535.067 873.309 534.151 878.032C533.12 883.322 531.212 887.074 528.477 889.179C525.676 891.335 521.12 892.427 514.946 892.427H508.417L513.582 865.842ZM529.224 846.858H496.1C495.345 846.858 494.614 847.121 494.031 847.601C493.449 848.081 493.051 848.749 492.906 849.49L477.535 928.566C477.445 929.037 477.459 929.522 477.578 929.987C477.696 930.452 477.916 930.885 478.222 931.256C478.527 931.626 478.91 931.924 479.344 932.128C479.778 932.333 480.252 932.44 480.732 932.44H497.959C498.714 932.439 499.446 932.176 500.028 931.695C500.611 931.215 501.009 930.547 501.153 929.805L504.728 911.416H516.798C523.621 911.416 529.37 910.671 533.874 909.204C538.51 907.699 542.774 905.147 546.549 901.615C549.587 898.848 552.164 895.615 554.185 892.038C556.135 888.553 557.532 884.663 558.346 880.481C560.361 870.115 558.725 861.816 553.48 855.816C548.286 849.87 540.128 846.855 529.222 846.855L529.224 846.858ZM504.467 895.68H514.944C521.891 895.68 527.061 894.375 530.464 891.755C533.863 889.139 536.155 884.77 537.346 878.651C538.487 872.773 537.969 868.627 535.787 866.21C533.607 863.796 529.246 862.587 522.702 862.587H510.901L504.467 895.68ZM529.224 850.106C539.188 850.106 546.46 852.724 551.028 857.953C555.599 863.184 556.974 870.485 555.151 879.858C554.401 883.72 553.131 887.25 551.345 890.447C549.557 893.648 547.22 896.573 544.332 899.229C540.894 902.447 537.074 904.741 532.867 906.108C528.664 907.477 523.309 908.159 516.798 908.159H502.044L497.954 929.182H480.728L496.098 850.106H529.224Z" fill="white"/>
</g>
<defs>
<filter id="filter0_f_12_17" x="-618.979" y="-735.983" width="1480.68" height="1343.84" filterUnits="userSpaceOnUse" color-interpolation-filters="sRGB">
<feFlood flood-opacity="0" result="BackgroundImageFix"/>
<feBlend mode="normal" in="SourceGraphic" in2="BackgroundImageFix" result="shape"/>
<feGaussianBlur stdDeviation="100" result="effect1_foregroundBlur_12_17"/>
</filter>
<filter id="filter1_f_12_17" x="-612" y="334" width="1772" height="1772" filterUnits="userSpaceOnUse" color-interpolation-filters="sRGB">
<feFlood flood-opacity="0" result="BackgroundImageFix"/>
<feBlend mode="normal" in="SourceGraphic" in2="BackgroundImageFix" result="shape"/>
<feGaussianBlur stdDeviation="100" result="effect1_foregroundBlur_12_17"/>
</filter>
<filter id="filter2_f_12_17" x="661" y="262" width="1747" height="1747" filterUnits="userSpaceOnUse" color-interpolation-filters="sRGB">
<feFlood flood-opacity="0" result="BackgroundImageFix"/>
<feBlend mode="normal" in="SourceGraphic" in2="BackgroundImageFix" result="shape"/>
<feGaussianBlur stdDeviation="100" result="effect1_foregroundBlur_12_17"/>
</filter>
<filter id="filter3_b_12_17" x="112" y="107" width="1700" height="1067" filterUnits="userSpaceOnUse" color-interpolation-filters="sRGB">
<feFlood flood-opacity="0" result="BackgroundImageFix"/>
<feGaussianBlur in="BackgroundImageFix" stdDeviation="6"/>
<feComposite in2="SourceAlpha" operator="in" result="effect1_backgroundBlur_12_17"/>
<feBlend mode="normal" in="SourceGraphic" in2="effect1_backgroundBlur_12_17" result="shape"/>
</filter>
<linearGradient id="paint0_linear_12_17" x1="960" y1="0" x2="960" y2="1280" gradientUnits="userSpaceOnUse">
<stop stop-color="#787CB5"/>
<stop offset="1" stop-color="#B0B3D6"/>
</linearGradient>
<radialGradient id="paint1_radial_12_17" cx="0" cy="0" r="1" gradientUnits="userSpaceOnUse" gradientTransform="translate(215.5 206) rotate(30.698) scale(1774.69 2851.75)">
<stop stop-color="white" stop-opacity="0.7"/>
<stop offset="1" stop-color="white" stop-opacity="0.1"/>
</radialGradient>
<linearGradient id="paint2_linear_12_17" x1="475.39" y1="1327.85" x2="682.637" y2="337.796" gradientUnits="userSpaceOnUse">
<stop stop-color="white" stop-opacity="0.22"/>
<stop offset="1" stop-color="white" stop-opacity="0"/>
</linearGradient>
<radialGradient id="paint3_radial_12_17" cx="0" cy="0" r="1" gradientUnits="userSpaceOnUse" gradientTransform="translate(389.061 833.834) scale(196.972 196.972)">
<stop stop-color="#AEB2D5"/>
<stop offset="0.3" stop-color="#AEB2D5"/>
<stop offset="0.75" stop-color="#484C89"/>
<stop offset="1" stop-color="#484C89"/>
</radialGradient>
<clipPath id="clip0_12_17">
<rect width="1920" height="1280" fill="white"/>
</clipPath>
<clipPath id="clip1_12_17">
<rect width="138" height="115" fill="white" transform="translate(194 215)"/>
</clipPath>
<clipPath id="clip2_12_17">
<rect width="200" height="200" fill="white" transform="translate(1479 664)"/>
</clipPath>
<clipPath id="clip3_12_17">
<rect width="252.122" height="260" fill="white" transform="translate(763 760)"/>
</clipPath>
</defs>
</svg>
