<svg width="1920" height="1280" viewBox="0 0 1920 1280" fill="none" xmlns="http://www.w3.org/2000/svg">
<g clip-path="url(#clip0_31_32)">
<rect width="1920" height="1280" fill="url(#paint0_linear_31_32)"/>
<g filter="url(#filter0_f_31_32)">
<path d="M-418.98 391.97L135.124 -535.983L661.703 407.861L-418.98 391.97Z" fill="#232443"/>
</g>
<g filter="url(#filter1_f_31_32)">
<circle cx="274" cy="1220" r="686" fill="#3381BB"/>
<circle cx="274" cy="1220" r="686" fill="#3381BB"/>
<circle cx="274" cy="1220" r="686" fill="#232443"/>
</g>
<g filter="url(#filter2_f_31_32)">
<circle cx="1534.5" cy="1135.5" r="673.5" fill="#3381BB"/>
<circle cx="1534.5" cy="1135.5" r="673.5" fill="#3381BB"/>
<circle cx="1534.5" cy="1135.5" r="673.5" fill="#196437"/>
</g>
<g filter="url(#filter3_b_31_32)">
<rect x="121" y="118" width="1676" height="1043" rx="100" fill="url(#paint1_radial_31_32)" fill-opacity="0.6"/>
<rect x="121.5" y="118.5" width="1675" height="1042" rx="99.5" stroke="white" stroke-opacity="0.5" style="mix-blend-mode:overlay"/>
</g>
<line x1="1450.41" y1="782.268" x2="1498.05" y2="739.165" stroke="#D9D9D9" stroke-width="2" stroke-dasharray="2 2"/>
<line x1="1343.77" y1="779.203" x2="1297.65" y2="736.1" stroke="#D9D9D9" stroke-width="2" stroke-dasharray="2 2"/>
<path d="M1224.23 261.683L814.859 1104.68C798.131 1139.13 763.199 1161 724.905 1161H220C164.772 1161 120 1116.23 120 1061V218C120 162.772 164.771 118 220 118H1134.27C1208.1 118 1256.48 195.267 1224.23 261.683Z" fill="url(#paint2_linear_31_32)"/>
<path d="M399.753 455V420H409.453L423.453 442.85H418.353L431.953 420H441.653L441.753 455H431.003L430.903 436.2H432.603L423.303 451.85H418.103L408.403 436.2H410.503V455H399.753ZM465.808 455.8C462.975 455.8 460.342 455.35 457.908 454.45C455.508 453.55 453.425 452.283 451.658 450.65C449.892 448.983 448.508 447.033 447.508 444.8C446.542 442.567 446.058 440.133 446.058 437.5C446.058 434.833 446.542 432.4 447.508 430.2C448.508 427.967 449.892 426.033 451.658 424.4C453.425 422.733 455.508 421.45 457.908 420.55C460.342 419.65 462.975 419.2 465.808 419.2C468.675 419.2 471.308 419.65 473.708 420.55C476.108 421.45 478.192 422.733 479.958 424.4C481.725 426.033 483.092 427.967 484.058 430.2C485.058 432.4 485.558 434.833 485.558 437.5C485.558 440.133 485.058 442.567 484.058 444.8C483.092 447.033 481.725 448.983 479.958 450.65C478.192 452.283 476.108 453.55 473.708 454.45C471.308 455.35 468.675 455.8 465.808 455.8ZM465.808 446.25C466.908 446.25 467.925 446.05 468.858 445.65C469.825 445.25 470.658 444.683 471.358 443.95C472.092 443.183 472.658 442.267 473.058 441.2C473.458 440.1 473.658 438.867 473.658 437.5C473.658 436.133 473.458 434.917 473.058 433.85C472.658 432.75 472.092 431.833 471.358 431.1C470.658 430.333 469.825 429.75 468.858 429.35C467.925 428.95 466.908 428.75 465.808 428.75C464.708 428.75 463.675 428.95 462.708 429.35C461.775 429.75 460.942 430.333 460.208 431.1C459.508 431.833 458.958 432.75 458.558 433.85C458.158 434.917 457.958 436.133 457.958 437.5C457.958 438.867 458.158 440.1 458.558 441.2C458.958 442.267 459.508 443.183 460.208 443.95C460.942 444.683 461.775 445.25 462.708 445.65C463.675 446.05 464.708 446.25 465.808 446.25ZM489.841 455V420H499.541L517.341 441.3H512.841V420H524.341V455H514.641L496.841 433.7H501.341V455H489.841ZM548.377 455.8C545.543 455.8 542.91 455.35 540.477 454.45C538.077 453.55 535.993 452.283 534.227 450.65C532.46 448.983 531.077 447.033 530.077 444.8C529.11 442.567 528.627 440.133 528.627 437.5C528.627 434.833 529.11 432.4 530.077 430.2C531.077 427.967 532.46 426.033 534.227 424.4C535.993 422.733 538.077 421.45 540.477 420.55C542.91 419.65 545.543 419.2 548.377 419.2C551.243 419.2 553.877 419.65 556.277 420.55C558.677 421.45 560.76 422.733 562.527 424.4C564.293 426.033 565.66 427.967 566.627 430.2C567.627 432.4 568.127 434.833 568.127 437.5C568.127 440.133 567.627 442.567 566.627 444.8C565.66 447.033 564.293 448.983 562.527 450.65C560.76 452.283 558.677 453.55 556.277 454.45C553.877 455.35 551.243 455.8 548.377 455.8ZM548.377 446.25C549.477 446.25 550.493 446.05 551.427 445.65C552.393 445.25 553.227 444.683 553.927 443.95C554.66 443.183 555.227 442.267 555.627 441.2C556.027 440.1 556.227 438.867 556.227 437.5C556.227 436.133 556.027 434.917 555.627 433.85C555.227 432.75 554.66 431.833 553.927 431.1C553.227 430.333 552.393 429.75 551.427 429.35C550.493 428.95 549.477 428.75 548.377 428.75C547.277 428.75 546.243 428.95 545.277 429.35C544.343 429.75 543.51 430.333 542.777 431.1C542.077 431.833 541.527 432.75 541.127 433.85C540.727 434.917 540.527 436.133 540.527 437.5C540.527 438.867 540.727 440.1 541.127 441.2C541.527 442.267 542.077 443.183 542.777 443.95C543.51 444.683 544.343 445.25 545.277 445.65C546.243 446.05 547.277 446.25 548.377 446.25ZM572.41 455V420H584.21V445.85H600.01V455H572.41ZM603.269 455V420H615.069V455H603.269ZM603.919 417.15L610.519 409.15H621.269L611.419 417.15H603.919ZM628.349 455V429.15H618.099V420H650.399V429.15H640.149V455H628.349ZM653.464 455V420H665.264V455H653.464ZM689.045 455.8C686.245 455.8 683.645 455.367 681.245 454.5C678.878 453.6 676.811 452.333 675.045 450.7C673.311 449.067 671.961 447.133 670.995 444.9C670.028 442.667 669.545 440.2 669.545 437.5C669.545 434.8 670.028 432.333 670.995 430.1C671.961 427.867 673.311 425.933 675.045 424.3C676.811 422.667 678.878 421.417 681.245 420.55C683.645 419.65 686.245 419.2 689.045 419.2C692.478 419.2 695.511 419.8 698.145 421C700.811 422.2 703.011 423.933 704.745 426.2L697.295 432.85C696.261 431.55 695.111 430.55 693.845 429.85C692.611 429.117 691.211 428.75 689.645 428.75C688.411 428.75 687.295 428.95 686.295 429.35C685.295 429.75 684.428 430.333 683.695 431.1C682.995 431.867 682.445 432.8 682.045 433.9C681.645 434.967 681.445 436.167 681.445 437.5C681.445 438.833 681.645 440.05 682.045 441.15C682.445 442.217 682.995 443.133 683.695 443.9C684.428 444.667 685.295 445.25 686.295 445.65C687.295 446.05 688.411 446.25 689.645 446.25C691.211 446.25 692.611 445.9 693.845 445.2C695.111 444.467 696.261 443.45 697.295 442.15L704.745 448.8C703.011 451.033 700.811 452.767 698.145 454C695.511 455.2 692.478 455.8 689.045 455.8ZM703.863 455L719.163 420H730.763L746.063 455H733.863L722.563 425.6H727.163L715.863 455H703.863ZM712.963 448.9L715.963 440.4H732.063L735.063 448.9H712.963Z" fill="#2AAF6F"/>
<path d="M940.764 724L925.164 654H949.364L961.964 713.3H946.564L983.364 654H1007.56L963.964 724H940.764ZM1023.71 725.6C1019.58 725.6 1015.61 725.3 1011.81 724.7C1008.01 724.1 1004.55 723.267 1001.41 722.2C998.346 721.067 995.68 719.833 993.413 718.5L1002.51 701.1C1005.11 702.567 1007.71 703.8 1010.31 704.8C1012.98 705.733 1015.61 706.433 1018.21 706.9C1020.88 707.367 1023.51 707.6 1026.11 707.6C1028.18 707.6 1029.88 707.433 1031.21 707.1C1032.61 706.767 1033.65 706.3 1034.31 705.7C1035.05 705.033 1035.41 704.3 1035.41 703.5C1035.41 702.433 1034.81 701.567 1033.61 700.9C1032.41 700.233 1030.81 699.633 1028.81 699.1C1026.88 698.567 1024.71 698.033 1022.31 697.5C1019.98 696.9 1017.61 696.167 1015.21 695.3C1012.81 694.367 1010.61 693.2 1008.61 691.8C1006.68 690.4 1005.11 688.633 1003.91 686.5C1002.71 684.367 1002.11 681.767 1002.11 678.7C1002.11 673.367 1003.51 668.733 1006.31 664.8C1009.18 660.867 1013.25 657.833 1018.51 655.7C1023.85 653.5 1030.18 652.4 1037.51 652.4C1042.71 652.4 1047.55 652.933 1052.01 654C1056.55 655 1060.45 656.467 1063.71 658.4L1055.21 675.6C1052.41 673.867 1049.35 672.567 1046.01 671.7C1042.75 670.833 1039.41 670.4 1036.01 670.4C1033.75 670.4 1031.85 670.633 1030.31 671.1C1028.78 671.5 1027.61 672.067 1026.81 672.8C1026.08 673.533 1025.71 674.3 1025.71 675.1C1025.71 676.167 1026.31 677.067 1027.51 677.8C1028.71 678.467 1030.31 679.067 1032.31 679.6C1034.31 680.067 1036.48 680.6 1038.81 681.2C1041.21 681.733 1043.58 682.433 1045.91 683.3C1048.31 684.1 1050.51 685.2 1052.51 686.6C1054.51 687.933 1056.11 689.667 1057.31 691.8C1058.51 693.867 1059.11 696.433 1059.11 699.5C1059.11 704.7 1057.68 709.267 1054.81 713.2C1051.95 717.067 1047.85 720.1 1042.51 722.3C1037.25 724.5 1030.98 725.6 1023.71 725.6Z" fill="#FF2D20"/>
<path d="M1161.96 461V426H1171.66L1185.66 448.85H1180.56L1194.16 426H1203.86L1203.96 461H1193.21L1193.11 442.2H1194.81L1185.51 457.85H1180.31L1170.61 442.2H1172.71V461H1161.96ZM1209.67 461V426H1221.47V461H1209.67ZM1245.25 461.8C1242.45 461.8 1239.85 461.367 1237.45 460.5C1235.08 459.6 1233.01 458.333 1231.25 456.7C1229.51 455.067 1228.16 453.133 1227.2 450.9C1226.23 448.667 1225.75 446.2 1225.75 443.5C1225.75 440.8 1226.23 438.333 1227.2 436.1C1228.16 433.867 1229.51 431.933 1231.25 430.3C1233.01 428.667 1235.08 427.417 1237.45 426.55C1239.85 425.65 1242.45 425.2 1245.25 425.2C1248.68 425.2 1251.71 425.8 1254.35 427C1257.01 428.2 1259.21 429.933 1260.95 432.2L1253.5 438.85C1252.46 437.55 1251.31 436.55 1250.05 435.85C1248.81 435.117 1247.41 434.75 1245.85 434.75C1244.61 434.75 1243.5 434.95 1242.5 435.35C1241.5 435.75 1240.63 436.333 1239.9 437.1C1239.2 437.867 1238.65 438.8 1238.25 439.9C1237.85 440.967 1237.65 442.167 1237.65 443.5C1237.65 444.833 1237.85 446.05 1238.25 447.15C1238.65 448.217 1239.2 449.133 1239.9 449.9C1240.63 450.667 1241.5 451.25 1242.5 451.65C1243.5 452.05 1244.61 452.25 1245.85 452.25C1247.41 452.25 1248.81 451.9 1250.05 451.2C1251.31 450.467 1252.46 449.45 1253.5 448.15L1260.95 454.8C1259.21 457.033 1257.01 458.767 1254.35 460C1251.71 461.2 1248.68 461.8 1245.25 461.8ZM1264.35 461V426H1281.2C1284.47 426 1287.29 426.533 1289.65 427.6C1292.05 428.667 1293.9 430.2 1295.2 432.2C1296.5 434.167 1297.15 436.5 1297.15 439.2C1297.15 441.9 1296.5 444.233 1295.2 446.2C1293.9 448.133 1292.05 449.617 1289.65 450.65C1287.29 451.683 1284.47 452.2 1281.2 452.2H1270.9L1276.15 447.35V461H1264.35ZM1285.3 461L1276.7 448.25H1289.2L1297.9 461H1285.3ZM1276.15 448.65L1270.9 443.3H1280.45C1282.09 443.3 1283.29 442.933 1284.05 442.2C1284.85 441.467 1285.25 440.467 1285.25 439.2C1285.25 437.933 1284.85 436.933 1284.05 436.2C1283.29 435.467 1282.09 435.1 1280.45 435.1H1270.9L1276.15 429.75V448.65ZM1319.96 461.8C1317.13 461.8 1314.49 461.35 1312.06 460.45C1309.66 459.55 1307.58 458.283 1305.81 456.65C1304.04 454.983 1302.66 453.033 1301.66 450.8C1300.69 448.567 1300.21 446.133 1300.21 443.5C1300.21 440.833 1300.69 438.4 1301.66 436.2C1302.66 433.967 1304.04 432.033 1305.81 430.4C1307.58 428.733 1309.66 427.45 1312.06 426.55C1314.49 425.65 1317.13 425.2 1319.96 425.2C1322.83 425.2 1325.46 425.65 1327.86 426.55C1330.26 427.45 1332.34 428.733 1334.11 430.4C1335.88 432.033 1337.24 433.967 1338.21 436.2C1339.21 438.4 1339.71 440.833 1339.71 443.5C1339.71 446.133 1339.21 448.567 1338.21 450.8C1337.24 453.033 1335.88 454.983 1334.11 456.65C1332.34 458.283 1330.26 459.55 1327.86 460.45C1325.46 461.35 1322.83 461.8 1319.96 461.8ZM1319.96 452.25C1321.06 452.25 1322.08 452.05 1323.01 451.65C1323.98 451.25 1324.81 450.683 1325.51 449.95C1326.24 449.183 1326.81 448.267 1327.21 447.2C1327.61 446.1 1327.81 444.867 1327.81 443.5C1327.81 442.133 1327.61 440.917 1327.21 439.85C1326.81 438.75 1326.24 437.833 1325.51 437.1C1324.81 436.333 1323.98 435.75 1323.01 435.35C1322.08 434.95 1321.06 434.75 1319.96 434.75C1318.86 434.75 1317.83 434.95 1316.86 435.35C1315.93 435.75 1315.09 436.333 1314.36 437.1C1313.66 437.833 1313.11 438.75 1312.71 439.85C1312.31 440.917 1312.11 442.133 1312.11 443.5C1312.11 444.867 1312.31 446.1 1312.71 447.2C1313.11 448.267 1313.66 449.183 1314.36 449.95C1315.09 450.683 1315.93 451.25 1316.86 451.65C1317.83 452.05 1318.86 452.25 1319.96 452.25ZM1357.04 461.8C1354.11 461.8 1351.28 461.467 1348.54 460.8C1345.81 460.133 1343.56 459.267 1341.79 458.2L1345.59 449.6C1347.26 450.567 1349.11 451.35 1351.14 451.95C1353.21 452.517 1355.21 452.8 1357.14 452.8C1358.28 452.8 1359.16 452.733 1359.79 452.6C1360.46 452.433 1360.94 452.217 1361.24 451.95C1361.54 451.65 1361.69 451.3 1361.69 450.9C1361.69 450.267 1361.34 449.767 1360.64 449.4C1359.94 449.033 1359.01 448.733 1357.84 448.5C1356.71 448.233 1355.46 447.967 1354.09 447.7C1352.73 447.4 1351.34 447.017 1349.94 446.55C1348.58 446.083 1347.31 445.467 1346.14 444.7C1345.01 443.933 1344.09 442.933 1343.39 441.7C1342.69 440.433 1342.34 438.867 1342.34 437C1342.34 434.833 1342.94 432.867 1344.14 431.1C1345.38 429.3 1347.19 427.867 1349.59 426.8C1352.03 425.733 1355.04 425.2 1358.64 425.2C1361.01 425.2 1363.34 425.45 1365.64 425.95C1367.94 426.45 1370.01 427.217 1371.84 428.25L1368.29 436.8C1366.56 435.933 1364.88 435.283 1363.24 434.85C1361.64 434.417 1360.08 434.2 1358.54 434.2C1357.41 434.2 1356.51 434.3 1355.84 434.5C1355.18 434.7 1354.69 434.967 1354.39 435.3C1354.13 435.633 1353.99 436 1353.99 436.4C1353.99 437 1354.34 437.483 1355.04 437.85C1355.74 438.183 1356.66 438.467 1357.79 438.7C1358.96 438.933 1360.23 439.183 1361.59 439.45C1362.99 439.717 1364.38 440.083 1365.74 440.55C1367.11 441.017 1368.36 441.633 1369.49 442.4C1370.66 443.167 1371.59 444.167 1372.29 445.4C1372.99 446.633 1373.34 448.167 1373.34 450C1373.34 452.133 1372.73 454.1 1371.49 455.9C1370.29 457.667 1368.49 459.1 1366.09 460.2C1363.69 461.267 1360.68 461.8 1357.04 461.8ZM1387.65 439H1403.25V447.5H1387.65V439ZM1388.45 452.1H1405.95V461H1376.85V426H1405.3V434.9H1388.45V452.1ZM1410.5 461V426H1427.35C1430.61 426 1433.43 426.533 1435.8 427.6C1438.2 428.667 1440.05 430.2 1441.35 432.2C1442.65 434.167 1443.3 436.5 1443.3 439.2C1443.3 441.9 1442.65 444.233 1441.35 446.2C1440.05 448.133 1438.2 449.617 1435.8 450.65C1433.43 451.683 1430.61 452.2 1427.35 452.2H1417.05L1422.3 447.35V461H1410.5ZM1431.45 461L1422.85 448.25H1435.35L1444.05 461H1431.45ZM1422.3 448.65L1417.05 443.3H1426.6C1428.23 443.3 1429.43 442.933 1430.2 442.2C1431 441.467 1431.4 440.467 1431.4 439.2C1431.4 437.933 1431 436.933 1430.2 436.2C1429.43 435.467 1428.23 435.1 1426.6 435.1H1417.05L1422.3 429.75V448.65ZM1458.75 461L1443.95 426H1456.65L1468.7 455.55H1461.15L1473.55 426H1485.15L1470.35 461H1458.75ZM1486.33 461V426H1498.13V461H1486.33ZM1521.91 461.8C1519.11 461.8 1516.51 461.367 1514.11 460.5C1511.74 459.6 1509.67 458.333 1507.91 456.7C1506.17 455.067 1504.82 453.133 1503.86 450.9C1502.89 448.667 1502.41 446.2 1502.41 443.5C1502.41 440.8 1502.89 438.333 1503.86 436.1C1504.82 433.867 1506.17 431.933 1507.91 430.3C1509.67 428.667 1511.74 427.417 1514.11 426.55C1516.51 425.65 1519.11 425.2 1521.91 425.2C1525.34 425.2 1528.37 425.8 1531.01 427C1533.67 428.2 1535.87 429.933 1537.61 432.2L1530.16 438.85C1529.12 437.55 1527.97 436.55 1526.71 435.85C1525.47 435.117 1524.07 434.75 1522.51 434.75C1521.27 434.75 1520.16 434.95 1519.16 435.35C1518.16 435.75 1517.29 436.333 1516.56 437.1C1515.86 437.867 1515.31 438.8 1514.91 439.9C1514.51 440.967 1514.31 442.167 1514.31 443.5C1514.31 444.833 1514.51 446.05 1514.91 447.15C1515.31 448.217 1515.86 449.133 1516.56 449.9C1517.29 450.667 1518.16 451.25 1519.16 451.65C1520.16 452.05 1521.27 452.25 1522.51 452.25C1524.07 452.25 1525.47 451.9 1526.71 451.2C1527.97 450.467 1529.12 449.45 1530.16 448.15L1537.61 454.8C1535.87 457.033 1533.67 458.767 1531.01 460C1528.37 461.2 1525.34 461.8 1521.91 461.8ZM1541.01 461V426H1552.81V461H1541.01ZM1576.84 461.8C1574.01 461.8 1571.38 461.35 1568.94 460.45C1566.54 459.55 1564.46 458.283 1562.69 456.65C1560.93 454.983 1559.54 453.033 1558.54 450.8C1557.58 448.567 1557.09 446.133 1557.09 443.5C1557.09 440.833 1557.58 438.4 1558.54 436.2C1559.54 433.967 1560.93 432.033 1562.69 430.4C1564.46 428.733 1566.54 427.45 1568.94 426.55C1571.38 425.65 1574.01 425.2 1576.84 425.2C1579.71 425.2 1582.34 425.65 1584.74 426.55C1587.14 427.45 1589.23 428.733 1590.99 430.4C1592.76 432.033 1594.13 433.967 1595.09 436.2C1596.09 438.4 1596.59 440.833 1596.59 443.5C1596.59 446.133 1596.09 448.567 1595.09 450.8C1594.13 453.033 1592.76 454.983 1590.99 456.65C1589.23 458.283 1587.14 459.55 1584.74 460.45C1582.34 461.35 1579.71 461.8 1576.84 461.8ZM1576.84 452.25C1577.94 452.25 1578.96 452.05 1579.89 451.65C1580.86 451.25 1581.69 450.683 1582.39 449.95C1583.13 449.183 1583.69 448.267 1584.09 447.2C1584.49 446.1 1584.69 444.867 1584.69 443.5C1584.69 442.133 1584.49 440.917 1584.09 439.85C1583.69 438.75 1583.13 437.833 1582.39 437.1C1581.69 436.333 1580.86 435.75 1579.89 435.35C1578.96 434.95 1577.94 434.75 1576.84 434.75C1575.74 434.75 1574.71 434.95 1573.74 435.35C1572.81 435.75 1571.98 436.333 1571.24 437.1C1570.54 437.833 1569.99 438.75 1569.59 439.85C1569.19 440.917 1568.99 442.133 1568.99 443.5C1568.99 444.867 1569.19 446.1 1569.59 447.2C1569.99 448.267 1570.54 449.183 1571.24 449.95C1571.98 450.683 1572.81 451.25 1573.74 451.65C1574.71 452.05 1575.74 452.25 1576.84 452.25ZM1613.93 461.8C1610.99 461.8 1608.16 461.467 1605.43 460.8C1602.69 460.133 1600.44 459.267 1598.68 458.2L1602.48 449.6C1604.14 450.567 1605.99 451.35 1608.03 451.95C1610.09 452.517 1612.09 452.8 1614.03 452.8C1615.16 452.8 1616.04 452.733 1616.68 452.6C1617.34 452.433 1617.83 452.217 1618.13 451.95C1618.43 451.65 1618.58 451.3 1618.58 450.9C1618.58 450.267 1618.23 449.767 1617.53 449.4C1616.83 449.033 1615.89 448.733 1614.73 448.5C1613.59 448.233 1612.34 447.967 1610.98 447.7C1609.61 447.4 1608.23 447.017 1606.83 446.55C1605.46 446.083 1604.19 445.467 1603.03 444.7C1601.89 443.933 1600.98 442.933 1600.28 441.7C1599.58 440.433 1599.23 438.867 1599.23 437C1599.23 434.833 1599.83 432.867 1601.03 431.1C1602.26 429.3 1604.08 427.867 1606.48 426.8C1608.91 425.733 1611.93 425.2 1615.53 425.2C1617.89 425.2 1620.23 425.45 1622.53 425.95C1624.83 426.45 1626.89 427.217 1628.73 428.25L1625.18 436.8C1623.44 435.933 1621.76 435.283 1620.13 434.85C1618.53 434.417 1616.96 434.2 1615.43 434.2C1614.29 434.2 1613.39 434.3 1612.73 434.5C1612.06 434.7 1611.58 434.967 1611.28 435.3C1611.01 435.633 1610.88 436 1610.88 436.4C1610.88 437 1611.23 437.483 1611.93 437.85C1612.63 438.183 1613.54 438.467 1614.68 438.7C1615.84 438.933 1617.11 439.183 1618.48 439.45C1619.88 439.717 1621.26 440.083 1622.63 440.55C1623.99 441.017 1625.24 441.633 1626.38 442.4C1627.54 443.167 1628.48 444.167 1629.18 445.4C1629.88 446.633 1630.23 448.167 1630.23 450C1630.23 452.133 1629.61 454.1 1628.38 455.9C1627.18 457.667 1625.38 459.1 1622.98 460.2C1620.58 461.267 1617.56 461.8 1613.93 461.8Z" fill="white"/>
<g clip-path="url(#clip1_31_32)">
<mask id="mask0_31_32" style="mask-type:luminance" maskUnits="userSpaceOnUse" x="194" y="215" width="138" height="115">
<path d="M332 215H194V330H332V215Z" fill="white"/>
</mask>
<g mask="url(#mask0_31_32)">
<path d="M331.844 324.93C328.854 313.256 322.377 302.7 313.054 294.222C313.094 294.093 313.122 293.956 313.162 293.82C313.21 293.65 313.258 293.473 313.298 293.295C313.387 292.941 313.461 292.58 313.529 292.219C313.563 292.055 313.59 291.892 313.618 291.721C313.686 291.299 313.74 290.869 313.781 290.433C313.794 290.324 313.808 290.208 313.815 290.099C313.862 289.534 313.89 288.961 313.89 288.382C313.89 287.734 313.862 287.067 313.822 286.385C313.203 274.364 307.162 257.613 298.062 242.954C292.85 234.552 278.994 215 263.003 215C262.902 215 262.8 215.014 262.698 215.014C246.83 215.252 233.109 234.606 227.924 242.954C218.818 257.627 212.77 274.398 212.165 286.419C212.124 287.087 212.104 287.741 212.104 288.375C212.104 288.954 212.131 289.513 212.172 290.072C212.185 290.222 212.206 290.372 212.219 290.522C212.26 290.91 212.301 291.299 212.362 291.68C212.396 291.885 212.43 292.082 212.471 292.28C212.532 292.607 212.6 292.927 212.681 293.248C212.729 293.452 212.783 293.65 212.838 293.854C212.872 293.977 212.899 294.1 212.933 294.222C203.609 302.707 197.14 313.276 194.143 324.964C194.116 325.059 194.102 325.155 194.082 325.243C194.082 325.277 194.068 325.305 194.061 325.332C194.061 325.345 194.061 325.359 194.061 325.366C194.048 325.455 194.034 325.55 194.027 325.639C194.027 325.659 194.027 325.686 194.02 325.707C194.02 325.734 194.02 325.768 194.02 325.795C194.02 325.87 194.007 325.938 194.007 326.013C194.007 326.79 194.231 327.513 194.618 328.126C194.686 328.235 194.761 328.344 194.843 328.439C195.366 329.114 196.1 329.612 196.949 329.836C196.963 329.836 196.983 329.85 196.997 329.857C197.011 329.857 197.024 329.857 197.038 329.857C197.153 329.884 197.269 329.905 197.391 329.925C197.391 329.925 197.398 329.925 197.405 329.925C197.445 329.932 197.493 329.939 197.534 329.945C197.534 329.945 197.541 329.945 197.547 329.945C197.683 329.959 197.819 329.966 197.955 329.966C197.962 329.966 197.976 329.966 197.982 329.966H328.031C328.364 329.966 328.684 329.918 328.99 329.843C328.99 329.843 329.003 329.843 329.01 329.843C329.017 329.843 329.023 329.843 329.03 329.836C330.736 329.393 332 327.84 332 325.986C332 325.611 331.946 325.243 331.844 324.896V324.93ZM235.868 247.227C245.443 232.487 256.092 222.96 263.003 222.96C263.044 222.96 263.078 222.96 263.119 222.96C270.03 223.069 280.611 232.569 290.132 247.227C299.598 261.804 305.959 278.344 305.959 288.382C305.959 290.365 305.585 292.035 304.81 293.507C304.743 293.622 304.627 293.738 304.477 293.854C304.477 293.854 304.477 293.854 304.471 293.854C304.403 293.902 304.328 293.956 304.246 294.004C304.233 294.018 304.212 294.025 304.199 294.038C304.131 294.079 304.056 294.12 303.981 294.161C303.934 294.188 303.893 294.209 303.839 294.236C303.39 294.461 302.833 294.686 302.228 294.904C302.378 293.902 302.466 292.886 302.486 291.857C302.5 291.701 302.5 291.537 302.5 291.38C302.5 274.691 284.858 266.091 263.105 266.091C241.352 266.091 223.711 274.691 223.711 291.38C223.711 291.537 223.711 291.701 223.724 291.857C223.745 292.907 223.833 293.95 223.989 294.965C223.344 294.74 222.739 294.508 222.25 294.27C222.223 294.256 222.189 294.243 222.161 294.222C222.093 294.188 222.025 294.154 221.964 294.113C221.89 294.072 221.815 294.031 221.754 293.984C221.72 293.963 221.679 293.936 221.645 293.916C221.57 293.861 221.502 293.813 221.441 293.759C221.421 293.745 221.4 293.725 221.387 293.711C221.312 293.643 221.258 293.575 221.217 293.507C220.442 292.035 220.068 290.358 220.068 288.375C220.068 278.344 226.429 261.804 235.895 247.22L235.868 247.227ZM271.845 282.146C270.669 282.146 269.711 281.192 269.711 280.007C269.711 278.821 270.669 277.867 271.845 277.867H278.457C279.632 277.867 280.591 278.828 280.591 280.007V296.158C280.591 297.343 279.632 298.298 278.457 298.298H271.845C270.669 298.298 269.711 297.343 269.711 296.158C269.711 294.972 270.669 294.018 271.845 294.018H276.316V282.153H271.845V282.146ZM268.807 276.729L261.271 300.724C260.985 301.644 260.142 302.223 259.232 302.223C259.021 302.223 258.804 302.196 258.593 302.127C257.472 301.773 256.84 300.567 257.2 299.442L264.73 275.447C265.083 274.316 266.286 273.689 267.407 274.044C268.535 274.398 269.16 275.604 268.807 276.729ZM254.155 294.011C255.338 294.011 256.289 294.972 256.289 296.151C256.289 297.33 255.338 298.291 254.155 298.291H247.55C246.368 298.291 245.416 297.337 245.416 296.151V280C245.416 278.821 246.368 277.86 247.55 277.86H254.155C255.338 277.86 256.289 278.821 256.289 280C256.289 281.179 255.338 282.14 254.155 282.14H249.691V294.004H254.155V294.011ZM203.358 322.04C206.253 314.087 211.091 306.843 217.588 300.758C219.042 301.664 220.734 302.318 222.467 302.863C223.568 303.204 224.683 303.504 225.763 303.797C226.395 303.967 227.014 304.131 227.598 304.301C227.598 304.301 227.612 304.301 227.618 304.308C227.618 304.308 227.618 304.308 227.632 304.308C227.646 304.308 227.646 304.308 227.652 304.308C238.498 308.86 253.286 307.382 260.333 316.507C261.767 318.36 264.512 318.381 266.007 316.568C273.211 307.825 287.95 308.854 298.762 304.22C298.762 304.206 298.776 304.199 298.783 304.192C299.252 304.063 299.734 303.933 300.23 303.797C302.806 303.102 305.578 302.352 307.862 301.064C307.882 301.051 307.903 301.044 307.923 301.03C308.086 300.935 308.256 300.846 308.412 300.751C314.909 306.843 319.747 314.087 322.649 322.033H203.358V322.04Z" fill="white"/>
</g>
</g>
<rect x="391" y="512" width="360" height="360" rx="20" fill="#D9D9D9"/>
<path d="M521.667 578.5V574.333C521.667 572.123 520.789 570.004 519.226 568.441C517.663 566.878 515.543 566 513.333 566H505C502.79 566 500.67 566.878 499.107 568.441C497.545 570.004 496.667 572.123 496.667 574.333V578.5H488.333V574.333C488.333 572.123 487.455 570.004 485.893 568.441C484.33 566.878 482.21 566 480 566H471.667C469.457 566 467.337 566.878 465.774 568.441C464.211 570.004 463.333 572.123 463.333 574.333V578.5H455V636.833H530V578.5H521.667Z" fill="#FBA91A"/>
<path d="M683.667 578.5V574.333C683.667 572.123 682.789 570.004 681.226 568.441C679.663 566.878 677.543 566 675.333 566H667C664.79 566 662.67 566.878 661.107 568.441C659.545 570.004 658.667 572.123 658.667 574.333V578.5H650.333V574.333C650.333 572.123 649.455 570.004 647.893 568.441C646.33 566.878 644.21 566 642 566H633.667C631.457 566 629.337 566.878 627.774 568.441C626.211 570.004 625.333 572.123 625.333 574.333V578.5H617V636.833H692V578.5H683.667Z" fill="#33A9DC"/>
<path d="M493.396 764.792C490.476 764.792 487.741 765.925 485.671 767.995C483.61 770.065 482.468 772.8 482.468 775.72C482.468 778.64 483.61 781.374 485.671 783.444C487.741 785.505 490.476 786.647 493.396 786.647C496.316 786.647 499.05 785.505 501.12 783.444C503.181 781.374 504.323 778.64 504.323 775.72C504.323 772.8 503.181 770.065 501.12 767.995C500.109 766.976 498.905 766.168 497.579 765.618C496.253 765.069 494.831 764.788 493.396 764.792ZM533.659 787.79L527.273 782.331C527.575 780.476 527.732 778.581 527.732 776.696C527.732 774.812 527.575 772.907 527.273 771.062L533.659 765.603C534.142 765.19 534.487 764.639 534.649 764.025C534.812 763.411 534.783 762.762 534.567 762.165L534.48 761.911C532.722 756.996 530.088 752.44 526.706 748.464L526.53 748.259C526.12 747.776 525.572 747.429 524.96 747.263C524.349 747.098 523.701 747.121 523.103 747.331L515.173 750.153C512.243 747.751 508.982 745.856 505.446 744.538L503.913 736.247C503.798 735.622 503.495 735.048 503.045 734.6C502.594 734.151 502.019 733.851 501.394 733.737L501.13 733.688C496.052 732.771 490.7 732.771 485.622 733.688L485.359 733.737C484.733 733.851 484.158 734.151 483.708 734.6C483.258 735.048 482.955 735.622 482.839 736.247L481.296 744.577C477.794 745.906 474.532 747.796 471.638 750.173L463.65 747.331C463.052 747.12 462.403 747.095 461.791 747.261C461.179 747.426 460.631 747.775 460.222 748.259L460.046 748.464C456.67 752.444 454.037 756.999 452.273 761.911L452.185 762.165C451.745 763.386 452.107 764.753 453.093 765.603L459.558 771.12C459.255 772.956 459.109 774.831 459.109 776.687C459.109 778.562 459.255 780.437 459.558 782.253L453.112 787.771C452.63 788.184 452.285 788.734 452.122 789.348C451.96 789.962 451.989 790.611 452.204 791.208L452.292 791.462C454.06 796.374 456.667 800.915 460.066 804.909L460.241 805.114C460.652 805.597 461.199 805.944 461.811 806.11C462.423 806.276 463.071 806.252 463.669 806.042L471.657 803.2C474.567 805.593 477.81 807.487 481.316 808.796L482.859 817.126C482.974 817.751 483.277 818.325 483.727 818.773C484.177 819.222 484.753 819.522 485.378 819.636L485.642 819.685C490.77 820.607 496.021 820.607 501.15 819.685L501.413 819.636C502.038 819.522 502.614 819.222 503.064 818.773C503.514 818.325 503.817 817.751 503.933 817.126L505.466 808.835C509.001 807.507 512.263 805.622 515.192 803.22L523.122 806.042C523.72 806.253 524.368 806.278 524.981 806.112C525.593 805.947 526.14 805.598 526.55 805.114L526.726 804.909C530.124 800.896 532.732 796.374 534.499 791.462L534.587 791.208C535.007 789.997 534.646 788.64 533.659 787.79ZM493.396 792.888C483.913 792.888 476.228 785.202 476.228 775.72C476.228 766.237 483.913 758.552 493.396 758.552C502.878 758.552 510.564 766.237 510.564 775.72C510.564 785.202 502.878 792.888 493.396 792.888Z" fill="#DE8A85"/>
<path d="M633.667 814L612 776.5L633.667 739H677L698.667 776.5L677 814H633.667Z" fill="#33A9DC"/>
<line x1="612" y1="778" x2="527" y2="778" stroke="white" stroke-width="2" stroke-dasharray="2 2"/>
<circle cx="1395.12" cy="809.476" r="60.4952" fill="#D9D9D9"/>
<path d="M1394.55 788.303L1384.54 770.91L1394.55 753.518H1414.59L1424.61 770.91L1414.59 788.303H1394.55Z" fill="#33A9DC"/>
<path d="M1374.96 802.27V800.135C1374.96 799.002 1374.51 797.916 1373.7 797.116C1372.9 796.315 1371.81 795.865 1370.67 795.865H1366.39C1365.25 795.865 1364.16 796.315 1363.36 797.116C1362.55 797.916 1362.1 799.002 1362.1 800.135V802.27H1357.82V800.135C1357.82 799.002 1357.37 797.916 1356.56 797.116C1355.76 796.315 1354.67 795.865 1353.53 795.865H1349.25C1348.11 795.865 1347.02 796.315 1346.22 797.116C1345.41 797.916 1344.96 799.002 1344.96 800.135V802.27H1340.68V832.162H1379.24V802.27H1374.96Z" fill="#2AAF6F"/>
<path d="M1423.49 828.94C1422.07 828.94 1420.75 829.499 1419.75 830.52C1418.75 831.541 1418.2 832.89 1418.2 834.331C1418.2 835.771 1418.75 837.12 1419.75 838.141C1420.75 839.158 1422.07 839.721 1423.49 839.721C1424.9 839.721 1426.23 839.158 1427.23 838.141C1428.23 837.12 1428.78 835.771 1428.78 834.331C1428.78 832.89 1428.23 831.541 1427.23 830.52C1426.74 830.018 1426.16 829.619 1425.51 829.348C1424.87 829.076 1424.18 828.938 1423.49 828.94ZM1442.99 840.285L1439.89 837.592C1440.04 836.677 1440.12 835.742 1440.12 834.812C1440.12 833.883 1440.04 832.943 1439.89 832.033L1442.99 829.34C1443.22 829.136 1443.39 828.865 1443.47 828.562C1443.54 828.259 1443.53 827.939 1443.43 827.644L1443.38 827.519C1442.53 825.094 1441.26 822.847 1439.62 820.885L1439.53 820.784C1439.33 820.546 1439.07 820.375 1438.77 820.293C1438.48 820.211 1438.16 820.223 1437.87 820.327L1434.03 821.719C1432.61 820.534 1431.04 819.599 1429.32 818.949L1428.58 814.859C1428.52 814.551 1428.38 814.267 1428.16 814.046C1427.94 813.825 1427.66 813.677 1427.36 813.621L1427.23 813.597C1424.77 813.144 1422.18 813.144 1419.72 813.597L1419.6 813.621C1419.29 813.677 1419.01 813.825 1418.8 814.046C1418.58 814.267 1418.43 814.551 1418.37 814.859L1417.63 818.968C1415.93 819.624 1414.35 820.556 1412.95 821.728L1409.08 820.327C1408.79 820.222 1408.48 820.21 1408.18 820.292C1407.89 820.374 1407.62 820.545 1407.42 820.784L1407.34 820.885C1405.7 822.849 1404.43 825.096 1403.57 827.519L1403.53 827.644C1403.32 828.246 1403.49 828.921 1403.97 829.34L1407.1 832.062C1406.95 832.967 1406.88 833.892 1406.88 834.808C1406.88 835.733 1406.95 836.658 1407.1 837.554L1403.98 840.275C1403.75 840.479 1403.58 840.75 1403.5 841.053C1403.42 841.356 1403.43 841.676 1403.54 841.971L1403.58 842.096C1404.44 844.519 1405.7 846.76 1407.35 848.73L1407.43 848.831C1407.63 849.069 1407.9 849.24 1408.19 849.322C1408.49 849.404 1408.8 849.392 1409.09 849.289L1412.96 847.887C1414.37 849.067 1415.94 850.002 1417.64 850.647L1418.38 854.756C1418.44 855.065 1418.59 855.348 1418.81 855.569C1419.02 855.79 1419.3 855.939 1419.6 855.994L1419.73 856.019C1422.22 856.474 1424.76 856.474 1427.24 856.019L1427.37 855.994C1427.67 855.939 1427.95 855.79 1428.17 855.569C1428.39 855.348 1428.53 855.065 1428.59 854.756L1429.33 850.666C1431.04 850.011 1432.62 849.082 1434.04 847.896L1437.88 849.289C1438.17 849.393 1438.49 849.405 1438.78 849.323C1439.08 849.242 1439.34 849.07 1439.54 848.831L1439.63 848.73C1441.27 846.75 1442.54 844.519 1443.39 842.096L1443.44 841.971C1443.64 841.374 1443.46 840.704 1442.99 840.285ZM1423.49 842.8C1418.9 842.8 1415.17 839.008 1415.17 834.331C1415.17 829.653 1418.9 825.862 1423.49 825.862C1428.08 825.862 1431.8 829.653 1431.8 834.331C1431.8 839.008 1428.08 842.8 1423.49 842.8Z" fill="#DE8A85"/>
<circle cx="1533.51" cy="688.486" r="60.4952" fill="#D9D9D9"/>
<path d="M1513.34 681.28V679.145C1513.34 678.012 1512.89 676.926 1512.09 676.125C1511.28 675.324 1510.19 674.874 1509.06 674.874H1504.77C1503.63 674.874 1502.54 675.324 1501.74 676.125C1500.94 676.926 1500.48 678.012 1500.48 679.145V681.28H1496.2V679.145C1496.2 678.012 1495.75 676.926 1494.94 676.125C1494.14 675.324 1493.05 674.874 1491.91 674.874H1487.63C1486.49 674.874 1485.4 675.324 1484.6 676.125C1483.8 676.926 1483.34 678.012 1483.34 679.145V681.28H1479.06V711.171H1517.63V681.28H1513.34Z" fill="#2AAF6F"/>
<path d="M1564 644.983V642.847C1564 641.715 1563.55 640.629 1562.75 639.828C1561.95 639.027 1560.86 638.577 1559.72 638.577H1555.43C1554.3 638.577 1553.21 639.027 1552.4 639.828C1551.6 640.629 1551.15 641.715 1551.15 642.847V644.983H1546.86V642.847C1546.86 641.715 1546.41 640.629 1545.61 639.828C1544.81 639.027 1543.72 638.577 1542.58 638.577H1538.29C1537.16 638.577 1536.07 639.027 1535.26 639.828C1534.46 640.629 1534.01 641.715 1534.01 642.847V644.983H1529.72V674.874H1568.29V644.983H1564Z" fill="#FBA91A"/>
<path d="M1561.87 707.95C1560.46 707.95 1559.13 708.508 1558.13 709.53C1557.13 710.551 1556.58 711.9 1556.58 713.34C1556.58 714.781 1557.13 716.13 1558.13 717.151C1559.13 718.167 1560.46 718.731 1561.87 718.731C1563.28 718.731 1564.61 718.167 1565.61 717.151C1566.61 716.13 1567.16 714.781 1567.16 713.34C1567.16 711.9 1566.61 710.551 1565.61 709.53C1565.12 709.027 1564.54 708.629 1563.9 708.357C1563.25 708.086 1562.57 707.947 1561.87 707.95ZM1581.37 719.295L1578.28 716.602C1578.42 715.686 1578.5 714.752 1578.5 713.822C1578.5 712.892 1578.42 711.953 1578.28 711.042L1581.37 708.349C1581.6 708.146 1581.77 707.874 1581.85 707.571C1581.93 707.269 1581.91 706.948 1581.81 706.654L1581.77 706.528C1580.91 704.104 1579.64 701.856 1578 699.895L1577.92 699.794C1577.72 699.556 1577.45 699.384 1577.16 699.303C1576.86 699.221 1576.55 699.233 1576.26 699.336L1572.42 700.728C1571 699.543 1569.42 698.609 1567.71 697.958L1566.96 693.868C1566.91 693.56 1566.76 693.277 1566.54 693.056C1566.32 692.835 1566.05 692.686 1565.74 692.63L1565.62 692.606C1563.16 692.153 1560.56 692.153 1558.11 692.606L1557.98 692.63C1557.68 692.686 1557.4 692.835 1557.18 693.056C1556.96 693.277 1556.81 693.56 1556.76 693.868L1556.01 697.978C1554.31 698.633 1552.73 699.565 1551.33 700.738L1547.46 699.336C1547.18 699.232 1546.86 699.22 1546.56 699.301C1546.27 699.383 1546 699.555 1545.8 699.794L1545.72 699.895C1544.08 701.858 1542.81 704.105 1541.96 706.528L1541.91 706.654C1541.7 707.256 1541.87 707.93 1542.35 708.349L1545.48 711.071C1545.34 711.977 1545.27 712.902 1545.27 713.817C1545.27 714.742 1545.34 715.667 1545.48 716.563L1542.36 719.285C1542.13 719.489 1541.96 719.76 1541.88 720.063C1541.8 720.366 1541.82 720.686 1541.92 720.981L1541.96 721.106C1542.82 723.529 1544.08 725.769 1545.73 727.739L1545.81 727.841C1546.01 728.079 1546.28 728.25 1546.57 728.332C1546.87 728.413 1547.18 728.402 1547.47 728.298L1551.34 726.896C1552.75 728.077 1554.32 729.011 1556.02 729.657L1556.77 733.766C1556.82 734.074 1556.97 734.357 1557.19 734.579C1557.41 734.8 1557.68 734.948 1557.99 735.004L1558.11 735.028C1560.6 735.483 1563.14 735.483 1565.62 735.028L1565.75 735.004C1566.06 734.948 1566.33 734.8 1566.55 734.579C1566.77 734.357 1566.92 734.074 1566.97 733.766L1567.72 729.676C1569.43 729.021 1571.01 728.091 1572.43 726.906L1576.27 728.298C1576.56 728.403 1576.87 728.415 1577.17 728.333C1577.46 728.251 1577.73 728.079 1577.93 727.841L1578.01 727.739C1579.66 725.759 1580.92 723.529 1581.78 721.106L1581.82 720.981C1582.02 720.383 1581.85 719.714 1581.37 719.295ZM1561.87 721.809C1557.28 721.809 1553.56 718.018 1553.56 713.34C1553.56 708.663 1557.28 704.871 1561.87 704.871C1566.46 704.871 1570.18 708.663 1570.18 713.34C1570.18 718.018 1566.46 721.809 1561.87 721.809Z" fill="#DE8A85"/>
<circle cx="1257.5" cy="688.486" r="60.4952" fill="#D9D9D9"/>
<path d="M1237.33 681.28V679.145C1237.33 678.012 1236.88 676.926 1236.08 676.125C1235.27 675.324 1234.18 674.874 1233.05 674.874H1228.76C1227.62 674.874 1226.53 675.324 1225.73 676.125C1224.93 676.926 1224.48 678.012 1224.48 679.145V681.28H1220.19V679.145C1220.19 678.012 1219.74 676.926 1218.94 676.125C1218.13 675.324 1217.04 674.874 1215.91 674.874H1211.62C1210.48 674.874 1209.39 675.324 1208.59 676.125C1207.79 676.926 1207.33 678.012 1207.33 679.145V681.28H1203.05V711.171H1241.62V681.28H1237.33Z" fill="#2AAF6F"/>
<path d="M1287.99 644.983V642.847C1287.99 641.715 1287.54 640.629 1286.74 639.828C1285.94 639.027 1284.85 638.577 1283.71 638.577H1279.42C1278.29 638.577 1277.2 639.027 1276.39 639.828C1275.59 640.629 1275.14 641.715 1275.14 642.847V644.983H1270.85V642.847C1270.85 641.715 1270.4 640.629 1269.6 639.828C1268.8 639.027 1267.71 638.577 1266.57 638.577H1262.28C1261.15 638.577 1260.06 639.027 1259.25 639.828C1258.45 640.629 1258 641.715 1258 642.847V644.983H1253.71V674.874H1292.28V644.983H1287.99Z" fill="#FBA91A"/>
<path d="M1285.86 707.95C1284.45 707.95 1283.12 708.508 1282.12 709.53C1281.12 710.551 1280.57 711.9 1280.57 713.34C1280.57 714.781 1281.12 716.13 1282.12 717.151C1283.12 718.167 1284.45 718.731 1285.86 718.731C1287.27 718.731 1288.6 718.167 1289.6 717.151C1290.6 716.13 1291.15 714.781 1291.15 713.34C1291.15 711.9 1290.6 710.551 1289.6 709.53C1289.11 709.027 1288.53 708.629 1287.89 708.357C1287.24 708.086 1286.56 707.947 1285.86 707.95ZM1305.36 719.295L1302.27 716.602C1302.41 715.686 1302.49 714.752 1302.49 713.822C1302.49 712.892 1302.41 711.953 1302.27 711.042L1305.36 708.349C1305.59 708.146 1305.76 707.874 1305.84 707.571C1305.92 707.269 1305.9 706.948 1305.8 706.654L1305.76 706.528C1304.9 704.104 1303.63 701.856 1301.99 699.895L1301.91 699.794C1301.71 699.556 1301.44 699.384 1301.15 699.303C1300.85 699.221 1300.54 699.233 1300.25 699.336L1296.41 700.728C1294.99 699.543 1293.41 698.609 1291.7 697.958L1290.95 693.868C1290.9 693.56 1290.75 693.277 1290.53 693.056C1290.31 692.835 1290.04 692.686 1289.73 692.63L1289.61 692.606C1287.15 692.153 1284.55 692.153 1282.1 692.606L1281.97 692.63C1281.67 692.686 1281.39 692.835 1281.17 693.056C1280.95 693.277 1280.8 693.56 1280.75 693.868L1280 697.978C1278.3 698.633 1276.73 699.565 1275.32 700.738L1271.46 699.336C1271.17 699.232 1270.85 699.22 1270.56 699.301C1270.26 699.383 1269.99 699.555 1269.8 699.794L1269.71 699.895C1268.08 701.858 1266.8 704.105 1265.95 706.528L1265.9 706.654C1265.69 707.256 1265.87 707.93 1266.34 708.349L1269.47 711.071C1269.33 711.977 1269.26 712.902 1269.26 713.817C1269.26 714.742 1269.33 715.667 1269.47 716.563L1266.35 719.285C1266.12 719.489 1265.95 719.76 1265.87 720.063C1265.79 720.366 1265.81 720.686 1265.91 720.981L1265.95 721.106C1266.81 723.529 1268.07 725.769 1269.72 727.739L1269.8 727.841C1270 728.079 1270.27 728.25 1270.56 728.332C1270.86 728.413 1271.17 728.402 1271.46 728.298L1275.33 726.896C1276.74 728.077 1278.31 729.011 1280.01 729.657L1280.76 733.766C1280.81 734.074 1280.96 734.357 1281.18 734.579C1281.4 734.8 1281.67 734.948 1281.98 735.004L1282.11 735.028C1284.59 735.483 1287.13 735.483 1289.62 735.028L1289.74 735.004C1290.05 734.948 1290.32 734.8 1290.54 734.579C1290.76 734.357 1290.91 734.074 1290.96 733.766L1291.71 729.676C1293.42 729.021 1295 728.091 1296.42 726.906L1300.26 728.298C1300.55 728.403 1300.86 728.415 1301.16 728.333C1301.45 728.251 1301.72 728.079 1301.92 727.841L1302 727.739C1303.65 725.759 1304.91 723.529 1305.77 721.106L1305.81 720.981C1306.01 720.383 1305.84 719.714 1305.36 719.295ZM1285.86 721.809C1281.27 721.809 1277.55 718.018 1277.55 713.34C1277.55 708.663 1281.27 704.871 1285.86 704.871C1290.45 704.871 1294.17 708.663 1294.17 713.34C1294.17 718.018 1290.45 721.809 1285.86 721.809Z" fill="#DE8A85"/>
<circle cx="1395.12" cy="567.495" r="60.4952" fill="#D9D9D9"/>
<path d="M1394.55 546.322L1384.54 528.93L1394.55 511.537H1414.59L1424.61 528.93L1414.59 546.322H1394.55Z" fill="#33A9DC"/>
<path d="M1374.96 560.289V558.154C1374.96 557.022 1374.51 555.935 1373.7 555.135C1372.9 554.334 1371.81 553.884 1370.67 553.884H1366.39C1365.25 553.884 1364.16 554.334 1363.36 555.135C1362.55 555.935 1362.1 557.022 1362.1 558.154V560.289H1357.82V558.154C1357.82 557.022 1357.37 555.935 1356.56 555.135C1355.76 554.334 1354.67 553.884 1353.53 553.884H1349.25C1348.11 553.884 1347.02 554.334 1346.22 555.135C1345.41 555.935 1344.96 557.022 1344.96 558.154V560.289H1340.68V590.181H1379.24V560.289H1374.96Z" fill="#1572B6"/>
<path d="M1423.49 586.959C1422.07 586.959 1420.75 587.518 1419.75 588.539C1418.75 589.561 1418.2 590.909 1418.2 592.35C1418.2 593.79 1418.75 595.139 1419.75 596.16C1420.75 597.177 1422.07 597.74 1423.49 597.74C1424.9 597.74 1426.23 597.177 1427.23 596.16C1428.23 595.139 1428.78 593.79 1428.78 592.35C1428.78 590.909 1428.23 589.561 1427.23 588.539C1426.74 588.037 1426.16 587.638 1425.51 587.367C1424.87 587.096 1424.18 586.957 1423.49 586.959ZM1442.99 598.304L1439.89 595.611C1440.04 594.696 1440.12 593.761 1440.12 592.832C1440.12 591.902 1440.04 590.962 1439.89 590.052L1442.99 587.359C1443.22 587.155 1443.39 586.884 1443.47 586.581C1443.54 586.278 1443.53 585.958 1443.43 585.663L1443.38 585.538C1442.53 583.113 1441.26 580.866 1439.62 578.904L1439.53 578.803C1439.33 578.565 1439.07 578.394 1438.77 578.312C1438.48 578.23 1438.16 578.242 1437.87 578.346L1434.03 579.738C1432.61 578.553 1431.04 577.618 1429.32 576.968L1428.58 572.878C1428.52 572.57 1428.38 572.286 1428.16 572.065C1427.94 571.844 1427.66 571.696 1427.36 571.64L1427.23 571.616C1424.77 571.163 1422.18 571.163 1419.72 571.616L1419.6 571.64C1419.29 571.696 1419.01 571.844 1418.8 572.065C1418.58 572.286 1418.43 572.57 1418.37 572.878L1417.63 576.987C1415.93 577.643 1414.35 578.575 1412.95 579.748L1409.08 578.346C1408.79 578.241 1408.48 578.229 1408.18 578.311C1407.89 578.393 1407.62 578.564 1407.42 578.803L1407.34 578.904C1405.7 580.868 1404.43 583.115 1403.57 585.538L1403.53 585.663C1403.32 586.265 1403.49 586.94 1403.97 587.359L1407.1 590.081C1406.95 590.986 1406.88 591.911 1406.88 592.827C1406.88 593.752 1406.95 594.677 1407.1 595.573L1403.98 598.294C1403.75 598.498 1403.58 598.77 1403.5 599.072C1403.42 599.375 1403.43 599.695 1403.54 599.99L1403.58 600.115C1404.44 602.539 1405.7 604.779 1407.35 606.749L1407.43 606.85C1407.63 607.088 1407.9 607.26 1408.19 607.341C1408.49 607.423 1408.8 607.411 1409.09 607.308L1412.96 605.906C1414.37 607.086 1415.94 608.021 1417.64 608.666L1418.38 612.775C1418.44 613.084 1418.59 613.367 1418.81 613.588C1419.02 613.809 1419.3 613.958 1419.6 614.014L1419.73 614.038C1422.22 614.493 1424.76 614.493 1427.24 614.038L1427.37 614.014C1427.67 613.958 1427.95 613.809 1428.17 613.588C1428.39 613.367 1428.53 613.084 1428.59 612.775L1429.33 608.685C1431.04 608.03 1432.62 607.101 1434.04 605.915L1437.88 607.308C1438.17 607.412 1438.49 607.424 1438.78 607.342C1439.08 607.261 1439.34 607.089 1439.54 606.85L1439.63 606.749C1441.27 604.769 1442.54 602.539 1443.39 600.115L1443.44 599.99C1443.64 599.393 1443.46 598.723 1442.99 598.304ZM1423.49 600.819C1418.9 600.819 1415.17 597.027 1415.17 592.35C1415.17 587.672 1418.9 583.881 1423.49 583.881C1428.08 583.881 1431.8 587.672 1431.8 592.35C1431.8 597.027 1428.08 600.819 1423.49 600.819Z" fill="#DE8A85"/>
<path d="M655 739L655 637" stroke="white" stroke-width="2" stroke-dasharray="2 2"/>
<line x1="492" y1="733" x2="492" y2="637" stroke="white" stroke-width="2" stroke-dasharray="2 2"/>
<line x1="530" y1="600" x2="617" y2="600" stroke="white" stroke-width="2" stroke-dasharray="2 2"/>
<line x1="1292.37" y1="639.348" x2="1340.01" y2="596.245" stroke="#D9D9D9" stroke-width="2" stroke-dasharray="2 2"/>
<line x1="1498.1" y1="640.878" x2="1442.9" y2="597.775" stroke="#D9D9D9" stroke-width="2" stroke-dasharray="2 2"/>
</g>
<defs>
<filter id="filter0_f_31_32" x="-618.979" y="-735.983" width="1480.68" height="1343.84" filterUnits="userSpaceOnUse" color-interpolation-filters="sRGB">
<feFlood flood-opacity="0" result="BackgroundImageFix"/>
<feBlend mode="normal" in="SourceGraphic" in2="BackgroundImageFix" result="shape"/>
<feGaussianBlur stdDeviation="100" result="effect1_foregroundBlur_31_32"/>
</filter>
<filter id="filter1_f_31_32" x="-612" y="334" width="1772" height="1772" filterUnits="userSpaceOnUse" color-interpolation-filters="sRGB">
<feFlood flood-opacity="0" result="BackgroundImageFix"/>
<feBlend mode="normal" in="SourceGraphic" in2="BackgroundImageFix" result="shape"/>
<feGaussianBlur stdDeviation="100" result="effect1_foregroundBlur_31_32"/>
</filter>
<filter id="filter2_f_31_32" x="661" y="262" width="1747" height="1747" filterUnits="userSpaceOnUse" color-interpolation-filters="sRGB">
<feFlood flood-opacity="0" result="BackgroundImageFix"/>
<feBlend mode="normal" in="SourceGraphic" in2="BackgroundImageFix" result="shape"/>
<feGaussianBlur stdDeviation="100" result="effect1_foregroundBlur_31_32"/>
</filter>
<filter id="filter3_b_31_32" x="109" y="106" width="1700" height="1067" filterUnits="userSpaceOnUse" color-interpolation-filters="sRGB">
<feFlood flood-opacity="0" result="BackgroundImageFix"/>
<feGaussianBlur in="BackgroundImageFix" stdDeviation="6"/>
<feComposite in2="SourceAlpha" operator="in" result="effect1_backgroundBlur_31_32"/>
<feBlend mode="normal" in="SourceGraphic" in2="effect1_backgroundBlur_31_32" result="shape"/>
</filter>
<linearGradient id="paint0_linear_31_32" x1="960" y1="0" x2="960" y2="1280" gradientUnits="userSpaceOnUse">
<stop/>
<stop offset="1" stop-color="#232443"/>
</linearGradient>
<radialGradient id="paint1_radial_31_32" cx="0" cy="0" r="1" gradientUnits="userSpaceOnUse" gradientTransform="translate(212.5 205) rotate(30.698) scale(1774.69 2851.75)">
<stop stop-color="white" stop-opacity="0.7"/>
<stop offset="1" stop-color="white" stop-opacity="0.1"/>
</radialGradient>
<linearGradient id="paint2_linear_31_32" x1="475.39" y1="1327.85" x2="682.637" y2="337.796" gradientUnits="userSpaceOnUse">
<stop stop-color="white" stop-opacity="0.22"/>
<stop offset="1" stop-color="white" stop-opacity="0"/>
</linearGradient>
<clipPath id="clip0_31_32">
<rect width="1920" height="1280" fill="white"/>
</clipPath>
<clipPath id="clip1_31_32">
<rect width="138" height="115" fill="white" transform="translate(194 215)"/>
</clipPath>
</defs>
</svg>
