<svg width="1920" height="1280" viewBox="0 0 1920 1280" fill="none" xmlns="http://www.w3.org/2000/svg">
<g clip-path="url(#clip0_39_37)">
<rect width="1920" height="1280" fill="url(#paint0_linear_39_37)"/>
<g filter="url(#filter0_f_39_37)">
<path d="M-418.98 391.97L135.124 -535.983L661.703 407.861L-418.98 391.97Z" fill="#F7DF1E"/>
</g>
<g filter="url(#filter1_f_39_37)">
<circle cx="274" cy="1220" r="686" fill="#3381BB"/>
<circle cx="274" cy="1220" r="686" fill="#3381BB"/>
<circle cx="274" cy="1220" r="686" fill="#F7DF1E"/>
</g>
<g filter="url(#filter2_f_39_37)">
<circle cx="1534.5" cy="1135.5" r="673.5" fill="#3381BB"/>
<circle cx="1534.5" cy="1135.5" r="673.5" fill="#3381BB"/>
<circle cx="1534.5" cy="1135.5" r="673.5" fill="#F7DF1E"/>
</g>
<g filter="url(#filter3_b_39_37)">
<rect x="121" y="118" width="1676" height="1043" rx="100" fill="url(#paint1_radial_39_37)" fill-opacity="0.6"/>
<rect x="121.5" y="118.5" width="1675" height="1042" rx="99.5" stroke="white" stroke-opacity="0.5" style="mix-blend-mode:overlay"/>
</g>
<path d="M1224.23 261.683L814.859 1104.68C798.131 1139.13 763.199 1161 724.905 1161H220C164.772 1161 120 1116.23 120 1061V218C120 162.772 164.771 118 220 118H1134.27C1208.1 118 1256.48 195.267 1224.23 261.683Z" fill="url(#paint2_linear_39_37)"/>
<path d="M878.813 587.536C873.373 587.536 868.317 586.672 863.645 584.944C859.037 583.216 855.037 580.784 851.645 577.648C848.253 574.448 845.597 570.704 843.677 566.416C841.821 562.128 840.893 557.456 840.893 552.4C840.893 547.28 841.821 542.608 843.677 538.384C845.597 534.096 848.253 530.384 851.645 527.248C855.037 524.048 859.037 521.584 863.645 519.856C868.317 518.128 873.373 517.264 878.813 517.264C884.317 517.264 889.373 518.128 893.981 519.856C898.589 521.584 902.589 524.048 905.981 527.248C909.373 530.384 911.997 534.096 913.853 538.384C915.773 542.608 916.733 547.28 916.733 552.4C916.733 557.456 915.773 562.128 913.853 566.416C911.997 570.704 909.373 574.448 905.981 577.648C902.589 580.784 898.589 583.216 893.981 584.944C889.373 586.672 884.317 587.536 878.813 587.536ZM878.813 569.2C880.925 569.2 882.877 568.816 884.669 568.048C886.525 567.28 888.125 566.192 889.469 564.784C890.877 563.312 891.965 561.552 892.733 559.504C893.501 557.392 893.885 555.024 893.885 552.4C893.885 549.776 893.501 547.44 892.733 545.392C891.965 543.28 890.877 541.52 889.469 540.112C888.125 538.64 886.525 537.52 884.669 536.752C882.877 535.984 880.925 535.6 878.813 535.6C876.701 535.6 874.717 535.984 872.861 536.752C871.069 537.52 869.469 538.64 868.061 540.112C866.717 541.52 865.661 543.28 864.893 545.392C864.125 547.44 863.741 549.776 863.741 552.4C863.741 555.024 864.125 557.392 864.893 559.504C865.661 561.552 866.717 563.312 868.061 564.784C869.469 566.192 871.069 567.28 872.861 568.048C874.717 568.816 876.701 569.2 878.813 569.2ZM924.956 586V518.8H957.308C963.58 518.8 968.988 519.824 973.532 521.872C978.14 523.92 981.692 526.864 984.188 530.704C986.684 534.48 987.932 538.96 987.932 544.144C987.932 549.328 986.684 553.808 984.188 557.584C981.692 561.36 978.14 564.304 973.532 566.416C968.988 568.464 963.58 569.488 957.308 569.488H937.532L947.612 559.792V586H924.956ZM947.612 562.288L937.532 552.016H955.868C959.004 552.016 961.308 551.312 962.78 549.904C964.316 548.496 965.084 546.576 965.084 544.144C965.084 541.712 964.316 539.792 962.78 538.384C961.308 536.976 959.004 536.272 955.868 536.272H937.532L947.612 526V562.288ZM1008.45 586V536.368H988.775V518.8H1050.79V536.368H1031.11V586H1008.45ZM1056.68 586V518.8H1079.33V586H1056.68ZM1125.47 587.536C1120.03 587.536 1114.97 586.672 1110.3 584.944C1105.69 583.216 1101.69 580.784 1098.3 577.648C1094.91 574.448 1092.25 570.704 1090.33 566.416C1088.48 562.128 1087.55 557.456 1087.55 552.4C1087.55 547.28 1088.48 542.608 1090.33 538.384C1092.25 534.096 1094.91 530.384 1098.3 527.248C1101.69 524.048 1105.69 521.584 1110.3 519.856C1114.97 518.128 1120.03 517.264 1125.47 517.264C1130.97 517.264 1136.03 518.128 1140.64 519.856C1145.25 521.584 1149.25 524.048 1152.64 527.248C1156.03 530.384 1158.65 534.096 1160.51 538.384C1162.43 542.608 1163.39 547.28 1163.39 552.4C1163.39 557.456 1162.43 562.128 1160.51 566.416C1158.65 570.704 1156.03 574.448 1152.64 577.648C1149.25 580.784 1145.25 583.216 1140.64 584.944C1136.03 586.672 1130.97 587.536 1125.47 587.536ZM1125.47 569.2C1127.58 569.2 1129.53 568.816 1131.33 568.048C1133.18 567.28 1134.78 566.192 1136.13 564.784C1137.53 563.312 1138.62 561.552 1139.39 559.504C1140.16 557.392 1140.54 555.024 1140.54 552.4C1140.54 549.776 1140.16 547.44 1139.39 545.392C1138.62 543.28 1137.53 541.52 1136.13 540.112C1134.78 538.64 1133.18 537.52 1131.33 536.752C1129.53 535.984 1127.58 535.6 1125.47 535.6C1123.36 535.6 1121.37 535.984 1119.52 536.752C1117.73 537.52 1116.13 538.64 1114.72 540.112C1113.37 541.52 1112.32 543.28 1111.55 545.392C1110.78 547.44 1110.4 549.776 1110.4 552.4C1110.4 555.024 1110.78 557.392 1111.55 559.504C1112.32 561.552 1113.37 563.312 1114.72 564.784C1116.13 566.192 1117.73 567.28 1119.52 568.048C1121.37 568.816 1123.36 569.2 1125.47 569.2ZM1171.61 586V518.8H1190.24L1224.41 559.696H1215.77V518.8H1237.85V586H1219.23L1185.05 545.104H1193.69V586H1171.61ZM1241.47 586L1270.85 518.8H1293.12L1322.5 586H1299.07L1277.38 529.552H1286.21L1264.51 586H1241.47ZM1258.94 574.288L1264.7 557.968H1295.62L1301.38 574.288H1258.94ZM1326.11 586V518.8H1348.77V568.432H1379.1V586H1326.11ZM888.646 704.536C883.27 704.536 878.278 703.704 873.67 702.04C869.126 700.312 865.158 697.88 861.766 694.744C858.438 691.608 855.846 687.896 853.99 683.608C852.134 679.32 851.206 674.584 851.206 669.4C851.206 664.216 852.134 659.48 853.99 655.192C855.846 650.904 858.438 647.192 861.766 644.056C865.158 640.92 869.126 638.52 873.67 636.856C878.278 635.128 883.27 634.264 888.646 634.264C895.238 634.264 901.062 635.416 906.118 637.72C911.238 640.024 915.462 643.352 918.79 647.704L904.486 660.472C902.502 657.976 900.294 656.056 897.862 654.712C895.494 653.304 892.806 652.6 889.798 652.6C887.43 652.6 885.286 652.984 883.366 653.752C881.446 654.52 879.782 655.64 878.374 657.112C877.03 658.584 875.974 660.376 875.206 662.488C874.438 664.536 874.054 666.84 874.054 669.4C874.054 671.96 874.438 674.296 875.206 676.408C875.974 678.456 877.03 680.216 878.374 681.688C879.782 683.16 881.446 684.28 883.366 685.048C885.286 685.816 887.43 686.2 889.798 686.2C892.806 686.2 895.494 685.528 897.862 684.184C900.294 682.776 902.502 680.824 904.486 678.328L918.79 691.096C915.462 695.384 911.238 698.712 906.118 701.08C901.062 703.384 895.238 704.536 888.646 704.536ZM968.915 635.8H991.571V703H968.915V635.8ZM947.987 703H925.331V635.8H947.987V703ZM970.451 678.232H946.451V659.608H970.451V678.232ZM995.192 703L1024.57 635.8H1046.84L1076.22 703H1052.79L1031.1 646.552H1039.93L1018.23 703H995.192ZM1012.66 691.288L1018.42 674.968H1049.34L1055.1 691.288H1012.66ZM1079.83 703V635.8H1102.49V703H1079.83ZM1113.39 703V635.8H1132.02L1166.19 676.696H1157.55V635.8H1179.63V703H1161.01L1126.83 662.104H1135.47V703H1113.39ZM1190.55 703V635.8H1213.21V703H1190.55ZM1224.11 703V635.8H1242.74L1276.91 676.696H1268.27V635.8H1290.35V703H1271.73L1237.55 662.104H1246.19V703H1224.11ZM1336.12 704.536C1330.68 704.536 1325.65 703.704 1321.04 702.04C1316.5 700.312 1312.53 697.88 1309.14 694.744C1305.81 691.608 1303.22 687.896 1301.36 683.608C1299.51 679.32 1298.58 674.584 1298.58 669.4C1298.58 664.216 1299.51 659.48 1301.36 655.192C1303.22 650.904 1305.84 647.192 1309.24 644.056C1312.63 640.92 1316.63 638.52 1321.24 636.856C1325.91 635.128 1331.03 634.264 1336.6 634.264C1343.25 634.264 1349.17 635.384 1354.36 637.624C1359.6 639.864 1363.92 643.064 1367.32 647.224L1352.82 659.992C1350.71 657.56 1348.4 655.736 1345.91 654.52C1343.48 653.24 1340.76 652.6 1337.75 652.6C1335.25 652.6 1332.98 652.984 1330.93 653.752C1328.95 654.52 1327.25 655.64 1325.84 657.112C1324.44 658.584 1323.35 660.344 1322.58 662.392C1321.81 664.44 1321.43 666.776 1321.43 669.4C1321.43 671.896 1321.81 674.2 1322.58 676.312C1323.35 678.36 1324.44 680.12 1325.84 681.592C1327.25 683.064 1328.92 684.216 1330.84 685.048C1332.82 685.816 1335.03 686.2 1337.46 686.2C1340.02 686.2 1342.52 685.784 1344.95 684.952C1347.38 684.056 1349.97 682.552 1352.72 680.44L1365.4 695.992C1361.3 698.744 1356.63 700.856 1351.38 702.328C1346.13 703.8 1341.04 704.536 1336.12 704.536ZM1345.72 693.112V667.576H1365.4V695.992L1345.72 693.112Z" fill="black"/>
<path d="M1439.74 635.25C1439.74 629.75 1440.57 624.917 1442.24 620.75C1444.07 616.417 1446.32 612.583 1448.99 609.25C1451.66 605.917 1454.49 602.917 1457.49 600.25C1460.66 597.417 1463.57 594.75 1466.24 592.25C1468.91 589.583 1471.07 586.917 1472.74 584.25C1474.57 581.583 1475.49 578.667 1475.49 575.5C1475.49 570.5 1473.41 566.583 1469.24 563.75C1465.24 560.917 1459.99 559.5 1453.49 559.5C1446.82 559.5 1440.74 561.083 1435.24 564.25C1429.91 567.417 1425.57 571.833 1422.24 577.5L1384.99 557.5C1391.49 546.333 1400.91 537.417 1413.24 530.75C1425.57 523.917 1440.91 520.5 1459.24 520.5C1472.07 520.5 1483.41 522.333 1493.24 526C1503.24 529.5 1511.07 534.75 1516.74 541.75C1522.41 548.75 1525.24 557.333 1525.24 567.5C1525.24 574 1524.24 579.667 1522.24 584.5C1520.24 589.333 1517.66 593.583 1514.49 597.25C1511.49 600.917 1508.24 604.333 1504.74 607.5C1501.24 610.5 1497.91 613.417 1494.74 616.25C1491.74 619.083 1489.24 622 1487.24 625C1485.24 628 1484.24 631.417 1484.24 635.25H1439.74ZM1461.99 701.25C1453.82 701.25 1447.07 698.667 1441.74 693.5C1436.41 688.333 1433.74 682.167 1433.74 675C1433.74 667.667 1436.41 661.583 1441.74 656.75C1447.07 651.75 1453.82 649.25 1461.99 649.25C1470.49 649.25 1477.32 651.75 1482.49 656.75C1487.82 661.583 1490.49 667.667 1490.49 675C1490.49 682.167 1487.82 688.333 1482.49 693.5C1477.32 698.667 1470.49 701.25 1461.99 701.25ZM1558.71 701.25C1550.71 701.25 1543.96 698.583 1538.46 693.25C1532.96 687.917 1530.21 681.167 1530.21 673C1530.21 664.5 1532.96 657.75 1538.46 652.75C1543.96 647.583 1550.71 645 1558.71 645C1566.71 645 1573.46 647.583 1578.96 652.75C1584.46 657.75 1587.21 664.5 1587.21 673C1587.21 681.167 1584.46 687.917 1578.96 693.25C1573.46 698.583 1566.71 701.25 1558.71 701.25Z" fill="black"/>
<g clip-path="url(#clip1_39_37)">
<mask id="mask0_39_37" style="mask-type:luminance" maskUnits="userSpaceOnUse" x="194" y="215" width="138" height="115">
<path d="M332 215H194V330H332V215Z" fill="white"/>
</mask>
<g mask="url(#mask0_39_37)">
<path d="M331.844 324.93C328.854 313.256 322.377 302.7 313.054 294.222C313.094 294.093 313.122 293.956 313.162 293.82C313.21 293.65 313.258 293.473 313.298 293.295C313.387 292.941 313.461 292.58 313.529 292.219C313.563 292.055 313.59 291.892 313.618 291.721C313.686 291.299 313.74 290.869 313.781 290.433C313.794 290.324 313.808 290.208 313.815 290.099C313.862 289.534 313.89 288.961 313.89 288.382C313.89 287.734 313.862 287.067 313.822 286.385C313.203 274.364 307.162 257.613 298.062 242.954C292.85 234.552 278.994 215 263.003 215C262.902 215 262.8 215.014 262.698 215.014C246.83 215.252 233.109 234.606 227.924 242.954C218.818 257.627 212.77 274.398 212.165 286.419C212.124 287.087 212.104 287.741 212.104 288.375C212.104 288.954 212.131 289.513 212.172 290.072C212.185 290.222 212.206 290.372 212.219 290.522C212.26 290.91 212.301 291.299 212.362 291.68C212.396 291.885 212.43 292.082 212.471 292.28C212.532 292.607 212.6 292.927 212.681 293.248C212.729 293.452 212.783 293.65 212.838 293.854C212.872 293.977 212.899 294.1 212.933 294.222C203.609 302.707 197.14 313.276 194.143 324.964C194.116 325.059 194.102 325.155 194.082 325.243C194.082 325.277 194.068 325.305 194.061 325.332C194.061 325.345 194.061 325.359 194.061 325.366C194.048 325.455 194.034 325.55 194.027 325.639C194.027 325.659 194.027 325.686 194.02 325.707C194.02 325.734 194.02 325.768 194.02 325.795C194.02 325.87 194.007 325.938 194.007 326.013C194.007 326.79 194.231 327.513 194.618 328.126C194.686 328.235 194.761 328.344 194.843 328.439C195.366 329.114 196.1 329.612 196.949 329.836C196.963 329.836 196.983 329.85 196.997 329.857C197.011 329.857 197.024 329.857 197.038 329.857C197.153 329.884 197.269 329.905 197.391 329.925C197.391 329.925 197.398 329.925 197.405 329.925C197.445 329.932 197.493 329.939 197.534 329.945C197.534 329.945 197.541 329.945 197.547 329.945C197.683 329.959 197.819 329.966 197.955 329.966C197.962 329.966 197.976 329.966 197.982 329.966H328.031C328.364 329.966 328.684 329.918 328.99 329.843C328.99 329.843 329.003 329.843 329.01 329.843C329.017 329.843 329.023 329.843 329.03 329.836C330.736 329.393 332 327.84 332 325.986C332 325.611 331.946 325.243 331.844 324.896V324.93ZM235.868 247.227C245.443 232.487 256.092 222.96 263.003 222.96C263.044 222.96 263.078 222.96 263.119 222.96C270.03 223.069 280.611 232.569 290.132 247.227C299.598 261.804 305.959 278.344 305.959 288.382C305.959 290.365 305.585 292.035 304.81 293.507C304.743 293.622 304.627 293.738 304.477 293.854C304.477 293.854 304.477 293.854 304.471 293.854C304.403 293.902 304.328 293.956 304.246 294.004C304.233 294.018 304.212 294.025 304.199 294.038C304.131 294.079 304.056 294.12 303.981 294.161C303.934 294.188 303.893 294.209 303.839 294.236C303.39 294.461 302.833 294.686 302.228 294.904C302.378 293.902 302.466 292.886 302.486 291.857C302.5 291.701 302.5 291.537 302.5 291.38C302.5 274.691 284.858 266.091 263.105 266.091C241.352 266.091 223.711 274.691 223.711 291.38C223.711 291.537 223.711 291.701 223.724 291.857C223.745 292.907 223.833 293.95 223.989 294.965C223.344 294.74 222.739 294.508 222.25 294.27C222.223 294.256 222.189 294.243 222.161 294.222C222.093 294.188 222.025 294.154 221.964 294.113C221.89 294.072 221.815 294.031 221.754 293.984C221.72 293.963 221.679 293.936 221.645 293.916C221.57 293.861 221.502 293.813 221.441 293.759C221.421 293.745 221.4 293.725 221.387 293.711C221.312 293.643 221.258 293.575 221.217 293.507C220.442 292.035 220.068 290.358 220.068 288.375C220.068 278.344 226.429 261.804 235.895 247.22L235.868 247.227ZM271.845 282.146C270.669 282.146 269.711 281.192 269.711 280.007C269.711 278.821 270.669 277.867 271.845 277.867H278.457C279.632 277.867 280.591 278.828 280.591 280.007V296.158C280.591 297.343 279.632 298.298 278.457 298.298H271.845C270.669 298.298 269.711 297.343 269.711 296.158C269.711 294.972 270.669 294.018 271.845 294.018H276.316V282.153H271.845V282.146ZM268.807 276.729L261.271 300.724C260.985 301.644 260.142 302.223 259.232 302.223C259.021 302.223 258.804 302.196 258.593 302.127C257.472 301.773 256.84 300.567 257.2 299.442L264.73 275.447C265.083 274.316 266.286 273.689 267.407 274.044C268.535 274.398 269.16 275.604 268.807 276.729ZM254.155 294.011C255.338 294.011 256.289 294.972 256.289 296.151C256.289 297.33 255.338 298.291 254.155 298.291H247.55C246.368 298.291 245.416 297.337 245.416 296.151V280C245.416 278.821 246.368 277.86 247.55 277.86H254.155C255.338 277.86 256.289 278.821 256.289 280C256.289 281.179 255.338 282.14 254.155 282.14H249.691V294.004H254.155V294.011ZM203.358 322.04C206.253 314.087 211.091 306.843 217.588 300.758C219.042 301.664 220.734 302.318 222.467 302.863C223.568 303.204 224.683 303.504 225.763 303.797C226.395 303.967 227.014 304.131 227.598 304.301C227.598 304.301 227.612 304.301 227.618 304.308C227.618 304.308 227.618 304.308 227.632 304.308C227.646 304.308 227.646 304.308 227.652 304.308C238.498 308.86 253.286 307.382 260.333 316.507C261.767 318.36 264.512 318.381 266.007 316.568C273.211 307.825 287.95 308.854 298.762 304.22C298.762 304.206 298.776 304.199 298.783 304.192C299.252 304.063 299.734 303.933 300.23 303.797C302.806 303.102 305.578 302.352 307.862 301.064C307.882 301.051 307.903 301.044 307.923 301.03C308.086 300.935 308.256 300.846 308.412 300.751C314.909 306.843 319.747 314.087 322.649 322.033H203.358V322.04Z" fill="black"/>
</g>
</g>
<ellipse cx="538" cy="774.5" rx="217" ry="59.5" fill="#483113" fill-opacity="0.73"/>
<g clip-path="url(#clip2_39_37)">
<path d="M373 445H703V775H373V445Z" fill="#F7DF1E"/>
<path d="M459.769 720.772L485.022 705.489C489.895 714.127 494.327 721.436 504.957 721.436C515.147 721.436 521.573 717.45 521.573 701.945V596.502H552.584V702.383C552.584 734.503 533.756 749.123 506.286 749.123C481.478 749.123 467.078 736.275 459.768 720.769M569.429 717.449L594.679 702.829C601.326 713.684 609.966 721.659 625.249 721.659C638.1 721.659 646.293 715.234 646.293 706.373C646.293 695.741 637.875 691.974 623.698 685.774L615.947 682.448C593.573 672.926 578.732 660.963 578.732 635.71C578.732 612.451 596.453 594.729 624.143 594.729C643.858 594.729 658.035 601.597 668.224 619.539L644.077 635.047C638.76 625.522 633.003 621.756 624.142 621.756C615.059 621.756 609.299 627.516 609.299 635.047C609.299 644.35 615.059 648.118 628.349 653.877L636.101 657.199C662.463 668.498 677.304 680.015 677.304 705.931C677.304 733.844 655.374 749.127 625.913 749.127C597.116 749.127 578.509 735.394 569.427 717.45" fill="black"/>
</g>
</g>
<defs>
<filter id="filter0_f_39_37" x="-618.979" y="-735.983" width="1480.68" height="1343.84" filterUnits="userSpaceOnUse" color-interpolation-filters="sRGB">
<feFlood flood-opacity="0" result="BackgroundImageFix"/>
<feBlend mode="normal" in="SourceGraphic" in2="BackgroundImageFix" result="shape"/>
<feGaussianBlur stdDeviation="100" result="effect1_foregroundBlur_39_37"/>
</filter>
<filter id="filter1_f_39_37" x="-612" y="334" width="1772" height="1772" filterUnits="userSpaceOnUse" color-interpolation-filters="sRGB">
<feFlood flood-opacity="0" result="BackgroundImageFix"/>
<feBlend mode="normal" in="SourceGraphic" in2="BackgroundImageFix" result="shape"/>
<feGaussianBlur stdDeviation="100" result="effect1_foregroundBlur_39_37"/>
</filter>
<filter id="filter2_f_39_37" x="661" y="262" width="1747" height="1747" filterUnits="userSpaceOnUse" color-interpolation-filters="sRGB">
<feFlood flood-opacity="0" result="BackgroundImageFix"/>
<feBlend mode="normal" in="SourceGraphic" in2="BackgroundImageFix" result="shape"/>
<feGaussianBlur stdDeviation="100" result="effect1_foregroundBlur_39_37"/>
</filter>
<filter id="filter3_b_39_37" x="109" y="106" width="1700" height="1067" filterUnits="userSpaceOnUse" color-interpolation-filters="sRGB">
<feFlood flood-opacity="0" result="BackgroundImageFix"/>
<feGaussianBlur in="BackgroundImageFix" stdDeviation="6"/>
<feComposite in2="SourceAlpha" operator="in" result="effect1_backgroundBlur_39_37"/>
<feBlend mode="normal" in="SourceGraphic" in2="effect1_backgroundBlur_39_37" result="shape"/>
</filter>
<linearGradient id="paint0_linear_39_37" x1="960" y1="0" x2="960" y2="1280" gradientUnits="userSpaceOnUse">
<stop stop-color="#F7DF1E"/>
<stop offset="1" stop-color="#F7DF1E"/>
</linearGradient>
<radialGradient id="paint1_radial_39_37" cx="0" cy="0" r="1" gradientUnits="userSpaceOnUse" gradientTransform="translate(212.5 205) rotate(30.698) scale(1774.69 2851.75)">
<stop stop-color="white" stop-opacity="0.7"/>
<stop offset="1" stop-color="white" stop-opacity="0.1"/>
</radialGradient>
<linearGradient id="paint2_linear_39_37" x1="475.39" y1="1327.85" x2="682.637" y2="337.796" gradientUnits="userSpaceOnUse">
<stop stop-color="white" stop-opacity="0.22"/>
<stop offset="1" stop-color="white" stop-opacity="0"/>
</linearGradient>
<clipPath id="clip0_39_37">
<rect width="1920" height="1280" fill="white"/>
</clipPath>
<clipPath id="clip1_39_37">
<rect width="138" height="115" fill="white" transform="translate(194 215)"/>
</clipPath>
<clipPath id="clip2_39_37">
<rect width="330" height="330" fill="white" transform="translate(373 445)"/>
</clipPath>
</defs>
</svg>
